<?xml version="1.0" encoding="utf-8"?>
<!-- Generator: Adobe Illustrator 22.0.1, SVG Export Plug-In . SVG Version: 6.00 Build 0)  -->
<svg version="1.1" id="Layer_1" xmlns="http://www.w3.org/2000/svg" xmlns:xlink="http://www.w3.org/1999/xlink" x="0px" y="0px"
	 viewBox="0 0 379 379" style="enable-background:new 0 0 379 379;" xml:space="preserve">
<style type="text/css">
	.st0{fill:#7A66FA;}
</style>
<g>
	<g>
		<path class="st0" d="M189.5,0C85,0,0,85,0,189.5S85,379,189.5,379S379,294,379,189.5S294,0,189.5,0z M189.5,361.5
			c-94.8,0-172-77.2-172-172s77.2-172,172-172s172,77.2,172,172S284.3,361.5,189.5,361.5z"/>
		<path class="st0" d="M189.6,105.7c-41.1,0-68.4,30.3-68.4,79.8v8.2c0,49,27.1,79.6,68.4,79.6c42.7,0,68.2-31.3,68.2-80.3v-8.2
			C257.8,135.8,230.7,105.7,189.6,105.7z M227.5,193c0,37.2-11.9,56.1-37.2,56.1c-24.6,0-38.5-18.5-38.5-55.7v-8.2
			c0-36.5,13.5-55.9,38.1-55.9s37.6,20.8,37.6,55.7V193z"/>
	</g>
</g>
</svg>
