<?xml version="1.0" encoding="utf-8"?>
<!-- Generator: Adobe Illustrator 22.0.1, SVG Export Plug-In . SVG Version: 6.00 Build 0)  -->
<svg version="1.1" id="Layer_1" xmlns="http://www.w3.org/2000/svg" xmlns:xlink="http://www.w3.org/1999/xlink" x="0px" y="0px"
	 viewBox="0 0 379 379" style="enable-background:new 0 0 379 379;" xml:space="preserve">
<style type="text/css">
	.st0{fill:#7A66FA;}
</style>
<g>
	<path class="st0" d="M191.5,0C87,0,2,85,2,189.5S87,379,191.5,379S381,294,381,189.5S296,0,191.5,0z M191.5,361.5
		c-94.8,0-172-77.2-172-172s77.2-172,172-172s172,77.2,172,172S286.3,361.5,191.5,361.5z"/>
	<path class="st0" d="M177.7,175.5c7.3-7.5,11.6-18,11.6-29.9c0-11.6-4.8-21.4-12.3-28.7c-8-7.1-18.7-11.2-30.8-11.2
		c-12.5,0-23.3,4.3-30.8,11.6c-8,7.3-12.5,17.3-12.5,29c0,11.9,4.1,22.1,11.6,29.4c7.3,7.3,18,11.9,31.5,11.9
		C159,187.6,170.2,183,177.7,175.5z M132.8,146c0-10.7,5-17.1,13.5-17.1c8.4,0,13,6.6,13,17.3s-4.6,17.6-13,17.6
		C137.8,163.8,132.8,157.7,132.8,146z"/>
	<path class="st0" d="M267.8,202.6c-7.5-7.1-18.7-11.2-30.8-11.2c-12.5,0-23.3,4.3-30.8,11.6c-8,7.3-12.5,17.3-12.5,29
		c0,11.9,4.1,22.1,11.6,29.4c7.3,7.3,18,11.9,31.5,11.9c13,0,24.2-4.6,31.7-12.1c7.3-7.5,11.6-18,11.6-29.9S275.3,209.7,267.8,202.6
		z M237,249.4c-8.2,0-13.2-5.9-13.2-17.6c0-10.7,5-17.1,13.2-17.1c8.9,0,13.2,6.4,13.2,17.1C250.2,242.8,245.9,249.4,237,249.4z"/>
	<polygon class="st0" points="237.2,107.5 124.1,270.6 146.4,270.6 259.6,107.5 	"/>
</g>
</svg>
