<?xml version="1.0" encoding="utf-8"?>
<!-- Generator: Adobe Illustrator 22.0.1, SVG Export Plug-In . SVG Version: 6.00 Build 0)  -->
<svg version="1.1" id="Layer_1" xmlns="http://www.w3.org/2000/svg" xmlns:xlink="http://www.w3.org/1999/xlink" x="0px" y="0px"
	 viewBox="0 0 379 379" style="enable-background:new 0 0 379 379;" xml:space="preserve">
<style type="text/css">
	.st0{fill:#7A66FA;}
</style>
<g>
	<path class="st0" d="M189.5,0C85,0,0,85,0,189.5S85,379,189.5,379S379,294,379,189.5S294,0,189.5,0z M189.5,361.5
		c-94.8,0-172-77.2-172-172s77.2-172,172-172s172,77.2,172,172S284.3,361.5,189.5,361.5z"/>
	<path class="st0" d="M197.9,164.8c-19.4,0-32.8,8.2-40.4,21c0.9-37.4,15.3-56.6,37.2-56.6c15.7,0,22.1,7.1,25.1,19.6h28.3
		c-3.9-28.5-23.3-43.1-53.1-43.1c-39.2,0-67.5,30.8-67.5,87.4v3.9c0,42.9,16.4,76.4,63.9,76.4c37,0,60.2-22.4,60.2-55.4
		C251.5,186.2,229.2,164.8,197.9,164.8z M190.9,251c-18.5,0-31.5-12.3-31.5-34.2c0-18.2,13-31,31.5-31c18.9,0,30.6,13,30.6,32.8
		C221.4,238,209.1,251,190.9,251z"/>
</g>
</svg>
