<?xml version="1.0" encoding="utf-8"?>
<!-- Generator: Adobe Illustrator 22.0.1, SVG Export Plug-In . SVG Version: 6.00 Build 0)  -->
<svg version="1.1" id="Layer_1" xmlns="http://www.w3.org/2000/svg" xmlns:xlink="http://www.w3.org/1999/xlink" x="0px" y="0px"
	 viewBox="63.5 459.7 42 42" style="enable-background:new 63.5 459.7 42 42;" xml:space="preserve">
<style type="text/css">
	.st0{fill:#7B66FE;}
	.st1{fill:#FFFFFF;}
</style>
<path class="st0" d="M103.5,501.7h-38c-1.1,0-2-0.9-2-2v-38c0-1.1,0.9-2,2-2h38c1.1,0,2,0.9,2,2v38
	C105.5,500.8,104.6,501.7,103.5,501.7z"/>
<path class="st1" d="M91.4,475L91.4,475c-0.8-1-2-1.5-3.3-1.5c-1.2,0-2.3,0.5-3.2,1.5l-0.4,0.5l-0.4-0.5c-0.9-1-1.9-1.5-3.2-1.5
	c-1.3,0-2.5,0.5-3.3,1.5c-0.8,0.9-1.2,2.1-1.2,3.4c0,1.4,0.5,2.7,1.7,4c1,1.2,2.4,2.4,4,3.7l0,0c0.6,0.5,1.2,1,1.8,1.6l0,0
	c0.2,0.1,0.4,0.2,0.6,0.2c0.2,0,0.4-0.1,0.6-0.2l0,0c0.7-0.6,1.3-1.1,1.8-1.6l0,0c1.6-1.4,3-2.6,4-3.7c1.1-1.4,1.7-2.6,1.7-4
	C92.6,477.1,92.2,475.9,91.4,475z M85.8,484.7L85.8,484.7c-0.3,0.3-0.6,0.5-0.9,0.8l-0.4,0.3l-0.4-0.3c-0.3-0.3-0.6-0.5-0.9-0.8l0,0
	c-3-2.6-5-4.3-5-6.4c0-0.8,0.3-1.6,0.8-2.2h0c0.5-0.6,1.2-0.9,1.9-0.9c0.6,0,1.4,0.2,2.1,1.2c0.4,0.5,0.6,1,0.6,1.2
	c0.1,0.4,0.5,0.6,0.9,0.6c0.4,0,0.7-0.3,0.9-0.6c0.1-0.2,0.3-0.7,0.6-1.3c0.7-1,1.5-1.2,2.1-1.2c0.8,0,1.4,0.3,1.9,0.9
	c0.5,0.6,0.8,1.4,0.8,2.2C90.8,480.5,88.8,482.2,85.8,484.7z"/>
</svg>
