<?xml version="1.0" encoding="utf-8"?>
<!-- Generator: Adobe Illustrator 22.0.1, SVG Export Plug-In . SVG Version: 6.00 Build 0)  -->
<svg version="1.1" id="Layer_1" xmlns="http://www.w3.org/2000/svg" xmlns:xlink="http://www.w3.org/1999/xlink" x="0px" y="0px"
	 viewBox="87.3 455.9 42 42" style="enable-background:new 87.3 455.9 42 42;" xml:space="preserve">
<style type="text/css">
	.st0{fill:#7B66FE;}
</style>
<g>
	<g>
		<g>
			<g>
				<path class="st0" d="M115.2,471.2L115.2,471.2c-0.8-1-2-1.5-3.3-1.5c-1.2,0-2.3,0.5-3.2,1.5l-0.4,0.5l-0.4-0.5
					c-0.9-1-1.9-1.5-3.2-1.5c-1.3,0-2.5,0.5-3.3,1.5c-0.8,0.9-1.2,2.1-1.2,3.4c0,1.4,0.5,2.7,1.7,4c1,1.2,2.4,2.4,4,3.7l0,0
					c0.6,0.5,1.2,1,1.8,1.6l0,0c0.2,0.1,0.4,0.2,0.6,0.2c0.2,0,0.4-0.1,0.6-0.2l0,0c0.7-0.6,1.3-1.1,1.8-1.6l0,0
					c1.6-1.4,3-2.6,4-3.7c1.1-1.4,1.7-2.6,1.7-4C116.4,473.3,116,472.1,115.2,471.2z M109.6,481L109.6,481c-0.3,0.3-0.6,0.5-0.9,0.8
					l-0.4,0.3l-0.4-0.3c-0.3-0.3-0.6-0.5-0.9-0.8l0,0c-3-2.6-5-4.3-5-6.4c0-0.8,0.3-1.6,0.8-2.2h0c0.5-0.6,1.2-0.9,1.9-0.9
					c0.6,0,1.4,0.2,2.1,1.2c0.4,0.5,0.6,1,0.6,1.2c0.1,0.4,0.5,0.6,0.9,0.6c0.4,0,0.7-0.3,0.9-0.6c0.1-0.2,0.3-0.7,0.6-1.3
					c0.7-1,1.5-1.2,2.1-1.2c0.8,0,1.4,0.3,1.9,0.9c0.5,0.6,0.8,1.4,0.8,2.2C114.6,476.7,112.6,478.4,109.6,481z"/>
			</g>
		</g>
		<g>
			<g>
				<path class="st0" d="M126.6,497.9H90c-1.5,0-2.7-1.2-2.7-2.7v-36.7c0-1.5,1.2-2.7,2.7-2.7h36.7c1.5,0,2.7,1.2,2.7,2.7v36.7
					C129.3,496.7,128.1,497.9,126.6,497.9z M90,457.4c-0.7,0-1.2,0.5-1.2,1.2v36.7c0,0.7,0.5,1.2,1.2,1.2h36.7
					c0.7,0,1.2-0.5,1.2-1.2v-36.7c0-0.7-0.5-1.2-1.2-1.2H90z"/>
			</g>
		</g>
	</g>
</g>
</svg>
