<?xml version="1.0" encoding="utf-8"?>
<!-- Generator: Adobe Illustrator 22.0.1, SVG Export Plug-In . SVG Version: 6.00 Build 0)  -->
<svg version="1.1" id="Layer_1" xmlns="http://www.w3.org/2000/svg" xmlns:xlink="http://www.w3.org/1999/xlink" x="0px" y="0px"
	 viewBox="0 0 400.4 398.7" style="enable-background:new 0 0 400.4 398.7;" xml:space="preserve">
<style type="text/css">
	.st0{fill:#B8B0EA;}
</style>
<g>
	<g>
		<g>
			<g>
				<path class="st0" d="M400.4,199.3c-0.2-53.2-21-103.1-58.6-140.7C304,20.8,253.7,0,200.2,0C146.7,0,96.4,20.8,58.6,58.6
					C21,96.2,0.2,146.1,0,199.3h0c0.2,53.2,21,103.1,58.6,140.7c37.8,37.8,88.1,58.6,141.6,58.6c53.5,0,103.8-20.8,141.6-58.6
					C379.4,302.5,400.2,252.5,400.4,199.3L400.4,199.3z M200.2,367.5c-92.9,0-168.6-75.4-169-168.2c0.5-92.8,76.1-168.2,169-168.2
					s168.6,75.4,169,168.2C368.8,292.1,293.1,367.5,200.2,367.5z"/>
			</g>
		</g>
		<g>
			<g>
				<path class="st0" d="M256.7,233.1c-6.8-6.7-15.4-6.7-22.1,0c-5.2,5.1-10.4,10.3-15.4,15.5c-1.4,1.4-2.6,1.7-4.3,0.8
					c-3.3-1.8-6.9-3.3-10.1-5.3c-15-9.4-27.6-21.6-38.7-35.2c-5.5-6.8-10.4-14.1-13.9-22.2c-0.7-1.7-0.6-2.7,0.8-4.1
					c5.2-5,10.2-10.1,15.3-15.3c7.1-7.1,7.1-15.5,0-22.7c-4-4.1-8.1-8.1-12.1-12.2c-4.2-4.2-8.3-8.4-12.5-12.5
					c-6.8-6.7-15.4-6.7-22.1,0c-5.2,5.1-10.2,10.4-15.5,15.4c-4.9,4.7-7.4,10.4-7.9,17c-0.8,10.8,1.8,21.1,5.6,31
					c7.7,20.6,19.3,38.9,33.5,55.7c19.1,22.7,41.9,40.7,68.6,53.6c12,5.8,24.4,10.3,38,11c9.3,0.5,17.4-1.8,23.9-9.1
					c4.4-5,9.4-9.5,14.1-14.2c7-7,7-15.6,0.1-22.5C273.3,249.7,265,241.4,256.7,233.1L256.7,233.1z M256.7,233.1"/>
				<path class="st0" d="M273.5,128.7c-16.5-16.5-36.9-27.6-59.5-32.4c-4.5-1-8.9,2.2-9.5,6.7l0,0.3c-0.6,4.2,2.2,8,6.3,8.9
					c19.4,4.2,37,13.7,51.3,27.9c13.4,13.4,22.8,30,27.2,48.2c1,4.1,5,6.7,9.1,6l0.3-0.1c4.6-0.8,7.5-5.3,6.4-9.8
					C299.8,163.4,289,144.3,273.5,128.7L273.5,128.7z M273.5,128.7"/>
				<g>
					<path class="st0" d="M206.5,153.2c2,0.6,4,1.4,5.9,2.1c1.2,0.5-2.2-0.9-0.3-0.1c0.6,0.3,1.2,0.5,1.8,0.8
						c1.2,0.5,2.3,1.1,3.5,1.7c2.6,1.3,5.2,2.8,7.7,4.5c1.2,0.8,2.4,1.6,3.6,2.5c0.3,0.2,0.6,0.4,0.9,0.7c-0.9-0.7-1-0.8-0.3-0.2
						c0.7,0.6,1.5,1.2,2.2,1.8c2.7,2.3,5.2,4.9,7.5,7.7c0.6,0.7,0.5,0.6-0.1-0.2c0.2,0.3,0.5,0.7,0.7,1c0.6,0.8,1.2,1.7,1.7,2.6
						c1,1.6,1.9,3.3,2.8,5c0.2,0.4,0.4,0.8,0.5,1.2c-0.4-0.9-0.4-1-0.1-0.1c0.4,1,0.8,2.1,1.1,3.1c0.6,2,1.1,4,1.4,6
						c0.8,4.4,6.1,6.8,10,5.7c4.6-1.3,6.5-5.7,5.7-10c-4.4-25.3-28-44.5-51.8-51.4c-4.3-1.2-8.9,1.5-10,5.7
						C199.6,147.5,202.3,151.9,206.5,153.2L206.5,153.2z"/>
				</g>
			</g>
		</g>
	</g>
</g>
</svg>
