<?xml version="1.0" encoding="utf-8"?>
<!-- Generator: Adobe Illustrator 22.0.1, SVG Export Plug-In . SVG Version: 6.00 Build 0)  -->
<svg version="1.1" id="Layer_1" xmlns="http://www.w3.org/2000/svg" xmlns:xlink="http://www.w3.org/1999/xlink" x="0px" y="0px"
	 viewBox="0 0 390 283.3" style="enable-background:new 0 0 390 283.3;" xml:space="preserve">
<style type="text/css">
	.st0{fill:#FFFFFF;}
</style>
<g>
	<path class="st0" d="M371,122.7H19c-10.5,0-19,8.5-19,19c0,10.5,8.5,19,19,19h352c10.5,0,19-8.5,19-19
		C390,131.2,381.5,122.7,371,122.7z"/>
	<path class="st0" d="M19,38h352c10.5,0,19-8.5,19-19s-8.5-19-19-19H19C8.5,0,0,8.5,0,19S8.5,38,19,38z"/>
	<path class="st0" d="M371,245.3H19c-10.5,0-19,8.5-19,19s8.5,19,19,19h352c10.5,0,19-8.5,19-19S381.5,245.3,371,245.3z"/>
</g>
</svg>
