<?xml version="1.0" encoding="utf-8"?>
<!-- Generator: Adobe Illustrator 22.0.1, SVG Export Plug-In . SVG Version: 6.00 Build 0)  -->
<svg version="1.1" id="Layer_1" xmlns="http://www.w3.org/2000/svg" xmlns:xlink="http://www.w3.org/1999/xlink" x="0px" y="0px"
	 viewBox="0 0 30 30.6" style="enable-background:new 0 0 30 30.6;" xml:space="preserve">
<style type="text/css">
	.st0{fill:#7A67FE;}
</style>
<g>
	<g>
		<g>
			<path class="st0" d="M15.1,30.6c-0.7,0-1.5-0.3-2-0.9l-0.5-0.6c-0.3-0.4-0.9-0.5-1.3-0.3l-0.7,0.3c-0.7,0.3-1.5,0.3-2.2,0
				c-0.7-0.3-1.2-0.9-1.4-1.7l-0.2-0.7c-0.1-0.5-0.6-0.8-1.1-0.8l-0.7,0c-0.8,0-1.5-0.4-1.9-1c-0.5-0.6-0.7-1.4-0.5-2.1l0.1-0.7
				c0.1-0.5-0.2-1-0.6-1.2l-0.7-0.4c-0.7-0.4-1.2-1-1.3-1.7c-0.2-0.7,0-1.5,0.4-2.1L1,16.1c0.3-0.4,0.3-0.9,0-1.3l-0.4-0.6
				c-0.4-0.6-0.6-1.4-0.4-2.1c0.2-0.7,0.6-1.4,1.3-1.7L2,9.9c0.4-0.2,0.7-0.7,0.6-1.2L2.4,8C2.3,7.2,2.5,6.4,3,5.8
				c0.5-0.6,1.2-1,1.9-1l0.7,0c0.5,0,0.9-0.4,1-0.8l0.2-0.7c0.2-0.7,0.7-1.3,1.4-1.7c0.7-0.3,1.5-0.4,2.2-0.1l0.7,0.3
				c0.5,0.2,1,0.1,1.3-0.3l0.5-0.6c0.5-0.6,1.2-0.9,2-0.9c0,0,0,0,0,0c0.7,0,1.5,0.3,2,0.9l0.5,0.6c0.3,0.4,0.9,0.5,1.3,0.3l0.7-0.3
				c0.7-0.3,1.5-0.3,2.2,0c0.7,0.3,1.2,0.9,1.4,1.7l0.2,0.7c0.1,0.5,0.6,0.8,1.1,0.8l0.7,0c0.8,0,1.5,0.4,1.9,1
				c0.5,0.6,0.7,1.4,0.5,2.1l-0.1,0.7c-0.1,0.5,0.2,1,0.6,1.2l0.7,0.4c0.7,0.4,1.2,1,1.3,1.7c0.2,0.7,0,1.5-0.4,2.1L29,14.5
				c-0.3,0.4-0.3,0.9,0,1.3l0.4,0.6c0.4,0.6,0.6,1.4,0.4,2.1c-0.2,0.7-0.6,1.4-1.3,1.7L28,20.7c-0.4,0.2-0.7,0.7-0.6,1.2l0.1,0.7
				c0.1,0.7,0,1.5-0.5,2.1c-0.5,0.6-1.2,1-1.9,1l-0.7,0c-0.5,0-0.9,0.4-1,0.8l-0.2,0.7c-0.2,0.7-0.7,1.3-1.4,1.7
				c-0.7,0.3-1.5,0.4-2.2,0.1l-0.7-0.3c-0.5-0.2-1-0.1-1.3,0.3l-0.5,0.6C16.6,30.2,15.9,30.6,15.1,30.6
				C15.1,30.6,15.1,30.6,15.1,30.6z M11.8,27.3c0.7,0,1.5,0.3,2,0.9l0.5,0.6c0.2,0.2,0.5,0.4,0.9,0.4c0.3,0,0.6-0.1,0.8-0.4l0.5-0.6
				c0.7-0.9,2-1.1,3-0.7l0.7,0.3c0.3,0.1,0.6,0.1,0.9,0c0.3-0.1,0.5-0.4,0.6-0.7l0.2-0.7c0.3-1.1,1.3-1.9,2.4-1.9l0.7,0
				c0.3,0,0.6-0.2,0.8-0.4c0.2-0.3,0.3-0.6,0.2-0.9L26,22.2c-0.2-1.1,0.3-2.2,1.3-2.8l0.6-0.4c0.3-0.2,0.5-0.4,0.6-0.8
				c0.1-0.3,0-0.7-0.2-0.9l-0.4-0.6c-0.7-0.9-0.7-2.2,0-3.1l0.4-0.6c0.2-0.3,0.3-0.6,0.2-0.9c-0.1-0.3-0.3-0.6-0.6-0.8L27.2,11
				c-1-0.5-1.5-1.6-1.4-2.8L26,7.5c0.1-0.3,0-0.7-0.2-0.9c-0.2-0.3-0.5-0.4-0.8-0.4l-0.7,0C23,6.1,22,5.3,21.7,4.2l-0.2-0.7
				c-0.1-0.3-0.3-0.6-0.6-0.7c-0.3-0.1-0.6-0.1-0.9,0l-0.7,0.3c-1,0.4-2.2,0.2-3-0.7l-0.5-0.6c-0.2-0.2-0.5-0.4-0.9-0.4c0,0,0,0,0,0
				c-0.3,0-0.6,0.1-0.9,0.4l-0.5,0.6c-0.7,0.9-2,1.1-3,0.7L9.9,2.9c-0.3-0.1-0.6-0.1-0.9,0C8.6,3,8.4,3.3,8.3,3.6L8.1,4.3
				C7.8,5.5,6.8,6.2,5.7,6.3L5,6.3c-0.3,0-0.6,0.2-0.8,0.4C3.9,7,3.8,7.4,3.9,7.7L4,8.4c0.2,1.1-0.3,2.2-1.3,2.8l-0.6,0.4
				c-0.3,0.2-0.5,0.4-0.6,0.8c-0.1,0.3,0,0.7,0.2,0.9l0.4,0.6c0.7,0.9,0.7,2.2,0,3.1l-0.4,0.6c-0.2,0.3-0.3,0.6-0.2,0.9
				c0.1,0.3,0.3,0.6,0.6,0.8l0.7,0.4c1,0.5,1.5,1.6,1.4,2.8L4,23.1c-0.1,0.3,0,0.7,0.2,0.9c0.2,0.3,0.5,0.4,0.8,0.4l0.7,0
				C7,24.5,8,25.3,8.3,26.3l0.2,0.7c0.1,0.3,0.3,0.6,0.6,0.7c0.3,0.1,0.6,0.1,0.9,0l0.7-0.3C11.1,27.3,11.4,27.3,11.8,27.3z"/>
		</g>
		<g>
			<g>
				<path class="st0" d="M13.7,15.3c0,2.3-1.5,4.1-3.8,4.1c-2.3,0-3.8-1.8-3.8-4.1c0-2.3,1.4-4.1,3.8-4.1
					C12.2,11.2,13.7,13,13.7,15.3z M11.7,15.3c0-1.6-1-2.3-1.8-2.3c-0.9,0-1.8,0.8-1.8,2.3c0,1.6,1,2.3,1.8,2.3
					C10.8,17.6,11.7,16.9,11.7,15.3z"/>
			</g>
			<g>
				<path class="st0" d="M18.1,13.1c0,1.1-0.9,1.9-1.9,1.9c-1,0-1.9-0.8-1.9-1.9c0-1.1,0.9-1.8,1.9-1.8C17.2,11.2,18.1,12,18.1,13.1
					z M17.6,19.2h-1.9l4.8-7.9h1.9L17.6,19.2z M15.8,13.1c0,0.2,0.2,0.4,0.4,0.4c0.2,0,0.4-0.2,0.4-0.4c0-0.2-0.2-0.4-0.4-0.4
					C16,12.6,15.8,12.8,15.8,13.1z M23.9,17.5c0,1-0.9,1.9-1.9,1.9c-1,0-1.9-0.8-1.9-1.9c0-1.1,0.9-1.9,1.9-1.9
					C23,15.7,23.9,16.5,23.9,17.5z M21.6,17.5c0,0.2,0.2,0.4,0.4,0.4c0.2,0,0.4-0.2,0.4-0.4c0-0.2-0.2-0.4-0.4-0.4
					C21.8,17.1,21.6,17.3,21.6,17.5z"/>
			</g>
		</g>
	</g>
</g>
</svg>
