<?xml version="1.0" encoding="utf-8"?>
<!-- Generator: Adobe Illustrator 22.0.1, SVG Export Plug-In . SVG Version: 6.00 Build 0)  -->
<svg version="1.1" id="Слой_1" xmlns="http://www.w3.org/2000/svg" xmlns:xlink="http://www.w3.org/1999/xlink" x="0px" y="0px"
	 viewBox="0 0 508.8 149.6" style="enable-background:new 0 0 508.8 149.6;" xml:space="preserve">
<style type="text/css">
	.st0{fill-rule:evenodd;clip-rule:evenodd;fill:#000000;}
	.st1{fill:#000000;}
</style>
<g>
	<polygon class="st0" points="196,99.8 196,41.6 174.3,41.6 174.3,33.9 226.5,33.9 226.5,41.6 204.8,41.6 204.8,99.8 	"/>
	<path class="st0" d="M235.2,99.8V33.9h29.2c5.9,0,10.3,0.6,13.4,1.8c3.1,1.2,5.5,3.3,7.3,6.3c1.8,3,2.7,6.3,2.7,9.9
		c0,4.7-1.5,8.6-4.5,11.8c-3,3.2-7.7,5.2-14,6.1c2.3,1.1,4.1,2.2,5.3,3.3c2.5,2.3,5,5.3,7.2,8.8l11.4,17.9h-10.9L273.6,86
		c-2.5-4-4.6-7-6.3-9.1c-1.7-2.1-3.1-3.6-4.4-4.4c-1.3-0.8-2.6-1.4-4-1.7c-1-0.2-2.6-0.3-4.8-0.3H244v29.3H235.2L235.2,99.8z
		 M244,62.9h18.7c4,0,7.1-0.4,9.3-1.2c2.2-0.8,3.9-2.1,5.1-4c1.2-1.8,1.8-3.8,1.8-5.9c0-3.1-1.1-5.7-3.4-7.7c-2.3-2-5.8-3-10.7-3
		H244V62.9z"/>
	<polygon class="st0" points="349.5,92 310.7,92 310.7,69.6 347.1,69.6 347.1,61.8 310.7,61.8 310.7,41.6 349.5,41.6 349.5,33.9 
		302,33.9 302,99.8 349.5,99.8 	"/>
	<path class="st0" d="M358.3,99.8V33.9h13.1l15.6,46.7c1.4,4.3,2.5,7.6,3.1,9.8c0.8-2.4,1.9-5.9,3.5-10.6l15.9-45.8h11.7v65.9h-8.4
		V44.6l-19.2,55.1h-7.9l-19-56.1v56.1H358.3z"/>
	<polygon class="st0" points="477.5,92 438.6,92 438.6,69.6 475,69.6 475,61.8 438.6,61.8 438.6,41.6 477.5,41.6 477.5,33.9 
		429.9,33.9 429.9,99.8 477.5,99.8 	"/>
	<path class="st0" d="M339.7,149.1V118h4.8v27.4h17.9v3.6H339.7L339.7,149.1z M366.7,134c0-5.2,1.6-9.2,4.9-12.1
		c3.3-2.9,7.4-4.4,12.6-4.4c3.4,0,6.4,0.7,9.1,2.1c2.7,1.4,4.8,3.3,6.2,5.7c1.4,2.4,2.1,5.2,2.1,8.3c0,3.1-0.7,6-2.2,8.4
		c-1.5,2.5-3.6,4.4-6.3,5.6c-2.7,1.3-5.7,1.9-8.9,1.9c-3.4,0-6.5-0.7-9.2-2.1c-2.7-1.4-4.8-3.3-6.2-5.8
		C367.4,139.3,366.7,136.7,366.7,134L366.7,134z M371.7,134c0,3.7,1.2,6.7,3.5,8.8c2.4,2.1,5.3,3.2,8.9,3.2c3.6,0,6.6-1.1,9-3.3
		c2.3-2.2,3.5-5.3,3.5-9.2c0-2.5-0.5-4.7-1.5-6.6c-1-1.9-2.5-3.3-4.4-4.4c-1.9-1-4.1-1.6-6.5-1.6c-3.4,0-6.4,1-8.8,3
		C373,126,371.7,129.4,371.7,134L371.7,134z M406.4,134c0-5.2,1.6-9.2,4.9-12.1c3.3-2.9,7.5-4.4,12.6-4.4c3.4,0,6.4,0.7,9.1,2.1
		c2.7,1.4,4.8,3.3,6.2,5.7c1.4,2.4,2.1,5.2,2.1,8.3c0,3.1-0.7,6-2.2,8.4c-1.5,2.5-3.6,4.4-6.3,5.6c-2.7,1.3-5.7,1.9-8.9,1.9
		c-3.4,0-6.5-0.7-9.2-2.1c-2.7-1.4-4.8-3.3-6.2-5.8C407.1,139.3,406.4,136.7,406.4,134L406.4,134z M411.4,134c0,3.7,1.2,6.7,3.5,8.8
		c2.4,2.1,5.3,3.2,8.9,3.2c3.6,0,6.6-1.1,9-3.3c2.3-2.2,3.5-5.3,3.5-9.2c0-2.5-0.5-4.7-1.5-6.6c-1-1.9-2.5-3.3-4.4-4.4
		c-1.9-1-4.1-1.6-6.5-1.6c-3.4,0-6.4,1-8.8,3C412.6,126,411.4,129.4,411.4,134L411.4,134z M447.3,149.1V118h4.8v15.4l18.1-15.4h6.5
		l-15.3,12.6l16,18.5h-6.4l-13-15.7l-6,4.9v10.8H447.3z"/>
	<path class="st0" d="M159.7,0H62.1c-3.2,0-5.9,2.6-5.9,5.9V30v69.5v24.2c0,3.2,2.6,5.9,5.9,5.9h97.7c3.2,0,5.9-2.6,5.9-5.9V99.5V30
		V5.9C165.6,2.6,162.9,0,159.7,0z M156.4,119.4c-0.3,0-0.6-0.2-0.8-0.3c-1.7-0.9-3.1-2.5-4.4-3.9c-0.8-0.9-1.5-1.7-2.2-2.7
		c0,0-20.1-25.5-31-39.2c-0.2-0.3-0.4-0.5-0.6-0.8c-1-1.2-2.1-2.4-3.2-3.5c-2.8,4-5.6,8-8.4,12.1c-2.5,3.6-5,7.3-7.4,10.9
		c-1.7,2.5-3.3,4.9-4.9,7.4c-6.4,9.8-14.5,12.7-19.8,7.9c-5.3-4.8-7.3-15,13.1-31.4c5.2-4.2,11.4-9.9,17.7-16.1
		c-2.7-2.2-5.4-4.4-8-6.6c-4.4-3.6-8.8-7-13.3-10.5c-2-1.5-3.9-3.1-6-4.4c-2.2-1.4-4.4-3-6.4-4.8c-4-3.7-7.7-9.4-5.7-15.1
		c2.4-6.9,12.3-5.9,17.5-3.4c8.8,4.1,18.3,16,33,33.6c14.3-14.8,26.8-28.8,26.8-28.8c7.8-8.8,9.2-6.6,9.2-6.6
		c0.4,0.6,0.4,1.1,0.3,1.8c-0.6,3.6-2.9,6.7-4.8,9.6c-2.1,3.1-4.4,6.1-6.8,9c-2.5,3-4.8,6-7.2,9.1c-3,4-5.9,8-8.9,12.1
		c-0.5,0.7-1,1.5-1.6,2.2c0,0,0,0,0.1,0.1c0.5,0.5,0.9,1.1,1.3,1.6c2.8,3.4,5.5,6.9,8,10.5c2.5,3.5,4.9,7.1,7.2,10.7
		c2.1,3.3,4.2,6.7,6.1,10.2c1.7,2.9,3.3,5.8,4.9,8.8c1.2,2.2,2.4,4.4,3.5,6.7c0.7,1.5,1.4,2.9,2,4.4c0.9,2.3,1.6,4.8,1.8,7.3
		C157.6,118.4,157.4,119.5,156.4,119.4z"/>
	<polygon class="st0" points="47.5,92 8.7,92 8.7,69.6 45.1,69.6 45.1,61.8 8.7,61.8 8.7,41.6 47.5,41.6 47.5,33.9 0,33.9 0,99.8 
		47.5,99.8 	"/>
	<g>
		<path class="st1" d="M503.1,35.3c-1.8-1-3.7-1.5-5.5-1.5c-1.9,0-3.7,0.5-5.6,1.5c-1.8,1-3.2,2.4-4.2,4.2c-1,1.8-1.5,3.7-1.5,5.7
			c0,1.9,0.5,3.8,1.5,5.6c1,1.8,2.4,3.2,4.2,4.2c1.8,1,3.7,1.5,5.6,1.5c1.9,0,3.8-0.5,5.6-1.5c1.8-1,3.2-2.4,4.2-4.2
			c1-1.8,1.5-3.7,1.5-5.6c0-2-0.5-3.8-1.5-5.7C506.3,37.7,504.9,36.3,503.1,35.3z M505.7,49.8c-0.8,1.5-2,2.7-3.5,3.5
			c-1.5,0.8-3.1,1.3-4.7,1.3c-1.6,0-3.2-0.4-4.7-1.3c-1.5-0.8-2.7-2-3.5-3.5c-0.8-1.5-1.3-3-1.3-4.7c0-1.6,0.4-3.2,1.3-4.7
			c0.8-1.5,2-2.7,3.5-3.5c1.5-0.8,3-1.2,4.6-1.2c1.6,0,3.1,0.4,4.6,1.2c1.5,0.8,2.7,2,3.5,3.5c0.8,1.5,1.3,3.1,1.3,4.7
			C506.9,46.8,506.5,48.3,505.7,49.8z"/>
		<path class="st1" d="M500.3,46.4c-0.3-0.2-0.6-0.5-1-0.6c1.1-0.1,1.9-0.4,2.5-1.1c0.6-0.7,1-1.4,1-2.3c0-0.6-0.2-1.2-0.6-1.8
			c-0.4-0.6-0.9-0.9-1.5-1.2c-0.6-0.2-1.7-0.3-3.1-0.3h-4.2v12.1h2v-5.1h1.2c0.7,0,1.2,0.1,1.6,0.4c0.5,0.4,1.2,1.3,2.1,2.8l1.1,1.9
			h2.4l-1.5-2.4C501.4,47.7,500.8,46.9,500.3,46.4z M497.7,44.4h-2.4v-3.6h2.2c1,0,1.6,0.1,2,0.2c0.4,0.1,0.6,0.3,0.8,0.6
			c0.2,0.3,0.3,0.6,0.3,1c0,0.6-0.2,1-0.6,1.3C499.6,44.2,498.9,44.4,497.7,44.4z"/>
	</g>
</g>
</svg>
