<?xml version="1.0" encoding="utf-8"?>
<!-- Generator: Adobe Illustrator 22.0.1, SVG Export Plug-In . SVG Version: 6.00 Build 0)  -->
<svg version="1.1" id="Layer_1" xmlns="http://www.w3.org/2000/svg" xmlns:xlink="http://www.w3.org/1999/xlink" x="0px" y="0px"
	 viewBox="0 0 166 111.9" style="enable-background:new 0 0 166 111.9;" xml:space="preserve">
<style type="text/css">
	.st0{fill:#DFDAFF;}
</style>
<g>
	<g>
		<path class="st0" d="M155.1,0H30.3c-6,0-10.9,4.9-10.9,10.9V34h-17C1.1,34,0,35.1,0,36.5s1.1,2.4,2.4,2.4h29.2
			c1.3,0,2.4-1.1,2.4-2.4S33,34,31.6,34h-7.3V10.9c0-0.8,0.1-1.5,0.4-2.2l47.2,47.2l-47.2,47.2c-0.3-0.7-0.4-1.4-0.4-2.2V85.1
			c0-1.3-1.1-2.4-2.4-2.4c-1.3,0-2.4,1.1-2.4,2.4V101c0,6,4.9,10.9,10.9,10.9h124.8c6,0,10.9-4.9,10.9-10.9V10.9
			C166,4.9,161.1,0,155.1,0L155.1,0z M113.5,55.9l47.2-47.2c0.3,0.7,0.4,1.4,0.4,2.2V101c0,0.8-0.1,1.5-0.4,2.2L113.5,55.9z
			 M155.1,4.9c0.8,0,1.5,0.1,2.2,0.4L103,59.5c-5.7,5.7-14.9,5.7-20.6,0L28.2,5.3c0.7-0.3,1.4-0.4,2.2-0.4H155.1z M30.3,107
			c-0.8,0-1.5-0.1-2.2-0.4l47.2-47.2L79,63c3.8,3.8,8.8,5.7,13.8,5.7s10-1.9,13.8-5.7l3.6-3.6l47.2,47.2c-0.7,0.3-1.4,0.4-2.2,0.4
			H30.3z M30.3,107"/>
		<path class="st0" d="M21.9,43.8c-1.3,0-2.4,1.1-2.4,2.4v7.3h-17c-1.3,0-2.4,1.1-2.4,2.4c0,1.3,1.1,2.4,2.4,2.4h38.9
			c1.3,0,2.4-1.1,2.4-2.4c0-1.3-1.1-2.4-2.4-2.4h-17v-7.3C24.3,44.9,23.2,43.8,21.9,43.8L21.9,43.8z M21.9,43.8"/>
		<path class="st0" d="M31.6,77.8c1.3,0,2.4-1.1,2.4-2.4c0-1.3-1.1-2.4-2.4-2.4h-7.3v-7.3c0-1.3-1.1-2.4-2.4-2.4
			c-1.3,0-2.4,1.1-2.4,2.4v7.3h-17C1.1,72.9,0,74,0,75.4c0,1.3,1.1,2.4,2.4,2.4H31.6z M31.6,77.8"/>
	</g>
</g>
</svg>
