<?xml version="1.0" encoding="utf-8"?>
<!-- Generator: Adobe Illustrator 22.0.1, SVG Export Plug-In . SVG Version: 6.00 Build 0)  -->
<svg version="1.1" id="Layer_1" xmlns="http://www.w3.org/2000/svg" xmlns:xlink="http://www.w3.org/1999/xlink" x="0px" y="0px"
	 viewBox="0 0 100 100" style="enable-background:new 0 0 100 100;" xml:space="preserve">
<style type="text/css">
	.st0{fill:url(#SVGID_1_);}
	.st1{fill:url(#SVGID_2_);}
	.st2{fill:url(#SVGID_3_);}
</style>
<g>
	<linearGradient id="SVGID_1_" gradientUnits="userSpaceOnUse" x1="50" y1="-0.125" x2="50" y2="99.7697">
		<stop  offset="0" style="stop-color:#9F91FE"/>
		<stop  offset="1" style="stop-color:#7B67FE"/>
	</linearGradient>
	<path class="st0" d="M59.6,50c0,5.3-4.3,9.6-9.6,9.6s-9.6-4.3-9.6-9.6s4.3-9.6,9.6-9.6S59.6,44.7,59.6,50L59.6,50z"/>
	<linearGradient id="SVGID_2_" gradientUnits="userSpaceOnUse" x1="50.1" y1="-0.125" x2="50.1" y2="99.7697">
		<stop  offset="0" style="stop-color:#9F91FE"/>
		<stop  offset="1" style="stop-color:#7B67FE"/>
	</linearGradient>
	<path class="st1" d="M72.4,33.1c-0.5-1.2-1.2-2.4-2.1-3.3c-0.9-1-2.1-1.7-3.3-2.1c-1-0.4-2.5-0.9-5.3-1c-3-0.1-3.9-0.2-11.6-0.2
		s-8.6,0-11.6,0.2c-2.8,0.1-4.3,0.6-5.3,1c-1.2,0.5-2.4,1.2-3.3,2.1c-1,0.9-1.7,2.1-2.1,3.3c-0.4,1-0.9,2.5-1,5.3
		c-0.1,3-0.2,3.9-0.2,11.6s0,8.6,0.2,11.6c0.1,2.8,0.6,4.3,1,5.3c0.5,1.2,1.2,2.4,2.1,3.3c0.9,1,2.1,1.7,3.3,2.1
		c1,0.4,2.5,0.9,5.3,1c3,0.1,3.9,0.2,11.6,0.2s8.6,0,11.6-0.2c2.8-0.1,4.3-0.6,5.3-1c2.5-1,4.5-2.9,5.4-5.4c0.4-1,0.9-2.5,1-5.3
		c0.1-3,0.2-3.9,0.2-11.6s0-8.6-0.2-11.6C73.2,35.6,72.8,34.1,72.4,33.1L72.4,33.1z M50,64.7c-8.1,0-14.7-6.6-14.7-14.7
		S41.9,35.3,50,35.3S64.7,41.9,64.7,50S58.1,64.7,50,64.7L50,64.7z M65.3,38.1c-1.9,0-3.4-1.5-3.4-3.4s1.5-3.4,3.4-3.4
		s3.4,1.5,3.4,3.4C68.8,36.6,67.2,38.1,65.3,38.1L65.3,38.1z"/>
	<linearGradient id="SVGID_3_" gradientUnits="userSpaceOnUse" x1="50" y1="-0.125" x2="50" y2="99.7697">
		<stop  offset="0" style="stop-color:#9F91FE"/>
		<stop  offset="1" style="stop-color:#7B67FE"/>
	</linearGradient>
	<path class="st2" d="M50,0C22.4,0,0,22.4,0,50s22.4,50,50,50s50-22.4,50-50S77.6,0,50,0L50,0z M78.5,61.8c-0.1,3.1-0.6,5.1-1.3,7
		c-1.5,3.9-4.5,6.9-8.4,8.4c-1.8,0.7-3.9,1.2-7,1.3c-3.1,0.1-4,0.2-11.8,0.2s-8.8,0-11.8-0.2c-3.1-0.1-5.1-0.6-7-1.3
		c-1.9-0.7-3.7-1.9-5.1-3.3c-1.5-1.4-2.6-3.2-3.3-5.1c-0.7-1.8-1.2-3.9-1.3-7c-0.1-3.1-0.2-4-0.2-11.8s0-8.8,0.2-11.8
		c0.1-3.1,0.6-5.1,1.3-7c0.7-1.9,1.9-3.7,3.3-5.1c1.4-1.5,3.2-2.6,5.1-3.3c1.8-0.7,3.9-1.2,7-1.3c3.1-0.1,4-0.2,11.8-0.2
		s8.8,0,11.8,0.2c3.1,0.1,5.1,0.6,7,1.3c1.9,0.7,3.7,1.9,5.1,3.3c1.5,1.4,2.6,3.2,3.3,5.1c0.7,1.8,1.2,3.9,1.3,7
		c0.1,3.1,0.2,4,0.2,11.8S78.7,58.8,78.5,61.8L78.5,61.8z"/>
</g>
</svg>
