<?xml version="1.0" encoding="utf-8"?>
<!-- Generator: Adobe Illustrator 22.0.1, SVG Export Plug-In . SVG Version: 6.00 Build 0)  -->
<svg version="1.1" id="Layer_1" xmlns="http://www.w3.org/2000/svg" xmlns:xlink="http://www.w3.org/1999/xlink" x="0px" y="0px"
	 viewBox="0 0 397 397" style="enable-background:new 0 0 397 397;" xml:space="preserve">
<style type="text/css">
	.st0{fill:#FFFFFF;}
</style>
<path class="st0" d="M391.5,364.9l-92.6-92.6c23.6-29.6,36.6-66.6,36.6-104.5C335.4,75.2,260.2,0,167.7,0C75.2,0,0,75.2,0,167.7
	s75.2,167.7,167.7,167.7c37.9,0,74.9-12.9,104.5-36.5l92.6,92.6c3.6,3.6,8.3,5.5,13.3,5.5s9.8-2,13.3-5.5c3.6-3.5,5.5-8.3,5.5-13.3
	C397,373.1,395,368.4,391.5,364.9z M297.6,167.7c0,71.6-58.3,129.8-129.9,129.8c-71.6,0-129.9-58.2-129.9-129.8
	c0-71.6,58.3-129.9,129.9-129.9C239.3,37.8,297.6,96.1,297.6,167.7z"/>
</svg>
