<?xml version="1.0" encoding="utf-8"?>
<!-- Generator: Adobe Illustrator 22.0.1, SVG Export Plug-In . SVG Version: 6.00 Build 0)  -->
<svg version="1.1" id="Layer_1" xmlns="http://www.w3.org/2000/svg" xmlns:xlink="http://www.w3.org/1999/xlink" x="0px" y="0px"
	 viewBox="0 0 100 100" style="enable-background:new 0 0 100 100;" xml:space="preserve">
<style type="text/css">
	.st0{fill:url(#SVGID_1_);}
</style>
<g>
	<linearGradient id="SVGID_1_" gradientUnits="userSpaceOnUse" x1="50" y1="0" x2="50" y2="100.3749">
		<stop  offset="0" style="stop-color:#9F91FE"/>
		<stop  offset="1" style="stop-color:#7B67FE"/>
	</linearGradient>
	<path class="st0" d="M50,0C22.4,0,0,22.4,0,50s22.4,50,50,50s50-22.4,50-50S77.6,0,50,0L50,0z M75.4,55.4c2.3,2.3,4.8,4.4,6.9,6.9
		c0.9,1.1,1.8,2.3,2.5,3.6c0.9,1.8,0.1,3.9-1.6,4H73c-2.6,0.2-4.8-0.8-6.5-2.7c-1.4-1.4-2.7-3-4.1-4.5c-0.6-0.6-1.1-1.2-1.8-1.6
		c-1.4-0.9-2.6-0.6-3.4,0.8c-0.8,1.5-1,3.1-1.1,4.8c-0.1,2.4-0.8,3-3.3,3.2c-5.2,0.2-10.1-0.5-14.7-3.2c-4-2.3-7.1-5.6-9.9-9.2
		c-5.3-7.2-9.3-15-13-23.1c-0.8-1.8-0.2-2.8,1.8-2.8c3.3-0.1,6.7-0.1,10,0c1.4,0,2.3,0.8,2.8,2.1c1.8,4.4,4,8.7,6.8,12.6
		c0.7,1,1.5,2.1,2.6,2.8c1.2,0.8,2.1,0.5,2.7-0.8c0.4-0.8,0.5-1.7,0.6-2.6c0.3-3.1,0.3-6.2-0.2-9.3c-0.3-1.9-1.4-3.2-3.3-3.5
		c-1-0.2-0.8-0.5-0.4-1.1c0.8-1,1.6-1.6,3.1-1.6h11.6c1.8,0.4,2.2,1.2,2.5,3v12.9c0,0.7,0.4,2.8,1.6,3.3c1,0.3,1.7-0.5,2.3-1.1
		c2.8-2.9,4.8-6.4,6.5-10c0.8-1.6,1.5-3.2,2.1-4.9c0.5-1.2,1.2-1.8,2.6-1.8H82c0.3,0,0.7,0,1,0.1c1.9,0.3,2.4,1.1,1.8,3
		c-0.9,2.9-2.7,5.3-4.4,7.7c-1.9,2.6-3.8,5.1-5.7,7.6C73.1,52.2,73.3,53.4,75.4,55.4L75.4,55.4z"/>
</g>
</svg>
