<?xml version="1.0" encoding="utf-8"?>
<!-- Generator: Adobe Illustrator 22.0.1, SVG Export Plug-In . SVG Version: 6.00 Build 0)  -->
<svg version="1.1" id="Layer_1" xmlns="http://www.w3.org/2000/svg" xmlns:xlink="http://www.w3.org/1999/xlink" x="0px" y="0px"
	 viewBox="0 0 100 100" style="enable-background:new 0 0 100 100;" xml:space="preserve">
<style type="text/css">
	.st0{fill:#7B67FE;}
</style>
<g>
	<g>
		<path class="st0" d="M43.8,59.4L60,50l-16.3-9.4V59.4z M43.8,59.4"/>
		<path class="st0" d="M50,0C22.4,0,0,22.4,0,50s22.4,50,50,50s50-22.4,50-50S77.6,0,50,0L50,0z M81.2,50.1c0,0,0,10.1-1.3,15
			c-0.7,2.7-2.8,4.8-5.5,5.5C69.6,71.9,50,71.9,50,71.9s-19.5,0-24.4-1.3c-2.7-0.7-4.8-2.8-5.5-5.5c-1.3-4.8-1.3-15-1.3-15
			s0-10.1,1.3-15c0.7-2.7,2.9-4.8,5.5-5.6c4.9-1.3,24.4-1.3,24.4-1.3s19.6,0,24.4,1.3c2.7,0.7,4.8,2.8,5.5,5.5
			C81.3,39.9,81.2,50.1,81.2,50.1L81.2,50.1z M81.2,50.1"/>
	</g>
</g>
</svg>
