<?xml version="1.0" encoding="utf-8"?>
<!-- Generator: Adobe Illustrator 22.0.1, SVG Export Plug-In . SVG Version: 6.00 Build 0)  -->
<svg version="1.1" id="Layer_1" xmlns="http://www.w3.org/2000/svg" xmlns:xlink="http://www.w3.org/1999/xlink" x="0px" y="0px"
	 viewBox="0 0 100 100" style="enable-background:new 0 0 100 100;" xml:space="preserve">
<style type="text/css">
	.st0{fill:#7A66FD;}
</style>
<g>
	<g>
		<path class="st0" d="M50,0C22.4,0,0,22.4,0,50c0,27.6,22.4,50,50,50c27.6,0,50-22.4,50-50C100,22.4,77.6,0,50,0z M50,95.4
			C25,95.4,4.6,75,4.6,50C4.6,25,25,4.6,50,4.6C75,4.6,95.4,25,95.4,50C95.4,75,75,95.4,50,95.4z"/>
		<path class="st0" d="M60.4,43.6L60,43.4V24.6c0-1.8-1.4-3.2-3.2-3.2H43.3c-1.8,0-3.2,1.4-3.2,3.2v18.7l-0.4,0.2
			c-1.7,0.8-2.9,2.5-2.9,4.4v25.8c0,2.7,2.2,4.8,4.8,4.8h16.8c2.7,0,4.8-2.2,4.8-4.8V48C63.2,46.1,62.1,44.3,60.4,43.6z M44.4,25.8
			h11.3l0,17.6H44.4L44.4,25.8z M58.9,74.2H41.1v-4.1h17.7V74.2z M58.9,65.9H41.1V55.5h17.7V65.9z M58.9,51.3H41.1v-3.8h17.7V51.3z"
			/>
	</g>
</g>
</svg>
