<?xml version="1.0" encoding="utf-8"?>
<!-- Generator: Adobe Illustrator 22.0.1, SVG Export Plug-In . SVG Version: 6.00 Build 0)  -->
<svg version="1.1" id="Layer_1" xmlns="http://www.w3.org/2000/svg" xmlns:xlink="http://www.w3.org/1999/xlink" x="0px" y="0px"
	 viewBox="0 0 209.6 301.7" style="enable-background:new 0 0 209.6 301.7;" xml:space="preserve">
<style type="text/css">
	.st0{fill:#7A66FD;}
</style>
<g>
	<path class="st0" d="M82.2,289.6c0.5-0.9,0.4-2.1-0.2-3l-17.4-24.8l15.3-22.4c0.6-0.9,0.7-2,0.2-2.9c-0.5-0.9-1.5-1.5-2.5-1.5H61.3
		c-1,0-1.9,0.5-2.4,1.4l-5.8,9.5l-6.4-9.6c-0.5-0.8-1.4-1.3-2.4-1.3H26.1c-1.1,0-2.1,0.6-2.5,1.5c-0.5,1-0.4,2.1,0.2,3l15.8,22.3
		l-17.1,24.9c-0.6,0.9-0.7,2-0.2,3s1.5,1.5,2.5,1.5h16.8c1,0,1.9-0.5,2.4-1.3l7.5-11.7l8,11.8c0.5,0.8,1.4,1.3,2.4,1.3h17.8
		C80.7,291.2,81.7,290.6,82.2,289.6z M63.4,285.5l-9.6-14.1c-0.5-0.8-1.4-1.3-2.4-1.3c0,0,0,0,0,0c-1,0-1.9,0.5-2.4,1.3l-9,14.1
		h-9.8l15.2-22c0.7-1,0.7-2.3,0-3.3l-13.8-19.4h11.1l8,12c0.5,0.8,1.4,1.3,2.4,1.3c1,0,1.9-0.5,2.4-1.4l7.3-11.9h9.3l-13.4,19.6
		c-0.7,1-0.7,2.3,0,3.3l15.3,21.9H63.4z"/>
	<path class="st0" d="M29.2,211.4h43.7c1.7,0,3-1.3,3-3s-1.3-3-3-3H29.2c-1.7,0-3,1.3-3,3S27.6,211.4,29.2,211.4z"/>
	<path class="st0" d="M42.1,214.9c-1.7,0-3,1.3-3,3s1.3,3,3,3h18c1.7,0,3-1.3,3-3s-1.3-3-3-3H42.1z"/>
	<path class="st0" d="M175.3,133.6h-35.2h-8.5H96.4c-1.7,0-3,1.3-3,3c0,1.7,1.3,3,3,3h35.2h8.5h35.2c1.7,0,3-1.3,3-3
		C178.3,135,177,133.6,175.3,133.6z"/>
	<path class="st0" d="M175.3,123.4h-35.2h-8.5H96.4c-1.7,0-3,1.3-3,3c0,1.7,1.3,3,3,3h35.2h8.5h35.2c1.7,0,3-1.3,3-3
		C178.3,124.7,177,123.4,175.3,123.4z"/>
	<path class="st0" d="M152.7,143.9H137h-2.3H119c-1.7,0-3,1.3-3,3c0,1.7,1.3,3,3,3h15.7h2.3h15.7c1.7,0,3-1.3,3-3
		C155.7,145.2,154.4,143.9,152.7,143.9z"/>
	<path class="st0" d="M203.1,0H68.6c-3.6,0-6.5,2.9-6.5,6.5v51.6H21.7c-4.1,0-7.5,3.4-7.5,7.5v84c0,3.5,2.4,6.5,5.7,7.3v3h-5.4
		c-8,0-14.4,6.5-14.4,14.4v112.8c0,8,6.5,14.4,14.4,14.4l188.7,0c3.6,0,6.5-2.9,6.5-6.5V6.5C209.6,2.9,206.7,0,203.1,0z M19.9,65.6
		c0-1,0.8-1.8,1.8-1.8h58.8c1,0,1.8,0.8,1.8,1.8v71H19.9V65.6z M19.9,142.6h62.4v7c0,1-0.8,1.8-1.8,1.8H21.7c-1,0-1.8-0.8-1.8-1.8
		V142.6z M76.3,157.1v2.8H25.9v-2.8H76.3z M5.7,287.2V174.4c0-4.8,3.9-8.7,8.7-8.7h33.7c0,0.1,0,0.2,0,0.3v29.9c0,1.7,1.3,3,3,3
		c1.7,0,3-1.3,3-3v-29.9c0-0.1,0-0.2,0-0.3h33.7c4.8,0,8.7,3.9,8.7,8.7v112.8c0,4.7-3.7,8.5-8.4,8.7h-7.7v0H14.4
		C9.6,295.9,5.7,292,5.7,287.2z M102.2,228l11.1,15.6l-11.1,16.1V228z M102.2,287.2V270l17-24.8c0.7-1,0.7-2.4,0-3.4l-17-24v-21.2
		h15.5l17.6,26.4c0.5,0.8,1.5,1.3,2.4,1.3h0c1,0,1.9-0.5,2.5-1.4l16-26.3H183l-31,45.5c-0.7,1-0.7,2.3,0,3.3l35.3,50.3h-29.8
		l-0.2-0.3L136.6,265c-0.5-0.8-1.5-1.3-2.4-1.3c-1,0-1.9,0.5-2.5,1.4l-19.5,30.7H99.3C101.1,293.4,102.2,290.4,102.2,287.2z
		 M150.4,295.9h-31.3l15.2-23.8L150.4,295.9z M203.8,295.2c0,0.4-0.3,0.7-0.7,0.7h-8.7l-36.5-52.1l0.2-0.3l32.8-48.1
		c0.6-0.9,0.7-2.1,0.2-3c-0.5-1-1.5-1.6-2.6-1.6h-34c-1,0-2,0.5-2.5,1.4L137.6,216l-15.9-23.9c-0.5-0.8-1.5-1.3-2.4-1.3h-17.1v-16.4
		c0-8-6.5-14.4-14.4-14.4h-5.4v-3c3.3-0.8,5.7-3.8,5.7-7.3v-84c0-4.1-3.4-7.5-7.5-7.5H67.9V6.5c0-0.4,0.3-0.7,0.7-0.7h64.3v34.6v8.5
		v35.2c0,1.7,1.3,3,3,3c1.7,0,3-1.3,3-3V48.9v-8.5V5.8h64.3c0.4,0,0.7,0.3,0.7,0.7V295.2z"/>
</g>
</svg>
