<?xml version="1.0" encoding="utf-8"?>
<!-- Generator: Adobe Illustrator 22.0.1, SVG Export Plug-In . SVG Version: 6.00 Build 0)  -->
<svg version="1.1" id="Layer_1" xmlns="http://www.w3.org/2000/svg" xmlns:xlink="http://www.w3.org/1999/xlink" x="0px" y="0px"
	 viewBox="0 0 253.3 301.6" style="enable-background:new 0 0 253.3 301.6;" xml:space="preserve">
<style type="text/css">
	.st0{fill:#7A66FD;}
</style>
<g>
	<path class="st0" d="M245.9,85.8h-35.8V55.3H229c1.7,0,3.1-1.4,3.1-3.1V3.1c0-1.7-1.4-3.1-3.1-3.1H3.1C1.4,0,0,1.4,0,3.1v49.2
		c0,1.7,1.4,3.1,3.1,3.1h19.2v237.9c0,4.6,3.7,8.3,8.3,8.3h215.3c4.1,0,7.4-3.3,7.4-7.4v-201C253.3,89.1,250,85.8,245.9,85.8z
		 M226,6.1v43.1H6.1V6.1H226z M247,92v203.3h-142V92H247z M28.4,55.3H204v30.5h-97.7c-4.1,0-7.4,3.3-7.4,7.4v11.3H87.3
		c-4.1,0-7.4,3.3-7.4,7.4v183.5H28.4V55.3z M98.9,110.8v184.6H86.1V110.8H98.9z"/>
	<path class="st0" d="M129.7,165.8H226c1.7,0,3.1-1.4,3.1-3.1s-1.4-3.1-3.1-3.1h-96.3c-1.7,0-3.1,1.4-3.1,3.1S128,165.8,129.7,165.8
		z"/>
	<path class="st0" d="M129.7,186.1H226c1.7,0,3.1-1.4,3.1-3.1s-1.4-3.1-3.1-3.1h-96.3c-1.7,0-3.1,1.4-3.1,3.1S128,186.1,129.7,186.1
		z"/>
	<path class="st0" d="M129.7,206.4H226c1.7,0,3.1-1.4,3.1-3.1s-1.4-3.1-3.1-3.1h-96.3c-1.7,0-3.1,1.4-3.1,3.1S128,206.4,129.7,206.4
		z"/>
	<path class="st0" d="M129.7,226.7H226c1.7,0,3.1-1.4,3.1-3.1c0-1.7-1.4-3.1-3.1-3.1h-96.3c-1.7,0-3.1,1.4-3.1,3.1
		C126.6,225.3,128,226.7,129.7,226.7z"/>
	<path class="st0" d="M129.7,247H226c1.7,0,3.1-1.4,3.1-3.1c0-1.7-1.4-3.1-3.1-3.1h-96.3c-1.7,0-3.1,1.4-3.1,3.1
		C126.6,245.6,128,247,129.7,247z"/>
	<path class="st0" d="M129.7,267.3H226c1.7,0,3.1-1.4,3.1-3.1s-1.4-3.1-3.1-3.1h-96.3c-1.7,0-3.1,1.4-3.1,3.1S128,267.3,129.7,267.3
		z"/>
</g>
</svg>
