<?xml version="1.0" encoding="utf-8"?>
<!-- Generator: Adobe Illustrator 22.0.1, SVG Export Plug-In . SVG Version: 6.00 Build 0)  -->
<svg version="1.1" id="Layer_1" xmlns="http://www.w3.org/2000/svg" xmlns:xlink="http://www.w3.org/1999/xlink" x="0px" y="0px"
	 viewBox="0 0 100 100" style="enable-background:new 0 0 100 100;" xml:space="preserve">
<style type="text/css">
	.st0{fill:#7A66FD;}
</style>
<g>
	<path class="st0" d="M50,0C22.4,0,0,22.4,0,50c0,27.6,22.4,50,50,50s50-22.4,50-50C100,22.4,77.6,0,50,0z M50,95.4
		C25,95.4,4.6,75,4.6,50C4.6,25,25,4.6,50,4.6S95.4,25,95.4,50C95.4,75,75,95.4,50,95.4z"/>
	<path class="st0" d="M56.6,36.6c0-3.7-3-6.6-6.6-6.6c-3.7,0-6.6,3-6.6,6.6v2.7h-5.7l-1.4,26.4h27.5l-1.4-26.4h-5.7V36.6z
		 M47.4,36.6c0-1.4,1.1-2.5,2.5-2.5c1.4,0,2.5,1.1,2.5,2.5v2.7h-5V36.6z M58.3,43.5l1,18H40.6l1-18H58.3z"/>
	<path class="st0" d="M68.6,29.8l-1.8,10.5l4.1,0.7l0.6-3.7l0.9,1.8c1.6,3.4,2.5,7.1,2.5,10.8c0,6.7-2.6,13-7.3,17.7
		c-4.7,4.7-11,7.3-17.7,7.3s-13-2.6-17.7-7.3c-4.7-4.7-7.3-11-7.3-17.7c0-6.7,2.6-13,7.3-17.7c4.7-4.7,11-7.3,17.7-7.3
		c4.8,0,9.5,1.4,13.5,4l0.3,0.2l2.3-3.5l-0.3-0.2c-4.7-3-10.2-4.6-15.8-4.6c-7.8,0-15.1,3-20.6,8.5c-5.5,5.5-8.5,12.8-8.5,20.6
		c0,7.8,3,15.1,8.5,20.6c5.5,5.5,12.8,8.5,20.6,8.5s15.1-3,20.6-8.5c5.5-5.5,8.5-12.8,8.5-20.6c0-4.7-1.2-9.5-3.4-13.6l-0.6-1.2
		l3.3,0.6l0.7-4.1L68.6,29.8z"/>
	<rect x="44.3" y="50.4" class="st0" width="11.2" height="4.2"/>
</g>
</svg>
