<?xml version="1.0" encoding="utf-8"?>
<!-- Generator: Adobe Illustrator 22.0.1, SVG Export Plug-In . SVG Version: 6.00 Build 0)  -->
<svg version="1.1" id="Layer_1" xmlns="http://www.w3.org/2000/svg" xmlns:xlink="http://www.w3.org/1999/xlink" x="0px" y="0px"
	 viewBox="0 0 100 100" style="enable-background:new 0 0 100 100;" xml:space="preserve">
<style type="text/css">
	.st0{fill:#7A66FD;}
</style>
<g>
	<path class="st0" d="M50,0C22.4,0,0,22.4,0,50c0,27.6,22.4,50,50,50c27.6,0,50-22.4,50-50C100,22.4,77.6,0,50,0z M50,95.4
		C25,95.4,4.6,75,4.6,50C4.6,25,25,4.6,50,4.6C75,4.6,95.4,25,95.4,50C95.4,75,75,95.4,50,95.4z"/>
	<path class="st0" d="M71.8,63.1c-0.8-1-1.9-2.1-3.4-3.2c-0.9-0.7-1.9-1.4-3-2.1c-0.7-0.5-1.2-0.8-1.4-0.9c-2.6-1.5-5.4-1-6.8,1.1
		l-0.1,0.1L57,58.3c-0.3,0.3-0.5,0.6-0.8,0.9l-0.1,0.1c-0.3,0.3-0.6,0.6-0.7,0.8l-0.1,0.1l-0.1,0c-1.5,1-2.5,0.9-3.8-0.4L41.3,49.7
		c-1.3-1.3-1.4-2.3-0.4-3.8l0-0.1l0.1-0.1c0.2-0.1,0.4-0.4,0.8-0.7l0.1-0.1c0.3-0.3,0.6-0.5,0.9-0.8l0.3-0.3
		c2.2-1.4,2.6-4.1,1.1-6.8c-0.1-0.2-0.4-0.7-0.9-1.4c-0.7-1.1-1.4-2.1-2.1-3c-1.1-1.5-2.2-2.6-3.2-3.4c-0.5-0.4-0.9-0.7-1.4-0.9
		c-0.8-0.4-1.8-0.7-2.7-0.7c-1.5,0-2.9,0.6-4,1.7l-2.2,2.2c-3.6,3.6-5.1,7.7-4.4,12.1C24,48,26.7,52.4,31.2,57l12.9,12.9
		c4.5,4.5,9,7.2,13.2,7.9c4.4,0.7,8.5-0.8,12.1-4.4l2.2-2.2c1.8-1.8,2.2-4.4,1-6.7C72.5,64.1,72.1,63.6,71.8,63.1z M68.6,68.1
		l-2.2,2.2c-2.2,2.2-4.4,3.2-6.9,3.2c-0.6,0-1.2-0.1-1.8-0.2c-3.1-0.6-6.6-2.8-10.3-6.5L34.4,53.9c-3.7-3.7-5.9-7.2-6.5-10.3
		c-0.6-3.2,0.4-6.1,3-8.7l2.2-2.2c0.4-0.4,1-0.5,1.5-0.2c0.2,0.1,0.5,0.3,0.7,0.5c0.7,0.6,1.6,1.5,2.5,2.6c0.6,0.8,1.3,1.7,1.9,2.7
		c0.4,0.7,0.7,1.1,0.7,1.2c0.1,0.1,0.1,0.2,0.1,0.3l0.2,0.5l-0.4,0.3c-0.1,0.1-0.2,0.2-0.5,0.4c-0.3,0.3-0.7,0.6-1,0.9l-0.1,0.1
		c-0.8,0.7-1.3,1.2-1.6,1.6c-2.3,3.3-1.9,6.6,0.9,9.5L48.3,63c2.9,2.9,6.1,3.2,9.5,0.9c0.4-0.3,0.9-0.8,1.6-1.6l0.1-0.1
		c0.3-0.3,0.6-0.7,0.9-1c0.2-0.2,0.3-0.4,0.4-0.5l0.3-0.4l0.5,0.2c0.1,0,0.2,0.1,0.3,0.1c0.2,0.1,0.6,0.4,1.2,0.7
		c1,0.6,1.9,1.3,2.7,1.9c1.1,0.9,2.1,1.8,2.6,2.5c0.2,0.3,0.4,0.5,0.5,0.7C69.1,67.1,69,67.7,68.6,68.1z"/>
	<path class="st0" d="M67.3,27.8c0,0-0.1,0-0.1,0l-0.1,0c0,0,0,0-0.1,0l-8.3,0c-1.2,0-2.2,1-2.2,2.2c0,1.2,1,2.2,2.2,2.2h3.4
		l-11.3,13c-0.8,0.9-0.7,2.3,0.2,3.1c0.4,0.4,0.9,0.5,1.5,0.5c0.6,0,1.2-0.3,1.7-0.8l10.7-12.2v2.4c0,1.2,1,2.2,2.2,2.2
		c1.2,0,2.2-1,2.2-2.2l0-8.4c0,0,0,0,0-0.1c0,0,0-0.1,0-0.1c0,0,0-0.1,0-0.1c0,0,0-0.1,0-0.1c0,0,0-0.1,0-0.1c0,0,0,0,0-0.1
		c0,0,0-0.1-0.1-0.1l0,0c0-0.1-0.1-0.1-0.1-0.2l0,0c0-0.1-0.1-0.1-0.1-0.2l0,0c0-0.1-0.1-0.1-0.1-0.1l0,0c0,0-0.1-0.1-0.1-0.1
		l-0.1-0.1c0,0,0,0,0,0c0,0,0,0,0,0l-0.1,0c0,0-0.1-0.1-0.1-0.1l-0.1,0c0,0-0.1-0.1-0.1-0.1l-0.1,0c0,0-0.1,0-0.1-0.1c0,0,0,0-0.1,0
		l-0.1,0c0,0,0,0-0.1,0c0,0-0.1,0-0.1,0l-0.1,0C67.4,27.9,67.4,27.8,67.3,27.8L67.3,27.8z"/>
</g>
</svg>
