<?xml version="1.0" encoding="utf-8"?>
<!-- Generator: Adobe Illustrator 22.0.1, SVG Export Plug-In . SVG Version: 6.00 Build 0)  -->
<svg version="1.1" id="Layer_1" xmlns="http://www.w3.org/2000/svg" xmlns:xlink="http://www.w3.org/1999/xlink" x="0px" y="0px"
	 viewBox="0 0 100 100" style="enable-background:new 0 0 100 100;" xml:space="preserve">
<style type="text/css">
	.st0{fill:#7A66FD;}
</style>
<g>
	<path class="st0" d="M50,0C22.4,0,0,22.4,0,50c0,27.6,22.4,50,50,50s50-22.4,50-50C100,22.4,77.6,0,50,0z M50,95.4
		C25,95.4,4.6,75,4.6,50C4.6,25,25,4.6,50,4.6S95.4,25,95.4,50C95.4,75,75,95.4,50,95.4z"/>
	<path class="st0" d="M64.1,39.8l-0.5-0.1v-7.3c0-1-0.8-1.8-1.8-1.8h-1.4v-7.4c0-1.5-1.3-2.8-2.8-2.8H36.1c-1.5,0-2.8,1.3-2.8,2.8
		V78c0,1.5,1.3,2.8,2.8,2.8h29.6c2,0,3.7-1.7,3.7-3.7v-30C69.5,43.8,67.3,40.8,64.1,39.8z M60.1,34.1v5.4h-4.6V35c0,0,0-0.1,0-0.1
		l-0.1-0.7H60.1z M46.2,77.3h-9.4V23.8H57v6.7h-3.3c-1,0-1.8,0.8-1.8,1.8v1H40.8c-0.9,0-1.6,0.7-1.6,1.6v34.8c0,0.9,0.7,1.6,1.6,1.6
		h5.3V77.3z M46.2,47.1v20.7h-3.4V37H52v2.7l-0.5,0.1C48.4,40.8,46.2,43.8,46.2,47.1z M65.9,77.2H49.7V73h16.2V77.2z M65.9,69.5
		H49.7V50.8h16.2V69.5z M49.6,47.2l0.1-0.8c0.3-2,2-3.4,4-3.4h8.1c2,0,3.7,1.5,4,3.4l0.1,0.8H49.6z"/>
	<path class="st0" d="M57.7,65.2c2.7,0,4.9-2.2,4.9-4.9c0-2.7-2.2-4.9-4.9-4.9c-2.7,0-4.9,2.2-4.9,4.9C52.8,63,55,65.2,57.7,65.2z
		 M57.7,58.7c0.9,0,1.6,0.7,1.6,1.6c0,0.9-0.7,1.6-1.6,1.6c-0.9,0-1.6-0.7-1.6-1.6C56.2,59.4,56.9,58.7,57.7,58.7z"/>
</g>
</svg>
