<?xml version="1.0" encoding="utf-8"?>
<!-- Generator: Adobe Illustrator 22.0.1, SVG Export Plug-In . SVG Version: 6.00 Build 0)  -->
<svg version="1.1" id="Layer_1" xmlns="http://www.w3.org/2000/svg" xmlns:xlink="http://www.w3.org/1999/xlink" x="0px" y="0px"
	 viewBox="0 0 197.3 100" style="enable-background:new 0 0 197.3 100;" xml:space="preserve">
<style type="text/css">
	.st0{fill:#FFFFFF;}
</style>
<g>
	<path class="st0" d="M193.8,99.9c0.1,0,0.1,0,0.2-0.1c0.1,0,0.1,0,0.2,0c0.1,0,0.1,0,0.2-0.1c0.1,0,0.1,0,0.2-0.1
		c0.1,0,0.1-0.1,0.2-0.1c0.1,0,0.1-0.1,0.2-0.1c0.1,0,0.1-0.1,0.2-0.1c0.1,0,0.1-0.1,0.2-0.1c0.1,0,0.1-0.1,0.2-0.1
		c0.1,0,0.1-0.1,0.2-0.1c0.1-0.1,0.2-0.2,0.3-0.2c0,0,0,0,0,0c0,0,0,0,0-0.1c0.1-0.1,0.2-0.2,0.2-0.3c0-0.1,0.1-0.1,0.1-0.2
		c0-0.1,0.1-0.1,0.1-0.2c0-0.1,0.1-0.1,0.1-0.2c0-0.1,0.1-0.1,0.1-0.2c0-0.1,0.1-0.1,0.1-0.2c0-0.1,0.1-0.1,0.1-0.2
		c0-0.1,0-0.1,0.1-0.2c0-0.1,0-0.1,0.1-0.2c0-0.1,0-0.1,0-0.2c0-0.1,0-0.1,0.1-0.2c0-0.1,0-0.2,0-0.2c0-0.1,0-0.1,0-0.2
		c0-0.1,0-0.3,0-0.4V4.3c0-2.4-1.9-4.3-4.3-4.3H58.2c0,0-0.1,0-0.1,0C58,0,58,0,57.9,0c-0.1,0-0.1,0-0.2,0c-0.1,0-0.1,0-0.2,0
		c-0.1,0-0.1,0-0.2,0c-0.1,0-0.1,0-0.2,0.1c-0.1,0-0.1,0-0.2,0.1c-0.1,0-0.1,0-0.2,0.1c-0.1,0-0.1,0.1-0.2,0.1
		c-0.1,0-0.1,0.1-0.2,0.1c-0.1,0-0.1,0.1-0.2,0.1c-0.1,0-0.1,0.1-0.2,0.1c-0.1,0-0.1,0.1-0.2,0.1c-0.1,0-0.1,0.1-0.2,0.1
		c-0.1,0-0.1,0.1-0.2,0.1c0,0-0.1,0.1-0.1,0.1c-0.1,0.1-0.1,0.1-0.2,0.2c0,0-0.1,0.1-0.1,0.1c0,0,0,0,0,0.1
		c-0.1,0.1-0.1,0.1-0.2,0.2c0,0-0.1,0.1-0.1,0.1c0,0.1-0.1,0.1-0.1,0.2c0,0.1-0.1,0.1-0.1,0.2c0,0.1-0.1,0.1-0.1,0.2
		c0,0.1-0.1,0.1-0.1,0.2c0,0.1-0.1,0.1-0.1,0.2c0,0.1,0,0.1-0.1,0.2c0,0.1,0,0.1-0.1,0.2c0,0.1,0,0.1-0.1,0.2c0,0.1,0,0.1,0,0.2
		c0,0.1,0,0.2,0,0.2c0,0.1,0,0.1,0,0.2c0,0.1,0,0.2,0,0.2c0,0,0,0,0,0.1v26.4c0,2.4,1.9,4.3,4.3,4.3c2.4,0,4.3-1.9,4.3-4.3V13.8
		l38,33.7c-0.2,0.1-0.4,0.3-0.6,0.5L62.5,85.4V57.3c0-2.4-1.9-4.3-4.3-4.3c-2.4,0-4.3,1.9-4.3,4.3v5.2H31.8c-2.4,0-4.3,1.9-4.3,4.3
		c0,2.4,1.9,4.3,4.3,4.3H54v24.7c0,2.4,1.9,4.3,4.3,4.3H193c0.1,0,0.3,0,0.4,0c0.1,0,0.1,0,0.2,0C193.7,99.9,193.7,99.9,193.8,99.9
		L193.8,99.9z M188.7,85.4l-37.5-37.5c0,0,0,0-0.1-0.1L179.3,24c1.8-1.5,2-4.2,0.5-6c-1.5-1.8-4.2-2-6-0.5l-48.1,40.8L69.5,8.6
		h119.2V85.4z M106,54c0.3-0.3,0.6-0.6,0.7-1l16,14.2c0.8,0.7,1.8,1.1,2.8,1.1c1,0,2-0.3,2.8-1l16.3-13.8c0.2,0.2,0.3,0.4,0.5,0.6
		l37.5,37.5H68.6L106,54z M106,54"/>
	<path class="st0" d="M4.3,48.7h72.3c2.4,0,4.3-1.9,4.3-4.3c0-2.4-1.9-4.3-4.3-4.3H4.3c-2.4,0-4.3,1.9-4.3,4.3
		C0,46.8,1.9,48.7,4.3,48.7L4.3,48.7z M4.3,48.7"/>
	<path class="st0" d="M11.8,25.1h32.4c2.4,0,4.3-1.9,4.3-4.3c0-2.4-1.9-4.3-4.3-4.3H11.8c-2.4,0-4.3,1.9-4.3,4.3
		C7.5,23.2,9.4,25.1,11.8,25.1L11.8,25.1z M11.8,25.1"/>
	<path class="st0" d="M35.7,80.6H4.3c-2.4,0-4.3,1.9-4.3,4.3c0,2.4,1.9,4.3,4.3,4.3h31.4c2.4,0,4.3-1.9,4.3-4.3
		C39.9,82.5,38,80.6,35.7,80.6L35.7,80.6z M35.7,80.6"/>
</g>
</svg>
