<?xml version="1.0" encoding="utf-8"?>
<!-- Generator: Adobe Illustrator 22.0.1, SVG Export Plug-In . SVG Version: 6.00 Build 0)  -->
<svg version="1.1" id="Layer_1" xmlns="http://www.w3.org/2000/svg" xmlns:xlink="http://www.w3.org/1999/xlink" x="0px" y="0px"
	 viewBox="0 0 100 100" style="enable-background:new 0 0 100 100;" xml:space="preserve">
<style type="text/css">
	.st0{fill:#7A66FD;}
</style>
<path class="st0" d="M56.4,25.4H40.5c-1.3,0-2.3,1-2.3,2.3v23.1h-4.1c-1.3,0-2.3,1-2.3,2.3c0,1.3,1,2.3,2.3,2.3h4.1v8.1h-4.1
	c-1.3,0-2.3,1-2.3,2.3c0,1.3,1,2.3,2.3,2.3h4.1v7.2c0,1.3,1,2.3,2.3,2.3c1.3,0,2.3-1,2.3-2.3v-7.2h13.6c1.3,0,2.3-1,2.3-2.3
	c0-1.3-1-2.3-2.3-2.3H42.8v-8.1h13.6c8.3,0,15-6.7,15-15C71.4,32.2,64.6,25.4,56.4,25.4z M56.4,50.9H42.8V30.1h13.6
	c5.7,0,10.4,4.7,10.4,10.4C66.8,46.2,62.1,50.9,56.4,50.9z"/>
<path class="st0" d="M50,0C22.4,0,0,22.4,0,50c0,27.6,22.4,50,50,50c27.6,0,50-22.4,50-50C100,22.4,77.6,0,50,0z M50,95.4
	C25,95.4,4.6,75,4.6,50C4.6,25,25,4.6,50,4.6C75,4.6,95.4,25,95.4,50C95.4,75,75,95.4,50,95.4z"/>
</svg>
