<?xml version="1.0" encoding="utf-8"?>
<!-- Generator: Adobe Illustrator 22.0.1, SVG Export Plug-In . SVG Version: 6.00 Build 0)  -->
<svg version="1.1" id="Layer_1" xmlns="http://www.w3.org/2000/svg" xmlns:xlink="http://www.w3.org/1999/xlink" x="0px" y="0px"
	 viewBox="0 0 100 100" style="enable-background:new 0 0 100 100;" xml:space="preserve">
<style type="text/css">
	.st0{fill:#7A66FD;}
</style>
<g>
	<path class="st0" d="M50,0C22.4,0,0,22.4,0,50c0,27.6,22.4,50,50,50c27.6,0,50-22.4,50-50C100,22.4,77.6,0,50,0z M50,95.4
		C25,95.4,4.6,75,4.6,50C4.6,25,25,4.6,50,4.6S95.4,25,95.4,50C95.4,75,75,95.4,50,95.4z"/>
	<path class="st0" d="M75.7,37.6c-0.3-0.6-0.8-1-1.4-1.3c-0.6-0.2-1.3-0.2-1.9,0.1c-0.6,0.3-1,0.8-1.3,1.4c-0.2,0.6-0.2,1.3,0.1,1.9
		c1.6,3.2,2.3,6.7,2.3,10.3C73.6,63,63,73.6,50,73.6S26.4,63,26.4,50C26.4,37,37,26.4,50,26.4c5.4,0,10.5,1.8,14.7,5.1
		c0.5,0.4,1.2,0.6,1.8,0.5c0.7-0.1,1.3-0.4,1.7-0.9c0.4-0.5,0.6-1.2,0.5-1.8c-0.1-0.7-0.4-1.3-0.9-1.7c-5-4-11.3-6.2-17.8-6.2
		c-15.8,0-28.6,12.8-28.6,28.6c0,15.8,12.8,28.6,28.6,28.6c15.8,0,28.6-12.8,28.6-28.6C78.6,45.6,77.6,41.4,75.7,37.6L75.7,37.6z"/>
	<path class="st0" d="M51.5,34.6c0-1.4-1.1-2.5-2.5-2.5c-1.4,0-2.5,1.1-2.5,2.5v16.6c0,1.4,1.1,2.5,2.5,2.5h11.9
		c1.4,0,2.5-1.1,2.5-2.5s-1.1-2.5-2.5-2.5h-9.4V34.6z"/>
</g>
</svg>
