<?xml version="1.0" encoding="utf-8"?>
<!-- Generator: Adobe Illustrator 22.0.1, SVG Export Plug-In . SVG Version: 6.00 Build 0)  -->
<svg version="1.1" id="Layer_1" xmlns="http://www.w3.org/2000/svg" xmlns:xlink="http://www.w3.org/1999/xlink" x="0px" y="0px"
	 viewBox="0 0 301.6 301.3" style="enable-background:new 0 0 301.6 301.3;" xml:space="preserve">
<style type="text/css">
	.st0{fill:#7A66FD;}
</style>
<g>
	<path class="st0" d="M301.1,138.8l0.1-0.4c0.1-0.3,0.2-0.6,0.2-0.9c0-0.3-0.1-0.6-0.2-1l-0.5-1.3l0-0.2
		c-4.1-40-23.6-75.9-54.8-101.2c-1.9-1.5-3.8-2.9-5.8-4.3l-1.2-0.9c-0.1-0.1-0.2-0.1-0.2-0.2c-0.1,0-0.1-0.1-0.2-0.1l-0.1-0.1
		C212.8,9.8,182.4,0.1,150.8,0c-1.2,0-2.5,0-3.4,0.1l-0.2,0c-16.8,0.3-33.4,3.5-49.1,9.4l-1,0.4l-0.8-0.6C83.1-1,65-2.9,50,4.5
		c-15,7.3-24.6,22.8-24.6,39.4c0.3,5.6,1.6,11,3.8,16.2l0.4,1L29,61.9c-5.1,7-9.7,14.5-13.5,22.2l-0.1,0.2c0,0.1-0.1,0.2-0.1,0.3
		c-35.9,74.3-6.6,162,66.9,199.8c22.4,11.5,46.1,17,69.5,17c53.3,0,104.4-28.5,131.9-78.9c10.7-19.7,16.8-41.8,17.8-64.2
		c0.1-2.2,0.2-4.6,0.2-7.4c0-3.5-0.2-7.3-0.5-11.6L301.1,138.8z M236.4,36.9l1.2-1.4l1.4,1.1c0.4,0.3,0.8,0.6,1.2,0.9
		c0.6,0.4,1.2,0.8,1.7,1.3c23.4,19.1,40,44.5,48,73.6l1.7,6.1l-4.7-4.2c-0.3-0.2-0.5-0.5-0.8-0.8c-0.4-0.3-0.7-0.7-1-0.9
		c-6.5-4.9-13.7-8.5-21.6-10.8c-6.9-1.7-14.4-1.8-21.4-0.2c-6.5,1.5-13.3,1.5-19.8,0.1c-12.6-2.8-22.6-4.9-28.1-13.7
		c-7.8-12.5-4-30.2,4.3-36.4l0.1,0c2.9-2,6.5-2.8,10-2.2c5,0.4,10.2-0.5,14.8-2.5C228.4,44.5,232.8,41.2,236.4,36.9z M69.3,6.4
		L69.3,6.4c20.6,0,37.5,16.9,37.5,37.5c0,18.1-30,60.5-36,68.9l-1.5,2.1l-1.5-2.1C55.7,96.4,45,78.7,36.2,60.3
		c-2.5-5.1-4-10.6-4.4-16.2l0-0.1C31.8,23.3,48.7,6.5,69.3,6.4z M125.6,290.2l1.1,3.1l-3.2-0.6c-32.8-6.4-62.7-24.1-84-49.9
		c-21.3-25.8-33.1-58.4-33.1-91.9v0c0-9.6,1-19.2,2.9-28.6l2.7-13.2l1,13.4c0.5,6.8,1.4,12.7,2.3,18.7c3.1,20.6,6,40,21.1,57.6
		c6.3,7.4,16.7,19.7,32.6,21.5c16.1,1.8,36.6-7.6,42.5-10.5l2.2-1.1c3.4-2.1,7.4-3.4,11.4-3.6l0.1,0l0.1,0c7,0.6,13.3,3.9,17.9,9.1
		c9.2,10.2,11.5,27.3,4.8,36.7c-2.3,3-5.3,5.1-8.8,6.1c-4.8,1.6-9,4.9-11.7,9.3C123.6,273.6,122.9,282.3,125.6,290.2z M275.5,223.4
		c-25.7,44.3-73.5,71.8-124.7,71.8c0,0,0,0-0.1,0c-5,0-10-0.3-14.9-0.8l-0.8-0.1l-0.5-0.6c-0.5-0.6-0.9-1.2-1.3-1.8l-0.1-0.1
		c-3.7-6.9-3.8-15.2-0.1-22.2l0.1-0.1c2.1-3.3,5.3-5.7,9-6.8c4.5-1.6,8.4-4.4,11.2-8.2c8.4-11.8,5.9-32.2-5.3-44.7
		c-5.8-6.6-14.1-10.7-22.8-11.3h-0.2c-5,0.2-9.9,1.6-14.2,4.2l-0.1,0.1l-2.2,1.1c-11.4,5.6-27.6,11.1-39,9.9
		c-13.4-1.5-22.4-12.2-28.4-19.2c-13.9-16.2-16.6-33.9-19.6-54.4c-3.3-17.5-3.4-35.3-0.4-53l0-0.3l0.1-0.2c2.8-5.6,5.9-11,9.3-16.2
		l1.8-2.7l1.6,3.3c0.1,0.2,0.2,0.5,0.4,0.7c0.3,0.6,0.6,1.2,1,1.8l0.2,0.5c0.4,0.8,0.9,1.6,1.3,2.5c0.3,0.6,0.7,1.3,1,1.9
		c0.5,1,1.1,1.9,1.6,2.9l0.3,0.5c0.3,0.5,0.5,0.9,0.8,1.4c0.6,1,1.1,1.9,1.7,2.9c0.4,0.6,0.7,1.2,1.1,1.9c0.4,0.7,0.8,1.4,1.2,2
		l0.6,0.9c0.3,0.6,0.7,1.1,1,1.7c0.5,0.8,1,1.6,1.5,2.4l0.7,1.2c0.1,0.2,0.2,0.4,0.3,0.5l0.2,0.4c0.9,1.4,1.8,2.8,2.8,4.2
		c0.3,0.4,0.5,0.8,0.8,1.2l0.2,0.3c0.6,0.8,1.1,1.7,1.7,2.5l1.2,1.8c0.4,0.6,0.9,1.3,1.3,1.9l1.2,1.8c0.3,0.5,0.6,0.9,0.9,1.4
		l0.4,0.5c0.3,0.4,0.6,0.9,0.9,1.3l5.2,7.2c0.4,0.6,0.8,1,0.9,1.2c0.6,0.8,1.6,1.3,2.6,1.3c1,0,2-0.5,2.6-1.3
		c4.2-5.6,41.4-55.5,41.4-78.3c0-1.3-0.1-2.7-0.2-4.2c0-0.3-0.1-0.5-0.1-0.8l-0.1-0.5c-0.1-1.1-0.3-2.1-0.5-2.9
		c-0.1-0.5-0.2-1-0.3-1.4c-0.2-1-0.5-2-0.8-3c-0.1-0.2-0.1-0.3-0.2-0.5c-0.1-0.2-0.1-0.4-0.2-0.6c-0.5-1.4-1-2.7-1.5-3.9
		c-0.1-0.2-0.2-0.4-0.3-0.6l-0.1-0.1c-0.5-1-1-2-1.5-3c-0.2-0.3-0.4-0.6-0.5-0.9l-0.2-0.4c-0.5-0.8-1-1.5-1.5-2.3
		c-0.3-0.4-0.6-0.9-0.9-1.3c-0.1-0.1-0.1-0.2-0.2-0.3c-0.1-0.1-0.1-0.2-0.2-0.3l-1.8-2.1l2.6-0.9c10.7-3.6,21.9-5.9,33.2-6.9
		l3.4-0.3l-1.6,3c-7.7,14.6-10.2,28.1-7.4,39.9c2.1,7.9,6.2,15.4,11.8,21.4l0.1,0.1c4.8,6,8.7,10.7,8.4,18.4
		c-0.5,15.7-17.7,28.4-24.2,33.1c-8.5,6.1-17.9,10.6-27.9,13.5c-9,3-16.2,5.3-19,13.5C78.8,161,83.4,172.7,93,179
		c5.7,3.1,12.6,3.7,18.7,1.6l0.2,0c7.6-1.8,15.4-2.1,23.1-1.1c10.1,1.4,18.8,2.7,23.2,8.8c2.7,3.8,2.6,7.7,2.1,14.2l0,0.1
		c-1,8.6-0.1,17.4,2.6,25.6c2.2,6.5,5.5,16.4,12.7,17.4c5.8,0.9,9.2-4,13.3-9.9c1.6-2.4,3.6-5.1,5.9-7.9l1.7-2l1.4,2.2
		c9.2,14.9,18.7,27.8,21.4,31.4l0.1,0.2c0.6,0.8,1.6,1.3,2.6,1.3c1,0,2-0.5,2.6-1.3c11-14.7,21.1-30.2,30-46.2l0.7-1.3l1.4,0.4
		c6.4,1.9,12.5,4.7,18.2,8.3l1.5,1L275.5,223.4z M188.9,197.7c-2.5-5.1-4-10.6-4.4-16.2l0-0.1c0-20.7,16.8-37.5,37.5-37.5
		c1.2,0,2.3,0.1,3.5,0.2c8,0.7,15.6,4.1,21.5,9.4c8,7.1,12.5,17.3,12.5,27.9c0,5.5-3,14.4-8.8,25.6c-8.1,15-17.2,29.5-27.2,43.3
		l-1.5,2.1l-1.5-2.1c-5.4-7.6-13.4-19.1-20.5-31.1C195.9,212.3,192.2,205.1,188.9,197.7z M295,157.1l0,0.8
		c-0.9,19.7-5.8,38.7-14.5,56.5l-0.9,1.9l-1.8-1.1c-5.4-3.4-11.3-6.2-17.4-8.1l-2.1-0.7l1.1-2c3.8-7.2,6.1-14.9,6.7-23
		c-0.1-16.8-9.5-31.9-24.6-39.4l-0.3-0.1c-1.2-0.6-2.3-1.1-3.4-1.5c-0.6-0.2-1.2-0.4-1.8-0.6l-0.6-0.2c-0.3-0.1-0.6-0.2-0.9-0.3
		c-0.2-0.1-0.3-0.1-0.5-0.2c-1.1-0.3-2.3-0.6-3.6-0.8l-0.2,0c-0.5-0.1-1.1-0.2-1.7-0.2l-0.7-0.1c-12.6-1.7-25.2,2.1-34.8,10.4
		c-9.5,8.4-14.9,20.4-14.8,33.1c0.4,6.6,2,12.9,4.9,18.8c2.8,6.5,6.1,12.8,9.6,18.8l0.7,1.2l-0.9,1c-3.1,3.4-6,7-8.5,10.8
		c-1.5,2.6-3.4,4.8-5.6,6.8l-0.7,0.6l-0.9-0.1c-1.7-0.3-3.9-2-7.6-13.1c-2.4-7.5-3.2-15.5-2.2-23.2l0-0.1c1.2-6.3,0-12.8-3.4-18.2
		c-6-8.4-17-9.9-27.6-11.4c-8.4-1.2-16.9-0.8-25.1,1.1c-6.4,1.2-10.2,1.9-14.4-0.7l-0.1,0c-6.9-4.7-10.4-13.1-8.8-21.4l0.1-0.2
		c1.7-5.1,6.7-6.7,14.9-9.5c10.7-3.1,20.7-7.9,29.7-14.4c7.2-5.3,26.2-19.2,26.8-38.1c0.3-10.1-4.6-16.1-9.8-22.6
		c-5-5.3-8.6-11.9-10.6-18.9c-2.8-11.8,0.5-25.6,9.9-41l0.5-0.9h1.6c28.5,0,56.1,8.4,79.8,24.1l1.8,1.2l-1.4,1.6
		c-2.9,3.2-6.3,5.8-10.2,7.6c-3.9,1.7-8.1,2.3-12.3,1.9c-5-0.6-9.8,0.7-13.9,3.5c-10.9,8.2-15.7,29.2-5.8,45
		c7,11.1,18.8,13.7,32.6,16.7c7.2,1.5,14.5,1.5,21.7-0.1c6.2-1.5,12.7-1.5,18.9,0.1c7,2,13.4,5.2,19.2,9.6l0.1,0.1
		c6,5,10.6,11.5,13.2,18.9l0.1,0.2l0,0.2c0.5,5,0.7,9.5,0.7,13.8C295.2,153.2,295.1,155.2,295,157.1z"/>
	<path class="st0" d="M69.3,57.4c10.2,0,18.5-8.3,18.5-18.5c0-10.2-8.3-18.5-18.5-18.5c-10.2,0-18.5,8.3-18.5,18.5
		C50.8,49.1,59.1,57.4,69.3,57.4z M69.3,26.8c6.6,0,12,5.4,12,12c0,6.6-5.4,12-12,12s-12-5.4-12-12C57.3,32.2,62.7,26.8,69.3,26.8z"
		/>
	<path class="st0" d="M222,194.8c10.2,0,18.5-8.3,18.5-18.5c0-10.2-8.3-18.5-18.5-18.5c-10.2,0-18.5,8.3-18.5,18.5
		C203.5,186.5,211.8,194.8,222,194.8z M222,164.2c6.6,0,12,5.4,12,12c0,6.6-5.4,12-12,12c-6.6,0-12-5.4-12-12
		C210,169.6,215.4,164.2,222,164.2z"/>
</g>
</svg>
