<?xml version="1.0" encoding="utf-8"?>
<!-- Generator: Adobe Illustrator 22.0.1, SVG Export Plug-In . SVG Version: 6.00 Build 0)  -->
<svg version="1.1" id="Layer_1" xmlns="http://www.w3.org/2000/svg" xmlns:xlink="http://www.w3.org/1999/xlink" x="0px" y="0px"
	 viewBox="0 0 225.3 301.7" style="enable-background:new 0 0 225.3 301.7;" xml:space="preserve">
<style type="text/css">
	.st0{fill:#7A66FD;}
</style>
<g>
	<path class="st0" d="M169.9,215.8c6.3,0,11.4,5.1,11.4,11.4c0,1.6,1.3,2.9,2.9,2.9c1.6,0,2.9-1.3,2.9-2.9c0-9.5-7.7-17.2-17.2-17.2
		c-1.6,0-2.9,1.3-2.9,2.9S168.3,215.8,169.9,215.8z"/>
	<path class="st0" d="M212.9,0H12.5C5.6,0,0,5.6,0,12.5v257.7c0,6.9,5.6,12.5,12.5,12.5h106.7l0.2,1.6c0,0.3,0.1,0.6,0.2,0.8
		c0.4,0.9,1.2,1.5,2.1,1.6l13,2.3l11.4,11.8c0.6,0.7,1.5,1,2.5,0.9c0.9-0.1,1.7-0.7,2.1-1.4l10.1-17.6H179l10,17.6
		c0.5,0.8,1.3,1.3,2.2,1.5c0.1,0,0.2,0,0.4,0c0.8,0,1.5-0.3,2.1-0.9L205,289l13-2.3c0.9-0.2,1.7-0.8,2.1-1.6
		c0.4-0.8,0.4-1.8-0.1-2.7l-0.8-1.4l1.3-1c3-2.4,4.9-6,4.9-9.9V12.5C225.3,5.6,219.7,0,212.9,0z M147.5,294l-9.3-9.6
		c-0.4-0.4-1-0.7-1.6-0.8l-9.8-1.8l17-29.2l1.7,1.6c4.8,4.4,10.7,7.4,17,8.7l2.5,0.5L147.5,294z M139.4,227.2
		c0-16.8,13.7-30.5,30.5-30.5c16.8,0,30.5,13.7,30.5,30.5c0,16.8-13.7,30.5-30.5,30.5C153.1,257.7,139.4,244,139.4,227.2z
		 M164,276.8l5.9-10.3l5.8,10.3H164z M203,283.5c-0.6,0.1-1.1,0.4-1.6,0.8l-9.3,9.6l-17.4-30.7l2.5-0.5c6.3-1.3,12.2-4.3,17.1-8.7
		l1.7-1.6l16.8,29.2L203,283.5z M219.5,270.1c0,1.4-0.5,2.8-1.3,3.9l-1.7,2.3L200,247.6l0.6-1c3.7-5.8,5.7-12.6,5.7-19.5
		c0-20-16.3-36.3-36.3-36.3c-20,0-36.3,16.3-36.3,36.3c0,6.9,2,13.6,5.7,19.4l0.6,1l-17,29.2H12.5c-3.7,0-6.6-3-6.6-6.6V12.5
		c0-3.7,3-6.6,6.6-6.6h200.4c3.7,0,6.6,3,6.6,6.6V270.1z"/>
	<path class="st0" d="M150.8,67.8c1.6,0,2.9-1.3,2.9-2.9c0-1.6-1.3-2.9-2.9-2.9H74.5c-1.6,0-2.9,1.3-2.9,2.9c0,1.6,1.3,2.9,2.9,2.9
		H150.8z"/>
	<path class="st0" d="M174.7,85.9H50.6c-1.6,0-2.9,1.3-2.9,2.9c0,1.6,1.3,2.9,2.9,2.9h124.1c1.6,0,2.9-1.3,2.9-2.9
		C177.6,87.2,176.3,85.9,174.7,85.9z"/>
	<path class="st0" d="M64.9,129.9h4.8c1.6,0,2.9-1.3,2.9-2.9c0-1.6-1.3-2.9-2.9-2.9h-4.8c-1.6,0-2.9,1.3-2.9,2.9
		C62,128.6,63.3,129.9,64.9,129.9z"/>
	<path class="st0" d="M64.9,153.7h4.8c1.6,0,2.9-1.3,2.9-2.9c0-1.6-1.3-2.9-2.9-2.9h-4.8c-1.6,0-2.9,1.3-2.9,2.9
		C62,152.4,63.3,153.7,64.9,153.7z"/>
	<path class="st0" d="M64.9,177.6h4.8c1.6,0,2.9-1.3,2.9-2.9c0-1.6-1.3-2.9-2.9-2.9h-4.8c-1.6,0-2.9,1.3-2.9,2.9
		C62,176.3,63.3,177.6,64.9,177.6z"/>
	<path class="st0" d="M160.4,124.1H88.8c-1.6,0-2.9,1.3-2.9,2.9c0,1.6,1.3,2.9,2.9,2.9h71.6c1.6,0,2.9-1.3,2.9-2.9
		C163.3,125.4,162,124.1,160.4,124.1z"/>
	<path class="st0" d="M160.4,147.9H88.8c-1.6,0-2.9,1.3-2.9,2.9c0,1.6,1.3,2.9,2.9,2.9h71.6c1.6,0,2.9-1.3,2.9-2.9
		C163.3,149.2,162,147.9,160.4,147.9z"/>
	<path class="st0" d="M160.4,171.8H88.8c-1.6,0-2.9,1.3-2.9,2.9c0,1.6,1.3,2.9,2.9,2.9h71.6c1.6,0,2.9-1.3,2.9-2.9
		C163.3,173.1,162,171.8,160.4,171.8z"/>
	<path class="st0" d="M47.7,222.4c0,1.6,1.3,2.9,2.9,2.9h42.9c1.6,0,2.9-1.3,2.9-2.9c0-1.6-1.3-2.9-2.9-2.9H50.6
		C49,219.5,47.7,220.8,47.7,222.4z"/>
	<path class="st0" d="M203.3,38.2c-8.9,0-16.2-7.3-16.2-16.2c0-1.6-1.3-2.9-2.9-2.9H41.1c-1.6,0-2.9,1.3-2.9,2.9
		c0,8.9-7.3,16.2-16.2,16.2c-1.6,0-2.9,1.3-2.9,2.9v200.4c0,1.6,1.3,2.9,2.9,2.9c8.9,0,16.2,7.3,16.2,16.2c0,1.6,1.3,2.9,2.9,2.9
		h71.6c1.6,0,2.9-1.3,2.9-2.9s-1.3-2.9-2.9-2.9H43.9l-0.3-1.5c-1.8-8.7-8.5-15.4-17.2-17.2l-1.5-0.3V43.9l1.5-0.3
		c8.7-1.8,15.4-8.5,17.2-17.2l0.3-1.5h137.6l0.3,1.5c1.8,8.7,8.5,15.4,17.2,17.2l1.5,0.3V189c0,1.6,1.3,2.9,2.9,2.9
		c1.6,0,2.9-1.3,2.9-2.9V41.1C206.2,39.5,204.9,38.2,203.3,38.2z"/>
</g>
</svg>
