<?xml version="1.0" encoding="utf-8"?>
<!-- Generator: Adobe Illustrator 22.0.1, SVG Export Plug-In . SVG Version: 6.00 Build 0)  -->
<svg version="1.1" id="Layer_1" xmlns="http://www.w3.org/2000/svg" xmlns:xlink="http://www.w3.org/1999/xlink" x="0px" y="0px"
	 viewBox="0 0 100 100" style="enable-background:new 0 0 100 100;" xml:space="preserve">
<style type="text/css">
	.st0{fill:#7A66FD;}
</style>
<g>
	<path class="st0" d="M50,0C22.4,0,0,22.4,0,50s22.4,50,50,50s50-22.4,50-50S77.6,0,50,0z M50,95.4C25,95.4,4.6,75,4.6,50
		S25,4.6,50,4.6S95.4,25,95.4,50S75,95.4,50,95.4z"/>
	<path class="st0" d="M74.5,44.6c-1.3-1.1-1.7-1.5-1.8-1.7l-0.1-0.1l0-0.1c0-0.3,0-0.8,0.5-2.6c0.5-2,1.2-4.5-0.3-6.5
		c-1.4-2-4-2.1-6.1-2.3l-0.1,0c-1.5-0.1-2.2-0.2-2.5-0.4l-0.1,0l-0.1-0.1c-0.2-0.2-0.5-0.7-1.2-2.4c-0.8-2-1.7-4.3-4-5.1
		c-2.3-0.7-4.3,0.6-6.1,1.7l0,0c-1.6,1-2.1,1.2-2.5,1.3l-0.1,0l-0.1,0c-0.3,0-0.8-0.3-2.4-1.3c-1.4-0.9-3.1-2-4.9-2
		c-0.5,0-0.9,0.1-1.4,0.2c-2.3,0.8-3.2,3-4,5l0,0c-0.7,1.7-1,2.2-1.2,2.4L36,30.8l-0.1,0c-0.3,0.2-0.8,0.3-2.7,0.4
		c-2.2,0.1-4.7,0.3-6.1,2.3c-1.4,1.9-0.8,4.3-0.2,6.4l0,0.1c0.4,1.5,0.5,2.2,0.5,2.5l0,0.1l-0.1,0.1c-0.1,0.3-0.5,0.6-1.8,1.7
		c-1.6,1.3-3.7,3-3.7,5.5c0,2.5,2,4.1,3.6,5.5c1.2,1,1.7,1.5,1.9,1.8l0,0.1l0,0.1c0,0.3,0,0.8-0.5,2.6c-0.5,2-1.2,4.6,0.3,6.5
		c1.5,1.9,4.1,2.1,6.1,2.2l0.1,0c1.5,0.1,2.2,0.2,2.5,0.4l0.1,0l0.1,0.1c0.2,0.2,0.5,0.7,1.2,2.4c0.8,2,1.8,4.3,4,5.1
		c0.4,0.1,0.9,0.2,1.3,0.2c1.7,0,3.3-1,4.8-1.9l0.1,0c1.6-1,2.1-1.2,2.5-1.3l0,0l0,0c0.3,0,0.8,0.2,2.5,1.3c1.7,1.1,3.9,2.5,6.2,1.7
		c2.3-0.8,3.2-3.1,4-5.1l0,0c0.6-1.5,0.9-2.1,1.2-2.4l0.1-0.1l0.1,0c0.3-0.1,0.8-0.3,2.6-0.4c2.2-0.1,4.6-0.3,6-2.3
		c1.4-2,0.8-4.4,0.3-6.5c-0.4-1.7-0.5-2.2-0.5-2.5l0-0.1l0.1-0.1c0.2-0.3,0.7-0.8,1.8-1.7l0,0c1.6-1.3,3.7-3,3.7-5.5
		C78.1,47.5,76.1,45.9,74.5,44.6z M73.2,50.4c-0.4,0.4-1.1,1.1-1.7,1.5l0,0c-1.3,1.1-2.8,2.3-3.3,3.9c-0.6,1.7-0.1,3.5,0.3,5.2l0,0
		c0.1,0.5,0.4,1.4,0.5,2l0.1,0.6l-0.6,0.1c-0.4,0.1-1.1,0.2-2.2,0.2c-1.7,0.1-3.7,0.2-5.1,1.3c-1.4,1.1-2.1,2.8-2.8,4.4
		c-0.4,0.9-0.6,1.6-0.8,1.9l-0.3,0.6l-0.6-0.3c-0.5-0.2-1.4-0.8-1.7-1l-0.1,0c-1.5-0.9-3.1-2-4.9-2c-1.8,0-3.5,1.1-5,2l-0.1,0.1
		c-0.4,0.2-1.1,0.7-1.5,0.9l-0.6,0.3l-0.3-0.6c-0.3-0.5-0.7-1.5-0.9-1.9l0,0c-0.7-1.7-1.4-3.4-2.8-4.5c-1.4-1-3.3-1.2-5.1-1.3
		c-0.5,0-1.6-0.1-2.2-0.2l-0.6-0.1l0.1-0.6c0-0.4,0.2-1.1,0.5-2.1c0.4-1.6,0.9-3.5,0.4-5.2c-0.6-1.7-2-2.9-3.3-4
		c-0.6-0.5-1.3-1.1-1.6-1.5L26.4,50l0.4-0.4c0.3-0.3,0.8-0.8,1.7-1.6c1.4-1.1,2.8-2.3,3.3-3.9c0.6-1.7,0.1-3.4-0.4-5.3l0,0
		c-0.1-0.5-0.4-1.4-0.5-2l-0.1-0.7l0.7-0.1c0.5-0.1,1.4-0.2,2.1-0.2c1.7-0.1,3.7-0.2,5.1-1.3c1.4-1.1,2.1-2.8,2.8-4.4
		c0.4-0.9,0.6-1.5,0.8-1.9l0.3-0.6l0.6,0.3c0.5,0.3,1.4,0.8,1.8,1.1c1.5,1,3.1,2,5,2c1.8,0,3.5-1,5-2c0.3-0.2,1.2-0.7,1.7-1l0.6-0.3
		l0.3,0.6c0.3,0.5,0.7,1.5,0.9,2c0.7,1.7,1.4,3.4,2.8,4.5c1.4,1,3.3,1.2,5.1,1.3l0,0c0.5,0,1.5,0.1,2.1,0.2l0.6,0.1L69,36.8
		c0,0.4-0.2,1.1-0.5,2.1c-0.4,1.7-0.9,3.5-0.4,5.2c0.6,1.7,2.1,2.9,3.4,4l0.1,0c0.3,0.3,1.1,0.9,1.5,1.4l0.4,0.4L73.2,50.4z"/>
	<path class="st0" d="M60.4,41.3L60.4,41.3c-0.5-0.4-1.1-0.6-1.7-0.5c-0.6,0.1-1.2,0.3-1.6,0.8L46.8,54l-4.4-4.4
		c-0.4-0.4-1-0.7-1.6-0.7c-0.6,0-1.2,0.2-1.6,0.7c-0.4,0.4-0.7,1-0.7,1.6c0,0.6,0.2,1.2,0.7,1.6l6.2,6.2c0.4,0.4,1,0.7,1.6,0.7
		c0,0,0.1,0,0.1,0l0,0c0.6,0,1.2-0.3,1.6-0.8l12-14.3c0.4-0.5,0.6-1.1,0.5-1.7C61.1,42.2,60.8,41.6,60.4,41.3z"/>
</g>
</svg>
