<?xml version="1.0" encoding="utf-8"?>
<!-- Generator: Adobe Illustrator 22.0.1, SVG Export Plug-In . SVG Version: 6.00 Build 0)  -->
<svg version="1.1" id="Layer_1" xmlns="http://www.w3.org/2000/svg" xmlns:xlink="http://www.w3.org/1999/xlink" x="0px" y="0px"
	 viewBox="0 0 100 100" style="enable-background:new 0 0 100 100;" xml:space="preserve">
<style type="text/css">
	.st0{fill:#7A66FD;}
</style>
<g>
	<path class="st0" d="M50,0C22.4,0,0,22.4,0,50s22.4,50,50,50c27.6,0,50-22.4,50-50S77.6,0,50,0z M50,95.4C25,95.4,4.6,75,4.6,50
		S25,4.6,50,4.6C75,4.6,95.4,25,95.4,50S75,95.4,50,95.4z"/>
	<path class="st0" d="M45.9,62.6H28.1V34.1h26.3v7.3c0,1.1,0.9,2,2,2c1.1,0,2-0.9,2-2V29.8c0-4.9-4-8.9-8.9-8.9H33.1
		c-4.9,0-8.9,4-8.9,8.9v39.4c0,4.9,4,8.9,8.9,8.9h2.3c1.1,0,2-0.9,2-2s-0.9-2-2-2h-2.3c-2.8,0-5-2.2-5-5v-2.7h17.8c1.1,0,2-0.9,2-2
		C47.8,63.5,47,62.6,45.9,62.6z M28.1,30.2l0-0.7c0.2-2.6,2.4-4.7,5-4.7h16.2c2.6,0,4.8,2.1,5,4.7l0,0.7H28.1z"/>
	<path class="st0" d="M41.9,39c0-1.1-0.9-2-2-2h-7c-1.1,0-2,0.9-2,2c0,1.1,0.9,2,2,2h7C41,41,41.9,40.1,41.9,39z"/>
	<path class="st0" d="M33,55.7c-1.1,0-2,0.9-2,2c0,1.1,0.9,2,2,2h7c1.1,0,2-0.9,2-2c0-1.1-0.9-2-2-2H33z"/>
	<path class="st0" d="M45.7,39c0,1.1,0.9,2,2,2c1.1,0,2-0.9,2-2c0-1.1-0.9-2-2-2C46.5,37.1,45.7,37.9,45.7,39z"/>
	<path class="st0" d="M31,46.1c0,1.1,0.9,2,2,2c1.1,0,2-0.9,2-2c0-1.1-0.9-2-2-2C31.9,44.1,31,45,31,46.1z"/>
	<path class="st0" d="M48.9,70.2c-2.9,0.4-5.1,3-5.1,5.9c0,2.4,1.9,4.3,4.3,4.3h21.9c3.6,0,7-1.4,9.6-4l3.6-3.6c2.6-2.6,4-6,4-9.6
		c0-3.4-1.3-6.6-3.5-9.1l0,0l-8.8-9.6c-2-2-5.3-2-7.4,0c-0.3,0.3-0.5,0.5-0.7,0.8l-0.3,0.4L66,45.5c-1.9-0.7-4.1-0.2-5.5,1.2
		c-0.3,0.3-0.5,0.5-0.7,0.8L59.5,48L59,47.9c-1.9-0.7-4.1-0.2-5.5,1.2c-0.1,0.1-0.3,0.3-0.4,0.4l-0.5,0.6l-3.3-3.3
		c-1-1-2.3-1.5-3.7-1.5c-1.4,0-2.7,0.5-3.7,1.5c-1,1-1.5,2.3-1.5,3.7c0,1.4,0.5,2.7,1.5,3.7l14.7,14.7L48.9,70.2z M44.8,51.5
		c-0.3-0.3-0.4-0.7-0.4-0.9c0-0.4,0.1-0.7,0.4-0.9c0.3-0.3,0.7-0.4,0.9-0.4c0.2,0,0.6,0.1,0.9,0.4l11.6,11.6
		c0.4,0.4,0.9,0.6,1.4,0.6c0.5,0,1-0.2,1.4-0.6c0.4-0.4,0.6-0.9,0.6-1.4c0-0.5-0.2-1-0.6-1.4l-4.7-4.7c-0.3-0.3-0.4-0.7-0.4-0.9
		c0-0.4,0.1-0.7,0.4-0.9c0.5-0.5,1.4-0.5,1.9,0l4.7,4.7c0.8,0.8,2,0.8,2.8,0c0.4-0.4,0.6-0.9,0.6-1.4c0-0.5-0.2-1-0.6-1.4l-2.4-2.4
		c-0.5-0.5-0.5-1.3,0-1.9c0.2-0.2,0.6-0.4,0.9-0.4c0.2,0,0.6,0,0.9,0.4l2.7,2.7h0l0.1,0.1c0.8,0.4,1.7,0.3,2.3-0.3
		c0.4-0.4,0.6-0.9,0.6-1.4c0-0.5-0.2-1-0.6-1.4l-0.1-0.1c-0.2-0.2-0.4-0.6-0.4-0.9c0-0.4,0.1-0.7,0.4-0.9c0.5-0.5,1.3-0.5,1.8-0.1
		l0,0l8.7,9.5c1.6,1.8,2.5,4.1,2.5,6.5c0,2.6-1,5-2.8,6.8l-3.6,3.6c-1.8,1.8-4.2,2.8-6.8,2.8H47.5l0.2-0.8c0.2-0.8,0.9-1.5,1.8-1.6
		l11.6-1.8c0.7-0.1,1.3-0.6,1.6-1.3c0.2-0.7,0-1.5-0.5-2L44.8,51.5z"/>
</g>
</svg>
