<?xml version="1.0" encoding="utf-8"?>
<!-- Generator: Adobe Illustrator 22.0.1, SVG Export Plug-In . SVG Version: 6.00 Build 0)  -->
<svg version="1.1" id="Layer_1" xmlns="http://www.w3.org/2000/svg" xmlns:xlink="http://www.w3.org/1999/xlink" x="0px" y="0px"
	 viewBox="0 0 230.3 301.6" style="enable-background:new 0 0 230.3 301.6;" xml:space="preserve">
<style type="text/css">
	.st0{fill:#7A66FD;}
</style>
<g>
	<path class="st0" d="M230.3,97.3L230.3,97.3l0-0.3c0,0,0,0,0-0.1c0-0.1-0.1-0.1-0.1-0.2l-2-3.4l-1.2-1.9l-12.2-20.3
		c-0.6-1-1.7-1.6-2.8-1.6h-11.1l0.4-1.9l0.4-1.9L205,52c0.2-0.8,0-1.7-0.4-2.5c-0.5-0.7-1.2-1.3-2-1.5L159.4,38l-1.8-0.4l-1.8-0.4
		c0.1-0.4,0.2-0.9,0.1-1.4c0-0.2-0.1-0.4-0.1-0.5c-0.1-0.7-0.2-1.3-0.4-2C151.5,14.1,134.4,0,114.6,0c-11.5,0-22.5,4.8-30.3,13.1
		c-0.6,0.7-1.3,1.4-1.9,2.1c-0.5,0.6-1,1.3-1.5,1.9c0,0,0,0.1-0.1,0.1l-2.2,0.3l-2,0.2l-55.2,6.5c-1.8,0.2-3.1,1.8-2.9,3.6l4.5,38
		l0.2,1.9l0.2,1.9h-6.3c-1.1,0-2.2,0.6-2.8,1.6L2.3,91.5l-1.2,1.9L0,95.2V199l0.1-1v103.5h0.8v0h227.7v0h1.8V97.3z M6.6,101.7h66.3
		v14.4c-0.6,0.2-1.3,0.4-1.9,0.6c-0.6,0.3-1.3,0.6-1.9,0.9c-4.2,2.6-6.9,7.3-6.5,12.7c0.5,6.3,5.6,11.6,11.9,12.3
		c8.1,0.9,15.1-5.5,15.1-13.4c0-4.9-2.6-9.2-6.5-11.6c-0.6-0.4-1.2-0.7-1.9-0.9c-0.6-0.2-1.2-0.4-1.9-0.6v-14.4h70.3v14.4
		c-0.6,0.2-1.3,0.4-1.9,0.6c-0.6,0.3-1.3,0.6-1.9,0.9c-4.2,2.6-6.9,7.3-6.5,12.7c0.5,6.3,5.6,11.6,11.9,12.3
		c8.1,0.9,15.1-5.5,15.1-13.4c0-4.9-2.6-9.2-6.5-11.6c-0.6-0.4-1.2-0.7-1.9-0.9c-0.6-0.2-1.2-0.4-1.9-0.6v-14.4h67.4V295H6.6V101.7z
		 M79.6,123.3l-0.1-0.2c0.8,0.5,1.6,1.1,2.2,1.9c0.6,0.7,1,1.6,1.2,2.5c0.4,1.4,0.4,3-0.4,4.7c-1,2.2-3.1,3.8-5.6,4
		c-4.2,0.4-7.7-2.8-7.7-6.9c0-0.8,0.1-1.6,0.4-2.3c0.3-0.9,0.8-1.7,1.4-2.4c0.5-0.6,1.2-1.1,1.9-1.4v1.5c0,0.2,0,0.5,0.1,0.7
		c0.1,0.6,0.5,1.2,0.9,1.7c0.6,0.6,1.4,0.9,2.3,0.9h0.4c0.8,0,1.5-0.3,2.1-0.7c0.5-0.4,0.9-1,1.1-1.6c0.1-0.3,0.2-0.6,0.2-0.9
		C79.9,124.1,79.8,123.7,79.6,123.3z M79.5,95.2c0-0.6,0.1-1.2,0.1-1.8c0,0,0,0,0,0c0.1-0.6,0.1-1.2,0.2-1.8c0,0,0,0,0,0
		c2.1-14.7,13.3-26.6,27.7-29.5c0.9-0.2,1.7-0.3,2.6-0.4c1.5-0.2,3-0.3,4.5-0.3c0.1,0,0.2,0,0.3,0c0.9,0,1.8,0.1,2.6,0.1
		c1.3,0.1,2.5,0.3,3.7,0.5c2.6,0.5,5,1.3,7.4,2.3c11,4.8,19,15.1,20.7,27.3c0,0,0,0,0,0c0.1,0.6,0.2,1.2,0.2,1.8c0,0,0,0,0,0
		c0.1,0.6,0.1,1.2,0.1,1.8H79.5z M149.9,125.2c0.1,0.6,0.5,1.2,0.9,1.7c0.6,0.6,1.4,0.9,2.3,0.9c0.9,0,1.7-0.4,2.3-0.9
		c0.5-0.4,0.8-1,0.9-1.7c0-0.2,0.1-0.4,0.1-0.7V123c0.7,0.4,1.3,0.9,1.9,1.4c0.6,0.7,1.1,1.5,1.4,2.4c0.3,1,0.5,2,0.4,3.1
		c-0.4,3.5-3.5,6.2-7,6.2c-3.8,0-7-3.1-7-7c0-0.8,0.1-1.6,0.4-2.3c0.3-0.9,0.8-1.7,1.4-2.4c0.5-0.6,1.2-1.1,1.9-1.4v1.5
		C149.8,124.8,149.8,125,149.9,125.2z M199,78l0.4-1.9h10.7l9.2,15.4l1.1,1.9l1.1,1.8h-26.6l0.4-1.8l0,0l0.4-1.8l0,0l2.7-11.7
		L199,78z M153,43.2l45,10.5L195,66.2l-0.5,2.3l-1.6,6.9l-0.5,2.3l-3.2,13.7l0,0l-0.4,1.8l0,0l-0.4,1.8h-31.9c0-0.6,0-1.2-0.1-1.8
		c0,0,0,0,0,0c0-0.6-0.1-1.2-0.2-1.8c0,0,0,0,0,0c-1.7-14.1-10.4-26.1-22.5-32.3c-0.6-0.3-1.1-0.6-1.7-0.8c-0.6-0.3-1.1-0.5-1.7-0.7
		l0.4-1.8l0.4-1.8l3.5-15.1l14.9,3.5L153,43.2z M93.1,13.9c1.1-0.8,2.2-1.6,3.3-2.3c5.4-3.3,11.7-5.1,18.2-5.1
		c15.6,0,29.3,10.5,33.7,25c0.2,0.7,0.4,1.3,0.6,2c0.2,0.7,0.3,1.3,0.4,2l-2-0.5l-2-0.5l-12.5-2.9c-0.8-0.2-1.7,0-2.5,0.4
		c-0.7,0.5-1.3,1.2-1.5,2l-4.2,17.9l-0.4,1.8l-0.4,1.8c-0.6-0.1-1.2-0.3-1.8-0.4c-0.6-0.1-1.2-0.2-1.8-0.3c-0.4,0-0.7-0.1-1.1-0.1
		c-0.6-0.1-1.3-0.1-1.9-0.2c-0.6,0-1.2-0.1-1.9-0.1l-0.2-1.9l-0.2-1.9l-4-34c-0.1-0.9-0.5-1.7-1.2-2.2c-0.6-0.5-1.3-0.7-2-0.7
		c-0.1,0-0.3,0-0.4,0l-9.5,1.1l-3.8,0.4l-3.3,0.4C91.4,15.3,92.2,14.6,93.1,13.9z M78.7,24.1l2.8-0.3l5.2-0.6l2.8-0.3l15.2-1.8
		l3.6,30.4l0.2,1.8l0.2,1.8c-0.6,0.1-1.2,0.2-1.8,0.3c-0.6,0.1-1.2,0.2-1.8,0.4c-16.9,4-29.8,18.2-31.9,35.7h-1.9c0,0,0,0,0,0h1.9
		c-0.1,0.6-0.1,1.2-0.2,1.8c0,0,0,0,0,0c0,0.6-0.1,1.2-0.1,1.8H33l-0.1-2.1h0c0,0,0-0.1,0-0.1l-0.2-1.5l0,0L31,77.2l-0.4-3.4l-0.4-3
		l-0.4-3.4l-4.4-37L78.7,24.1z M8.8,93.3l1.1-1.9l9.2-15.4h5.2l0.2,1.9l0.2,1.9l1.4,11.7l0,0l0.2,1.6h0l0.1,2.1H7.7L8.8,93.3z"/>
	<path class="st0" d="M138.4,168.4c-0.4-0.5-1-0.8-1.5-1c-2.3-0.8-4.6,0.3-5.5,2.4l-38,89.5c-0.6,1.5-0.4,3.2,0.7,4.5
		c0.8,1,2.1,1.5,3.4,1.5l0,0c1.7,0,3.3-1,4-2.6l37.8-89.5C139.9,171.5,139.6,169.7,138.4,168.4z"/>
	<path class="st0" d="M106.9,190.5c1.4-13.2-9.7-24.2-22.9-22.9c-9.6,1-17.3,8.7-18.4,18.4c-1.4,13.2,9.7,24.3,22.9,22.9
		C98.1,207.9,105.8,200.1,106.9,190.5z M87.5,200.7c-7.9,0.8-14.5-5.8-13.7-13.7c0.6-5.9,5.3-10.6,11.2-11.2
		c7.9-0.8,14.5,5.8,13.7,13.7C98.1,195.4,93.4,200.1,87.5,200.7z"/>
	<path class="st0" d="M149.2,221.9c-13.2-1.4-24.2,9.7-22.9,22.9c1,9.6,8.7,17.3,18.4,18.4c13.2,1.4,24.3-9.7,22.9-22.9
		C166.5,230.6,158.8,222.9,149.2,221.9z M148.2,255c-7.9,0.8-14.5-5.8-13.7-13.7c0.6-5.9,5.3-10.6,11.2-11.2
		c7.9-0.8,14.5,5.8,13.7,13.7C158.8,249.6,154.1,254.4,148.2,255z"/>
</g>
</svg>
