<?xml version="1.0" encoding="utf-8"?>
<!-- Generator: Adobe Illustrator 22.0.1, SVG Export Plug-In . SVG Version: 6.00 Build 0)  -->
<svg version="1.1" id="Layer_1" xmlns="http://www.w3.org/2000/svg" xmlns:xlink="http://www.w3.org/1999/xlink" x="0px" y="0px"
	 viewBox="0 0 3166.6 2923.8" style="enable-background:new 0 0 3166.6 2923.8;" xml:space="preserve">
<style type="text/css">
	.st0{fill:#9F3BF9;}
	.st1{opacity:0.72;fill:#4A61FA;}
	.st2{opacity:0.62;fill:#FFFFFF;}
	.st3{fill:#3157C3;}
	.st4{opacity:0.76;}
	.st5{fill:#99B0F6;}
	.st6{fill:#430089;}
	.st7{fill:#E4DAFD;}
	.st8{fill:#6C6DE9;}
	.st9{fill:#FFFFFF;}
	.st10{opacity:0.14;fill:#4A61FA;}
	.st11{opacity:0.75;fill:#FFFFFF;}
	.st12{opacity:0.75;}
	.st13{fill:url(#SVGID_1_);}
	.st14{fill:url(#SVGID_2_);}
	.st15{fill:url(#SVGID_3_);}
	.st16{fill:url(#SVGID_4_);}
	.st17{fill:url(#SVGID_5_);}
	.st18{fill:url(#SVGID_6_);}
	.st19{fill:url(#SVGID_7_);}
	.st20{fill:url(#SVGID_8_);}
	.st21{fill:url(#SVGID_9_);}
	.st22{fill:url(#SVGID_10_);}
	.st23{fill:url(#SVGID_11_);}
	.st24{fill:#64AFFB;}
	.st25{opacity:0.7;fill:#FFFFFF;}
	.st26{opacity:0.3;}
	.st27{opacity:0.13;fill:#5E0089;}
</style>
<g>
	<path class="st0" d="M2547.6,2517.8c-58.8,61.1-114.4,100.6-158.4,131.7c-516.6,366.2-1127.8,259.4-1257.7,233.4
		c-191.8-38.5-562.6-112.9-830.7-424.3C-104.8,1987.4-41.6,1245,273,755c57.5-89.6,361.5-587.1,979.3-666.9
		c373.9-48.3,809.7,49.1,1125.4,310.3C3040.2,946.8,2993,2054.5,2547.6,2517.8z"/>
	<path class="st1" d="M1736.8,2522.5c0,0,564.1-1425,1402.1-1580.7c14.9-2.8,28.4,9.1,27.7,24.2
		C3158.1,1141.8,3050.7,2072.1,1736.8,2522.5z"/>
	<path class="st2" d="M2988.3,1173c-42.8,61.1-87.6,120.5-133.1,179.5c-11.3,14.8-22.9,29.3-34.4,44c-11.6,14.6-22.9,29.4-34.6,43.8
		l-35.1,43.4c-11.8,14.4-23.3,29.1-35.3,43.3c-23.9,28.5-47.7,57.2-71.8,85.6l-73.1,84.5c-49.6,55.5-99.2,111.1-150.4,165.3
		l-38.1,40.9c-12.5,13.8-25.8,26.8-38.7,40.3l-77.7,80.3l-79.7,78.4c-13.3,13-26.5,26.2-40.1,39l-41.1,37.9
		c-27.5,25.2-54.6,50.7-82.6,75.4l-84.9,72.8l-21.3,18.1c-7.2,6-14.1,12.1-21.5,17.9l-43.9,34.7c-14.6,11.6-29.4,22.9-44,34.4
		c-14.7,11.5-29.4,22.9-44.2,34.2c-1.1,0.9-2.8,0.7-3.6-0.5c-0.8-1.1-0.7-2.6,0.4-3.5l0.1-0.1c14.1-12.1,28.3-24.1,42.6-36.1
		c14.2-12,28.4-24.1,42.7-35.9l42.9-35.7c14.1-12.1,27.8-24.7,41.9-36.9l84-73.4l82.3-75.3l41.2-37.6c6.9-6.3,13.4-12.9,20.2-19.3
		l20.2-19.3l80.7-77c52.5-52.7,105.9-104.6,156.5-159.1c25.6-27,51.5-53.7,76.2-81.5c24.9-27.6,50.1-55,74.9-82.8l73.4-84.1
		c24.2-28.2,48-56.8,72.1-85.3c12.1-14.1,23.7-28.7,35.5-43.1l35.3-43.3c11.8-14.4,23.2-29.1,34.8-43.7
		c11.5-14.6,23.2-29.1,34.6-43.8c45.4-58.9,90.2-118.4,132.8-179.3l0,0c0.8-1.2,2.4-1.5,3.6-0.6
		C2988.8,1170.2,2989.1,1171.8,2988.3,1173L2988.3,1173z"/>
	<path class="st3" d="M1318.1,1990.3c0,0,274.2-1258.3,1102-1910.6c10.8-8.5,26.8-3.1,30.1,10.2
		C2502.2,300.5,2773.4,1644.5,1318.1,1990.3z"/>
	<path class="st2" d="M2332.2,442.6c-9.5,36.5-20.6,72.5-32.2,108.3c-11.7,35.8-24,71.4-37,106.7c-26.2,70.6-54.7,140.3-85.4,209.1
		c-7.6,17.2-15.7,34.2-23.5,51.4c-7.9,17.1-16.3,33.9-24.5,50.9c-8.1,17-16.8,33.7-25.3,50.5l-12.8,25.2l-13.3,24.9
		c-35.4,66.5-72.7,132-112.8,195.8c-40.3,63.7-82.2,126.4-127.4,186.7c-5.6,7.6-11.1,15.2-16.8,22.8l-17.3,22.3l-17.3,22.3
		c-5.8,7.4-11.4,15-17.5,22.2l-36,43.6l-9,10.9l-9.4,10.6l-18.7,21.2c-99.4,113.4-210.6,216.3-330.8,306.9c-1,0.7-2.4,0.5-3.1-0.4
		c-0.7-1-0.6-2.3,0.4-3.1l0.1,0l43.7-35.6l21.9-17.7l21.2-18.6l42.3-37.2l40.9-38.7c6.8-6.5,13.7-12.8,20.4-19.4l19.8-20
		c13.1-13.4,26.5-26.5,39.4-40.2c25.4-27.7,51.3-54.8,75.4-83.5l18.4-21.3l9.2-10.6l8.9-10.9l35.6-43.6c6-7.2,11.6-14.7,17.4-22.1
		l17.2-22.3l17.2-22.3c5.6-7.5,11.1-15.1,16.6-22.7c44.8-60.2,86.2-122.8,126.1-186.4c40.1-63.4,77.6-128.5,113-194.6l13.3-24.8
		l12.9-25c8.5-16.7,17.3-33.3,25.4-50.2c16.7-33.6,32.7-67.5,48.6-101.6c31.4-68.2,60.6-137.4,87.6-207.5
		c13.7-35,26.6-70.2,38.9-105.7c6.2-17.7,12.1-35.5,17.9-53.4c5.8-17.8,11.4-35.8,16.6-53.8l0,0c0.3-1.2,1.6-1.9,2.8-1.5
		C2331.8,440.2,2332.5,441.5,2332.2,442.6z"/>
	<g class="st4">
		<path class="st5" d="M887.9,1922.7c0,0-106.9-1116.3-755.2-1765.8c-8.5-8.5-22.8-5.5-27,5.7C38.9,339.4-334.5,1473.3,887.9,1922.7
			z"/>
		<path class="st2" d="M175.3,479.3c11.1,64.4,25.4,128.3,41.7,191.6c16.1,63.4,34.2,126.2,54.4,188.4c10.2,31,20.6,62,31.5,92.8
			c5.3,15.5,11.1,30.7,16.8,46l8.6,23l9,22.8c23.8,60.8,49.5,120.9,77.6,179.9c27.9,59,57.2,117.4,89.7,174.1
			c4,7.1,7.9,14.3,12,21.3l12.5,21l12.5,21c4.2,7,8.3,14.1,12.7,20.9l26.2,41.3l6.5,10.4l6.8,10.2l13.7,20.3
			c17.9,27.4,37.5,53.5,56.5,80c9.7,13.1,19.9,25.9,29.9,38.8l15,19.4c5.1,6.4,10.4,12.6,15.6,18.9l31.3,37.7l32.6,36.6l16.3,18.3
			l17,17.6l34,35.4l0,0c0.9,0.9,0.8,2.3-0.1,3.2c-0.9,0.8-2.2,0.8-3.1,0c-94.8-90.6-180.4-191-254.7-299.3l-14-20.2l-7-10.1
			l-6.7-10.3l-26.6-41.4c-4.5-6.8-8.6-14-12.9-21l-12.7-21.1l-12.7-21.1c-4.1-7.1-8.1-14.3-12.1-21.4
			c-32.8-56.8-62.6-115.4-90.9-174.6c-28.1-59.3-53.6-119.9-77.3-181l-8.9-22.9l-8.5-23.1c-5.6-15.4-11.4-30.8-16.7-46.3
			c-5.3-15.5-10.9-30.9-15.9-46.6c-5-15.6-10.1-31.2-14.9-46.9c-38.5-125.4-70.6-252.9-89.4-382.8c-0.2-1.2,0.7-2.4,1.9-2.5
			C174,477.2,175.1,478,175.3,479.3L175.3,479.3z"/>
	</g>
	<g>
		<g>
			<path class="st6" d="M1855.8,74.7H666.2c-88.6,0-160.4,71.8-160.4,160.4v1979.6v451.6c0,89.3,72.6,160.4,160.4,160.4h1189.6
				c88.6,0,160.4-71.8,160.4-160.4V686.8V235.1C2016.2,145.7,1943.5,74.7,1855.8,74.7z"/>
			<rect x="583.5" y="293.3" class="st7" width="1354.9" height="2314.8"/>
			<path class="st7" d="M1547.3,220.6H976.8c-2.6,0-4.6-2.1-4.6-4.6v-19.7c0-2.6,2.1-4.6,4.6-4.6h570.5c2.6,0,4.6,2.1,4.6,4.6V216
				C1552,218.5,1549.9,220.6,1547.3,220.6z"/>
			<path class="st0" d="M1326.8,2719.7c0,36.8-29.8,66.5-66.5,66.5c-36.8,0-66.5-29.8-66.5-66.5c0-36.8,29.8-66.5,66.5-66.5
				C1297,2653.1,1326.8,2682.9,1326.8,2719.7z"/>
			<g>
				<path class="st7" d="M1280.1,2747.4h-39.7c-4.3,0-7.9-3.5-7.9-7.9v-39.7c0-4.3,3.5-7.9,7.9-7.9h39.7c4.3,0,7.9,3.5,7.9,7.9v39.7
					C1287.9,2743.9,1284.4,2747.4,1280.1,2747.4z M1240.4,2694.1c-3.2,0-5.7,2.6-5.7,5.7v39.7c0,3.2,2.6,5.7,5.7,5.7h39.7
					c3.2,0,5.7-2.6,5.7-5.7v-39.7c0-3.2-2.6-5.7-5.7-5.7H1240.4z"/>
			</g>
			<rect x="583.5" y="2471.2" class="st8" width="1354.9" height="136.9"/>
			<rect x="583.5" y="293.3" class="st8" width="1354.9" height="122.8"/>
		</g>
		<g>
			<circle class="st0" cx="1226.8" cy="869" r="286.2"/>
			<path class="st9" d="M1314.4,760.9c0,48.5-39.3,100.8-87.8,100.8c-48.5,0-87.8-52.3-87.8-100.8c0-48.5,39.3-82.9,87.8-82.9
				C1275.1,678,1314.4,712.4,1314.4,760.9z"/>
			<path class="st9" d="M1117.7,1048.2H1332c22.6,0,42.5-14.6,49.4-36.1l11.5-36c8.4-26.4-5.3-54.9-31.3-64.5
				c-87.2-31.9-177.3-27.8-269.7,2.9c-25.9,8.6-40.2,36.3-33.1,62.6l8.9,32.7C1073.8,1032.6,1094.3,1048.2,1117.7,1048.2z"/>
		</g>
		<path class="st10" d="M1892.6,1633.5H671.8c-3.7,0-6.7-3-6.7-6.7v-176.4c0-3.7,3-6.7,6.7-6.7h1220.8c3.7,0,6.7,3,6.7,6.7v176.4
			C1899.4,1630.4,1896.3,1633.5,1892.6,1633.5z"/>
		<path class="st10" d="M1886,1943.3H665.1c-3.7,0-6.7-3-6.7-6.7v-176.4c0-3.7,3-6.7,6.7-6.7H1886c3.7,0,6.7,3,6.7,6.7v176.4
			C1892.7,1940.3,1889.7,1943.3,1886,1943.3z"/>
		<path class="st10" d="M1647.6,2312.8H866.9c-4.6,0-8.3-3.7-8.3-8.3v-225.4c0-4.6,3.7-8.3,8.3-8.3h780.7c4.6,0,8.3,3.7,8.3,8.3
			v225.4C1655.9,2309.1,1652.2,2312.8,1647.6,2312.8z"/>
		<path class="st11" d="M1442.9,1592.1H731.7c-6.6,0-12-5.4-12-12v-81.5c0-6.6,5.4-12,12-12h711.2c6.6,0,12,5.4,12,12v81.5
			C1454.9,1586.7,1449.5,1592.1,1442.9,1592.1z"/>
		<g class="st12">
			
				<ellipse transform="matrix(0.9239 -0.3827 0.3827 0.9239 -648.5768 425.4904)" class="st9" cx="745.3" cy="1843.1" rx="43.3" ry="43.3"/>
			<circle class="st9" cx="864.1" cy="1845.3" r="43.3"/>
			
				<ellipse transform="matrix(0.2298 -0.9732 0.9732 0.2298 -1047.6541 2377.8845)" class="st9" cx="978.5" cy="1850.8" rx="43.3" ry="43.3"/>
			<circle class="st9" cx="1097.3" cy="1853" r="43.3"/>
			<circle class="st9" cx="1216.1" cy="1851.9" r="43.3"/>
			<circle class="st9" cx="1335" cy="1854.2" r="43.3"/>
		</g>
	</g>
	
		<linearGradient id="SVGID_1_" gradientUnits="userSpaceOnUse" x1="-1969.2196" y1="2874.6758" x2="-1594.6139" y2="1910.3075" gradientTransform="matrix(-1 0 0 1 37.4523 0)">
		<stop  offset="0" style="stop-color:#ECB9B8"/>
		<stop  offset="1" style="stop-color:#E5908C"/>
	</linearGradient>
	<path class="st13" d="M1709.6,1995.5l132.7,33.2l-33.2,248.8c0,0,49.8,49.8,66.3,116.1c16.6,66.3,31.9,344.9,31.9,344.9l31.5,19
		l3.8,15.9l-91.6,123.2l15.2-98c2.4-15.6-1.8-47.1-0.5-47.8c-49.8-132.7-156.2-506.5-156.2-506.5V1995.5z"/>
	
		<linearGradient id="SVGID_2_" gradientUnits="userSpaceOnUse" x1="-1974.9109" y1="5976.6274" x2="-736.7841" y2="-8493.9854" gradientTransform="matrix(-1 0 0 1 37.4523 0)">
		<stop  offset="0" style="stop-color:#ECB9B8"/>
		<stop  offset="1" style="stop-color:#E5908C"/>
	</linearGradient>
	<path class="st14" d="M1670.8,2775.1c1.4,0,2.8,0.1,4.3,0c-6.4-80-35.7-432-65-564c-33.2-149.3,49.8-447.8,49.8-447.8l149.3,149.3
		l-82.9,282c56.8,85.2-9.3,584.5-7.8,584.3l-0.1,1.1l21.6,29.8l-2.6,16.1l-132.2,78l52-84.5
		C1665.3,2806,1669.9,2790.8,1670.8,2775.1z"/>
	
		<linearGradient id="SVGID_3_" gradientUnits="userSpaceOnUse" x1="-1930.4056" y1="1349.051" x2="-1771.6187" y2="1349.051" gradientTransform="matrix(-1 0 0 1 37.4523 0)">
		<stop  offset="0" style="stop-color:#ECB9B8"/>
		<stop  offset="1" style="stop-color:#E5908C"/>
	</linearGradient>
	<path class="st15" d="M1838.7,1101.3c0,0,290.6,327.6,0,495.5l-29.6-21.4c0,0,144.3-138.2,0-307.3L1838.7,1101.3z"/>
	
		<linearGradient id="SVGID_4_" gradientUnits="userSpaceOnUse" x1="-1420.5111" y1="2902.0256" x2="-1042.786" y2="2322.5015" gradientTransform="matrix(-1 0 0 1 272.6131 0)">
		<stop  offset="0" style="stop-color:#5153FA"/>
		<stop  offset="1" style="stop-color:#4344DC"/>
	</linearGradient>
	<path class="st16" d="M1596.3,2916.1h42.2c7.9,0,15.3-3.6,20.2-9.9c13.2-17.1,40.4-50.4,53.4-51.3c17.5-1.2,15.3,61.2,15.3,61.2
		h9.8l12.5-77.5c3.1-19.5-6.6-38.8-24.1-47.9l0,0c0,0-4,29.6-25.7,42.8c-21.7,13.1-88.5,60.1-88.5,60.1s-8.2-1.2-17.1,0.5
		C1580.9,2896.4,1582.8,2916.1,1596.3,2916.1z"/>
	
		<linearGradient id="SVGID_5_" gradientUnits="userSpaceOnUse" x1="-1760.847" y1="3078.5117" x2="-1341.7277" y2="2354.1067" gradientTransform="matrix(-1 0 0 1 272.6131 0)">
		<stop  offset="0" style="stop-color:#5153FA"/>
		<stop  offset="1" style="stop-color:#4344DC"/>
	</linearGradient>
	<path class="st17" d="M1847.7,2911.3l38.9-16.4c7.3-3.1,12.7-9.3,14.7-16.9c5.5-20.9,17.7-62.1,29.4-68
		c15.7-7.9,37.8,50.5,37.8,50.5l9.1-3.8l-18.6-76.2c-4.7-19.2-21.1-33.2-40.8-34.9l0,0c0,0,7.8,28.9-7.2,49.4
		c-15,20.5-58.2,89.7-58.2,89.7s-8,2.1-15.6,7.1C1825.9,2899.1,1835.3,2916.5,1847.7,2911.3z"/>
	<linearGradient id="SVGID_6_" gradientUnits="userSpaceOnUse" x1="2096.4822" y1="1315.2012" x2="1765.3096" y2="1763.6648">
		<stop  offset="0" style="stop-color:#5153FA"/>
		<stop  offset="1" style="stop-color:#4344DC"/>
	</linearGradient>
	<path class="st18" d="M1621.8,1510.9c0,0,4.9,29.9-2.3,112.1c-7.1,82.2-41.3,275.2-34.4,459.8c0,0,97.1,22.6,265.9,11.9
		c0,0,71.2-288.3,53.9-397.8c-17.3-109.6-111.4-188.2-111.4-188.2L1621.8,1510.9z"/>
	
		<linearGradient id="SVGID_7_" gradientUnits="userSpaceOnUse" x1="-1756.9939" y1="994.7646" x2="-1644.2195" y2="994.7646" gradientTransform="matrix(-1 0 0 1 37.4523 0)">
		<stop  offset="0" style="stop-color:#ECB9B8"/>
		<stop  offset="1" style="stop-color:#E5908C"/>
	</linearGradient>
	<polygon class="st19" points="1693.5,961.7 1681.7,1101.3 1794.4,1101.3 1766.4,888.2 	"/>
	<path class="st0" d="M1827.9,1082c-38.9-2.1-125.9-6.1-187.6-2.8c-32.5,1.8-59.6,25.1-66.3,56.9l-15,72.1
		c-5.6,26.8-4.8,54.6,2.4,81.1l60.4,221.7c0,0,53.7,32.3,171.6-2.3c0,0,103.6-247,61.2-404.9
		C1851.3,1091.5,1840.5,1082.7,1827.9,1082z"/>
	
		<linearGradient id="SVGID_8_" gradientUnits="userSpaceOnUse" x1="-1095.3298" y1="1059.0605" x2="-2070.6904" y2="1617.8265" gradientTransform="matrix(-1 0 0 1 37.4523 0)">
		<stop  offset="0" style="stop-color:#ECB9B8"/>
		<stop  offset="1" style="stop-color:#E5908C"/>
	</linearGradient>
	<path class="st20" d="M1576.9,1123.2c-16.6,43.8-31.6,89.6-47.7,132.6c-8.2,21.5-16.5,42.6-25.4,62c-4.5,9.6-9.4,18.5-14,26.5
		c-4.5,8-9.7,14.6-12.3,17.6c-0.5,0.5,1.2,0.8,1.8,0.8c0.4,0-11.2,1.9-14.8,2.5l-13.9-0.1c-19.9-1-42.4-4.5-65-8.9
		c-45.6-8.5-93-20.4-141.7-29.5l-0.4-0.1c-9.3-1.7-18.3,4.4-20,13.7c-1.1,6.1,1.2,12.1,5.5,16c19.6,17.3,40.4,31.5,62,45.3
		c10.9,6.6,21.9,13.2,33.1,19.4c11.5,5.8,22.9,11.7,34.9,17.2c24,10.5,48.8,20.1,77.4,26.3c7.5,1.3,14.9,2.6,22.7,3.6
		c8.7,0.3,16.5,1.1,26,0.5c5-0.5,10.1-1.1,15.1-1.8c2.7-0.5,4.7-0.5,7.9-1.4c3.5-1,6.9-2.2,10.3-3.5c7.1-2.5,11.7-5.6,17.5-8.8
		c4.8-3.2,9.2-6.5,13.4-9.8c15.6-13.3,25.3-26.5,33.9-39.2c8.5-12.7,15.3-25.4,21.4-37.8c12.2-24.9,21.7-49.5,29.4-74.3
		c15.6-49.7,26.2-98.5,30.7-150.4c2.1-24.9-16.3-46.7-41.1-48.9c-20.6-1.8-39.1,10.5-46.1,28.9L1576.9,1123.2z"/>
	
		<linearGradient id="SVGID_9_" gradientUnits="userSpaceOnUse" x1="-998.416" y1="1228.2297" x2="-1973.7755" y2="1786.9951" gradientTransform="matrix(-1 0 0 1 37.4523 0)">
		<stop  offset="0" style="stop-color:#ECB9B8"/>
		<stop  offset="1" style="stop-color:#E5908C"/>
	</linearGradient>
	<path class="st21" d="M1259.3,1349.1l-20.1-47.8l-105.9-26.4c0,0-8.5,18.4,36,26.4c0,0-15.9,17.6-7.4,38.2
		C1170.3,1360.2,1260.3,1380.8,1259.3,1349.1z"/>
	
		<linearGradient id="SVGID_10_" gradientUnits="userSpaceOnUse" x1="-1569.1611" y1="994.7194" x2="-1788.3116" y2="674.2636" gradientTransform="matrix(-1 0 0 1 37.4523 0)">
		<stop  offset="0" style="stop-color:#ECB9B8"/>
		<stop  offset="1" style="stop-color:#E5908C"/>
	</linearGradient>
	<path class="st22" d="M1645.8,800.5c-4,2.4-35.8,114.3-9.2,161.2c26.6,46.9,107.8-5.6,129.8-73.5
		C1788.4,820.4,1753.1,737.3,1645.8,800.5z"/>
	
		<linearGradient id="SVGID_11_" gradientUnits="userSpaceOnUse" x1="-1450.0757" y1="765.7642" x2="-1760.5349" y2="1169.3611" gradientTransform="matrix(-1 0 0 1 272.6131 0)">
		<stop  offset="0" style="stop-color:#0F005C"/>
		<stop  offset="1" style="stop-color:#1E168C"/>
	</linearGradient>
	<path class="st23" d="M1856.2,888.2c18.2,89.2,78.5,64.8,121.3,104.5c69.3,64.3,168.4-2,264.7,59c69.5,44,103,156.6,69.7,247.5
		c-46.2,125.9-204.2,177.7-286,139.4c-78.2-36.7-67.1-146.4-172.4-188.9c-44.7-18-66.7-6.3-93.5-33
		c-46.9-46.7-34.2-137.4-29.3-172.4c10.6-75.8,36-89.5,23.8-122.9c-23.6-64.8-133.8-51.4-143-97.2c-8.4-41.7,71.5-120.6,146.7-108.2
		C1874.4,735.4,1848.1,848.5,1856.2,888.2z"/>
	<g>
		<path class="st24" d="M781.4,2340.4c0.9-2.1,0.4-4.6-1.2-6.2l-46.2-45.9c5.7-30.6,6.9-62.3,2.9-94.1l48.8-42.5
			c1.7-1.5,2.3-4,1.5-6.1l-26.9-75c-0.8-2.2-2.8-3.6-5-3.6l-63.5,1.8c-17-26.7-37.8-49.8-61.4-68.8l5.9-66.4c0.2-2.3-1-4.5-3-5.5
			l-69.4-33.1c-2-1-4.4-0.5-5.9,1.2l-43.6,48.4c-29.1-6.1-59.3-7.4-89.6-3.3l-40.6-51.4c-1.4-1.8-3.8-2.5-5.9-1.6l-71.3,28.1
			c-2.1,0.8-3.4,2.9-3.4,5.3l1.8,66.7c-25.4,17.8-47.3,39.6-65.4,64.3l-63.3-6.3c-2.2-0.2-4.3,1.1-5.2,3.2l-31.4,72.9
			c-0.9,2.1-0.4,4.6,1.2,6.2l46.2,45.9c-5.7,30.6-6.9,62.3-2.9,94.1l-48.8,42.5c-1.7,1.5-2.3,4-1.5,6.1l26.9,75
			c0.8,2.2,2.8,3.6,5,3.6l63.5-1.8c17,26.7,37.8,49.8,61.4,68.8l-5.9,66.4c-0.2,2.3,1,4.5,3,5.5l69.4,33.1c2,1,4.4,0.5,5.9-1.2
			l43.6-48.4c29.1,6.1,59.3,7.4,89.6,3.3l40.6,51.4c1.4,1.8,3.8,2.5,5.9,1.6l71.3-28.1c2.1-0.8,3.4-2.9,3.4-5.3l-1.8-66.7
			c25.4-17.8,47.3-39.6,65.4-64.3l63.3,6.3c2.2,0.2,4.3-1.1,5.2-3.2L781.4,2340.4z"/>
		<path class="st25" d="M529.4,2195.7c16.6,35.2,6.7,78.8-24.8,101.8c-34.7,25.3-82.5,16.1-106.6-20.3c-11.7-17.7-16.1-39-12.5-60.2
			c3.6-21.1,14.8-39.5,31.6-51.8c34.7-25.3,82.5-16.1,106.6,20.3C525.8,2188.8,527.7,2192.2,529.4,2195.7z M408.2,2258.6
			c1.3,2.7,2.8,5.3,4.4,7.9c18.5,28,55.2,35,81.8,15.6c26.6-19.4,33.2-57.9,14.6-85.8c-18.5-28-55.2-35-81.8-15.6
			c-12.9,9.4-21.5,23.5-24.3,39.7C400.7,2233.5,402.6,2246.8,408.2,2258.6z"/>
		<path class="st25" d="M627.7,2142.7c2.9,6,5.4,12.3,7.7,18.7l0,0c0.7,2,1.4,4,2.1,6.1c3.3,10,5.7,20.3,7.4,30.7
			c0,0.1,0,0.3,0.1,0.4c0.1,0.4,0.1,0.8,0.2,1.2c0.1,0.8,0.2,1.6,0.3,2.4c0.3,2.1-0.7,4-2.4,4.9c-0.4,0.2-0.9,0.4-1.3,0.4
			c-2.4,0.4-4.7-1.4-5.1-4c-1.9-13.2-5.1-26.3-9.6-38.8c-22.4-62.5-73.3-105.3-131.3-118.2c-32.3-7.2-66.8-5.1-99.9,7.9
			c-5.8,2.3-11.5,4.9-16.9,7.7c-36.9,19.2-66,50.8-83.2,90.7c-19.7,45.8-21.3,97-4.4,144.1c35,97.3,138.7,146.8,231.2,110.3
			c5.7-2.2,11.3-4.8,16.7-7.6c23.5-12.2,44.2-29.7,60.5-51.3c0.4-0.6,0.9-1,1.5-1.3c1.5-0.8,3.4-0.6,4.8,0.5
			c1.9,1.6,2.3,4.6,0.7,6.6c-17.1,22.7-38.8,41.1-63.5,53.9c-5.7,3-11.5,5.6-17.5,8c-97.2,38.3-206.1-13.7-242.7-115.8
			c-17.8-49.5-16.1-103.2,4.6-151.3c18-41.9,48.7-75.1,87.4-95.2c5.7-3,11.7-5.7,17.8-8.1c47.1-18.5,98.2-16.7,144.1,5.2
			C576.8,2069.7,608.5,2102,627.7,2142.7z"/>
		<g>
			<g class="st26">
				<path class="st6" d="M707.8,2610.7c2.5,5.3,0.9,11.9-4,15.1c-10.6,7.1-21.7,13.8-33,19.9c-5.5,3-12.2,0.7-15.1-5
					c0-0.1-0.1-0.1-0.1-0.2c-2.7-5.7-0.6-12.7,4.8-15.6c10.7-5.8,21.2-12.2,31.3-18.9c5.2-3.5,12.1-1.8,15.4,3.6
					C707.4,2609.9,707.6,2610.3,707.8,2610.7z M620.4,2655.3c0.2,0.4,0.4,0.8,0.5,1.3c2.1,6.1-0.9,12.8-6.7,15
					c-11.9,4.5-24.2,8.4-36.3,11.8c-6,1.6-12.1-2.1-13.7-8.4c-1.6-6.3,2-12.7,7.9-14.3c11.6-3.2,23.2-7,34.5-11.2
					C612,2647.4,617.9,2650,620.4,2655.3z M525.7,2678.6c0.6,1.2,0.9,2.5,1.1,3.8c0.7,6.4-3.6,12.3-9.8,13c-12.6,1.6-25.3,2.6-38,3
					c-6.2,0.2-11.3-4.9-11.5-11.4c-0.2-6.5,4.6-11.9,10.8-12.1c12-0.4,24.1-1.3,36.1-2.8C519.2,2671.5,523.7,2674.3,525.7,2678.6z
					 M428.4,2679c0.9,1.9,1.3,4.2,1.1,6.5c-0.7,6.4-6.2,11.1-12.3,10.4c-12.6-1.4-25.3-3.5-37.7-6c-6-1.3-10-7.4-8.8-13.8
					c1.2-6.4,7-10.5,13.1-9.3c11.8,2.4,23.8,4.4,35.8,5.7C423.5,2673,426.8,2675.6,428.4,2679z M333.4,2656.7c1.3,2.7,1.6,5.9,0.6,9
					c-2,6.1-8.3,9.4-14.2,7.3c-11.9-4.3-23.9-9.2-35.5-14.6c-5.6-2.6-8.2-9.5-5.7-15.5c2.5-5.9,9.1-8.6,14.7-6
					c11,5.1,22.4,9.8,33.7,13.9C329.9,2651.9,332.1,2654,333.4,2656.7z M245.4,2612.8c1.7,3.5,1.6,7.8-0.5,11.4
					c-3.2,5.5-10.1,7.2-15.4,3.8c-10.8-7-21.4-14.6-31.5-22.5c-5-3.9-6-11.2-2.3-16.4c3.7-5.2,10.7-6.3,15.6-2.4
					c9.7,7.5,19.7,14.7,30,21.4C243.1,2609.3,244.5,2611,245.4,2612.8z M39.2,2240c0.7,1.5,1.1,3.1,1.2,4.8
					c0.4,12.6,1.4,25.3,2.8,37.9c0.7,6.4-3.6,12.3-9.7,13c-6.1,0.8-11.7-3.8-12.4-10.3c-1.5-13.2-2.5-26.6-3-39.9
					c-0.2-6.5,4.6-11.9,10.8-12.1C33.4,2233.3,37.4,2236,39.2,2240z M168.9,2549.7c2.1,4.4,1.4,9.8-2,13.4
					c-4.3,4.6-11.4,4.7-15.8,0.1c-9-9.3-17.8-19.2-26-29.3c-4-4.9-3.5-12.3,1.2-16.5c4.7-4.2,11.7-3.6,15.7,1.3
					c7.8,9.6,16.1,19,24.7,27.8C167.6,2547.5,168.3,2548.5,168.9,2549.7z M53.6,2341.1c0.3,0.7,0.6,1.4,0.8,2.2
					c3.1,12.2,6.7,24.4,10.8,36.3c2.1,6.1-0.9,12.8-6.7,15c-5.8,2.2-12.2-1-14.3-7.1c-4.3-12.5-8.1-25.4-11.4-38.2
					c-1.6-6.3,1.9-12.7,7.9-14.3C46,2333.5,51.3,2336.2,53.6,2341.1z M107.6,2470.2c2.5,5.3,0.9,11.8-4,15.1
					c-5.2,3.5-12.1,1.9-15.4-3.6c-6.8-11.2-13.2-22.9-19.1-34.6c0-0.1-0.1-0.1-0.1-0.2c-2.7-5.7-0.6-12.6,4.8-15.6
					c5.5-3,12.2-0.8,15.1,5c5.6,11.2,11.7,22.3,18.1,32.9C107.3,2469.4,107.5,2469.8,107.6,2470.2z"/>
				<path class="st6" d="M43.6,2157.7c1,2.1,1.4,4.5,1,6.9c-0.8,6-1.6,12.1-2.2,18.1c-0.6,6.4-6.1,11.1-12.3,10.4
					c-6.1-0.7-10.6-6.5-9.9-12.9c0.6-6.4,1.4-12.8,2.3-19.1c0.9-6.4,6.6-10.8,12.7-9.9C39,2151.9,42,2154.4,43.6,2157.7z"/>
			</g>
			<g class="st26">
				<path class="st6" d="M220.7,1852.7c2.4,5.1,1,11.4-3.5,14.7c-4.7,3.5-9.4,7.2-13.9,10.9c-4.9,4-11.9,3-15.7-2.1
					c-3.8-5.1-2.9-12.5,1.9-16.5c4.8-3.9,9.8-7.8,14.7-11.5c5-3.8,12-2.5,15.6,2.8C220.1,1851.6,220.4,1852.2,220.7,1852.7z"/>
				<path class="st6" d="M863.2,2021.8c2.3,4.8,4.5,9.7,6.7,14.7c2.6,5.9,0.1,12.9-5.5,15.5c-5.6,2.7-12.3,0-14.8-5.8
					c-5-11.4-10.4-22.6-16.1-33.4c-3-5.7-1.1-12.8,4.3-16c5.4-3.2,12.2-1.1,15.2,4.5C856.4,2008,859.9,2014.9,863.2,2021.8z
					 M890.6,2094.5c0.3,0.6,0.5,1.2,0.7,1.9c3.6,12.5,6.7,25.4,9.3,38.2c1.3,6.3-2.6,12.6-8.6,13.9c-6,1.3-12-2.7-13.2-9.1
					c-2.4-12.1-5.4-24.3-8.8-36.3c-1.8-6.2,1.6-12.7,7.5-14.6C882.7,2086.8,888.2,2089.5,890.6,2094.5z M820.7,1949.7
					c2.3,5,1.1,11.1-3.3,14.6c-4.9,3.9-11.9,2.9-15.6-2.3c-7.1-9.9-14.7-19.6-22.7-28.9c-4.1-4.8-3.8-12.2,0.8-16.6
					c4.6-4.3,11.7-3.9,15.8,0.9c8.3,9.8,16.4,20,23.9,30.4C820,1948.4,820.4,1949,820.7,1949.7z M907.9,2193.5
					c0.6,1.3,1,2.8,1.1,4.4c0.9,13,1.2,26.3,1.1,39.4c-0.1,6.5-5.1,11.6-11.3,11.5c-6.2-0.1-11.1-5.4-11-11.9
					c0.2-12.4-0.2-25-1-37.4c-0.4-6.5,4.2-12.1,10.3-12.5C901.8,2186.6,906,2189.3,907.9,2193.5z M754.8,1876.6
					c1.9,4.1,1.5,9.1-1.5,12.8c-4,4.9-11,5.5-15.7,1.4c-9-8-18.5-15.7-28.1-23c-5-3.8-6.2-11.1-2.6-16.4c3.6-5.3,10.5-6.5,15.6-2.7
					c10.2,7.6,20.1,15.7,29.6,24.2C753.2,1873.9,754.2,1875.2,754.8,1876.6z M675.3,1820.4c1.5,3.3,1.6,7.2-0.1,10.7
					c-2.9,5.7-9.6,7.9-15.1,4.9c-10.5-5.8-21.3-11.1-32.2-16c-5.7-2.5-8.4-9.4-6-15.4c2.4-6,8.9-8.8,14.6-6.2
					c11.5,5.1,22.9,10.7,33.9,16.8C672.7,1816.4,674.3,1818.2,675.3,1820.4z M586.1,1783.7c1.2,2.5,1.5,5.4,0.8,8.3
					c-1.6,6.3-7.7,10-13.7,8.3c-11.4-3.2-23.1-6-34.8-8.2c-6.1-1.2-10.1-7.3-9-13.6c1.1-6.4,6.9-10.6,13-9.4
					c12.2,2.3,24.5,5.3,36.6,8.7C582.2,1778.5,584.7,1780.8,586.1,1783.7z M491.5,1768.3c0.8,1.7,1.2,3.7,1.2,5.7
					c-0.3,6.5-5.4,11.5-11.6,11.2c-11.8-0.5-23.8-0.5-35.6,0c-6.2,0.3-11.4-4.8-11.6-11.2c-0.3-6.5,4.5-11.9,10.7-12.2
					c12.4-0.5,25-0.5,37.5,0C486.1,1762,489.7,1764.6,491.5,1768.3z M395.9,1775.1c0.5,1,0.8,2,1,3.1c1.1,6.4-2.9,12.5-9,13.6
					c-11.6,2.2-23.3,5-34.7,8.2c-6,1.7-12.1-2-13.7-8.3c-1.6-6.3,1.9-12.7,7.8-14.4c12-3.4,24.3-6.3,36.5-8.6
					C388.9,1767.8,393.7,1770.6,395.9,1775.1z M304.2,1803.8c0.1,0.2,0.2,0.4,0.3,0.7c2.4,6-0.2,12.8-5.9,15.4
					c-8,3.5-16,7.4-23.8,11.4c-2.8,1.5-5.6,3-8.4,4.5c-5.5,3-12.2,0.8-15.1-5c-3-5.8-0.8-12.8,4.7-15.8c2.9-1.6,5.9-3.2,8.8-4.7
					c8.2-4.3,16.6-8.3,25-12C295.3,1795.8,301.6,1798.3,304.2,1803.8z"/>
				<path class="st6" d="M904.1,2294.2c1,2.1,1.4,4.5,1,7c-0.9,6.3-2,12.7-3.1,18.9c-1.2,6.4-7,10.5-13.1,9.2
					c-6.1-1.3-10-7.4-8.8-13.8c1.1-6,2.1-12,3-18c0.9-6.4,6.6-10.8,12.7-9.8C899.5,2288.5,902.5,2290.9,904.1,2294.2z"/>
			</g>
			<g class="st26">
				<path class="st6" d="M1141.1,2832.4c1.3,2.8,0.8,6.3-1.5,8.5c-4.3,4.2-8.8,8.3-13.3,12.2c-2.9,2.5-7.3,2.1-9.7-1
					c-2.4-3.1-2-7.7,1-10.2c4.3-3.7,8.6-7.6,12.7-11.6c2.8-2.7,7.2-2.5,9.7,0.4C1140.4,2831.2,1140.8,2831.8,1141.1,2832.4z"/>
				<path class="st6" d="M1099,2866.2c1.6,3.3,0.5,7.3-2.5,9.3c-8.5,5.6-17.4,10.9-26.4,15.6c-1.9,1-3.8,2-5.7,2.9
					c-3.5,1.7-7.5-0.1-9.2-3.5c-1.6-3.6-0.1-7.9,3.3-9.6c1.8-0.9,3.7-1.8,5.5-2.8c8.6-4.5,17.1-9.5,25.2-14.8
					c3.2-2.1,7.5-1.1,9.5,2.3C1098.8,2865.8,1098.9,2866,1099,2866.2z M1034.3,2898.1c0.1,0.3,0.3,0.6,0.4,1
					c1.2,3.8-0.8,7.9-4.4,9.1c-11.6,4-23.6,7.3-35.5,9.7c-3.7,0.8-7.4-1.8-8.1-5.7c-0.7-3.9,1.7-7.7,5.4-8.5
					c11.4-2.3,22.8-5.5,33.9-9.3C1029.2,2893.3,1032.7,2895,1034.3,2898.1z M964,2912.6c0.4,0.8,0.6,1.7,0.7,2.7
					c0.3,4-2.6,7.4-6.4,7.7c-12.2,0.9-24.5,1-36.7,0.3c-3.8-0.2-6.7-3.6-6.5-7.6c0.2-4,3.4-7.1,7.2-6.8c11.6,0.7,23.4,0.6,35-0.3
					C960.2,2908.4,962.8,2910,964,2912.6z M892.5,2908.5c0.6,1.3,0.9,2.9,0.6,4.5c-0.7,3.9-4.3,6.6-8,5.8c-12-2.3-24-5.4-35.7-9.2
					c-3.6-1.2-5.7-5.3-4.5-9.1c1.1-3.8,5-6,8.6-4.8c11.1,3.6,22.6,6.6,34,8.8C889.7,2905,891.5,2906.5,892.5,2908.5z M824,2886.1
					c0.9,1.9,1,4.1,0.1,6.2c-1.6,3.6-5.6,5.3-9.1,3.6c-11.1-5.3-22.1-11.3-32.5-18c-3.3-2.1-4.3-6.5-2.3-10c2-3.4,6.2-4.5,9.5-2.4
					c10,6.4,20.4,12.1,31,17.2C822.2,2883.4,823.3,2884.7,824,2886.1z M762.8,2847c1.2,2.4,0.9,5.4-0.8,7.7
					c-2.4,3.1-6.7,3.7-9.7,1.2c-9.6-8-18.8-16.6-27.4-25.8c-2.7-2.9-2.6-7.4,0.1-10.2c2.7-2.8,7.1-2.8,9.8,0.1
					c8.2,8.7,16.9,17,26.1,24.6C761.7,2845.2,762.4,2846.1,762.8,2847z M712.5,2793.4c1.4,3,0.7,6.8-2,9c-3,2.4-7.4,1.8-9.7-1.4
					c-7.4-10.2-14.3-20.9-20.5-32c-1.9-3.5-0.8-7.9,2.5-9.9c3.3-2,7.5-0.9,9.4,2.6c5.9,10.6,12.5,20.9,19.6,30.6
					C712.1,2792.6,712.3,2793,712.5,2793.4z M664,2693c0.2,0.4,0.3,0.8,0.4,1.2c2.8,10.1,6.3,20.3,10.2,30.2c0.6,1.5,1.2,3,1.8,4.4
					c1.5,3.7-0.1,7.9-3.6,9.5c-3.5,1.6-7.7-0.1-9.1-3.8c-0.6-1.6-1.3-3.1-1.9-4.7c-4.1-10.3-7.7-21-10.6-31.6c-1.1-3.8,1-7.9,4.7-9
					C659.1,2688.2,662.5,2689.9,664,2693z"/>
			</g>
			<g class="st26">
				<path class="st6" d="M1202,2468.2c1.7,3.5,0.3,7.9-3,9.7c-3.4,1.8-7.5,0.4-9.3-3.2c-5.2-10.7-11.2-21.2-17.6-31.2
					c-2.1-3.3-1.3-7.8,1.8-10.1c3.2-2.2,7.4-1.4,9.6,2C1190.2,2445.9,1196.4,2456.9,1202,2468.2
					C1201.9,2468.1,1202,2468.2,1202,2468.2z M1216.2,2502.2c0.1,0.2,0.2,0.5,0.3,0.7c4.2,11.8,7.7,24.1,10.5,36.3
					c0.9,3.9-1.4,7.8-5.1,8.7c-3.7,0.9-7.4-1.5-8.3-5.4c-2.7-11.7-6-23.4-10-34.7c-1.3-3.8,0.5-7.9,4.1-9.3
					C1211,2497.3,1214.6,2498.9,1216.2,2502.2z M1162.4,2406.9c1.4,2.9,0.8,6.5-1.6,8.7c-2.9,2.6-7.2,2.3-9.7-0.7
					c-7.6-9.1-15.7-17.8-24.2-25.8c-2.8-2.7-3.1-7.3-0.5-10.2c2.5-3,6.9-3.2,9.7-0.5c8.9,8.4,17.5,17.5,25.4,27.1
					C1161.8,2405.8,1162.2,2406.4,1162.4,2406.9z M1232.5,2574.2c0.3,0.7,0.6,1.6,0.7,2.4c1.3,12.5,2,25.3,1.8,37.9
					c0,4-3.2,7.2-7,7.2c-3.8-0.1-6.9-3.3-6.8-7.3c0.1-12-0.5-24.2-1.8-36.1c-0.4-4,2.3-7.6,6.1-8
					C1228.6,2569.9,1231.3,2571.6,1232.5,2574.2z M1110,2357.4c1.1,2.3,1,5.1-0.5,7.4c-2.2,3.3-6.5,4.1-9.6,1.8
					c-9.4-6.9-19.3-13.3-29.4-18.9c-3.4-1.9-4.6-6.3-2.9-9.8c1.8-3.5,6-4.9,9.3-3c10.6,5.9,21,12.6,30.8,19.9
					C1108.7,2355.4,1109.5,2356.4,1110,2357.4z M1047.8,2322.6c0.8,1.8,1,3.9,0.3,5.8c-1.4,3.7-5.4,5.6-8.9,4.1
					c-10.7-4.4-21.8-8.1-32.8-11c-3.7-1-5.9-4.9-5-8.8c0.9-3.9,4.7-6.2,8.4-5.2c11.6,3.1,23.2,7,34.4,11.6
					C1045.7,2319.7,1047,2321,1047.8,2322.6z M979.4,2304.3c0.6,1.2,0.8,2.7,0.7,4.1c-0.5,4-3.9,6.8-7.7,6.3
					c-11.4-1.5-23-2.4-34.4-2.4c-3.8,0-6.9-3.3-6.9-7.3c0-4,3.1-7.2,6.9-7.2c12,0.1,24.1,0.9,36.1,2.5
					C976.5,2300.7,978.4,2302.2,979.4,2304.3z"/>
				<path class="st6" d="M1231.8,2648.6c0.6,1.3,0.8,2.7,0.7,4.2c-0.8,6.1-1.7,12.3-2.8,18.3c-0.7,3.9-4.3,6.5-8.1,5.7
					c-3.7-0.8-6.2-4.6-5.5-8.5c1.1-5.7,2-11.6,2.7-17.4c0.5-4,4-6.7,7.8-6.2C1228.9,2644.9,1230.8,2646.5,1231.8,2648.6z"/>
			</g>
		</g>
		<path class="st24" d="M1149.5,2684.7c0.6-1.4,0.3-3.1-0.8-4.2l-30.9-30.7c3.8-20.4,4.6-41.7,1.9-63l32.7-28.4c1.1-1,1.6-2.6,1-4.1
			l-18-50.2c-0.5-1.5-1.9-2.4-3.4-2.4l-42.5,1.2c-11.4-17.8-25.3-33.3-41.1-46l3.9-44.5c0.1-1.6-0.7-3-2-3.7l-46.5-22.2
			c-1.4-0.6-3-0.3-4,0.8l-29.2,32.4c-19.5-4.1-39.7-4.9-60-2.2l-27.1-34.4c-1-1.2-2.5-1.6-3.9-1.1l-47.7,18.8
			c-1.4,0.5-2.3,2-2.3,3.5l1.2,44.6c-17,11.9-31.7,26.5-43.7,43l-42.3-4.2c-1.5-0.1-2.9,0.7-3.5,2.1l-21,48.8
			c-0.6,1.4-0.3,3.1,0.8,4.2l30.9,30.7c-3.8,20.4-4.6,41.7-1.9,63l-32.7,28.4c-1.1,1-1.6,2.6-1,4.1l18,50.2c0.5,1.5,1.9,2.4,3.4,2.4
			l42.5-1.2c11.4,17.8,25.3,33.3,41.1,46l-3.9,44.4c-0.1,1.6,0.7,3,2,3.7l46.5,22.2c1.4,0.6,3,0.3,4-0.8l29.2-32.4
			c19.5,4.1,39.7,4.9,60,2.2l27.1,34.4c1,1.2,2.5,1.6,3.9,1.1l47.7-18.8c1.4-0.5,2.3-2,2.3-3.5l-1.2-44.6c17-11.9,31.7-26.5,43.7-43
			l42.3,4.2c1.5,0.1,2.9-0.7,3.5-2.1L1149.5,2684.7z"/>
		<path class="st25" d="M981.7,2587.5c5,10.5,6.6,22.3,4.6,34c-2.5,14.4-10.1,26.9-21.6,35.3c-23.6,17.2-56.2,11-72.6-13.8
			c-16.4-24.9-10.6-59.1,13-76.3c11.4-8.3,25.3-11.5,39-8.9c13.7,2.6,25.7,10.7,33.6,22.7C979.3,2582.7,980.6,2585.1,981.7,2587.5z
			 M900.6,2629.5c0.8,1.7,1.8,3.4,2.9,5.1c12.1,18.3,36.1,22.8,53.4,10.2c8.4-6.1,14-15.3,15.8-25.9c1.8-10.6-0.4-21.3-6.3-30.2l0,0
			c-5.9-8.9-14.6-14.8-24.7-16.7c-10.1-1.9-20.3,0.4-28.7,6.5C897.2,2590,892.2,2611.9,900.6,2629.5z"/>
		<path class="st25" d="M1050.2,2550.7c1.9,4.1,3.7,8.4,5.3,12.7c3.1,8.7,5.4,17.7,6.8,26.9c0.1,0.4,0.1,0.8,0.2,1.2
			c0.5,3.2-1.1,6.2-3.7,7.5c-0.6,0.3-1.3,0.6-2.1,0.7c-3.8,0.6-7.3-2.2-7.8-6.1c-1.2-8.6-3.3-17-6.2-25.1l0,0
			c-0.2-0.4-0.3-0.9-0.5-1.3c-7.1-19.2-18.4-35.8-33-48.7c-7.9-7-16.8-13-26.4-17.7c-0.1,0-0.2-0.1-0.2-0.1
			c-0.2-0.1-0.5-0.2-0.7-0.3c-28.3-13.5-59.8-14.6-88.9-3.2c-3.8,1.5-7.4,3.1-11,5c-23.9,12.4-42.7,32.9-53.9,58.7
			c-12.8,29.7-13.8,62.8-2.8,93.3c11,30.5,32.6,54.7,60.8,68.2c28.3,13.5,59.8,14.6,88.9,3.2c3.7-1.5,7.3-3.1,10.8-4.9
			c15.2-7.9,28.6-19.3,39.2-33.2c0.7-0.9,1.4-1.5,2.3-2c2.3-1.2,5.2-1,7.4,0.8c3,2.5,3.5,7,1.1,10.2c-11.8,15.6-26.8,28.3-43.8,37.2
			c-3.9,2-8,3.9-12.1,5.5c-32.5,12.8-67.8,11.5-99.4-3.6c-31.6-15.1-55.8-42.2-68-76.3c-12.3-34.1-11.1-71.2,3.2-104.4
			c12.4-28.9,33.6-51.8,60.3-65.7c4-2.1,8.1-3.9,12.3-5.6C950.9,2458.7,1020.9,2488.7,1050.2,2550.7z"/>
	</g>
	<g>
		<path class="st27" d="M2584.5,96.1h-867.4c-28.1,0-51,22.8-51,51v361.4c0,28.1,22.8,51,51,51h90.1c-5.2,39.8-12.1,96.8-8.3,96.8
			c4,0,47.7-60,74.1-96.8h711.5c28.1,0,51-22.8,51-51V147C2635.5,118.9,2612.6,96.1,2584.5,96.1z"/>
		<path class="st0" d="M2626,0h-867.4c-28.1,0-51,22.8-51,51v361.4c0,28.1,22.8,51,51,51h90.1c-5.2,39.8-12.1,96.8-8.3,96.8
			c4,0,47.7-60,74.1-96.8H2626c28.1,0,51-22.8,51-51V51C2676.9,22.8,2654.1,0,2626,0z"/>
		<path class="st7" d="M2458.4,154.1h-496.3c-3.3,0-6.1-2.7-6.1-6.1V138c0-3.3,2.7-6.1,6.1-6.1h496.3c3.3,0,6.1,2.7,6.1,6.1v10.1
			C2464.5,151.4,2461.7,154.1,2458.4,154.1z"/>
		<path class="st7" d="M2070,212.7h-107.9c-3.3,0-6.1-2.7-6.1-6.1v-10.1c0-3.3,2.7-6.1,6.1-6.1H2070c3.3,0,6.1,2.7,6.1,6.1v10.1
			C2076.1,210,2073.4,212.7,2070,212.7z"/>
		<path class="st7" d="M2458.4,212.7h-330.9c-3.3,0-6.1-2.7-6.1-6.1v-10.1c0-3.3,2.7-6.1,6.1-6.1h330.9c3.3,0,6.1,2.7,6.1,6.1v10.1
			C2464.5,210,2461.7,212.7,2458.4,212.7z"/>
		<path class="st7" d="M2212.6,271.3h-250.5c-3.3,0-6.1-2.7-6.1-6.1v-10.1c0-3.3,2.7-6.1,6.1-6.1h250.5c3.3,0,6.1,2.7,6.1,6.1v10.1
			C2218.7,268.6,2216,271.3,2212.6,271.3z"/>
		<path class="st7" d="M2458.4,271.3h-195.2c-3.3,0-6.1-2.7-6.1-6.1v-10.1c0-3.3,2.7-6.1,6.1-6.1h195.2c3.3,0,6.1,2.7,6.1,6.1v10.1
			C2464.5,268.6,2461.7,271.3,2458.4,271.3z"/>
		<path class="st7" d="M2458.4,329.8h-496.3c-3.3,0-6.1-2.7-6.1-6.1v-10.1c0-3.3,2.7-6.1,6.1-6.1h496.3c3.3,0,6.1,2.7,6.1,6.1v10.1
			C2464.5,327.1,2461.7,329.8,2458.4,329.8z"/>
	</g>
</g>
</svg>
