<?xml version="1.0" encoding="utf-8"?>
<!-- Generator: Adobe Illustrator 22.0.1, SVG Export Plug-In . SVG Version: 6.00 Build 0)  -->
<svg version="1.1" id="Layer_1" xmlns="http://www.w3.org/2000/svg" xmlns:xlink="http://www.w3.org/1999/xlink" x="0px" y="0px"
	 viewBox="0 0 451.5 200.6" style="enable-background:new 0 0 451.5 200.6;" xml:space="preserve">
<style type="text/css">
	.st0{fill:#FEFEFE;}
</style>
<g>
	<polygon class="st0" points="53.9,200.6 0,0 34.9,0 76.9,154.7 120.8,0 153.7,0 198.7,155.7 239.6,0 275.5,0 221.6,200.6 
		180.7,200.6 137.8,50.9 94.8,200.6 	"/>
	<path class="st0" d="M451.5,143.7c0,16-6,29.9-17,40.9c-12,11-26,16-42.9,16h-85.8V0h78.9c17,0,30.9,6,41.9,16c12,11,17,24,17,39.9
		c0,18-7,30.9-20,40.9C441.5,105.8,451.5,122.8,451.5,143.7z M338.7,30.9L338.7,30.9v52.9h46.9c14,0,25-11,25-26s-11-27-25-27H338.7
		z M391.6,170.7L391.6,170.7c15,0,27-13,27-28.9s-12-28-27-28h-52.9v56.9H391.6z"/>
</g>
</svg>
