<?xml version="1.0" encoding="utf-8"?>
<!-- Generator: Adobe Illustrator 22.0.1, SVG Export Plug-In . SVG Version: 6.00 Build 0)  -->
<svg version="1.1" id="Layer_1" xmlns="http://www.w3.org/2000/svg" xmlns:xlink="http://www.w3.org/1999/xlink" x="0px" y="0px"
	 viewBox="0 0 1763.9 208.6" style="enable-background:new 0 0 1763.9 208.6;" xml:space="preserve">
<style type="text/css">
	.st0{fill:#FEFEFE;}
</style>
<g>
	<polygon class="st0" points="53.9,204.6 0,4 34.9,4 76.9,158.7 120.8,4 153.7,4 198.7,159.7 239.6,4 275.5,4 221.6,204.6 
		180.7,204.6 137.8,54.9 94.8,204.6 	"/>
	<polygon class="st0" points="299.5,4 333.4,4 333.4,204.6 299.5,204.6 	"/>
	<polygon class="st0" points="405.3,173.7 487.1,173.7 487.1,204.6 372.3,204.6 372.3,4 405.3,4 	"/>
	<path class="st0" d="M590,4c28,0,50.9,10,68.9,28.9c18,20,28,43.9,28,71.9s-10,51.9-28,70.9c-18,20-40.9,28.9-68.9,28.9h-78.9V4
		H590z M590,173.7L590,173.7c19,0,34.9-6,45.9-19c13-13,19-29.9,19-49.9s-6-35.9-19-48.9c-11-13-27-20-45.9-20H544v137.8H590z"/>
	<path class="st0" d="M863.5,147.7c0,16-6,29.9-17,40.9c-12,11-26,16-42.9,16h-85.8V4h78.9c17,0,30.9,6,41.9,16c12,11,17,24,17,39.9
		c0,18-7,30.9-20,40.9C853.5,109.8,863.5,126.8,863.5,147.7z M750.7,34.9L750.7,34.9v52.9h46.9c14,0,25-11,25-26s-11-27-25-27H750.7
		z M803.6,174.7L803.6,174.7c15,0,27-13,27-28.9s-12-28-27-28h-52.9v56.9H803.6z"/>
	<polygon class="st0" points="928.4,173.7 1017.2,173.7 1017.2,204.6 895.4,204.6 895.4,4 1015.2,4 1015.2,35.9 928.4,35.9 
		928.4,87.8 1008.2,87.8 1008.2,118.8 928.4,118.8 	"/>
	<path class="st0" d="M1161,204.6l-41.9-72.9h-39.9v72.9h-31.9V4h79.9c18,0,33.9,6,45.9,19c12,13,19,28,19,45.9
		c0,25-16,48.9-39.9,57.9l45.9,77.9H1161z M1079.1,34.9L1079.1,34.9v67.9h47.9c18,0,30.9-15,30.9-33.9s-14-33.9-30.9-33.9H1079.1z"
		/>
	<path class="st0" d="M1336.7,204.6l-41.9-72.9h-38.9v72.9h-32.9V4h80.9c18,0,32.9,6,44.9,19c13,12,19,28,19,45.9
		c0,25-16,48.9-39.9,57.9l45.9,77.9H1336.7z M1255.8,34.9L1255.8,34.9v67.9h46.9c18,0,31.9-15,31.9-33.9s-14-33.9-31.9-33.9H1255.8z
		"/>
	<polygon class="st0" points="1397.5,4 1430.5,4 1430.5,204.6 1397.5,204.6 	"/>
	<polygon class="st0" points="1502.4,173.7 1591.2,173.7 1591.2,204.6 1469.4,204.6 1469.4,4 1590.2,4 1590.2,35.9 1502.4,35.9 
		1502.4,87.8 1583.2,87.8 1583.2,118.8 1502.4,118.8 	"/>
	<path class="st0" d="M1614.2,159.7l28.9-17c8,23,25,33.9,49.9,33.9s36.9-11,36.9-27c0-8-3-14-10-18c-6-5-18-9-34.9-15
		c-20-5-28.9-9-42.9-18c-13-9-19-22-19-40.9c0-17,6-30.9,19-41.9c12-10,28-16,45.9-16c31.9,0,56.9,17,69.9,44.9l-28,16
		c-8-19-23-28-41.9-28c-20,0-31.9,9-31.9,25c0,15,10,22,40.9,30.9c7,3,13,5,16,6c4,1,9,3,15,6c7,2,12,5,15,8c11,8,21,21,21,40.9
		c0,18-7,32.9-20,43.9c-13,10-29.9,15-51.9,15C1653.1,208.6,1625.1,190.7,1614.2,159.7z"/>
</g>
</svg>
