<?xml version="1.0" encoding="utf-8"?>
<!-- Generator: Adobe Illustrator 22.0.1, SVG Export Plug-In . SVG Version: 6.00 Build 0)  -->
<svg version="1.1" id="Layer_1" xmlns="http://www.w3.org/2000/svg" xmlns:xlink="http://www.w3.org/1999/xlink" x="0px" y="0px"
	 viewBox="0 0 144.5 144.5" style="enable-background:new 0 0 144.5 144.5;" xml:space="preserve">
<style type="text/css">
	.st0{fill:#7A66FD;}
</style>
<g>
	<path class="st0" d="M72.2,0C32.4,0,0,32.4,0,72.2s32.4,72.2,72.2,72.2s72.2-32.4,72.2-72.2S112.1,0,72.2,0z M72.2,137.8
		c-36.2,0-65.6-29.4-65.6-65.6S36.1,6.7,72.2,6.7s65.6,29.4,65.6,65.6S108.4,137.8,72.2,137.8z"/>
	<path class="st0" d="M107.6,64.4c-1.9-1.6-2.5-2.1-2.7-2.5l-0.1-0.2l0-0.2c-0.1-0.4,0-1.1,0.7-3.7c0.7-2.9,1.7-6.5-0.4-9.4
		c-2.1-2.8-5.8-3.1-8.8-3.3l-0.1,0C94,45,93,44.9,92.5,44.7l-0.1-0.1l-0.1-0.1c-0.3-0.3-0.7-1-1.7-3.5c-1.2-2.9-2.5-6.3-5.8-7.3
		c-3.3-1.1-6.2,0.8-8.9,2.5l0,0c-2.4,1.5-3.1,1.8-3.6,1.8l-0.1,0l-0.1,0c-0.5,0-1.2-0.4-3.5-1.9c-2-1.3-4.4-2.9-7-2.9
		c-0.7,0-1.3,0.1-2,0.3c-3.3,1.1-4.6,4.4-5.8,7.3l0,0.1c-1,2.5-1.4,3.2-1.7,3.4L52,44.5l-0.1,0.1c-0.4,0.2-1.2,0.4-3.9,0.6
		c-3.2,0.2-6.7,0.5-8.8,3.3c-2,2.8-1.1,6.3-0.3,9.3l0,0.1c0.5,2.1,0.7,3.1,0.7,3.6l0,0.2l-0.1,0.2c-0.2,0.4-0.7,0.9-2.6,2.5
		c-2.4,1.9-5.3,4.4-5.3,8c0,3.6,2.9,6,5.2,7.9c1.7,1.4,2.4,2.1,2.7,2.6l0.1,0.1l0,0.2c0.1,0.4,0,1.1-0.7,3.7
		c-0.8,2.9-1.7,6.6,0.4,9.4c2.1,2.8,6,3,8.8,3.2l0.1,0c2.2,0.2,3.2,0.3,3.6,0.5l0.1,0.1l0.1,0.1c0.3,0.3,0.7,1,1.7,3.5
		c1.2,2.9,2.5,6.3,5.8,7.3c0.6,0.2,1.3,0.3,1.9,0.3c2.5,0,4.8-1.5,6.9-2.8l0.1-0.1c2.3-1.5,3.1-1.8,3.5-1.8l0.1,0l0.1,0
		c0.5,0,1.2,0.3,3.6,1.8c2.5,1.6,5.6,3.6,8.9,2.5c3.3-1.1,4.6-4.4,5.8-7.3l0-0.1c0.9-2.1,1.3-3,1.7-3.4l0.1-0.1l0.1-0.1
		c0.4-0.2,1.2-0.4,3.8-0.6c3.1-0.2,6.7-0.5,8.7-3.3c2.1-2.8,1.2-6.3,0.4-9.4c-0.6-2.4-0.7-3.2-0.7-3.6l0-0.2l0.1-0.2
		c0.3-0.4,1-1.1,2.6-2.4l0,0c2.4-1.9,5.3-4.4,5.3-8C112.8,68.6,109.9,66.3,107.6,64.4z M105.8,72.9c-0.5,0.6-1.6,1.5-2.4,2.2l0,0
		c-1.9,1.5-4,3.3-4.8,5.7c-0.8,2.4-0.1,5,0.5,7.6l0,0c0.2,0.7,0.5,2.1,0.7,2.9l0.2,0.9L99,92.4c-0.6,0.1-1.7,0.2-3.1,0.3
		c-2.5,0.2-5.3,0.4-7.4,1.9c-2.1,1.5-3.1,4-4.1,6.4c-0.5,1.4-0.9,2.3-1.2,2.8l-0.4,0.8l-0.8-0.4c-0.8-0.4-2-1.1-2.5-1.5l-0.1-0.1
		c-2.1-1.3-4.5-2.9-7.1-2.9c-2.7,0-5.1,1.5-7.2,2.9l-0.2,0.1c-0.6,0.4-1.6,1-2.2,1.4l-0.8,0.5l-0.5-0.8c-0.4-0.8-1-2.2-1.2-2.8
		l0-0.1c-1-2.4-2-5-4.1-6.5c-2.1-1.5-4.7-1.7-7.3-1.8c-0.7,0-2.3-0.2-3.2-0.3l-0.9-0.1l0.1-0.9c0.1-0.6,0.3-1.6,0.7-3.1
		c0.6-2.4,1.3-5.1,0.5-7.5c-0.8-2.5-2.9-4.2-4.8-5.8c-0.8-0.7-1.9-1.6-2.4-2.1l-0.6-0.6l0.6-0.6c0.4-0.5,1.2-1.2,2.5-2.2
		c2-1.6,4-3.3,4.8-5.7c0.8-2.4,0.2-5-0.5-7.6l0-0.1c-0.2-0.7-0.5-2-0.7-2.8l-0.2-0.9l0.9-0.2c0.8-0.2,2-0.2,3-0.3
		c2.5-0.2,5.3-0.4,7.4-1.9c2.1-1.5,3.1-4,4.1-6.4c0.5-1.3,0.9-2.2,1.2-2.8l0.4-0.9l0.9,0.4c0.8,0.4,2,1.2,2.6,1.5
		c2.1,1.4,4.5,2.9,7.2,2.9c2.7,0,5-1.5,7.2-2.9c0.5-0.3,1.7-1.1,2.4-1.5l0.8-0.5l0.5,0.8c0.4,0.8,1,2.2,1.3,2.8c1,2.4,2,5,4.1,6.5
		c2.1,1.5,4.8,1.7,7.3,1.9l0,0c0.7,0,2.2,0.1,3,0.3l0.9,0.1l-0.1,0.9c-0.1,0.6-0.3,1.6-0.7,3.1c-0.6,2.4-1.3,5.1-0.5,7.6
		c0.8,2.5,3,4.2,4.9,5.8l0.1,0.1c0.5,0.4,1.7,1.4,2.2,2l0.6,0.6L105.8,72.9z"/>
	<path class="st0" d="M87.2,59.6L87.2,59.6c-0.7-0.6-1.5-0.8-2.4-0.8c-0.9,0.1-1.7,0.5-2.2,1.2L67.5,78l-6.4-6.4
		c-0.6-0.6-1.5-1-2.3-1c-0.9,0-1.7,0.3-2.3,1c-0.6,0.6-1,1.5-1,2.3c0,0.9,0.3,1.7,1,2.3l9,9c0.6,0.6,1.5,1,2.3,1c0,0,0.1,0,0.1,0
		l0,0c0.9,0,1.8-0.5,2.4-1.2l17.3-20.7c0.6-0.7,0.8-1.5,0.8-2.4C88.3,61,87.9,60.2,87.2,59.6z"/>
</g>
</svg>
