<?xml version="1.0" encoding="utf-8"?>
<!-- Generator: Adobe Illustrator 22.0.1, SVG Export Plug-In . SVG Version: 6.00 Build 0)  -->
<svg version="1.1" id="Layer_1" xmlns="http://www.w3.org/2000/svg" xmlns:xlink="http://www.w3.org/1999/xlink" x="0px" y="0px"
	 viewBox="0 0 145.5 145.5" style="enable-background:new 0 0 145.5 145.5;" xml:space="preserve">
<style type="text/css">
	.st0{fill:#7A66FD;}
</style>
<g>
	<g>
		<g>
			<path class="st0" d="M102.5,49.5c1.8,2.3,3.3,4.8,4.5,7.5L72.6,82.3l-14.4-9.1V62.4l14.4,9L102.5,49.5z"/>
		</g>
		<g>
			<path class="st0" d="M101.7,71.8c0,0.3,0,0.6,0,0.9c0,16-13,28.9-28.9,28.9s-28.9-13-28.9-28.9s13-28.9,28.9-28.9
				c6,0,11.5,1.8,16.1,4.9l7.2-5.3c-6.4-5.1-14.5-8.2-23.3-8.2c-20.7,0-37.5,16.8-37.5,37.5s16.8,37.5,37.5,37.5
				s37.5-16.8,37.5-37.5c0-2.3-0.2-4.6-0.6-6.8L101.7,71.8z"/>
		</g>
	</g>
	<g>
		<path class="st0" d="M72.8,145.5C32.6,145.5,0,112.9,0,72.8S32.6,0,72.8,0s72.8,32.6,72.8,72.8S112.9,145.5,72.8,145.5z M72.8,7
			C36.5,7,7,36.5,7,72.8s29.5,65.8,65.8,65.8s65.8-29.5,65.8-65.8S109,7,72.8,7z"/>
	</g>
</g>
</svg>
