<?xml version="1.0" encoding="utf-8"?>
<!-- Generator: Adobe Illustrator 22.0.1, SVG Export Plug-In . SVG Version: 6.00 Build 0)  -->
<svg version="1.1" id="Layer_1" xmlns="http://www.w3.org/2000/svg" xmlns:xlink="http://www.w3.org/1999/xlink" x="0px" y="0px"
	 viewBox="0 0 145.5 145.5" style="enable-background:new 0 0 145.5 145.5;" xml:space="preserve">
<style type="text/css">
	.st0{fill:#7A66FD;}
</style>
<g>
	<g>
		<path class="st0" d="M72.8,145.5C32.6,145.5,0,112.9,0,72.8S32.6,0,72.8,0s72.8,32.6,72.8,72.8S112.9,145.5,72.8,145.5z M72.8,7
			C36.5,7,7,36.5,7,72.8s29.5,65.8,65.8,65.8s65.8-29.5,65.8-65.8S109,7,72.8,7z"/>
	</g>
	<g>
		<path class="st0" d="M104.4,43.6H41.1c-4.9,0-8.8,4-8.8,8.8V93c0,4.9,4,8.8,8.8,8.8h63.3c4.9,0,8.8-4,8.8-8.8V52.5
			C113.2,47.6,109.3,43.7,104.4,43.6z M39.8,71.5h65.9V93c0,0.7-0.6,1.3-1.3,1.3H41.1c-0.7,0-1.3-0.6-1.3-1.3V71.5z M105.7,61.3v2.6
			H39.8v-2.6H105.7z M41.1,51.2h63.3c0.7,0,1.3,0.6,1.3,1.3v1.3H39.8v-1.3C39.8,51.8,40.4,51.2,41.1,51.2z"/>
		<path class="st0" d="M46.9,86.8h32.9c2.1,0,3.8-1.7,3.8-3.8s-1.7-3.8-3.8-3.8H46.9c-2.1,0-3.8,1.7-3.8,3.8S44.9,86.8,46.9,86.8z"
			/>
		<path class="st0" d="M90,86.8h7.6c2.1,0,3.8-1.7,3.8-3.8s-1.7-3.8-3.8-3.8H90c-2.1,0-3.8,1.7-3.8,3.8S87.9,86.8,90,86.8z"/>
	</g>
</g>
</svg>
