<?xml version="1.0" encoding="utf-8"?>
<!-- Generator: Adobe Illustrator 22.0.1, SVG Export Plug-In . SVG Version: 6.00 Build 0)  -->
<svg version="1.1" id="Layer_1" xmlns="http://www.w3.org/2000/svg" xmlns:xlink="http://www.w3.org/1999/xlink" x="0px" y="0px"
	 viewBox="0 0 144.5 144.5" style="enable-background:new 0 0 144.5 144.5;" xml:space="preserve">
<style type="text/css">
	.st0{fill:#7A66FD;}
</style>
<g>
	<g>
		<path class="st0" d="M72.2,0C32.4,0,0,32.4,0,72.2c0,39.8,32.4,72.2,72.2,72.2c39.8,0,72.2-32.4,72.2-72.2
			C144.5,32.4,112.1,0,72.2,0z M72.2,137.8c-36.2,0-65.6-29.4-65.6-65.6c0-36.2,29.4-65.6,65.6-65.6c36.2,0,65.6,29.4,65.6,65.6
			C137.8,108.4,108.4,137.8,72.2,137.8z"/>
	</g>
	<g>
		<g>
			<path class="st0" d="M67.5,67.7l2.6-2.6v18.9c0,1.8,1.4,3.2,3.2,3.2h0c1.8,0,3.2-1.4,3.2-3.2V57h-5.4l-7.6,6.7
				c-1.2,1-1.3,2.8-0.2,4C64.5,68.8,66.4,68.8,67.5,67.7z"/>
		</g>
	</g>
	<g>
		<g>
			<path class="st0" d="M31.7,66.6c0,0-0.1-0.1-0.1-0.1c-0.6-0.6-1.3-0.9-2.1-0.9c0,0,0,0,0,0c-0.8,0-1.6,0.3-2.1,0.9
				c0,0-0.1,0.1-0.1,0.1l-6,6c-1.2,1.2-1.2,3.1,0,4.3c1.2,1.2,3.1,1.2,4.3,0l4-4l4,4c0.6,0.6,1.4,0.9,2.1,0.9c0.8,0,1.6-0.3,2.1-0.9
				c1.2-1.2,1.2-3.1,0-4.3L31.7,66.6z"/>
		</g>
		<g>
			<path class="st0" d="M122.7,66.5c-1.2-1.2-3.1-1.2-4.3,0l-4,4l-4-4c-1.2-1.2-3.1-1.2-4.3,0c-1.2,1.2-1.2,3.1,0,4.3l6,6
				c0,0,0.1,0.1,0.1,0.1c0.6,0.6,1.3,0.9,2.1,0.9c0,0,0,0,0,0c0.8,0,1.6-0.3,2.1-0.9c0,0,0.1-0.1,0.1-0.1l6-6
				C123.9,69.6,123.9,67.7,122.7,66.5z M107.2,69.7L107.2,69.7L107.2,69.7L107.2,69.7z"/>
		</g>
	</g>
	<g>
		<path class="st0" d="M88.9,102.3H55.6c-4.6,0-8.3-3.7-8.3-8.3V50.4c0-4.6,3.7-8.3,8.3-8.3h33.3c4.6,0,8.3,3.7,8.3,8.3V94
			C97.1,98.6,93.4,102.3,88.9,102.3z M55.6,47.9c-1.4,0-2.5,1.1-2.5,2.5V94c0,1.4,1.1,2.5,2.5,2.5h33.3c1.4,0,2.5-1.1,2.5-2.5V50.4
			c0-1.4-1.1-2.5-2.5-2.5H55.6z"/>
	</g>
</g>
</svg>
