<?xml version="1.0" encoding="utf-8"?>
<!-- Generator: Adobe Illustrator 22.0.1, SVG Export Plug-In . SVG Version: 6.00 Build 0)  -->
<svg version="1.1" id="Layer_1" xmlns="http://www.w3.org/2000/svg" xmlns:xlink="http://www.w3.org/1999/xlink" x="0px" y="0px"
	 viewBox="0 0 145.5 145.5" style="enable-background:new 0 0 145.5 145.5;" xml:space="preserve">
<style type="text/css">
	.st0{fill:#7A66FD;}
</style>
<g>
	<g>
		<path class="st0" d="M72.8,145.5C32.6,145.5,0,112.9,0,72.8S32.6,0,72.8,0s72.8,32.6,72.8,72.8S112.9,145.5,72.8,145.5z M72.8,7
			C36.5,7,7,36.5,7,72.8s29.5,65.8,65.8,65.8s65.8-29.5,65.8-65.8S109,7,72.8,7z"/>
	</g>
	<path class="st0" d="M72.8,30.2c-23.5,0-42.6,19.1-42.6,42.6c0,23.5,19.1,42.6,42.6,42.6s42.6-19.1,42.6-42.6
		C115.3,49.3,96.2,30.2,72.8,30.2z M72.8,107.3c-19,0-34.5-15.5-34.5-34.5c0-19,15.5-34.5,34.5-34.5s34.5,15.5,34.5,34.5
		C107.3,91.8,91.8,107.3,72.8,107.3z"/>
	<path class="st0" d="M77.7,76.2c6.5,0,11.8-5.3,11.8-11.8s-5.3-11.8-11.8-11.8H60.9c-0.5,0-1,0.4-1,1v26.6H53c-0.5,0-1,0.4-1,1V87
		c0,0.5,0.4,1,1,1h6.9v8.9c0,0.5,0.4,1,1,1h5.9c0.5,0,1-0.4,1-1V88h16.8c0.5,0,1-0.4,1-1v-5.9c0-0.5-0.4-1-1-1H67.8v-3.9H77.7z
		 M81.6,64.3c0,2.2-1.8,3.9-3.9,3.9h-9.9v-7.9h9.9C79.8,60.4,81.6,62.1,81.6,64.3z"/>
</g>
</svg>
