<?xml version="1.0" encoding="utf-8"?>
<!-- Generator: Adobe Illustrator 22.0.1, SVG Export Plug-In . SVG Version: 6.00 Build 0)  -->
<svg version="1.1" id="Layer_1" xmlns="http://www.w3.org/2000/svg" xmlns:xlink="http://www.w3.org/1999/xlink" x="0px" y="0px"
	 viewBox="0 0 145.5 145.5" style="enable-background:new 0 0 145.5 145.5;" xml:space="preserve">
<style type="text/css">
	.st0{fill:#7A66FD;}
</style>
<g>
	<g>
		<path class="st0" d="M72.8,145.5C32.6,145.5,0,112.9,0,72.8S32.6,0,72.8,0s72.8,32.6,72.8,72.8S112.9,145.5,72.8,145.5z M72.8,7
			C36.5,7,7,36.5,7,72.8s29.5,65.8,65.8,65.8s65.8-29.5,65.8-65.8S109,7,72.8,7z"/>
	</g>
	<g>
		<path class="st0" d="M66.9,57c0,2.4-0.5,4.7-1.4,6.8c-0.9,2.1-2.2,3.9-3.7,5.5s-3.4,2.8-5.5,3.7c-2.1,0.9-4.3,1.4-6.7,1.4
			c-2.4,0-4.7-0.5-6.8-1.4c-2.1-0.9-3.9-2.2-5.5-3.7c-1.6-1.6-2.8-3.4-3.7-5.5c-0.9-2.1-1.4-4.3-1.4-6.8c0-2.4,0.5-4.7,1.4-6.8
			c0.9-2.1,2.2-3.9,3.7-5.5c1.6-1.6,3.4-2.8,5.5-3.7c2.1-0.9,4.3-1.3,6.8-1.3c2.4,0,4.6,0.4,6.7,1.3c2.1,0.9,3.9,2.1,5.5,3.7
			s2.8,3.4,3.7,5.5C66.4,52.3,66.9,54.5,66.9,57z M41,57c0,1.1,0.2,2.3,0.6,3.3c0.4,1.1,1,2,1.9,2.8c1.7,1.7,3.8,2.6,6.2,2.6
			c2.4,0,4.4-0.9,6.1-2.6c1.7-1.7,2.5-3.7,2.5-6.1c0-2.4-0.8-4.4-2.5-6.1C55,50,54,49.4,53,49c-1.1-0.4-2.2-0.6-3.3-0.6
			c-2.5,0-4.5,0.8-6.2,2.5c-0.8,0.8-1.4,1.7-1.9,2.8C41.2,54.7,41,55.8,41,57z M100,40.9l-44.1,60.3H45.3l44.1-60.3H100z M95.8,67.9
			c2.4,0,4.6,0.5,6.7,1.4c2.1,0.9,3.9,2.2,5.5,3.7c1.6,1.6,2.8,3.4,3.7,5.5c0.9,2.1,1.4,4.3,1.4,6.8c0,2.4-0.5,4.6-1.4,6.7
			c-0.9,2.1-2.2,3.9-3.7,5.5s-3.4,2.8-5.5,3.7c-2.1,0.9-4.3,1.4-6.7,1.4c-2.4,0-4.7-0.5-6.8-1.4c-2.1-0.9-3.9-2.2-5.5-3.7
			c-1.6-1.6-2.8-3.4-3.7-5.5c-0.9-2.1-1.4-4.3-1.4-6.7c0-2.4,0.5-4.7,1.4-6.8c0.9-2.1,2.2-3.9,3.7-5.5c1.6-1.6,3.4-2.8,5.5-3.7
			C91.2,68.4,93.4,67.9,95.8,67.9z M101.9,91.3c0.8-0.8,1.4-1.7,1.9-2.8c0.4-1.1,0.6-2.2,0.6-3.3c0-2.5-0.8-4.5-2.5-6.2
			c-0.8-0.8-1.7-1.4-2.8-1.9c-1.1-0.4-2.2-0.6-3.3-0.6c-2.5,0-4.5,0.8-6.2,2.5c-0.8,0.8-1.4,1.8-1.9,2.8c-0.4,1.1-0.6,2.2-0.6,3.4
			c0,1.1,0.2,2.3,0.6,3.3c0.4,1.1,1,2,1.9,2.8c1.7,1.7,3.7,2.5,6.2,2.5c1.1,0,2.3-0.2,3.3-0.6C100.2,92.7,101.1,92.1,101.9,91.3z"/>
	</g>
</g>
</svg>
