<?xml version="1.0" encoding="utf-8"?>
<!-- Generator: Adobe Illustrator 22.0.1, SVG Export Plug-In . SVG Version: 6.00 Build 0)  -->
<svg version="1.1" id="Layer_1" xmlns="http://www.w3.org/2000/svg" xmlns:xlink="http://www.w3.org/1999/xlink" x="0px" y="0px"
	 viewBox="0 0 144.5 144.5" style="enable-background:new 0 0 144.5 144.5;" xml:space="preserve">
<style type="text/css">
	.st0{fill:#7A66FD;}
</style>
<g>
	<path class="st0" d="M72.2,0C32.4,0,0,32.4,0,72.2c0,39.8,32.4,72.2,72.2,72.2c39.8,0,72.2-32.4,72.2-72.2
		C144.5,32.4,112.1,0,72.2,0z M72.2,137.8c-36.2,0-65.6-29.4-65.6-65.6c0-36.2,29.4-65.6,65.6-65.6c36.2,0,65.6,29.4,65.6,65.6
		C137.8,108.4,108.4,137.8,72.2,137.8z"/>
	<path class="st0" d="M115.3,46.8H99.4c-3.8,0-8.7,2-11.3,4.7L55.3,84.2c-1.6,1.6-2.4,3.7-2.4,5.9c0,2.2,0.9,4.3,2.4,5.9l19.1,19.1
		c1.6,1.6,3.7,2.4,5.9,2.4c2.2,0,4.3-0.9,5.9-2.4L119,82.4c2.7-2.7,4.7-7.5,4.7-11.3V55.2C123.7,50.6,119.9,46.8,115.3,46.8z
		 M117.7,55.2v15.9c0,2.2-1.4,5.6-3,7.1l-32.7,32.7c-0.5,0.5-1.1,0.7-1.7,0.7c-0.7,0-1.3-0.3-1.7-0.7L59.6,91.8
		c-0.5-0.5-0.7-1.1-0.7-1.7c0-0.7,0.3-1.3,0.7-1.7l32.7-32.7c1.5-1.5,4.9-3,7.1-3h15.9C116.6,52.8,117.7,53.8,117.7,55.2z"/>
	<path class="st0" d="M107.9,59.5c-0.8,0-1.5,0.3-2.1,0.9c-0.6,0.6-0.9,1.3-0.9,2.1c0,0.8,0.3,1.5,0.9,2.1c0.6,0.6,1.3,0.9,2.1,0.9
		c0.8,0,1.5-0.3,2.1-0.9c0.6-0.6,0.9-1.3,0.9-2.1c0-0.8-0.3-1.5-0.9-2.1C109.5,59.9,108.7,59.5,107.9,59.5z"/>
	<g>
		<path class="st0" d="M73,79.3c2.9-2.9,5.9-2.9,8.2-0.5l1.9,1.9c2.3,2.3,2.3,5.3-0.6,8.2c-2.9,2.9-5.9,2.9-8.2,0.6l-1.9-1.9
			C70.1,85.2,70.1,82.2,73,79.3z M76.2,82.5c-0.7,0.7-0.7,1.4-0.2,2l1.4,1.4c0.6,0.6,1.3,0.6,2-0.1c0.7-0.7,0.7-1.4,0.1-2l-1.4-1.4
			C77.5,81.8,76.8,81.8,76.2,82.5z M88.6,66.4l4.2,27.1c0.2,1.4,0.1,1.7-1.1,3l-2.2,2.2c-0.7,0.7-1.4,0.4-1.6-0.5L83.7,71
			c-0.2-1.3-0.1-1.7,1.1-2.8l2.4-2.4C87.9,65.2,88.5,65.5,88.6,66.4z M94,75.8c2.9-2.9,5.9-2.9,8.3-0.5l1.9,1.9
			c2.4,2.4,2.3,5.4-0.6,8.2c-2.9,2.9-5.9,2.9-8.2,0.6L93.4,84C91,81.6,91.1,78.6,94,75.8z M97.2,78.9c-0.7,0.7-0.8,1.4-0.2,2
			l1.4,1.4c0.6,0.6,1.2,0.5,2-0.2c0.7-0.7,0.7-1.4,0.1-1.9l-1.4-1.4C98.5,78.2,97.9,78.3,97.2,78.9z"/>
	</g>
	<path class="st0" d="M47.3,69.7c0.3,0.3,0.7,0.3,1.2-0.1c0.4-0.4,0.4-0.8,0.1-1.2l-0.8-0.8c-0.4-0.4-0.7-0.3-1.2,0.1
		c-0.4,0.4-0.5,0.8-0.1,1.2L47.3,69.7z"/>
	<path class="st0" d="M49.8,94.3l-2,2C47.3,96.8,46.7,97,46,97c-0.7,0-1.3-0.3-1.7-0.7L25.2,77.2c-0.5-0.5-0.7-1.1-0.7-1.7
		c0-0.7,0.3-1.3,0.7-1.7l15.1-15.1l21-21c0.5-0.5,1.1-0.7,1.7-0.7c0.7,0,1.3,0.3,1.7,0.7l15,15l3.9-3.9c0.1-0.1,0.2-0.2,0.3-0.3
		L68.8,33.5c-1.6-1.6-3.7-2.4-5.9-2.4c-2.2,0-4.3,0.9-5.9,2.4L34.5,56.1L21,69.6c-1.6,1.6-2.4,3.7-2.4,5.9c0,2.2,0.9,4.3,2.4,5.9
		l19.1,19.1c1.6,1.6,3.7,2.4,5.9,2.4c2.2,0,4.3-0.9,5.9-2.4l1.9-1.9l-3-3C50.5,95.2,50.1,94.7,49.8,94.3z"/>
	<path class="st0" d="M49.1,76.5l-3.6-3.6l-3.1-3.1c-0.5-0.5-0.8-0.5-1.2,0l-1.5,1.5c-0.5,0.5-0.5,0.8,0,1.2l2.4,2.4
		c0.2,0.2,0.4,0.4,0.5,0.5c0,0.1,0.1,0.1,0.2,0.2l1.5,1.5c-0.5-0.1-1.1-0.3-1.9-0.5l-6.2-1.4c-0.3-0.1-0.6,0-0.9,0.3l-1.8,1.8
		c-0.5,0.5-0.5,0.8,0,1.2l1.8,1.8l4.4,4.4l3.1,3.1c0.5,0.5,0.8,0.5,1.2,0l1.5-1.5c0.5-0.5,0.5-0.8,0-1.2l-2.4-2.4
		c-0.2-0.2-0.4-0.3-0.5-0.5c-0.1-0.1-0.1-0.1-0.2-0.2l-1.5-1.5l8.2,1.7c0.4,0.1,0.6,0,0.9-0.3l1.7-1.7c0.5-0.5,0.5-0.8,0-1.2
		L49.1,76.5z"/>
	<path class="st0" d="M45.5,71.9c1.4,1.4,3.2,1.4,4.9-0.4c1.7-1.7,1.8-3.5,0.3-4.9l-1.1-1.1c-1.4-1.4-3.2-1.4-5,0.3
		c-1.7,1.7-1.8,3.5-0.3,5L45.5,71.9z M46.6,67.7c0.4-0.4,0.8-0.4,1.2-0.1l0.8,0.8c0.3,0.3,0.3,0.7-0.1,1.2C48,70,47.7,70,47.3,69.7
		l-0.8-0.8C46.1,68.5,46.2,68.1,46.6,67.7z"/>
	<path class="st0" d="M54.1,69.9c-0.5-0.5-0.8-0.5-1.2,0l-4.1,4.1c-0.5,0.5-0.5,0.8,0,1.3l0.9,0.9c0.5,0.5,0.8,0.5,1.3,0l4.1-4.1
		c0.5-0.5,0.5-0.8,0-1.2L54.1,69.9z"/>
	<path class="st0" d="M60.7,57.4c-2.4-2.4-5.4-2.3-8.1,0.4c-2.7,2.7-2.7,5.7-0.4,8.1l3.2,3.2c2.4,2.4,5.4,2.3,8.1-0.4
		c2.7-2.7,2.7-5.7,0.4-8.1L60.7,57.4z M61,66.2c-0.8,0.8-1.7,0.9-2.4,0.1l-3.5-3.5c-0.7-0.7-0.7-1.6,0.1-2.4
		c0.8-0.8,1.7-0.9,2.4-0.1l3.5,3.5C61.9,64.4,61.8,65.4,61,66.2z"/>
	<path class="st0" d="M62.8,48.1L61.9,49c-0.4,0.4-0.5,0.6-0.6,1.1l-1.2,4.5c-0.1,0.7-0.1,1,0.6,1.2l2,0.6c0.6,0.2,1,0,1.2-0.7
		l0.4-1.6l6.2,6.2c0.5,0.5,0.8,0.5,1.3,0l1.7-1.7c0.5-0.5,0.5-0.8,0-1.2l-9.3-9.3C63.6,47.6,63.3,47.6,62.8,48.1z"/>
</g>
</svg>
