<?xml version="1.0" encoding="utf-8"?>
<!-- Generator: Adobe Illustrator 22.0.1, SVG Export Plug-In . SVG Version: 6.00 Build 0)  -->
<svg version="1.1" id="Layer_1" xmlns="http://www.w3.org/2000/svg" xmlns:xlink="http://www.w3.org/1999/xlink" x="0px" y="0px"
	 viewBox="0 0 144.5 144.5" style="enable-background:new 0 0 144.5 144.5;" xml:space="preserve">
<style type="text/css">
	.st0{fill:#7A66FD;}
</style>
<g>
	<path class="st0" d="M72.2,0C32.4,0,0,32.4,0,72.2c0,39.8,32.4,72.2,72.2,72.2c39.8,0,72.2-32.4,72.2-72.2
		C144.5,32.4,112.1,0,72.2,0z M72.2,137.8c-36.2,0-65.6-29.4-65.6-65.6c0-36.2,29.4-65.6,65.6-65.6c36.2,0,65.6,29.4,65.6,65.6
		C137.8,108.4,108.4,137.8,72.2,137.8z"/>
	<path class="st0" d="M96.5,60.1c0.7,0.7,1.6,1,2.5,1c0.1,0,0.1,0,0.2,0c1-0.1,1.9-0.5,2.5-1.3L109,51c0.6-0.7,0.9-1.6,0.8-2.6
		c-0.1-0.9-0.5-1.8-1.2-2.4l0,0c-0.7-0.6-1.6-0.9-2.6-0.8c-0.9,0.1-1.8,0.5-2.4,1.2l-4.9,5.9l-1.1-1.1c-0.7-0.7-1.5-1-2.5-1
		c-0.9,0-1.8,0.4-2.5,1c-0.7,0.7-1,1.5-1,2.5c0,0.9,0.4,1.8,1,2.5L96.5,60.1z"/>
	<path class="st0" d="M80.8,56.6h-45c-1.5,0-2.8-1.3-2.8-2.8v-1.3c0-1.5,1.3-2.8,2.8-2.8h45c1.5,0,2.8,1.3,2.8,2.8v1.3
		C83.6,55.4,82.4,56.6,80.8,56.6z"/>
	<path class="st0" d="M96.5,79.1c0.7,0.7,1.6,1,2.5,1c0.1,0,0.1,0,0.2,0c1-0.1,1.9-0.5,2.5-1.3l7.4-8.8c0.6-0.7,0.9-1.6,0.8-2.6
		c-0.1-0.9-0.5-1.8-1.2-2.4l0,0c-0.7-0.6-1.6-0.9-2.6-0.8c-0.9,0.1-1.8,0.5-2.4,1.2l-4.9,5.9l-1.1-1.1c-0.7-0.7-1.5-1-2.5-1
		c-0.9,0-1.8,0.4-2.5,1c-0.7,0.7-1,1.5-1,2.5c0,0.9,0.4,1.8,1,2.5L96.5,79.1z"/>
	<path class="st0" d="M80.8,75.7h-45c-1.5,0-2.8-1.3-2.8-2.8v-1.3c0-1.5,1.3-2.8,2.8-2.8h45c1.5,0,2.8,1.3,2.8,2.8v1.3
		C83.6,74.4,82.4,75.7,80.8,75.7z"/>
	<path class="st0" d="M96.5,98.2c0.7,0.7,1.6,1,2.5,1c0.1,0,0.1,0,0.2,0c1-0.1,1.9-0.5,2.5-1.3l7.4-8.8c0.6-0.7,0.9-1.6,0.8-2.6
		c-0.1-0.9-0.5-1.8-1.2-2.4l0,0c-0.7-0.6-1.6-0.9-2.6-0.8c-0.9,0.1-1.8,0.5-2.4,1.2l-4.9,5.9l-1.1-1.1c-0.7-0.7-1.5-1-2.5-1
		c-0.9,0-1.8,0.4-2.5,1c-0.7,0.7-1,1.5-1,2.5c0,0.9,0.4,1.8,1,2.5L96.5,98.2z"/>
	<path class="st0" d="M80.8,94.7h-45c-1.5,0-2.8-1.3-2.8-2.8v-1.3c0-1.5,1.3-2.8,2.8-2.8h45c1.5,0,2.8,1.3,2.8,2.8v1.3
		C83.6,93.4,82.4,94.7,80.8,94.7z"/>
</g>
</svg>
