<?xml version="1.0" encoding="utf-8"?>
<!-- Generator: Adobe Illustrator 22.0.1, SVG Export Plug-In . SVG Version: 6.00 Build 0)  -->
<svg version="1.1" id="Layer_1" xmlns="http://www.w3.org/2000/svg" xmlns:xlink="http://www.w3.org/1999/xlink" x="0px" y="0px"
	 viewBox="0 0 144.5 144.5" style="enable-background:new 0 0 144.5 144.5;" xml:space="preserve">
<style type="text/css">
	.st0{fill:#7A66FD;}
</style>
<g>
	<g>
		<path class="st0" d="M72.2,0C32.4,0,0,32.4,0,72.2c0,39.8,32.4,72.2,72.2,72.2c39.8,0,72.2-32.4,72.2-72.2
			C144.5,32.4,112.1,0,72.2,0z M72.2,137.8c-36.2,0-65.6-29.4-65.6-65.6c0-36.2,29.4-65.6,65.6-65.6c36.2,0,65.6,29.4,65.6,65.6
			C137.8,108.4,108.4,137.8,72.2,137.8z"/>
		<path class="st0" d="M55.6,113c-4.2,0.6-7.4,4.3-7.4,8.5c0,3.4,2.8,6.2,6.2,6.2h31.6c5.2,0,10.1-2,13.8-5.7l5.3-5.3
			c3.7-3.7,5.7-8.6,5.7-13.8c0-4.9-1.8-9.5-5.1-13.2l0,0L93,75.9c-2.9-2.9-7.7-2.9-10.7,0c-0.4,0.4-0.7,0.8-1,1.2l-0.4,0.6l-0.7-0.3
			c-2.8-1-5.9-0.3-8,1.8c-0.4,0.4-0.7,0.8-1,1.2l-0.4,0.6l-0.7-0.3c-2.8-1-5.9-0.3-8,1.8c-0.2,0.2-0.4,0.4-0.6,0.6L61,84.1l-4.7-4.7
			c-1.4-1.4-3.3-2.2-5.3-2.2c-2,0-3.9,0.8-5.4,2.2c-1.4,1.4-2.2,3.3-2.2,5.3c0,2,0.8,3.9,2.2,5.3l21.2,21.2L55.6,113z M49.6,86.1
			C49.1,85.6,49,85,49,84.7c0-0.5,0.2-1,0.6-1.4c0.5-0.5,1.1-0.6,1.4-0.6c0.3,0,0.9,0.1,1.3,0.6l16.8,16.8c0.5,0.5,1.2,0.8,2,0.8
			s1.5-0.3,2-0.8c0.5-0.5,0.8-1.2,0.8-2c0-0.8-0.3-1.5-0.8-2l-6.8-6.8c-0.5-0.5-0.6-1.1-0.6-1.3c0-0.5,0.2-1,0.6-1.4
			c0.7-0.7,2-0.7,2.7,0l6.8,6.8c1.1,1.1,2.9,1.1,4,0c0.5-0.5,0.8-1.2,0.8-2c0-0.7-0.3-1.5-0.8-2l-3.5-3.5c-0.8-0.8-0.7-1.9,0-2.7
			c0.4-0.4,0.8-0.6,1.3-0.6c0.3,0,0.9,0.1,1.3,0.6l3.8,3.8h0.1l0.2,0.1c1.1,0.6,2.4,0.4,3.3-0.5c0.5-0.5,0.8-1.2,0.8-2
			c0-0.8-0.3-1.5-0.8-2l-0.1-0.1c-0.4-0.4-0.6-0.8-0.6-1.3c0-0.5,0.2-1,0.6-1.4c0.7-0.7,1.9-0.8,2.6-0.1l0.1,0.1l12.5,13.7
			c2.3,2.6,3.6,5.9,3.6,9.4c0,3.7-1.4,7.2-4.1,9.8l-5.3,5.3c-2.6,2.6-6.1,4.1-9.9,4.1H53.6l0.3-1.2c0.3-1.2,1.3-2.2,2.5-2.3
			l16.8-2.6c1.1-0.2,1.9-0.9,2.2-1.9c0.3-1,0.1-2.1-0.7-2.9L49.6,86.1z"/>
		<path class="st0" d="M117.2,42.5H26.3c-4.6,0-8.3,3.7-8.3,8.3v28.1c0,4.6,3.7,8.3,8.3,8.3h13.5l0-0.2c-0.1-0.7-0.2-1.5-0.2-2.2
			c0-1,0.1-2.1,0.4-3l0.1-0.2H26.3c-1.4,0-2.5-1.2-2.5-2.5V50.8c0-1.4,1.2-2.5,2.5-2.5h90.8c1.4,0,2.5,1.2,2.5,2.5v28.1
			c0,1.4-1.2,2.5-2.5,2.5h-13.9l5.2,5.7h8.7c4.6,0,8.3-3.7,8.3-8.3V50.8C125.4,46.3,121.7,42.5,117.2,42.5z"/>
		<g>
			<path class="st0" d="M35.3,57.9h5.3c2.5,0,3.8,0.9,3.8,2.7c0,1.1-0.5,1.9-1.5,2.3c1.3,0.4,1.9,1.3,1.9,2.6c0,2-1.4,3-4.3,3h-5.2
				V57.9z M41.1,61.2c0-0.2-0.1-0.4-0.2-0.6c-0.2-0.1-0.4-0.2-0.7-0.2h-1.3V62l1.3,0c0.3,0,0.5-0.1,0.7-0.2
				C41,61.7,41.1,61.5,41.1,61.2z M41.4,65.1c0-0.6-0.3-0.9-1-0.9h-1.5v1.7h1.5C41,65.9,41.4,65.6,41.4,65.1z"/>
			<path class="st0" d="M51.8,68.5h-3.2v-7.3h3.2v2.3h0.5l1.3-2.3H57l-2.3,3.6l2.3,3.7h-3.5l-1.4-2.5h-0.5V68.5z"/>
			<path class="st0" d="M58.1,67.8c-0.8-0.7-1.2-1.6-1.2-2.9c0-1.3,0.4-2.2,1.2-2.9c0.8-0.7,1.8-1,3-1c1.2,0,2.2,0.3,3,1
				c0.8,0.7,1.2,1.6,1.2,2.9c0,1.3-0.4,2.2-1.2,2.9c-0.8,0.7-1.8,1-3,1C59.9,68.8,58.9,68.4,58.1,67.8z M62.2,64.9
				c0-0.8-0.4-1.2-1.1-1.2c-0.7,0-1.1,0.4-1.1,1.2c0,0.8,0.4,1.2,1.1,1.2C61.8,66.1,62.2,65.7,62.2,64.9z"/>
			<path class="st0" d="M69.1,62.1c0.6-0.8,1.4-1.1,2.4-1.1c1.1,0,1.9,0.4,2.5,1.1c0.6,0.8,0.9,1.7,0.9,2.8s-0.3,2-0.9,2.8
				c-0.6,0.8-1.4,1.1-2.5,1.1c-0.8,0-1.5-0.2-2-0.7v3.8h-3.2V61.2h2.8V62.1z M71.2,65.8c0.2-0.3,0.3-0.6,0.3-0.9
				c0-0.4-0.1-0.7-0.3-0.9c-0.2-0.3-0.5-0.4-0.8-0.4c-0.4,0-0.7,0.2-0.9,0.5v1.6c0.1,0.1,0.2,0.3,0.4,0.4c0.2,0.1,0.4,0.2,0.6,0.2
				C70.8,66.2,71.1,66.1,71.2,65.8z"/>
			<path class="st0" d="M82.3,66.5c0,0.6-0.3,1.2-0.9,1.6c-0.6,0.4-1.6,0.7-3,0.7c-1.2,0-2.2-0.2-3-0.6V66c0.8,0.4,1.6,0.6,2.5,0.6
				c0.7,0,1-0.2,1-0.5c0-0.3-0.3-0.4-0.8-0.4h-1.5V64h1.3c0.5,0,0.8-0.1,0.8-0.4c0-0.3-0.3-0.4-0.9-0.4c-0.4,0-0.8,0.1-1.2,0.2
				c-0.5,0.1-0.8,0.2-1.1,0.4v-2.2c0.8-0.4,1.8-0.5,3.1-0.5c0.7,0,1.3,0.1,1.8,0.2c0.5,0.1,0.8,0.3,1.1,0.5c0.2,0.2,0.4,0.5,0.5,0.7
				c0.1,0.2,0.1,0.5,0.1,0.7c0,0.4-0.1,0.8-0.3,1c-0.2,0.3-0.5,0.5-0.9,0.6C81.9,65,82.3,65.6,82.3,66.5z"/>
			<path class="st0" d="M85.8,68.5h-2.5v-7.3h3v3l2.4-3h2.5v7.3h-3v-3L85.8,68.5z"/>
			<path class="st0" d="M95.7,68.5h-3.2v-7.3h3.2v2.4h1.5v-2.4h3.2v7.3h-3.2v-2.4h-1.5V68.5z"/>
			<path class="st0" d="M105.8,65.2l1.1-4h3.3l-2.8,7.7c-0.8,2.1-2,3.1-3.9,3.1c-0.5,0-1-0.1-1.6-0.3v-2.6c0.4,0.1,0.7,0.2,1.1,0.2
				c0.6,0,1.1-0.3,1.4-0.8l-3.3-7.3h3.3L105.8,65.2z"/>
		</g>
	</g>
</g>
</svg>
