<?xml version="1.0" encoding="utf-8"?>
<!-- Generator: Adobe Illustrator 22.0.1, SVG Export Plug-In . SVG Version: 6.00 Build 0)  -->
<svg version="1.1" id="Layer_1" xmlns="http://www.w3.org/2000/svg" xmlns:xlink="http://www.w3.org/1999/xlink" x="0px" y="0px"
	 viewBox="0 0 144.5 144.5" style="enable-background:new 0 0 144.5 144.5;" xml:space="preserve">
<style type="text/css">
	.st0{fill:#7A66FD;}
</style>
<g>
	<path class="st0" d="M72.2,0C32.4,0,0,32.4,0,72.2c0,39.8,32.4,72.2,72.2,72.2c39.8,0,72.2-32.4,72.2-72.2
		C144.5,32.4,112.1,0,72.2,0z M72.2,137.8c-36.2,0-65.6-29.4-65.6-65.6c0-36.2,29.4-65.6,65.6-65.6c36.2,0,65.6,29.4,65.6,65.6
		C137.8,108.4,108.4,137.8,72.2,137.8z"/>
	<path class="st0" d="M68.6,102.3c-4.2,0.6-7.4,4.3-7.4,8.5c0,3.4,2.8,6.2,6.2,6.2H99c5.2,0,10.1-2,13.8-5.7l5.3-5.3
		c3.7-3.7,5.7-8.6,5.7-13.8c0-4.9-1.8-9.5-5.1-13.2l0,0l-12.7-13.9c-2.9-2.9-7.7-2.9-10.7,0c-0.4,0.4-0.7,0.8-1,1.2L94,67l-0.7-0.3
		c-2.8-1-5.9-0.3-8,1.8c-0.4,0.4-0.7,0.8-1,1.2L84,70.3L83.3,70c-2.8-1-5.9-0.3-8,1.8c-0.2,0.2-0.4,0.4-0.6,0.6l-0.7,0.8l-4.7-4.7
		c-1.4-1.4-3.3-2.2-5.3-2.2c-2,0-3.9,0.8-5.4,2.2c-1.4,1.4-2.2,3.3-2.2,5.3c0,2,0.8,3.9,2.2,5.3l21.2,21.2L68.6,102.3z M62.7,75.3
		c-0.5-0.5-0.6-1.1-0.6-1.3c0-0.5,0.2-1,0.6-1.4c0.5-0.5,1.1-0.6,1.4-0.6c0.3,0,0.9,0.1,1.3,0.6l16.8,16.8c0.5,0.5,1.2,0.8,2,0.8
		s1.5-0.3,2-0.8c0.5-0.5,0.8-1.2,0.8-2c0-0.8-0.3-1.5-0.8-2l-6.8-6.8c-0.5-0.5-0.6-1.1-0.6-1.3c0-0.5,0.2-1,0.6-1.4
		c0.7-0.7,2-0.7,2.7,0l6.8,6.8c1.1,1.1,2.9,1.1,4,0c0.5-0.5,0.8-1.2,0.8-2c0-0.7-0.3-1.5-0.8-2l-3.5-3.5c-0.8-0.8-0.7-1.9,0-2.7
		c0.4-0.4,0.8-0.6,1.3-0.6c0.3,0,0.9,0.1,1.3,0.6l3.8,3.8H96l0.2,0.1c1.1,0.6,2.4,0.4,3.3-0.5c0.5-0.5,0.8-1.2,0.8-2
		c0-0.8-0.3-1.5-0.8-2l-0.1-0.1c-0.4-0.4-0.6-0.8-0.6-1.3c0-0.5,0.2-1,0.6-1.4c0.7-0.7,1.9-0.8,2.6-0.1l0.1,0.1l12.5,13.7
		c2.3,2.6,3.6,5.9,3.6,9.4c0,3.7-1.4,7.2-4.1,9.8l-5.3,5.3c-2.6,2.6-6.1,4.1-9.9,4.1H66.7l0.3-1.2c0.3-1.2,1.3-2.2,2.5-2.3l16.8-2.6
		c1.1-0.2,1.9-0.9,2.2-1.9c0.3-1,0.1-2.1-0.7-2.9L62.7,75.3z"/>
	<path class="st0" d="M60.1,100.3H48.7c-3.5,0-6.3-2.2-6.4-5l4.2-47.2h5.3v5.5c0,1.7,1.4,3.1,3.1,3.1c1.7,0,3.1-1.4,3.1-3.1v-5.5
		h20.2v5.5c0,1.7,1.4,3.1,3.1,3.1s3.1-1.4,3.1-3.1v-5.5h5.3l1.2,13.2c0.1-0.1,0.1-0.2,0.2-0.2c1.6-1.6,3.7-2.5,5.9-2.5L96,44.6
		c-0.1-1.6-1.5-2.9-3.1-2.9h-8.2c-0.3-4-2-7.6-4.8-10.4c-3.1-3-7.2-4.7-11.5-4.7c-4.3,0-8.4,1.7-11.5,4.7c-2.9,2.8-4.6,6.5-4.8,10.4
		h-8.2c-1.6,0-3,1.2-3.1,2.9l-4.5,50.3l0,0.1c0,0,0,0,0,0c0,0.1,0,0.1,0,0.2c0,6.3,5.7,11.4,12.7,11.4h8.2
		C57.1,104.1,58.3,101.9,60.1,100.3z M68.2,32.9c5.1,0,9.4,3.9,10,8.9H58.2C58.8,36.8,63.1,32.9,68.2,32.9z"/>
</g>
</svg>
