<?xml version="1.0" encoding="utf-8"?>
<!-- Generator: Adobe Illustrator 22.0.1, SVG Export Plug-In . SVG Version: 6.00 Build 0)  -->
<svg version="1.1" id="Layer_1" xmlns="http://www.w3.org/2000/svg" xmlns:xlink="http://www.w3.org/1999/xlink" x="0px" y="0px"
	 viewBox="0 0 96 96" style="enable-background:new 0 0 96 96;" xml:space="preserve">
<style type="text/css">
	.st0{fill:url(#SVGID_1_);}
	.st1{fill:url(#SVGID_2_);}
</style>
<g>
	<g>
		<linearGradient id="SVGID_1_" gradientUnits="userSpaceOnUse" x1="48.0095" y1="1.3007" x2="48.0095" y2="97.3813">
			<stop  offset="0" style="stop-color:#26CBFD"/>
			<stop  offset="1" style="stop-color:#6D78FF"/>
		</linearGradient>
		<path class="st0" d="M58.4,32.2L43,50.6l-5.4-6.5c-2.1-2.5-5.9-2.9-8.4-0.8s-2.9,5.9-0.8,8.4l0,0l10,12c2.1,2.5,5.9,2.9,8.4,0.8
			c0.3-0.2,0.5-0.5,0.8-0.8l20-24c2.1-2.5,1.8-6.3-0.7-8.5C64.3,29.3,60.6,29.6,58.4,32.2C58.4,32.1,58.4,32.1,58.4,32.2z"/>
		<linearGradient id="SVGID_2_" gradientUnits="userSpaceOnUse" x1="48" y1="1.3007" x2="48" y2="97.3007">
			<stop  offset="0" style="stop-color:#26CBFD"/>
			<stop  offset="1" style="stop-color:#6D78FF"/>
		</linearGradient>
		<path class="st1" d="M48,0C21.5,0,0,21.5,0,48s21.5,48,48,48s48-21.5,48-48C96,21.5,74.5,0,48,0z M48,84c-19.9,0-36-16.1-36-36
			s16.1-36,36-36s36,16.1,36,36C84,67.9,67.9,84,48,84z"/>
	</g>
</g>
</svg>
