<?xml version="1.0" encoding="utf-8"?>
<!-- Generator: Adobe Illustrator 22.0.1, SVG Export Plug-In . SVG Version: 6.00 Build 0)  -->
<svg version="1.1" id="Layer_1" xmlns="http://www.w3.org/2000/svg" xmlns:xlink="http://www.w3.org/1999/xlink" x="0px" y="0px"
	 viewBox="0 0 323.5 395.8" style="enable-background:new 0 0 323.5 395.8;" xml:space="preserve">
<style type="text/css">
	.st0{fill:#6E858A;}
</style>
<g>
	<g>
		<path class="st0" d="M310.8,33.1L161.7,0L12.7,33.1C5.2,34.8,0,41.3,0,48.9v181.7c0,35.9,17.8,69.2,47.7,89.1l114,76l114-76
			c29.9-19.9,47.7-53.2,47.7-89.2V48.9C323.5,41.3,318.3,34.8,310.8,33.1z M291.1,230.6c0,25-12.5,48.3-33.3,62.2l-96.1,64.1
			l-96.1-64.1c-20.8-13.9-33.3-37.2-33.3-62.2V61.9l129.4-28.7l129.4,28.7V230.6z"/>
		<path class="st0" d="M219.9,212.8c-5.9-4.3-12.8-7.8-20.3-10.4c17.8-12.1,29.5-32.6,29.5-55.7c0-37.2-30.2-67.4-67.4-67.4
			s-67.4,30.2-67.4,67.4c0,23,11.6,43.3,29.2,55.5c-8.8,3.1-15.6,7-20.5,10.6c-13.8,10-21.7,23.8-21.7,37.7c0,7.7,7.9,14.8,22.3,20
			c14.9,5.4,35,8.3,58.2,8.3c44.3,0,80.4-12.7,80.4-28.3C242.2,236.7,234.1,223,219.9,212.8z M161.7,109.9
			c20.3,0,36.8,16.5,36.8,36.8c0,20.3-16.5,36.8-36.8,36.8c-20.3,0-36.8-16.5-36.8-36.8C124.9,126.4,141.4,109.9,161.7,109.9z
			 M161.7,248.2c-23.7,0-38.4-3.3-46.1-5.9c7-8.1,23.2-15.6,46.1-15.6c23.1,0,38.4,7.9,45.5,15.5
			C199.9,244.6,184.9,248.2,161.7,248.2z"/>
	</g>
</g>
</svg>
