<?xml version="1.0" encoding="utf-8"?>
<!-- Generator: Adobe Illustrator 22.0.1, SVG Export Plug-In . SVG Version: 6.00 Build 0)  -->
<svg version="1.1" id="Layer_1" xmlns="http://www.w3.org/2000/svg" xmlns:xlink="http://www.w3.org/1999/xlink" x="0px" y="0px"
	 viewBox="0 0 45 45" style="enable-background:new 0 0 45 45;" xml:space="preserve">
<style type="text/css">
	.st0{fill:#CDC5FF;}
	.st1{fill:#FFFFFF;}
	.st2{fill:#7A66FD;}
</style>
<g>
	<circle class="st0" cx="22.5" cy="22.5" r="22.5"/>
	<circle class="st1" cx="22.5" cy="22.5" r="13.5"/>
	<g>
		<g>
			<path class="st2" d="M21.9,23.6c1.1-1.2,1.8-2.1,1.8-3.1c0-0.8-0.4-1.3-1.2-1.3c-0.8,0-1.3,0.5-1.4,1.8h-2.9
				c0.1-2.8,1.8-4.2,4.5-4.2c1.4,0,2.4,0.4,3.1,1c0.7,0.6,1.1,1.5,1.1,2.5c0,0.8-0.2,1.4-0.6,2.1c-0.4,0.6-0.9,1.2-1.5,1.8l-1.6,1.5
				H27v2.4h-9v-0.5L21.9,23.6z"/>
		</g>
	</g>
</g>
</svg>
