<?xml version="1.0" encoding="utf-8"?>
<!-- Generator: Adobe Illustrator 22.0.1, SVG Export Plug-In . SVG Version: 6.00 Build 0)  -->
<svg version="1.1" id="Layer_1" xmlns="http://www.w3.org/2000/svg" xmlns:xlink="http://www.w3.org/1999/xlink" x="0px" y="0px"
	 viewBox="0 0 45 45" style="enable-background:new 0 0 45 45;" xml:space="preserve">
<style type="text/css">
	.st0{fill:#CDC5FF;}
	.st1{fill:#FFFFFF;}
	.st2{fill:#7A66FD;}
</style>
<g>
	<circle class="st0" cx="22.5" cy="22.5" r="22.5"/>
	<circle class="st1" cx="22.5" cy="22.5" r="13.5"/>
	<g>
		<g>
			<path class="st2" d="M17.9,24.4h2.9c0.1,0.9,0.5,1.6,1.6,1.6c1,0,1.5-0.5,1.5-1.3c0-0.9-0.5-1.3-1.5-1.3h-0.9v-2h0.8
				c1,0,1.5-0.4,1.5-1.2c0-0.7-0.4-1.1-1.3-1.1c-0.9,0-1.4,0.5-1.5,1.4h-2.8c0.1-1.1,0.5-2,1.2-2.7c0.7-0.6,1.8-1,3.2-1
				c1.3,0,2.4,0.3,3.1,0.8c0.7,0.5,1.1,1.3,1.1,2.2c0,1.3-0.7,2.1-1.9,2.4c1.3,0.3,2.2,1.2,2.2,2.5c0,2.1-1.6,3.5-4.5,3.5
				C19.4,28.3,18,26.8,17.9,24.4z"/>
		</g>
	</g>
</g>
</svg>
