<?xml version="1.0" encoding="utf-8"?>
<!-- Generator: Adobe Illustrator 22.0.1, SVG Export Plug-In . SVG Version: 6.00 Build 0)  -->
<svg version="1.1" id="Layer_1" xmlns="http://www.w3.org/2000/svg" xmlns:xlink="http://www.w3.org/1999/xlink" x="0px" y="0px"
	 viewBox="0 0 202.7 115.8" fill="#263238" style="enable-background:new 0 0 202.7 115.8;" xml:space="preserve">
<path d="M4.3,25.1l86.6,86.4c5.7,5.7,15.1,5.7,20.8,0l86.6-86.4c2.8-2.8,4.3-6.5,4.3-10.4c0-3.9-1.5-7.6-4.3-10.4
	c-2.8-2.8-6.5-4.3-10.4-4.3c-3.9,0-7.6,1.5-10.4,4.3l-76.2,76l-76.2-76C22.3,1.4,18.5,0,14.7,0C11,0,7.2,1.4,4.3,4.3
	C1.5,7.1,0,10.8,0,14.7C0,18.6,1.5,22.3,4.3,25.1z"/>
</svg>
