<?xml version="1.0" encoding="utf-8"?>
<!-- Generator: Adobe Illustrator 22.0.1, SVG Export Plug-In . SVG Version: 6.00 Build 0)  -->
<svg version="1.1" id="Layer_1" xmlns="http://www.w3.org/2000/svg" xmlns:xlink="http://www.w3.org/1999/xlink" x="0px" y="0px"
	 viewBox="0 0 16 16" style="enable-background:new 0 0 16 16;" xml:space="preserve">
<g>
	<path d="M9,4H6.5C6.2,4,6,4.2,6,4.5V8H5.5C5.2,8,5,8.2,5,8.5C5,8.8,5.2,9,5.5,9H6V10H5.5C5.2,10,5,10.2,5,10.5
		C5,10.8,5.2,11,5.5,11H6v1c0,0.3,0.2,0.5,0.5,0.5C6.8,12.5,7,12.3,7,12v-1h2c0.3,0,0.5-0.2,0.5-0.5C9.5,10.2,9.3,10,9,10H7V9h2
		c1.4,0,2.5-1.1,2.5-2.5S10.4,4,9,4z M9,8H7V5h2c0.8,0,1.5,0.7,1.5,1.5C10.5,7.3,9.8,8,9,8z"/>
	<path d="M8,0C3.6,0,0,3.6,0,8c0,4.4,3.6,8,8,8s8-3.6,8-8C16,3.6,12.4,0,8,0z M8,15.1c-3.9,0-7.1-3.2-7.1-7.1c0-3.9,3.2-7.1,7.1-7.1
		s7.1,3.2,7.1,7.1C15.1,11.9,11.9,15.1,8,15.1z"/>
</g>
</svg>
