<?xml version="1.0" encoding="utf-8"?>
<!-- Generator: Adobe Illustrator 22.0.1, SVG Export Plug-In . SVG Version: 6.00 Build 0)  -->
<svg version="1.1" id="Layer_1" xmlns="http://www.w3.org/2000/svg" xmlns:xlink="http://www.w3.org/1999/xlink" x="0px" y="0px"
	 viewBox="0 0 163 40" style="enable-background:new 0 0 163 40;" xml:space="preserve">
<style type="text/css">
	.st0{fill:#FFFFFF;}
</style>
<g>
	<path class="st0" d="M143,2.2c9.8,0,17.8,8,17.8,17.8s-8,17.8-17.8,17.8H20c-9.8,0-17.8-8-17.8-17.8S10.2,2.2,20,2.2H143 M143,0H20
		C9,0,0,9,0,20s9,20,20,20h123c11,0,20-9,20-20S154,0,143,0L143,0z"/>
	<g>
		<path class="st0" d="M33.1,17.2V25h-2.9V15h8.9v10h-2.9v-7.8H33.1z"/>
		<path class="st0" d="M42.3,23.7c-0.9-0.9-1.4-2.2-1.4-3.7v-0.1c0-1.5,0.6-2.8,1.5-3.7c1-0.9,2.3-1.4,3.8-1.4
			c1.5,0,2.9,0.5,3.8,1.3c0.9,0.9,1.5,2.1,1.5,3.7V20c0,1.6-0.5,2.8-1.5,3.7c-0.9,0.9-2.3,1.4-3.9,1.4S43.2,24.6,42.3,23.7z
			 M48.5,20v-0.1c0-1.8-0.9-2.8-2.3-2.8s-2.3,1-2.3,2.8V20c0,1.8,0.9,2.9,2.3,2.9C47.6,22.9,48.5,21.8,48.5,20z"/>
		<path class="st0" d="M53.9,23.8c-0.9-0.9-1.3-2.2-1.3-3.7v-0.1c0-1.5,0.5-2.8,1.5-3.7s2.2-1.4,3.7-1.4c1.3,0,2.4,0.3,3.2,0.9
			c0.8,0.6,1.3,1.6,1.4,2.9h-3c-0.1-1-0.7-1.6-1.7-1.6c-1.3,0-2.1,1-2.1,2.8V20c0,1.8,0.8,2.8,2.1,2.8c1,0,1.7-0.5,1.9-1.6h2.9
			c-0.1,1.3-0.6,2.3-1.4,2.9c-0.8,0.7-1.9,1-3.2,1C56.1,25.2,54.8,24.7,53.9,23.8z"/>
		<path class="st0" d="M67.8,15l1.9,5.3l1.9-5.3h3.7v10h-2.9v-6.2L70,25h-1l-2.4-6.2V25H64V15H67.8z"/>
		<path class="st0" d="M78.4,23.7c-0.9-0.9-1.4-2.2-1.4-3.7v-0.1c0-1.5,0.6-2.8,1.5-3.7c1-0.9,2.3-1.4,3.8-1.4
			c1.5,0,2.9,0.5,3.8,1.3c0.9,0.9,1.5,2.1,1.5,3.7V20c0,1.6-0.5,2.8-1.5,3.7c-0.9,0.9-2.3,1.4-3.9,1.4S79.3,24.6,78.4,23.7z
			 M84.6,20v-0.1c0-1.8-0.9-2.8-2.3-2.8s-2.3,1-2.3,2.8V20c0,1.8,0.9,2.9,2.3,2.9C83.7,22.9,84.6,21.8,84.6,20z"/>
		<path class="st0" d="M88.2,17.2V15h8.1v2.2h-2.6V25h-2.9v-7.8H88.2z"/>
		<path class="st0" d="M101.6,15c2.7,0,4,1.2,4,3.3v0.1c0,2.1-1.4,3.2-3.9,3.2h-1.1V25h-2.9V15H101.6z M102.9,18.4L102.9,18.4
			c0-0.9-0.5-1.3-1.4-1.3h-0.8v2.5h0.8C102.5,19.7,102.9,19.2,102.9,18.4z"/>
		<path class="st0" d="M114.2,15v2.2h-4.1v1.7h3.2v2h-3.2v1.8h4.3V25h-7.1V15H114.2z"/>
		<path class="st0" d="M115.4,17.2V15h8.1v2.2h-2.6V25H118v-7.8H115.4z"/>
		<path class="st0" d="M127.8,15v3.4h1.1c2.5,0,3.9,1.1,3.9,3.2v0.1c0,2.1-1.3,3.3-4,3.3H125V15H127.8z M130.1,21.6L130.1,21.6
			c0-0.9-0.5-1.3-1.4-1.3h-0.8v2.5h0.8C129.6,22.8,130.1,22.5,130.1,21.6z"/>
	</g>
</g>
</svg>
