<?xml version="1.0" encoding="utf-8"?>
<!-- Generator: Adobe Illustrator 22.0.1, SVG Export Plug-In . SVG Version: 6.00 Build 0)  -->
<svg version="1.1" id="Layer_1" xmlns="http://www.w3.org/2000/svg" xmlns:xlink="http://www.w3.org/1999/xlink" x="0px" y="0px"
	 viewBox="0 0 163 40" style="enable-background:new 0 0 163 40;" xml:space="preserve">
<style type="text/css">
	.st0{fill:#FFFFFF;}
	.st1{fill:#7B67FE;}
</style>
<g>
	<path class="st0" d="M143,40H20C9,40,0,31,0,20l0,0C0,9,9,0,20,0h123c11,0,20,9,20,20l0,0C163,31,154,40,143,40z"/>
	<g>
		<g>
			<path class="st1" d="M33.1,16.6v7.8h-2.9v-10h8.9v10h-2.9v-7.8H33.1z"/>
			<path class="st1" d="M42.3,23.1c-0.9-0.9-1.4-2.2-1.4-3.7v-0.1c0-1.5,0.6-2.8,1.5-3.7c1-0.9,2.3-1.4,3.8-1.4s2.9,0.5,3.8,1.3
				c0.9,0.9,1.5,2.1,1.5,3.7v0.1c0,1.6-0.5,2.8-1.5,3.7c-0.9,0.9-2.3,1.4-3.9,1.4S43.2,24,42.3,23.1z M48.5,19.4L48.5,19.4
				c0-1.9-0.9-2.9-2.3-2.9s-2.3,1-2.3,2.8v0.1c0,1.8,0.9,2.9,2.3,2.9C47.6,22.3,48.5,21.2,48.5,19.4z"/>
			<path class="st1" d="M53.9,23.2c-0.9-0.9-1.3-2.2-1.3-3.7v-0.1c0-1.5,0.5-2.8,1.5-3.7s2.2-1.4,3.7-1.4c1.3,0,2.4,0.3,3.2,0.9
				c0.8,0.6,1.3,1.6,1.4,2.9h-3c-0.1-1-0.7-1.6-1.7-1.6c-1.3,0-2.1,1-2.1,2.8v0.1c0,1.8,0.8,2.8,2.1,2.8c1,0,1.7-0.5,1.9-1.6h2.9
				c-0.1,1.3-0.6,2.3-1.4,2.9c-0.8,0.7-1.9,1-3.2,1C56.1,24.6,54.8,24.1,53.9,23.2z"/>
			<path class="st1" d="M67.8,14.4l1.9,5.3l1.9-5.3h3.7v10h-2.9v-6.2l-2.5,6.2h-1l-2.3-6.2v6.2H64v-10H67.8z"/>
			<path class="st1" d="M78.4,23.1c-0.9-0.9-1.4-2.2-1.4-3.7v-0.1c0-1.5,0.6-2.8,1.5-3.7c1-0.9,2.3-1.4,3.8-1.4s2.9,0.5,3.8,1.3
				c0.9,0.9,1.5,2.1,1.5,3.7v0.1c0,1.6-0.5,2.8-1.5,3.7c-0.9,0.9-2.3,1.4-3.9,1.4S79.3,24,78.4,23.1z M84.6,19.4L84.6,19.4
				c0-1.9-0.9-2.9-2.3-2.9s-2.3,1-2.3,2.8v0.1c0,1.8,0.9,2.9,2.3,2.9C83.7,22.3,84.6,21.2,84.6,19.4z"/>
			<path class="st1" d="M88.2,16.6v-2.2h8.1v2.2h-2.6v7.8h-2.9v-7.8H88.2z"/>
			<path class="st1" d="M101.7,14.4c2.7,0,4,1.2,4,3.3v0.1c0,2.1-1.4,3.2-3.9,3.2h-1.1v3.4h-2.9v-10H101.7z M102.9,17.8L102.9,17.8
				c0-0.9-0.5-1.3-1.4-1.3h-0.8V19h0.8C102.5,19.1,102.9,18.6,102.9,17.8z"/>
			<path class="st1" d="M114.2,14.4v2.2h-4.1v1.7h3.2v2h-3.2v1.9h4.3v2.2h-7.1v-10H114.2z"/>
			<path class="st1" d="M115.4,16.6v-2.2h8.1v2.2h-2.6v7.8H118v-7.8H115.4z"/>
			<path class="st1" d="M127.8,14.4v3.4h1.1c2.5,0,3.9,1.1,3.9,3.2v0.1c0,2.1-1.3,3.3-4,3.3H125v-10H127.8z M130.1,21L130.1,21
				c0-0.9-0.5-1.3-1.4-1.3h-0.8v2.5h0.8C129.6,22.2,130.1,21.9,130.1,21z"/>
		</g>
	</g>
</g>
</svg>
