<?xml version="1.0" encoding="iso-8859-1"?>
<!-- Generator: Adobe Illustrator 22.0.1, SVG Export Plug-In . SVG Version: 6.00 Build 0)  -->
<svg version="1.1" id="Layer_1" xmlns="http://www.w3.org/2000/svg" xmlns:xlink="http://www.w3.org/1999/xlink" x="0px" y="0px"
	 viewBox="-39 252.48 492 289.04" style="enable-background:new -39 252.48 492 289.04;" xml:space="preserve">
<path d="M4.016,252.48c-7.212,0-13.968,2.788-19.032,7.856l-16.12,16.128c-5.072,5.06-7.864,11.824-7.864,19.032
	s2.792,13.964,7.864,19.028l219.144,219.148c5.08,5.084,11.868,7.868,19.084,7.848c7.248,0.02,14.028-2.76,19.112-7.848
	l218.932-218.944c5.072-5.064,7.864-11.82,7.864-19.032c0-7.208-2.792-13.964-7.864-19.032l-16.12-16.124
	c-10.492-10.492-27.572-10.492-38.06,0L207.104,444.392L23.04,260.336C17.984,255.268,11.224,252.48,4.016,252.48"/>
</svg>
