<?xml version="1.0" encoding="utf-8"?>
<!-- Generator: Adobe Illustrator 22.0.1, SVG Export Plug-In . SVG Version: 6.00 Build 0)  -->
<svg version="1.1" id="Layer_1" xmlns="http://www.w3.org/2000/svg" xmlns:xlink="http://www.w3.org/1999/xlink" x="0px" y="0px"
	 viewBox="0 0 45 45" style="enable-background:new 0 0 45 45;" xml:space="preserve">
<style type="text/css">
	.st0{fill:#DECEF7;}
	.st1{fill:#FFFFFF;}
	.st2{fill:#8740E7;}
</style>
<g>
	<circle class="st0" cx="22.5" cy="22.5" r="22.5"/>
	<circle class="st1" cx="22.5" cy="22.5" r="13.5"/>
	<g>
		<g>
			<path class="st2" d="M22,23.4c0.9-1,1.5-1.8,1.5-2.6c0-0.6-0.3-1-1-1s-1.1,0.4-1.2,1.5h-2.4c0.1-2.3,1.5-3.5,3.7-3.5
				c1.1,0,2,0.3,2.6,0.8c0.6,0.5,0.9,1.3,0.9,2.1c0,0.6-0.2,1.2-0.5,1.7c-0.3,0.5-0.8,1-1.3,1.5l-1.3,1.3h3.1v2h-7.5v-0.4L22,23.4z"
				/>
		</g>
	</g>
</g>
</svg>
