<?xml version="1.0" encoding="utf-8"?>
<!-- Generator: Adobe Illustrator 22.0.1, SVG Export Plug-In . SVG Version: 6.00 Build 0)  -->
<svg version="1.1" id="Layer_1" xmlns="http://www.w3.org/2000/svg" xmlns:xlink="http://www.w3.org/1999/xlink" x="0px" y="0px"
	 viewBox="0 0 45 45" style="enable-background:new 0 0 45 45;" xml:space="preserve">
<style type="text/css">
	.st0{fill:#DECEF7;}
	.st1{fill:#FFFFFF;}
	.st2{fill:#8740E7;}
</style>
<g>
	<circle class="st0" cx="22.5" cy="22.5" r="22.5"/>
	<circle class="st1" cx="22.5" cy="22.5" r="13.5"/>
	<g>
		<g>
			<path class="st2" d="M18.7,24.1H21c0.1,0.8,0.4,1.3,1.4,1.3c0.8,0,1.2-0.4,1.2-1.1c0-0.7-0.4-1.1-1.2-1.1h-0.7v-1.7h0.7
				c0.8,0,1.2-0.4,1.2-1c0-0.6-0.4-0.9-1.1-0.9c-0.7,0-1.1,0.4-1.2,1.2h-2.4c0.1-0.9,0.4-1.7,1-2.2c0.6-0.5,1.5-0.9,2.7-0.9
				c1.1,0,2,0.3,2.6,0.7c0.6,0.5,0.9,1.1,0.9,1.9c0,1-0.6,1.7-1.6,2c1.1,0.2,1.8,1,1.8,2.1c0,1.8-1.3,2.9-3.8,2.9
				C20,27.3,18.7,26.1,18.7,24.1z"/>
		</g>
	</g>
</g>
</svg>
