<?xml version="1.0" encoding="utf-8"?>
<!-- Generator: Adobe Illustrator 22.0.1, SVG Export Plug-In . SVG Version: 6.00 Build 0)  -->
<svg version="1.1" id="Capa_1" xmlns="http://www.w3.org/2000/svg" xmlns:xlink="http://www.w3.org/1999/xlink" x="0px" y="0px"
	 viewBox="-17 205 480 384" style="enable-background:new -17 205 480 384;" xml:space="preserve">
<g>
	<path d="M444.2,351.8l-128-128c-24.9-25-65.6-25-90.5,0C213.7,235.8,207,251.9,207,269s6.7,33.2,18.8,45.2l82.8,82.8l-82.8,82.8
		C213.7,491.8,207,507.9,207,525s6.7,33.2,18.8,45.2c12.1,12.1,28.2,18.8,45.2,18.8s33.2-6.7,45.2-18.8l128-128
		c12.1-12.1,18.8-28.2,18.8-45.2S456.3,363.8,444.2,351.8z M421.6,419.6l-128,128c-12.1,12.1-33.1,12.1-45.2,0
		c-12.5-12.5-12.5-32.8,0-45.2L353.8,397L248.4,291.6c-6-6-9.4-14.1-9.4-22.6s3.3-16.6,9.4-22.6c6.2-6.2,14.4-9.4,22.6-9.4
		c8.2,0,16.4,3.1,22.6,9.3l128,128c6,6.1,9.4,14.1,9.4,22.7S427.7,413.6,421.6,419.6z"/>
	<path d="M239,397c0-17.1-6.7-33.2-18.8-45.2l-128-128c-24.9-25-65.6-25-90.5,0C-10.3,235.8-17,251.9-17,269s6.7,33.2,18.8,45.2
		L84.5,397L1.8,479.8C-10.3,491.8-17,507.9-17,525s6.7,33.2,18.8,45.2C13.8,582.3,29.9,589,47,589s33.2-6.7,45.2-18.8l128-128
		C232.3,430.2,239,414.1,239,397z M197.6,419.6l-128,128c-12.1,12.1-33.1,12.1-45.2,0c-12.5-12.5-12.5-32.8,0-45.2L129.8,397
		L24.4,291.6c-6-6-9.4-14.1-9.4-22.6s3.3-16.6,9.4-22.6c6.2-6.2,14.4-9.4,22.6-9.4s16.4,3.1,22.6,9.3l128,128
		c6,6.1,9.4,14.1,9.4,22.7S203.7,413.6,197.6,419.6z"/>
</g>
</svg>
