<?xml version="1.0" encoding="utf-8"?>
<!-- Generator: Adobe Illustrator 22.0.1, SVG Export Plug-In . SVG Version: 6.00 Build 0)  -->
<svg version="1.1" id="Layer_1" xmlns="http://www.w3.org/2000/svg" xmlns:xlink="http://www.w3.org/1999/xlink" x="0px" y="0px"
	 viewBox="0 0 177.3 123" style="enable-background:new 0 0 177.3 123;" xml:space="preserve">
<style type="text/css">
	.st0{fill:#8840E7;}
</style>
<g>
	<path class="st0" d="M58.6,7.9c-1-3.6-3.2-6.1-6.3-7.1c-0.1,0-2.4-0.7-5.7,0c-2.9,0.6-7.1,2.2-11.2,7c-1.1-0.7-2.4-1.1-3.7-1.1
		h-3.9c-1.4,0-2.6,0.4-3.7,1c-4.1-4.7-8.3-6.4-11.2-7c-3.3-0.7-5.6,0-5.7,0c-3,0.9-5.3,3.4-6.3,7.1c-1.2,4.5-0.9,9.5-0.4,13
		c0.7,4.9,3.1,8.1,6.7,9.2c0.1,0,1.1,0.3,2.8,0.3c0.2,0,0.4,0,0.6,0l-3.4,8.1C7,38.8,7,39.2,7.2,39.6c0.2,0.3,0.6,0.5,1.1,0.5
		l6.8-0.7l4.6,5.1c0.2,0.2,0.5,0.4,0.9,0.4c0.1,0,0.1,0,0.2,0c0.4-0.1,0.7-0.3,0.9-0.7l8.2-19.2l8.2,19.2c0.2,0.4,0.5,0.6,0.9,0.7
		c0.1,0,0.1,0,0.2,0c0.3,0,0.6-0.1,0.9-0.4l4.6-5.1l6.8,0.7c0.4,0,0.8-0.1,1.1-0.5c0.2-0.3,0.3-0.8,0.1-1.1l-3.4-8.1
		c0.2,0,0.4,0,0.6,0c1.7,0,2.8-0.3,2.9-0.3c3.6-1.1,6-4.4,6.7-9.2C59.5,17.4,59.8,12.4,58.6,7.9L58.6,7.9z M31.6,9
		c2.6,0,4.7,2.1,4.7,4.7v3.7c0,2.6-2.1,4.7-4.7,4.7h-3.9c-2.6,0-4.7-2.1-4.7-4.7v-3.7c0-2.6,2.1-4.7,4.7-4.7H31.6z M7.8,27.8
		c-3.7-1.1-4.7-5.1-5.1-7.3c-0.5-3.2-0.8-7.9,0.4-12C3.6,6.8,4.8,3.9,7.8,3c0.1,0,7.3-2,14.5,6.2c-0.7,0.9-1.3,2-1.5,3.2L17.5,11
		c-0.6-0.3-1.3,0-1.5,0.6c-0.3,0.6,0,1.3,0.6,1.5l4.1,1.7v2.5c0,0,0,0,0,0.1l-4.1,1.7c-0.6,0.3-0.9,0.9-0.6,1.5
		c0.2,0.4,0.6,0.7,1.1,0.7c0.2,0,0.3,0,0.5-0.1l3.6-1.5c0.3,0.7,0.6,1.3,1.1,1.9c-2.9,3.3-6.2,5.3-9.7,6.1
		C9.7,28.4,7.8,27.8,7.8,27.8L7.8,27.8z M20.1,41.5l-3.7-4.1c-0.2-0.3-0.6-0.4-1-0.4L10,37.5l3.2-7.5c2.8-0.6,6.8-2.3,10.7-6.7
		c1,0.7,2.2,1.1,3.5,1.1L20.1,41.5z M44,37c-0.4,0-0.7,0.1-1,0.4l-3.7,4.1L32,24.5c1.3-0.1,2.5-0.5,3.5-1.2
		c3.9,4.4,7.9,6.1,10.7,6.7l3.2,7.5L44,37z M56.7,20.5c-0.3,2.3-1.4,6.2-5.1,7.3c-0.1,0-7.3,2-14.4-6.1c0.4-0.6,0.8-1.2,1-1.9
		l3.7,1.6c0.1,0.1,0.3,0.1,0.5,0.1c0.5,0,0.9-0.3,1.1-0.7c0.3-0.6,0-1.3-0.6-1.5l-4.2-1.8c0,0,0,0,0,0v-2.5l4.2-1.8
		c0.6-0.3,0.9-0.9,0.6-1.5c-0.3-0.6-0.9-0.9-1.5-0.6l-3.4,1.4c-0.2-1.2-0.7-2.3-1.5-3.2c3-3.4,6.2-5.5,9.8-6.2c2.8-0.6,4.7,0,4.8,0
		c3,0.9,4.2,3.8,4.7,5.5C57.5,12.6,57.2,17.3,56.7,20.5L56.7,20.5z M56.7,20.5"/>
	<path class="st0" d="M168.2,7.6l-13.3-7.2c-0.8-0.4-1.8-0.5-2.6-0.3c-0.6,0.2-1.2,0.6-1.5,1l-0.6,0.5c-0.6,0.6-1.3,1.1-1.9,1.7
		c-0.4,0.4-0.8,0.8-1.3,1.1c-1.5,1.4-3,2.7-4.5,3.8c-1,0.8-2,1.7-3,2.5c-1,0.8-2,1.6-3.1,2.4c-1,0.7-2,1.5-3.1,2.3
		c-1.1,0.8-2.1,1.5-3,2.2c-0.8,0.6-1.8,1.3-2.8,2c-1,0.7-1.8,1.3-2.6,1.8c-0.8,0.5-1.5,1-2.1,1.5c-0.6,0.4-1.1,0.7-1.7,1.1
		c-0.4,0.2-0.7,0.4-1.1,0.6l-0.5,0.3c-2.4,1.4-4.9,2.5-7.6,3.3c-1.7,0.5-3.6,0.7-5.4,1c-2.6,0.3-5.3,0.7-7.8,1.8
		c-1,0.4-2,0.9-3.2,1.6c-0.6,0.3-2,1.2-4.3,2.5C75.1,44.6,22.6,75,6.8,84.2c-0.6,0.4-1.1,0.6-1.2,0.7l-0.1,0
		c-4.1,2.4-5.5,7.5-3.1,11.7c1.1,2,3,3.4,5.3,4c2.2,0.6,4.6,0.2,6.6-0.9l0.1-0.1c1-0.6,4.4-2.5,9.2-5.3
		c12.8-7.4,36.6-21.1,56.7-32.7c16.5-9.6,27.7-16,32.3-18.7C119.2,39,131,30.2,150,10.2l0,0c0.4-0.4,0.7-0.7,0.8-0.8
		c0.2-0.2,0.5-0.4,0.7-0.6c0.6-0.3,1.1-0.3,1.1-0.3c14.5,1.8,14.5,1.8,14.6,1.8c0.3,0,0.7,0,1.1-0.2c0.2-0.1,0.4-0.3,0.5-0.6
		l0.1-0.4C169,8.5,168.7,7.9,168.2,7.6z M79.3,59.6c-20,11.6-43.7,25.3-56.7,32.8l-9.3,5.4c-3,1.8-6.9,0.7-8.6-2.3
		c-1.8-3.1-0.8-6.8,2.1-8.5L8,86.3C28.4,74.4,77.5,46,92.5,37.4c2.3-1.3,3.7-2.2,4.3-2.5c1.1-0.6,2.1-1.1,3-1.5
		c2.3-1,4.8-1.3,7.2-1.6c1.9-0.2,3.8-0.5,5.7-1c2.9-0.8,5.6-2,8.2-3.5l0.5-0.3c0.3-0.2,0.7-0.4,1-0.6c0.6-0.4,1.2-0.7,1.8-1.1
		c0.7-0.5,1.4-0.9,2.2-1.5c0.7-0.5,1.6-1.1,2.6-1.8c1-0.7,1.9-1.4,2.8-2c1-0.7,1.9-1.4,3-2.3c1.1-0.8,2.1-1.6,3.1-2.3
		c1.1-0.8,2.1-1.6,3.1-2.4c1-0.8,2-1.6,3.1-2.5c1.5-1.2,3-2.5,4.5-3.9c0.4-0.4,0.9-0.8,1.3-1.2c0.6-0.6,1.3-1.1,1.9-1.7l0.6-0.5
		c0.3-0.2,0.5-0.4,0.7-0.5c0.2-0.1,0.5,0,0.7,0.1l8.6,4.6L152.9,6l0,0c0,0-1.2-0.1-2.6,0.7c-0.4,0.2-0.8,0.6-1.2,1
		c-0.1,0.1-0.2,0.2-0.4,0.4c-0.1,0.1-0.3,0.3-0.5,0.6c-18.8,19.9-30.4,28.5-36.7,32.3C106.4,43.9,95.2,50.4,79.3,59.6z"/>
	<path class="st0" d="M175.9,24.1c-2.1,0.8-52.1,20.1-64.7,27.4l-1.7,1l0,0c-5.9,3.4-14,8.1-24,13.9c-20.6,11.9-44.8,26-57.9,33.5
		c-4.5,2.6-7.7,4.5-9,5.2l0,0c0,0,0,0,0,0c0,0,0,0,0,0c-0.1,0.1-0.2,0.1-0.3,0.2c0,0-0.1,0.1-0.1,0.1c0,0,0,0,0,0l0,0
		c-4.2,2.7-5.5,8.3-3,12.8c2.5,4.4,8.1,6,12.5,3.8l0,0c0,0,0,0,0,0l0.1-0.1c0.1,0,0.2-0.1,0.3-0.2c0,0,0,0,0,0c0,0,0,0,0,0l0,0
		c1.4-0.8,4.5-2.6,9-5.2c13.1-7.5,37.4-21.5,58-33.4c10-5.8,18.1-10.5,24-13.9l1.7-1c12.6-7.3,54.3-40.9,56.1-42.4
		c0.4-0.3,0.5-0.9,0.3-1.4C176.9,24.1,176.4,23.9,175.9,24.1z M119.7,66.2l-1.7,1l0,0c-3,1.8-6.6,3.8-10.6,6.2l-0.4,0.2c0,0,0,0,0,0
		c-3.9,2.3-8.2,4.8-13,7.5c-20.4,11.8-44.7,25.8-57.9,33.5l-9.1,5.2c-3.5,2-7.9,0.8-9.9-2.7c-2-3.5-0.8-7.9,2.6-10l9.1-5.2
		C42,94.2,66.2,80.2,86.7,68.4c4.7-2.7,8.9-5.2,12.8-7.4c0.1,0,0.2-0.1,0.3-0.1l10.7-6.2c0.1-0.1,0.2-0.1,0.3-0.2l0,0l1.7-1
		c9.4-5.4,56.2-24,56.2-24C155.8,39.7,129.1,60.8,119.7,66.2z"/>
</g>
</svg>
