<?xml version="1.0" encoding="utf-8"?>
<!-- Generator: Adobe Illustrator 22.0.1, SVG Export Plug-In . SVG Version: 6.00 Build 0)  -->
<svg version="1.1" id="Layer_1" xmlns="http://www.w3.org/2000/svg" xmlns:xlink="http://www.w3.org/1999/xlink" x="0px" y="0px"
	 viewBox="0 0 119 114.9" style="enable-background:new 0 0 119 114.9;" xml:space="preserve">
<style type="text/css">
	.st0{fill:#8840E7;}
</style>
<g>
	<g>
		<path class="st0" d="M111.8,0H7.2C3.2,0,0,3.2,0,7.2v76.5c0,4,3.2,7.2,7.2,7.2h41.1l-0.1,0.9c-0.5,8.6-4.2,12.9-10.9,12.9h-4
			c-2.8,0-5.1,2.3-5.1,5.2s2.3,5.2,5.1,5.2h52.3c2.8,0,5.2-2.3,5.2-5.2s-2.3-5.2-5.2-5.2h-4c-6.7,0-10.4-4.3-10.9-12.9l-0.1-0.9
			h41.1c4,0,7.2-3.2,7.2-7.2V7.2C119,3.2,115.8,0,111.8,0z M85.6,106.9c1.6,0,2.9,1.3,2.9,2.9c0,1.6-1.3,2.9-2.9,2.9H33.3
			c-1.6,0-2.9-1.3-2.9-2.9c0-1.6,1.3-2.9,2.9-2.9H85.6z M72.5,103.2l1.3,1.5H45.2l1.3-1.5c2.4-2.6,3.7-6.5,4-11.5l0-0.8h17.9l0,0.8
			C68.8,96.7,70.1,100.5,72.5,103.2z M116.7,83.6c0,2.7-2.2,4.9-4.9,4.9H7.2c-2.7,0-4.9-2.2-4.9-4.9v-8.9h114.5V83.6z M10.3,72.4
			V10.3h98.4v62.1H10.3z M116.7,72.4h-5.8V9.2c0-0.6-0.5-1.1-1.1-1.1H9.2C8.6,8,8,8.6,8,9.2v63.3H2.3V7.2c0-2.7,2.2-4.9,4.9-4.9
			h104.6c2.7,0,4.9,2.2,4.9,4.9V72.4z"/>
		<path class="st0" d="M53.4,82.7h12.1c0.6,0,1.1-0.5,1.1-1.1c0-0.6-0.5-1.1-1.1-1.1H53.4c-0.6,0-1.1,0.5-1.1,1.1
			C52.3,82.2,52.8,82.7,53.4,82.7z"/>
		<path class="st0" d="M51.4,38.2H35.3c-0.6,0-1.1,0.5-1.1,1.1v8c0,0.6,0.5,1.1,1.1,1.1h16.1c0.6,0,1.1-0.5,1.1-1.1v-8
			C52.6,38.7,52.1,38.2,51.4,38.2z M50.3,46.3H36.5v-5.8h13.8V46.3z"/>
		<path class="st0" d="M89.2,53.5l3.3-3.3c0.3-0.3,0.4-0.7,0.3-1.1c-0.1-0.4-0.4-0.7-0.8-0.8l-7.3-2.2V17.2c0-0.6-0.5-1.1-1.1-1.1
			H27.3c-0.6,0-1.1,0.5-1.1,1.1v38.2c0,0.6,0.5,1.1,1.1,1.1h47.1l2.2,7.2c0.1,0.4,0.4,0.7,0.8,0.8c0.4,0.1,0.8,0,1.1-0.3l3.5-3.5
			l5.5,5.5c0.2,0.2,0.5,0.3,0.8,0.3c0.3,0,0.6-0.1,0.8-0.3l5.7-5.7c0.4-0.4,0.4-1.2,0-1.6L89.2,53.5z M28.4,18.4h54.1v7.8H28.4V18.4
			z M28.4,54.3V28.4h54.1v17.1l-10.6-3.2c-0.1,0-0.2,0-0.3,0c-0.3,0-0.6,0.1-0.8,0.3c-0.3,0.3-0.4,0.7-0.3,1.1l3.2,10.6H28.4z
			 M88.2,63.9l-5.1-5.1c-0.7-0.7-1.8-0.7-2.5,0l-2.5,2.5l-4.9-16.3L89.6,50L87,52.6c-0.3,0.3-0.4,0.6-0.4,1c0,0.4,0.1,0.7,0.4,1
			l5.3,5.3L88.2,63.9z"/>
	</g>
</g>
</svg>
