<?xml version="1.0" encoding="utf-8"?>
<!-- Generator: Adobe Illustrator 22.0.1, SVG Export Plug-In . SVG Version: 6.00 Build 0)  -->
<svg version="1.1" id="Layer_1" xmlns="http://www.w3.org/2000/svg" xmlns:xlink="http://www.w3.org/1999/xlink" x="0px" y="0px"
	 viewBox="0 0 98.6 115" style="enable-background:new 0 0 98.6 115;" xml:space="preserve">
<style type="text/css">
	.st0{fill:#8840E7;}
</style>
<g>
	<path class="st0" d="M92.9,58.6h-2.2v-1.2c1.3-0.3,2.3-1.5,2.3-2.9V21.1c0-1.6-1.3-3-3-3H79.8V5.2c0-2.9-2.3-5.2-5.2-5.2H5.2
		C2.3,0,0,2.3,0,5.2v104.6c0,2.9,2.3,5.2,5.2,5.2h58.5h10.9h18.3c3.2,0,5.7-2.6,5.7-5.7V64.4C98.6,61.2,96,58.6,92.9,58.6z
		 M90.7,21.1v28.3H65.9V21.1c0-0.4,0.3-0.7,0.7-0.7H90C90.4,20.4,90.7,20.7,90.7,21.1z M66.6,55.2c-0.4,0-0.7-0.3-0.7-0.7v-2.8h24.8
		v2.8c0,0.4-0.3,0.7-0.7,0.7H66.6z M88.3,57.5v1.1H68.3v-1.1H88.3z M2.3,109.8V5.2c0-1.6,1.3-2.9,2.9-2.9h69.4
		c1.6,0,2.9,1.3,2.9,2.9v12.9H66.6c-1.2,0-2.1,0.7-2.6,1.6H15.6c-0.3,0-0.6,0.3-0.6,0.6v1.2c0,0.3,0.3,0.6,0.6,0.6h48.1v7H15.6
		c-0.3,0-0.6,0.3-0.6,0.6V31c0,0.3,0.3,0.6,0.6,0.6h48.1v7H15.6c-0.3,0-0.6,0.3-0.6,0.6v1.2c0,0.3,0.3,0.6,0.6,0.6h48.1v7H15.6
		c-0.3,0-0.6,0.3-0.6,0.6v1.2c0,0.3,0.3,0.6,0.6,0.6h48.1v4.1c0,1.4,1,2.6,2.3,2.9v1.2h-2.2c-3.2,0-5.7,2.6-5.7,5.7V66H15.6
		c-0.3,0-0.6,0.3-0.6,0.6v1.2c0,0.3,0.3,0.6,0.6,0.6H58v7H15.6c-0.3,0-0.6,0.3-0.6,0.6v1.2c0,0.3,0.3,0.6,0.6,0.6H58v7H15.6
		c-0.3,0-0.6,0.3-0.6,0.6v1.2c0,0.3,0.3,0.6,0.6,0.6H58v7H15.6c-0.3,0-0.6,0.3-0.6,0.6v1.2c0,0.3,0.3,0.6,0.6,0.6H58v7H15.6
		c-0.3,0-0.6,0.3-0.6,0.6v1.2c0,0.3,0.3,0.6,0.6,0.6H58v3.1c0,1.3,0.4,2.5,1.1,3.4H5.2C3.6,112.7,2.3,111.4,2.3,109.8z M96.4,109.2
		c0,1.9-1.6,3.5-3.5,3.5H63.7c-1.9,0-3.5-1.6-3.5-3.5V64.4c0-1.9,1.6-3.5,3.5-3.5h13.4c0,0,0,0.1,0,0.1v11.9c0,0.7,0.5,1.2,1.2,1.2
		c0.7,0,1.2-0.5,1.2-1.2V61c0,0,0-0.1,0-0.1h13.4c1.9,0,3.5,1.6,3.5,3.5V109.2z"/>
	<path class="st0" d="M83.7,99.2l6.1-8.9c0.2-0.3,0.3-0.8,0.1-1.2c-0.2-0.4-0.6-0.6-1-0.6h-6.5c-0.4,0-0.8,0.2-1,0.5l-2.3,3.8
		L76.6,89c-0.2-0.3-0.6-0.5-0.9-0.5h-7.2c-0.4,0-0.8,0.2-1,0.6c-0.2,0.4-0.2,0.8,0.1,1.2l6.3,8.9l-6.8,9.9c-0.2,0.3-0.3,0.8-0.1,1.2
		s0.6,0.6,1,0.6h6.7c0.4,0,0.8-0.2,1-0.5l3-4.7l3.2,4.7c0.2,0.3,0.6,0.5,0.9,0.5h7.1c0.4,0,0.8-0.2,1-0.6c0.2-0.4,0.2-0.8-0.1-1.2
		L83.7,99.2z M83.2,108.6l-3.8-5.6c-0.2-0.3-0.6-0.5-0.9-0.5c0,0,0,0,0,0c-0.4,0-0.7,0.2-0.9,0.5l-3.6,5.6h-3.9l6-8.8
		c0.3-0.4,0.3-0.9,0-1.3l-5.5-7.7H75l3.2,4.8c0.2,0.3,0.6,0.5,1,0.5c0.4,0,0.7-0.2,0.9-0.5l2.9-4.7h3.7l-5.3,7.8
		c-0.3,0.4-0.3,0.9,0,1.3l6.1,8.7H83.2z"/>
	<path class="st0" d="M69.6,79.1H87c0.7,0,1.2-0.5,1.2-1.2s-0.5-1.2-1.2-1.2H69.6c-0.7,0-1.2,0.5-1.2,1.2S69,79.1,69.6,79.1z"/>
	<path class="st0" d="M74.7,80.5c-0.7,0-1.2,0.5-1.2,1.2s0.5,1.2,1.2,1.2h7.2c0.7,0,1.2-0.5,1.2-1.2s-0.5-1.2-1.2-1.2H74.7z"/>
	<circle class="st0" cx="10.3" cy="21" r="1.2"/>
	<circle class="st0" cx="10.3" cy="11.5" r="1.2"/>
	<path class="st0" d="M15.6,12.7h54.5c0.3,0,0.6-0.3,0.6-0.6v-1.2c0-0.3-0.3-0.6-0.6-0.6H15.6c-0.3,0-0.6,0.3-0.6,0.6v1.2
		C15,12.5,15.2,12.7,15.6,12.7z"/>
	<path class="st0" d="M10.3,29.2c-0.7,0-1.2,0.5-1.2,1.2s0.5,1.2,1.2,1.2s1.2-0.5,1.2-1.2S11,29.2,10.3,29.2z"/>
	<circle class="st0" cx="10.3" cy="39.8" r="1.2"/>
	<circle class="st0" cx="10.3" cy="49.3" r="1.2"/>
	<circle class="st0" cx="10.3" cy="67.2" r="1.2"/>
	<path class="st0" d="M10.3,75.4c-0.7,0-1.2,0.5-1.2,1.2s0.5,1.2,1.2,1.2s1.2-0.5,1.2-1.2S11,75.4,10.3,75.4z"/>
	<circle class="st0" cx="10.3" cy="86" r="1.2"/>
	<circle class="st0" cx="10.3" cy="95.5" r="1.2"/>
	<circle class="st0" cx="10.3" cy="104.9" r="1.2"/>
</g>
</svg>
