<?xml version="1.0" encoding="utf-8"?>
<!-- Generator: Adobe Illustrator 22.0.1, SVG Export Plug-In . SVG Version: 6.00 Build 0)  -->
<svg version="1.1" id="Layer_1" xmlns="http://www.w3.org/2000/svg" xmlns:xlink="http://www.w3.org/1999/xlink" x="0px" y="0px"
	 viewBox="0 0 118.9 100.6" style="enable-background:new 0 0 118.9 100.6;" xml:space="preserve">
<style type="text/css">
	.st0{fill:#8840E7;}
</style>
<g>
	<path class="st0" d="M117.7,0H1.1C0.5,0,0,0.5,0,1.1v21.8C0,23.5,0.5,24,1.1,24c7.4,0,13.4,6,13.4,13.4c0,7.4-6,13.4-13.4,13.4
		c-0.6,0-1.1,0.5-1.1,1.1v21.8c0,0.6,0.5,1.1,1.1,1.1h63c-0.9-0.6-1.4-1.4-1.7-2.3H31.3v-6.1c0-0.6-0.5-1.1-1.1-1.1S29,65.8,29,66.4
		v6.1H2.3V53.2l2-0.4c7.3-1.5,12.5-7.9,12.5-15.3c0-7.4-5.3-13.9-12.5-15.3l-2-0.4V2.3h27.1v6.1c0,0.6,0.5,1.1,1.1,1.1
		s1.1-0.5,1.1-1.1V2.3h85v70.3h-10.9c0.6,0.6,1,1.4,1.2,2.3h10.8c0.6,0,1.1-0.5,1.1-1.1V1.1C118.9,0.5,118.3,0,117.7,0z"/>
	<path class="st0" d="M30.2,48.5c-0.6,0-1.1,0.5-1.1,1.1v7.3c0,0.6,0.5,1.1,1.1,1.1s1.1-0.5,1.1-1.1v-7.3
		C31.3,49,30.8,48.5,30.2,48.5z"/>
	<path class="st0" d="M30.2,26.3c0.6,0,1.1-0.5,1.1-1.1v-7.3c0-0.6-0.5-1.1-1.1-1.1S29,17.3,29,17.9v7.3
		C29,25.8,29.5,26.3,30.2,26.3z"/>
	<path class="st0" d="M105.9,94.8c-3.7,3.7-8.7,5.8-14,5.8H68.5c-1.3,0-2.5-0.5-3.5-1.4c-1.9-1.9-1.9-5,0-6.9c0.8-0.8,1.9-1.5,3-1.9
		l7.5-2.5L54.4,66.8c-2-2-2-5.2,0-7.2c2-2,5.2-2,7.2,0l5.9,5.9c0.2-0.8,0.7-1.6,1.3-2.3c1.6-1.6,3.9-1.9,5.8-1
		c0.2-1,0.7-1.9,1.4-2.6c1.6-1.6,3.9-1.9,5.8-1c0.2-1,0.7-1.9,1.4-2.6c2-2,5.2-2,7.2,0l15.4,15.4C112.4,77.8,112.4,88.3,105.9,94.8z
		 M66.9,94c-0.9,0.9-0.9,2.4,0,3.3c0.4,0.4,1,0.7,1.7,0.7l23.4,0c4.6,0,8.9-1.8,12.2-5c5.5-5.5,5.5-14.4,0-19.9L88.7,57.8
		c-1-1-2.6-1-3.6,0c-1,1-1,2.6,0,3.6l4.5,4.5c0.5,0.5,0.5,1.3,0,1.8c-0.5,0.5-1.3,0.5-1.8,0l-6.3-6.3c-1-1-2.6-1-3.6,0
		c-1,1-1,2.6,0,3.6l6.3,6.3c0.5,0.5,0.5,1.3,0,1.8c-0.5,0.5-1.3,0.5-1.8,0L74.3,65c-1-1-2.6-1-3.6,0s-1,2.6,0,3.6l8.1,8.1
		c0.5,0.5,0.5,1.3,0,1.8s-1.3,0.5-1.8,0L59.8,61.4c-1-1-2.6-1-3.6,0c-1,1-1,2.6,0,3.6l22.6,22.6c0.3,0.3,0.4,0.8,0.3,1.2
		c-0.1,0.4-0.4,0.8-0.8,0.9l-9.4,3.1C68.1,93.1,67.4,93.5,66.9,94z"/>
	<g>
		<path class="st0" d="M30.9,31.8v1.9h-4.7v2.6h3.8v1.8h-3.8v2.7h4.9v1.9h-7.4v-11H30.9z"/>
		<path class="st0" d="M32.6,31.8h2.8l2.1,3.7l2.1-3.7h2.6L39,37.1l3.5,5.7h-2.8l-2.4-4.1l-2.4,4.1h-2.6l3.5-5.7L32.6,31.8z"/>
		<path class="st0" d="M43.3,33.7v-1.9h8.5v1.9h-3v9.1h-2.5v-9.1H43.3z"/>
		<path class="st0" d="M57.5,31.8c1.3,0,2.4,0.3,3.1,0.8c0.7,0.6,1.2,1.4,1.2,2.5v0.1c0,0.8-0.2,1.5-0.6,1.9s-1,0.8-1.6,1l2.9,4.7
			h-2.7l-2.6-4.3H56v4.3h-2.5v-11H57.5z M59.3,35.2L59.3,35.2c0-1.2-0.7-1.6-1.9-1.6H56v3.2h1.4C58.7,36.8,59.3,36.3,59.3,35.2z"/>
		<path class="st0" d="M71.3,31.8v1.9h-4.7v2.6h3.8v1.8h-3.8v2.7h4.9v1.9h-7.4v-11H71.3z"/>
		<path class="st0" d="M76.7,31.8l2.6,6.9l2.5-6.9h3.2v11h-2.5V35l-3.1,7.7h-0.8L75.7,35v7.7h-2.2v-11H76.7z"/>
		<path class="st0" d="M94.8,31.8v1.9h-4.7v2.6h3.8v1.8h-3.8v2.7h4.9v1.9h-7.4v-11H94.8z"/>
		<path class="st0" d="M100.3,37.6v1.8h-3.9v-1.8H100.3z"/>
		<path class="st0" d="M101.5,39.3h2.3c0.1,1.1,0.6,1.8,2,1.8c1.2,0,1.8-0.6,1.8-1.6c0-1.1-0.6-1.6-1.8-1.6H105v-1.7h0.8
			c1.2,0,1.7-0.5,1.7-1.5c0-0.8-0.5-1.4-1.5-1.4c-1,0-1.7,0.6-1.8,1.7h-2.2c0.1-1,0.4-1.9,1.1-2.5c0.7-0.6,1.7-1,2.9-1
			c1.2,0,2.2,0.3,2.8,0.8c0.7,0.5,1,1.3,1,2.1c0,1.2-0.7,2-1.8,2.4c1.3,0.3,2.1,1.2,2.1,2.6c0,2.1-1.6,3.4-4.3,3.4
			C103.1,43,101.7,41.5,101.5,39.3z"/>
	</g>
</g>
</svg>
