<?xml version="1.0" encoding="utf-8"?>
<!-- Generator: Adobe Illustrator 22.0.1, SVG Export Plug-In . SVG Version: 6.00 Build 0)  -->
<svg version="1.1" id="Layer_1" xmlns="http://www.w3.org/2000/svg" xmlns:xlink="http://www.w3.org/1999/xlink" x="0px" y="0px"
	 viewBox="0 0 131.5 115.2" style="enable-background:new 0 0 131.5 115.2;" xml:space="preserve">
<style type="text/css">
	.st0{fill:#8840E7;}
</style>
<g>
	<path class="st0" d="M115,16.6C103.1,5.8,86.1,0,66,0C50,0,35.3,4.5,23.5,13C12.8,20.8,5.1,31.5,1.8,43.4C-1,53.1-0.5,63.1,3,72.1
		c3.6,9,10.3,17,19.5,23l1.3,0.8l-0.2,1.5c-0.7,5.8-3.2,11-7.3,15.1l-2.6,2.6h3.7c9,0,17.5-3.6,23.9-10.2l1-1l1.4,0.4
		c7,1.8,14.9,2.8,22.3,2.8c20.1,0,37.1-5.8,49-16.7c5.4-4.9,9.5-10.7,12.4-17.2c2.7-6.3,4.1-12.9,4.1-19.8
		C131.5,39.4,125.6,26.3,115,16.6z M26.9,110.5l-5.6,1.9l2.6-5.3c1.8-3.7,2.8-7.8,2.9-12l0-0.9l-0.8-0.5C7.3,82.3-0.7,63.8,4.7,44.2
		C10.4,23.7,31.6,3.1,66,3.1c19.4,0,35.6,5.5,47,15.8c10,9.1,15.5,21.4,15.5,34.6c0,24.4-19.5,50.6-62.4,50.6
		c-8.1,0-16.5-1.2-23.8-3.4l-1-0.3l-0.7,0.8C36.9,105.5,32.2,108.7,26.9,110.5z"/>
	<path class="st0" d="M51.5,55.6c0-6-4.8-10.8-10.8-10.8s-10.8,4.8-10.8,10.8s4.8,10.8,10.8,10.8S51.5,61.6,51.5,55.6z M40.7,47.6
		c4.4,0,8,3.6,8,8c0,4.4-3.6,8-8,8c-4.4,0-8-3.6-8-8C32.7,51.2,36.3,47.6,40.7,47.6z"/>
	<path class="st0" d="M67.9,66.4c6,0,10.8-4.8,10.8-10.8s-4.8-10.8-10.8-10.8s-10.8,4.8-10.8,10.8S61.9,66.4,67.9,66.4z M67.9,47.6
		c4.4,0,8,3.6,8,8c0,4.4-3.6,8-8,8c-4.4,0-8-3.6-8-8C59.8,51.2,63.4,47.6,67.9,47.6z"/>
	<path class="st0" d="M95,66.4c6,0,10.8-4.8,10.8-10.8S101,44.8,95,44.8s-10.8,4.8-10.8,10.8S89.1,66.4,95,66.4z M95,47.6
		c4.4,0,8,3.6,8,8c0,4.4-3.6,8-8,8c-4.4,0-8-3.6-8-8C87,51.2,90.6,47.6,95,47.6z"/>
</g>
</svg>
