<?xml version="1.0" encoding="utf-8"?>
<!-- Generator: Adobe Illustrator 22.0.1, SVG Export Plug-In . SVG Version: 6.00 Build 0)  -->
<svg version="1.1" id="Layer_1" xmlns="http://www.w3.org/2000/svg" xmlns:xlink="http://www.w3.org/1999/xlink" x="0px" y="0px"
	 viewBox="0 0 521 428.8" style="enable-background:new 0 0 521 428.8;" xml:space="preserve">
<style type="text/css">
	.st0{fill:#969B9E;}
</style>
<path class="st0" d="M471.5,0h-422C22.2,0,0,22.2,0,49.5v270C0,346.8,22.2,369,49.5,369l141.5,0l54,54c3.8,3.8,8.9,5.8,13.9,5.8
	s10.1-1.9,13.9-5.8l54-54l144.5,0c27.3,0,49.5-22.2,49.5-49.5v-270C521,22.2,498.8,0,471.5,0z M482,66.4v236.1l-118.8-118L482,66.4z
	 M157.8,184.6L39,302.6V66.4L157.8,184.6z M185.4,212.1l18.9,18.8c15,15,35,23.3,56.2,23.3s41.2-8.3,56.2-23.2l18.9-18.8L454.2,330
	h-144L259,381.2L207.8,330h-4.3l0,0H66.7L185.4,212.1z M260.5,215.1c-10.8,0-21-4.2-28.7-11.9L66.7,39h387.6L289.1,203.3
	C281.5,210.9,271.3,215.1,260.5,215.1z"/>
</svg>
