<?xml version="1.0" standalone="no"?>
<!DOCTYPE svg PUBLIC "-//W3C//DTD SVG 1.1//EN" "http://www.w3.org/Graphics/SVG/1.1/DTD/svg11.dtd" >
<svg xmlns="http://www.w3.org/2000/svg">
<metadata>Generated by IcoMoon</metadata>
<defs>
<font id="09-heating-cooling-efn" horiz-adv-x="1024">
<font-face units-per-em="1024" ascent="960" descent="-64" />
<missing-glyph horiz-adv-x="1024" />
<glyph unicode="&#x20;" horiz-adv-x="512" d="" />
<glyph unicode="&#xe900;" glyph-name="gas-flame" d="M527 946.75c-0.598 0.473-1.328 0.59-1.953 0.996-1.352 0.891-2.727 1.559-4.203 2.148-1.437 0.574-2.82 1.055-4.316 1.34-1.508 0.293-2.969 0.363-4.504 0.363s-2.996-0.070-4.504-0.363c-1.508-0.285-2.91-0.773-4.359-1.352-1.461-0.582-2.809-1.234-4.148-2.109-0.645-0.418-1.395-0.539-2.012-1.023-160.969-128.812-265-387.375-265-658.75 0-212.469 112.125-344 216-344 0.008 0 0.008 0.004 0.016 0.004 0.004 0 0.012-0.004 0.016-0.004 0.020 0 0.043 0.020 0.063 0.020 4.414 0.020 8.312 1.535 11.859 3.629 0.457 0.27 1.008 0.145 1.453 0.445 0.648 0.437 0.988 1.113 1.578 1.598 1.281 1.051 2.379 2.176 3.418 3.465 0.969 1.199 1.801 2.387 2.512 3.727 0.711 1.328 1.223 2.68 1.676 4.141 0.492 1.594 0.816 3.141 0.969 4.797 0.070 0.754 0.441 1.406 0.441 2.18 0 0.77-0.367 1.422-0.437 2.172-0.145 1.633-0.477 3.168-0.961 4.758-0.48 1.563-1.059 2.996-1.832 4.406-0.363 0.672-0.426 1.426-0.863 2.070-50.375 74.656-59.906 120.375-59.906 178.594 0 98.219 37.035 177.668 104 226.328 66.965-48.66 104-128.109 104-226.328 0-58.219-9.531-103.937-59.906-178.594-0.437-0.645-0.5-1.398-0.863-2.070-0.773-1.41-1.352-2.844-1.832-4.406-0.484-1.59-0.816-3.125-0.961-4.758-0.070-0.75-0.437-1.402-0.437-2.172 0-0.773 0.371-1.426 0.441-2.18 0.152-1.656 0.477-3.203 0.969-4.797 0.453-1.461 0.965-2.812 1.676-4.141 0.711-1.34 1.543-2.527 2.512-3.727 1.039-1.289 2.137-2.414 3.418-3.465 0.59-0.484 0.93-1.16 1.578-1.598 0.445-0.301 0.996-0.176 1.453-0.445 3.547-2.094 7.445-3.609 11.859-3.629 0.020 0 0.043-0.020 0.063-0.020 0.004 0 0.012 0.004 0.016 0.004 0.008 0 0.008-0.004 0.016-0.004 103.875 0 216 131.531 216 344 0 271.375-104.031 529.937-265 658.75zM628.406 9.070c28.805 55.938 35.594 100.152 35.594 150.93 0 119.254-50.344 219.52-138.020 275.457-0.164 0.117-0.312 0.238-0.48 0.352-0.242 0.152-0.445 0.352-0.688 0.504-1 0.625-2.117 0.73-3.164 1.195-1.676 0.75-3.289 1.574-5.090 1.922-1.531 0.297-3.023 0.145-4.559 0.145s-3.023 0.152-4.555-0.145c-1.801-0.348-3.406-1.172-5.086-1.918-1.047-0.465-2.172-0.574-3.172-1.199-0.242-0.152-0.449-0.352-0.691-0.508-0.16-0.109-0.305-0.227-0.465-0.34-87.688-55.937-138.031-156.203-138.031-275.465 0-50.777 6.789-94.988 35.59-150.926-62.129 38.102-115.59 140.172-115.59 278.926 0 248.387 90.812 483.063 232 607.117 141.188-124.055 232-358.73 232-607.117 0-138.758-53.469-240.832-115.594-278.93z" />
<glyph unicode="&#xe901;" glyph-name="flame" d="M819.969 493.312c-30.844 46.25-59.969 89.969-59.969 178.688 0 13.25-10.75 24-24 24-46.844 0-68.25-42.844-85.469-77.281-7.238-14.477-13.559-26.34-19.91-35.098-13.699 206.164-133.086 367.91-278.055 368.336-0.066 0-0.121 0.012-0.188 0.016-0.129 0-0.25 0.027-0.379 0.027-1.727 0-3.242-0.637-4.863-0.984-1.352-0.281-2.719-0.207-4.043-0.734-0.070-0.027-0.113-0.090-0.18-0.117-2.148-0.883-3.941-2.305-5.727-3.742-0.664-0.531-1.527-0.84-2.125-1.434-0.723-0.723-1.094-1.715-1.719-2.523-1.254-1.629-2.621-3.195-3.422-5.074-0.23-0.547-0.188-1.195-0.383-1.762-0.813-2.395-1.477-4.844-1.496-7.414 0-0.074-0.043-0.137-0.043-0.215 0-1.605 0.613-3.008 0.914-4.523 0.285-1.469 0.227-2.945 0.805-4.383 69.125-172.812 1.781-260.563-76.188-362.156-57.781-75.313-117.531-153.188-117.531-268.938 0-189.688 154.312-344 344-344h64c189.688 0 344 154.312 344 344 0 103.281-34.594 155.156-68.031 205.312zM611.063 195.312c19.812-29.719 36.937-55.375 36.937-99.312 0-60.25-57.188-104-136-104s-136 70.656-136 168c0 116.812 87.043 212.742 199.512 228.715-24.738-101.586 6.852-150.344 35.551-193.402zM674.195 23.496c13.527 21.406 21.805 45.734 21.805 72.504 0 58.469-23.906 94.312-45 125.937-29.469 44.219-54.906 82.406-20.219 186.469 0.438 1.32 0.285 2.641 0.488 3.969 0.195 1.23 0.73 2.34 0.73 3.625 0 0.316-0.168 0.574-0.18 0.887-0.070 1.789-0.582 3.43-1.035 5.133-0.359 1.348-0.531 2.727-1.109 3.965-0.656 1.422-1.672 2.578-2.594 3.852-0.891 1.227-1.633 2.516-2.734 3.551-1.051 0.988-2.371 1.633-3.605 2.43-1.406 0.906-2.715 1.879-4.305 2.48-0.312 0.121-0.523 0.375-0.844 0.484-1.316 0.434-2.625 0.277-3.945 0.48-1.238 0.199-2.355 0.738-3.648 0.738-0.449 0-0.863-0.129-1.309-0.133-0.465-0.023-0.898-0.086-1.359-0.137-153.152-1.473-277.332-126.238-277.332-279.73 0-58.734 18.387-110.176 48.602-148.348-112.172 42.137-192.602 149.633-192.602 276.348 0 99.469 52.281 167.594 107.625 239.719 74.398 96.977 151.125 197.078 96.090 371.563 110.996-26.793 196.285-175.672 196.285-355.281 0-13.25 10.75-24 24-24 46.844 0 68.25 42.844 85.469 77.281 7.426 14.855 13.895 27.078 20.41 35.887 7.488-78.219 37.207-123.063 66.152-166.48 30.844-46.25 59.969-89.969 59.969-178.688 0-116.293-68.012-216.133-165.805-264.504z" />
<glyph unicode="&#xe902;" glyph-name="sun" d="M512 696c-136.75 0-248-111.25-248-248s111.25-248 248-248 248 111.25 248 248-111.25 248-248 248zM512 248c-110.25 0-200 89.719-200 200s89.75 200 200 200 200-89.719 200-200-89.75-200-200-200zM512 776c13.25 0 24 10.75 24 24v128c0 13.25-10.75 24-24 24s-24-10.75-24-24v-128c0-13.25 10.75-24 24-24zM512 120c-13.25 0-24-10.75-24-24v-128c0-13.25 10.75-24 24-24s24 10.75 24 24v128c0 13.25-10.75 24-24 24zM992 472h-128c-13.25 0-24-10.75-24-24s10.75-24 24-24h128c13.25 0 24 10.75 24 24s-10.75 24-24 24zM184 448c0 13.25-10.75 24-24 24h-128c-13.25 0-24-10.75-24-24s10.75-24 24-24h128c13.25 0 24 10.75 24 24zM760.875 672.906c6.125 0 12.25 2.344 16.937 7.031l90.563 90.5c9.375 9.375 9.437 24.563 0.063 33.937s-24.563 9.375-33.937 0l-90.563-90.5c-9.375-9.375-9.437-24.563-0.063-33.937 4.688-4.688 10.875-7.031 17-7.031zM246.188 216.063l-90.563-90.5c-9.375-9.375-9.437-24.563-0.063-33.937 4.688-4.688 10.875-7.031 17-7.031s12.25 2.344 16.937 7.031l90.563 90.5c9.375 9.375 9.437 24.563 0.063 33.937s-24.562 9.375-33.937 0zM777.812 216.063c-9.375 9.375-24.563 9.375-33.937 0s-9.312-24.563 0.063-33.937l90.563-90.5c4.688-4.688 10.812-7.031 16.937-7.031s12.312 2.344 17 7.031c9.375 9.375 9.312 24.563-0.063 33.937l-90.563 90.5zM246.188 679.937c4.688-4.688 10.812-7.031 16.937-7.031s12.312 2.344 17 7.031c9.375 9.375 9.312 24.563-0.063 33.937l-90.562 90.5c-9.375 9.375-24.563 9.375-33.937 0s-9.312-24.563 0.062-33.938l90.563-90.5z" />
<glyph unicode="&#xe903;" glyph-name="snowflake" d="M966.875 389.75l-208.996-56-197.887 114.25 197.887 114.25 208.996-56c2.063-0.563 4.125-0.812 6.188-0.812 10.625 0 20.312 7.063 23.188 17.781 3.437 12.812-4.188 25.969-17 29.406l-162.586 43.562 123.023 71.031c11.5 6.625 15.437 21.312 8.812 32.781-6.75 11.563-21.563 15.406-32.812 8.781l-123-71.016 43.563 162.578c3.437 12.812-4.188 25.969-17 29.406-12.688 3.375-25.937-4.188-29.375-16.969l-55.992-208.965-197.883-114.25v228.465l153 153c9.312 9.375 9.312 24.563 0 33.937-9.375 9.375-24.625 9.375-34 0l-119-119v142.031c0 13.25-10.75 24-24 24s-24-10.75-24-24v-142.031l-119 119c-9.375 9.375-24.625 9.375-34 0-9.312-9.375-9.312-24.563 0-33.937l153-153v-228.465l-197.883 114.25-55.992 208.965c-3.437 12.781-16.563 20.406-29.375 16.969s-20.437-16.594-17-29.406l43.563-162.578-123 71.016c-11.25 6.625-26.062 2.781-32.812-8.781-6.625-11.469-2.688-26.156 8.812-32.781l123.023-71.031-162.586-43.563c-12.813-3.437-20.438-16.594-17-29.406 2.875-10.719 12.563-17.781 23.188-17.781 2.063 0 4.125 0.25 6.188 0.812l208.996 56 197.887-114.25-197.887-114.25-208.996 56c-12.562 3.344-25.937-4.187-29.375-16.969-3.437-12.812 4.188-25.969 17-29.406l162.586-43.563-123.023-71.031c-11.5-6.625-15.437-21.312-8.812-32.781 4.5-7.688 12.563-12 20.812-12 4.125 0 8.25 1.031 12 3.219l123 71.016-43.563-162.578c-3.437-12.812 4.188-25.969 17-29.406 2.063-0.563 4.125-0.812 6.188-0.812 10.625 0 20.312 7.063 23.188 17.781l55.992 208.965 197.883 114.25v-228.465l-153-153c-9.312-9.375-9.312-24.563 0-33.937 4.688-4.688 10.875-7.031 17-7.031s12.312 2.344 17 7.031l119 119v-142.031c0-13.25 10.75-24 24-24s24 10.75 24 24v142.031l119-119c4.688-4.688 10.875-7.031 17-7.031s12.312 2.344 17 7.031c9.312 9.375 9.312 24.563 0 33.937l-153 153v228.465l197.883-114.25 55.992-208.965c2.875-10.719 12.563-17.781 23.188-17.781 2.063 0 4.125 0.25 6.188 0.812 12.812 3.437 20.437 16.594 17 29.406l-43.563 162.578 123-71.016c3.75-2.188 7.875-3.219 12-3.219 8.25 0 16.312 4.312 20.812 12 6.625 11.469 2.688 26.156-8.812 32.781l-123.023 71.031 162.586 43.563c12.812 3.437 20.437 16.594 17 29.406-3.437 12.781-16.687 20.375-29.375 16.969z" />
<glyph unicode="&#xe904;" glyph-name="heating-cooling" d="M184 448c0 13.25-10.75 24-24 24h-128c-13.25 0-24-10.75-24-24s10.75-24 24-24h128c13.25 0 24 10.75 24 24zM246.188 216.063l-90.563-90.5c-9.375-9.375-9.437-24.563-0.063-33.937 4.688-4.688 10.875-7.031 17-7.031s12.25 2.344 16.937 7.031l90.563 90.5c9.375 9.375 9.437 24.563 0.063 33.937s-24.562 9.375-33.937 0zM246.188 679.937c4.688-4.688 10.812-7.031 16.937-7.031s12.312 2.344 17 7.031c9.375 9.375 9.312 24.563-0.063 33.937l-90.562 90.5c-9.375 9.375-24.563 9.375-33.937 0s-9.312-24.563 0.062-33.938l90.563-90.5zM966.875 389.75l-208.996-56-197.887 114.25 197.887 114.25 208.996-56c2.063-0.563 4.125-0.812 6.188-0.812 10.625 0 20.312 7.063 23.188 17.781 3.437 12.812-4.188 25.969-17 29.406l-162.586 43.562 123.023 71.031c11.5 6.625 15.437 21.312 8.812 32.781-6.688 11.469-21.437 15.375-32.812 8.781l-123-71.016 43.563 162.578c3.437 12.812-4.188 25.969-17 29.406-12.625 3.375-25.937-4.188-29.375-16.969l-55.992-208.965-197.883-114.25v228.465l153 153c9.312 9.375 9.312 24.563 0 33.937-9.375 9.375-24.625 9.375-34 0l-119-119v142.031c0 13.25-10.75 24-24 24s-24-10.75-24-24v-234.426c-125.363-12.277-224-117.043-224-245.574s98.637-233.297 224-245.574v-234.426c0-13.25 10.75-24 24-24s24 10.75 24 24v142.031l119-119c4.688-4.688 10.875-7.031 17-7.031s12.312 2.344 17 7.031c9.312 9.375 9.312 24.563 0 33.937l-153 153v228.465l197.883-114.25 55.992-208.965c2.875-10.719 12.563-17.781 23.188-17.781 2.063 0 4.125 0.25 6.188 0.812 12.812 3.437 20.437 16.594 17 29.406l-43.563 162.578 123-71.016c3.75-2.188 7.875-3.219 12-3.219 8.25 0 16.312 4.312 20.812 12 6.625 11.469 2.688 26.156-8.812 32.781l-123.023 71.031 162.586 43.563c12.812 3.437 20.437 16.594 17 29.406-3.437 12.781-16.687 20.375-29.375 16.969zM312 448c0 102.063 77.152 185.555 176 197.574v-395.148c-98.848 12.020-176 95.512-176 197.574z" />
<glyph unicode="&#xe905;" glyph-name="thermometer" d="M632 266.125v565.875c0 66.156-53.812 120-120 120s-120-53.844-120-120v-565.863c-40.297-34.984-64-84.207-64-138.137 0-101.469 82.563-184 184-184s184 82.531 184 184c0 53.961-23.688 103.168-64 138.125zM512-8c-75 0-136 61-136 136 0 43.156 19.812 82.812 54.375 108.781 0.402 0.305 0.586 0.766 0.965 1.090 1.445 1.227 2.59 2.648 3.711 4.184 0.73 1.012 1.492 1.945 2.051 3.043 0.809 1.57 1.266 3.234 1.715 4.98 0.34 1.328 0.688 2.59 0.797 3.953 0.055 0.66 0.387 1.23 0.387 1.906v576.063c0 39.688 32.312 72 72 72s72-32.312 72-72v-40h-40c-13.25 0-24-10.75-24-24s10.75-24 24-24h40v-48h-40c-13.25 0-24-10.75-24-24s10.75-24 24-24h40v-48h-40c-13.25 0-24-10.75-24-24s10.75-24 24-24h40v-296.031c0-0.59 0.293-1.086 0.336-1.664 0.117-1.605 0.512-3.098 0.941-4.652 0.422-1.508 0.805-2.965 1.496-4.34 0.637-1.277 1.504-2.359 2.375-3.52 1.031-1.371 2.055-2.66 3.355-3.785 0.414-0.359 0.617-0.859 1.059-1.195 34.625-25.969 54.437-65.625 54.437-108.812 0-75-61-136-136-136zM536 212.254v267.746c0 13.25-10.75 24-24 24s-24-10.75-24-24v-267.746c-36.801-10.527-64-44.102-64-84.254 0-48.531 39.5-88 88-88s88 39.469 88 88c0 40.152-27.199 73.727-64 84.254zM512 88c-22.063 0-40 17.937-40 40s17.937 40 40 40 40-17.937 40-40-17.937-40-40-40z" />
<glyph unicode="&#xe906;" glyph-name="wind" d="M800 344h-768c-13.25 0-24-10.75-24-24s10.75-24 24-24h768c57.344 0 104-46.656 104-104s-46.656-104-104-104-104 46.656-104 104c0 13.25-10.75 24-24 24s-24-10.75-24-24c0-83.812 68.188-152 152-152s152 68.188 152 152-68.188 152-152 152zM32 552h576c83.812 0 152 68.188 152 152s-68.188 152-152 152-152-68.188-152-152c0-13.25 10.75-24 24-24s24 10.75 24 24c0 57.344 46.656 104 104 104s104-46.656 104-104-46.656-104-104-104h-576c-13.25 0-24-10.75-24-24s10.75-24 24-24zM864 728c-13.25 0-24-10.75-24-24s10.75-24 24-24c57.344 0 104-46.656 104-104s-46.656-104-104-104h-832c-13.25 0-24-10.75-24-24s10.75-24 24-24h832c83.812 0 152 68.188 152 152s-68.188 152-152 152z" />
<glyph unicode="&#xe907;" glyph-name="air-conditioner" d="M928 824h-832c-48.5 0-88-39.469-88-88v-256c0-83.812 68.188-152 152-152h704c83.812 0 152 68.188 152 152v256c0 48.531-39.5 88-88 88zM840 456v-80h-656v80h656zM888 379.070v100.93c0 13.25-10.75 24-24 24h-704c-13.25 0-24-10.75-24-24v-100.93c-45.777 10.895-80 51.879-80 100.93v256c0 22.063 17.937 40 40 40h832c22.063 0 40-17.937 40-40v-256c0-49.051-34.223-90.035-80-100.93zM544 632h-64c-13.25 0-24-10.75-24-24s10.75-24 24-24h64c13.25 0 24 10.75 24 24s-10.75 24-24 24zM512 248c-13.25 0-24-10.75-24-24v-128c0-13.25 10.75-24 24-24s24 10.75 24 24v128c0 13.25-10.75 24-24 24zM256 248c-13.25 0-24-10.75-24-24 0-57.344-46.625-104-104-104-13.25 0-24-10.75-24-24s10.75-24 24-24c83.812 0 152 68.188 152 152 0 13.25-10.75 24-24 24zM896 120c-57.375 0-104 46.656-104 104 0 13.25-10.75 24-24 24s-24-10.75-24-24c0-83.812 68.188-152 152-152 13.25 0 24 10.75 24 24s-10.75 24-24 24zM384 248c-13.25 0-24-10.75-24-24 0-71.312-6.437-90.469-25.812-111.906-8.875-9.844-8.125-25 1.75-33.906 4.562-4.156 10.312-6.187 16.062-6.187 6.563 0 13.063 2.656 17.812 7.906 32.875 36.406 38.188 72.281 38.188 144.094 0 13.25-10.75 24-24 24zM664 224c0 13.25-10.75 24-24 24s-24-10.75-24-24c0-71.812 5.312-107.688 38.188-144.094 4.75-5.25 11.25-7.906 17.812-7.906 5.75 0 11.5 2.031 16.063 6.188 9.875 8.906 10.625 24.063 1.75 33.906-19.375 21.437-25.813 40.594-25.813 111.906z" />
<glyph unicode="&#xe908;" glyph-name="radiator" d="M1015.379 108.934c0.141 1.051 0.621 1.98 0.621 3.066v96c0 1.086-0.48 2.016-0.621 3.066-0.211 1.594-0.414 3.113-0.93 4.609-0.508 1.484-1.211 2.781-1.988 4.117-0.766 1.332-1.523 2.59-2.531 3.75-1.012 1.168-2.148 2.094-3.363 3.047-1.203 0.945-2.375 1.824-3.758 2.531-1.437 0.738-2.949 1.172-4.539 1.613-0.992 0.277-1.816 0.867-2.863 1.016l-112 16c-0.609 0.098-1.156-0.133-1.762-0.082-0.574 0.039-1.062 0.332-1.645 0.332-0.934 0-1.73-0.426-2.637-0.531-1.922-0.195-3.742-0.469-5.508-1.113-1.063-0.387-1.992-0.914-2.98-1.445-1.723-0.922-3.32-1.902-4.766-3.215-0.914-0.816-1.625-1.746-2.402-2.691-1.109-1.367-2.121-2.719-2.914-4.32-0.691-1.363-1.082-2.805-1.504-4.305-0.285-1.027-0.887-1.891-1.039-2.973-0.082-0.582 0.137-1.113 0.098-1.691-0.043-0.598-0.348-1.105-0.348-1.715v-40h-32v512h56c13.25 0 24 10.75 24 24s-10.75 24-24 24h-56v120c0 13.25-10.75 24-24 24h-768c-13.25 0-24-10.75-24-24v-832c0-13.25 10.75-24 24-24h768c13.25 0 24 10.75 24 24v104h32v-40c0-0.609 0.305-1.117 0.348-1.715 0.039-0.578-0.18-1.109-0.098-1.691 0.074-0.516 0.59-0.77 0.695-1.27 1.047-5.098 3.375-9.609 7.094-12.973 0.453-0.41 0.945-0.59 1.43-0.965 4.055-3.168 8.922-5.355 14.461-5.371 0.016 0 0.023-0.016 0.039-0.016 0.008 0 0.016 0 0.023 0 0.004 0 0.004 0 0.008 0 0.008 0 0.012 0.004 0.020 0.004 1.109 0 2.246 0.063 3.387 0.246l112 16c1.047 0.148 1.871 0.738 2.863 1.016 1.59 0.441 3.102 0.875 4.539 1.613 1.383 0.707 2.555 1.586 3.758 2.531 1.215 0.953 2.352 1.879 3.363 3.047 1.008 1.16 1.766 2.418 2.531 3.75 0.777 1.336 1.48 2.633 1.988 4.117 0.516 1.496 0.719 3.016 0.93 4.609zM776 792h-144v48h144v-48zM776 696h-144v48h144v-48zM248 744h144v-48h-144v48zM200 696h-144v48h144v-48zM440 744h144v-48h-144v48zM584 792h-144v48h144v-48zM392 792h-144v48h144v-48zM200 792h-144v48h144v-48zM56 648h144v-592h-144v592zM248 648h144v-592h-144v592zM440 648h144v-592h-144v592zM632 648h144v-592h-144v592zM904 196.336l64-9.145v-54.383l-64-9.145v72.672z" />
<glyph unicode="&#xe909;" glyph-name="electric-radiator" d="M1016 672c0 13.25-10.75 24-24 24v40c0 13.25-10.75 24-24 24s-24-10.75-24-24v-40h-32v40c0 13.25-10.75 24-24 24s-24-10.75-24-24v-40c-13.25 0-24-10.75-24-24v-64c0-3.316 0.676-6.477 1.895-9.352 4.066-23.102 21.652-40.688 44.754-44.754 2.875-1.219 6.035-1.895 9.352-1.895h8v-392c0-22.063-17.937-40-40-40h-104v744c0 13.25-10.75 24-24 24h-704c-13.25 0-24-10.75-24-24v-832c0-13.25 10.75-24 24-24h704c13.25 0 24 10.75 24 24v40h104c48.531 0 88 39.469 88 88v392h8c3.316 0 6.477 0.676 9.352 1.895 23.105 4.059 40.699 21.652 44.758 44.758 1.219 2.871 1.891 6.031 1.891 9.348v64zM232 744h128v-48h-128v48zM184 696h-128v48h128v-48zM408 744h128v-48h-128v48zM584 744h128v-48h-128v48zM712 792h-128v48h128v-48zM536 792h-128v48h128v-48zM360 792h-128v48h128v-48zM184 792h-128v48h128v-48zM56 648h128v-592h-128v592zM232 648h128v-592h-128v592zM408 648h128v-592h-128v592zM584 648h128v-592h-128v592zM896 600c-4.406 0-8 3.594-8 8v40h80v-40c0-4.406-3.594-8-8-8h-64z" />
<glyph unicode="&#xe90a;" glyph-name="convector" d="M1016 736c0 13.25-10.75 24-24 24v40c0 13.25-10.75 24-24 24s-24-10.75-24-24v-40h-32v40c0 13.25-10.75 24-24 24s-24-10.75-24-24v-40c-13.25 0-24-10.75-24-24v-64c0-3.316 0.676-6.477 1.895-9.352 4.066-23.102 21.652-40.688 44.754-44.754 2.875-1.219 6.035-1.895 9.352-1.895h8v-328c0-22.063-17.937-40-40-40h-104v488c0 48.531-39.5 88-88 88h-576c-48.5 0-88-39.469-88-88v-576c0-13.25 10.75-24 24-24h40v-40c0-13.25 10.75-24 24-24s24 10.75 24 24v40h528v-40c0-13.25 10.75-24 24-24s24 10.75 24 24v40h40c13.25 0 24 10.75 24 24v40h104c48.5 0 88 39.469 88 88v328h8c3.316 0 6.477 0.676 9.352 1.895 23.105 4.059 40.699 21.652 44.758 44.758 1.219 2.871 1.891 6.031 1.891 9.348v64zM96 776h576c22.063 0 40-17.937 40-40v-552h-656v552c0 22.063 17.937 40 40 40zM896 664c-4.437 0-8 3.594-8 8v40h80v-40c0-4.406-3.563-8-8-8h-64zM160 648h160c13.25 0 24 10.75 24 24s-10.75 24-24 24h-160c-13.25 0-24-10.75-24-24s10.75-24 24-24zM448 648h160c13.25 0 24 10.75 24 24s-10.75 24-24 24h-160c-13.25 0-24-10.75-24-24s10.75-24 24-24zM160 552h160c13.25 0 24 10.75 24 24s-10.75 24-24 24h-160c-13.25 0-24-10.75-24-24s10.75-24 24-24zM448 552h160c13.25 0 24 10.75 24 24s-10.75 24-24 24h-160c-13.25 0-24-10.75-24-24s10.75-24 24-24zM160 456h160c13.25 0 24 10.75 24 24s-10.75 24-24 24h-160c-13.25 0-24-10.75-24-24s10.75-24 24-24zM448 456h160c13.25 0 24 10.75 24 24s-10.75 24-24 24h-160c-13.25 0-24-10.75-24-24s10.75-24 24-24z" />
<glyph unicode="&#xe90b;" glyph-name="oil-radiator" d="M1016 768c0 13.25-10.75 24-24 24v40c0 13.25-10.75 24-24 24s-24-10.75-24-24v-40h-32v40c0 13.25-10.75 24-24 24s-24-10.75-24-24v-40c-13.25 0-24-10.75-24-24v-64c0-3.316 0.676-6.477 1.895-9.352 4.066-23.102 21.652-40.688 44.754-44.754 2.875-1.219 6.035-1.895 9.352-1.895h8v-328c0-22.063-17.937-40-40-40h-104v400h8c13.25 0 24 10.75 24 24s-10.75 24-24 24h-8v40c0 48.531-39.5 88-88 88h-64c-13.25 0-24-10.75-24-24v-72h-48v72c0 13.25-10.75 24-24 24s-24-10.75-24-24v-72h-48v72c0 13.25-10.75 24-24 24s-24-10.75-24-24v-72h-48v72c0 13.25-10.75 24-24 24s-24-10.75-24-24v-72h-48v72c0 13.25-10.75 24-24 24s-24-10.75-24-24v-72h-48v72c0 13.25-10.75 24-24 24s-24-10.75-24-24v-72h-48v72c0 13.25-10.75 24-24 24s-24-10.75-24-24v-640c0-13.25 10.75-24 24-24s24 10.75 24 24v72h48v-72c0-4.512 1.582-8.496 3.75-12.102-29.656-8.906-51.75-35.391-51.75-67.898 0-39.688 32.312-72 72-72s72 32.312 72 72c0 32.508-22.094 58.992-51.75 67.898 2.168 3.605 3.75 7.59 3.75 12.102v72h48v-72c0-13.25 10.75-24 24-24s24 10.75 24 24v72h48v-72c0-13.25 10.75-24 24-24s24 10.75 24 24v72h48v-72c0-13.25 10.75-24 24-24s24 10.75 24 24v72h48v-72c0-13.25 10.75-24 24-24s24 10.75 24 24v72h48v-72c0-4.512 1.582-8.496 3.75-12.102-29.656-8.906-51.75-35.391-51.75-67.898 0-39.688 32.312-72 72-72s72 32.312 72 72c0 23.129-11.688 42.816-28.699 56h84.699c13.25 0 24 10.75 24 24v40h104c48.5 0 88 39.469 88 88v328h8c3.316 0 6.477 0.676 9.352 1.895 23.105 4.059 40.699 21.652 44.758 44.758 1.219 2.871 1.891 6.031 1.891 9.348v64zM128 88c-13.25 0-24 10.781-24 24s10.75 24 24 24 24-10.781 24-24-10.75-24-24-24zM712 768v-552h-80v592h40c22.063 0 40-17.937 40-40zM56 312v400h48v-400h-48zM152 312v400h48v-400h-48zM248 312v400h48v-400h-48zM344 312v400h48v-400h-48zM440 312v400h48v-400h-48zM536 312v400h48v-400h-48zM608 88c-13.25 0-24 10.781-24 24s10.75 24 24 24 24-10.781 24-24-10.75-24-24-24zM896 696c-4.437 0-8 3.594-8 8v40h80v-40c0-4.406-3.563-8-8-8h-64z" />
<glyph unicode="&#xe90c;" glyph-name="infrared-heater" d="M992 888h-960c-13.25 0-24-10.75-24-24v-384c0-13.25 10.75-24 24-24h456v-400h-264c-13.25 0-24-10.75-24-24s10.75-24 24-24h576c13.25 0 24 10.75 24 24s-10.75 24-24 24h-264v400h456c13.25 0 24 10.75 24 24v384c0 13.25-10.75 24-24 24zM184 504v80h656v-80h-656zM184 712h656v-80h-656v80zM840 760h-656v80h656v-80zM136 504h-80v336h80v-336zM888 840h80v-336h-80v336z" />
<glyph unicode="&#xe90d;" glyph-name="carbon-heater" d="M768-8h-232v80h168c13.25 0 24 10.75 24 24v832c0 13.25-10.75 24-24 24h-384c-13.25 0-24-10.75-24-24v-832c0-13.25 10.75-24 24-24h168v-80h-232c-13.25 0-24-10.75-24-24s10.75-24 24-24h512c13.25 0 24 10.75 24 24s-10.75 24-24 24zM472 312v464h80v-464h-80zM344 312v464h80v-464h-80zM600 776h80v-464h-80v464zM680 824h-336v80h336v-80zM344 264h336v-144h-336v144zM536.312 192c0 13.25-10.75 24-24 24h-0.625c-13.25 0-23.688-10.75-23.688-24s11.063-24 24.312-24 24 10.75 24 24z" />
<glyph unicode="&#xe90e;" glyph-name="halogen-heater" d="M864-8h-200v80h104c48.531 0 88 39.469 88 88v704c0 48.531-39.469 88-88 88h-512c-48.531 0-88-39.469-88-88v-704c0-48.531 39.469-88 88-88h104v-80h-200c-13.25 0-24-10.75-24-24s10.75-24 24-24h704c13.25 0 24 10.75 24 24s-10.75 24-24 24zM216 160v704c0 22.063 17.937 40 40 40h512c22.063 0 40-17.937 40-40v-704c0-22.063-17.937-40-40-40h-512c-22.063 0-40 17.937-40 40zM408 72h208v-80h-208v80zM288 264h448c13.25 0 24 10.75 24 24v512c0 13.25-10.75 24-24 24h-448c-13.25 0-24-10.75-24-24v-512c0-13.25 10.75-24 24-24zM712 520v-80h-400v80h400zM312 568v80h400v-80h-400zM712 392v-80h-400v80h400zM712 696h-400v80h400v-80zM544 216h-64c-13.25 0-24-10.75-24-24s10.75-24 24-24h64c13.25 0 24 10.75 24 24s-10.75 24-24 24z" />
<glyph unicode="&#xe90f;" glyph-name="gas-heater" d="M800 952h-576c-48.531 0-88-39.469-88-88v-832c0-13.25 10.75-24 24-24h40v-40c0-13.25 10.75-24 24-24s24 10.75 24 24v40h528v-40c0-13.25 10.75-24 24-24s24 10.75 24 24v40h40c13.25 0 24 10.75 24 24v832c0 48.531-39.469 88-88 88zM224 904h576c22.063 0 40-17.937 40-40v-808h-656v808c0 22.063 17.937 40 40 40zM272 712c13.25 0 24 10.75 24 24v64c0 13.25-10.75 24-24 24s-24-10.75-24-24v-64c0-13.25 10.75-24 24-24zM368 712c13.25 0 24 10.75 24 24v64c0 13.25-10.75 24-24 24s-24-10.75-24-24v-64c0-13.25 10.75-24 24-24zM464 712c13.25 0 24 10.75 24 24v64c0 13.25-10.75 24-24 24s-24-10.75-24-24v-64c0-13.25 10.75-24 24-24zM560 712c13.25 0 24 10.75 24 24v64c0 13.25-10.75 24-24 24s-24-10.75-24-24v-64c0-13.25 10.75-24 24-24zM656 712c13.25 0 24 10.75 24 24v64c0 13.25-10.75 24-24 24s-24-10.75-24-24v-64c0-13.25 10.75-24 24-24zM752 712c13.25 0 24 10.75 24 24v64c0 13.25-10.75 24-24 24s-24-10.75-24-24v-64c0-13.25 10.75-24 24-24zM272 136h480c13.25 0 24 10.75 24 24v384c0 13.25-10.75 24-24 24h-480c-13.25 0-24-10.75-24-24v-384c0-13.25 10.75-24 24-24zM568 312h-112v80h112v-80zM616 392h112v-80h-112v80zM408 312h-112v80h112v-80zM408 264v-80h-112v80h112zM456 264h112v-80h-112v80zM616 264h112v-80h-112v80zM728 440h-112v80h112v-80zM568 440h-112v80h112v-80zM408 440h-112v80h112v-80z" />
<glyph unicode="&#xe910;" glyph-name="kerosene-heater" d="M887.875 226.188l-61.621 677.812h37.746c13.25 0 24 10.75 24 24s-10.75 24-24 24h-704c-13.25 0-24-10.75-24-24s10.75-24 24-24h37.746l-61.621-677.812c-0.035-0.359 0.129-0.672 0.109-1.027-0.020-0.406-0.234-0.75-0.234-1.16v-256c0-13.25 10.75-24 24-24h704c13.25 0 24 10.75 24 24v256c0 0.41-0.215 0.754-0.234 1.16-0.020 0.355 0.145 0.668 0.109 1.027zM184 200h656v-208h-656v208zM376 712h272v-336h-272v336zM584 328v-80h-144v80h144zM778.109 904l59.637-656h-205.746v80h40c13.25 0 24 10.75 24 24v384c0 13.25-10.75 24-24 24h-320c-13.25 0-24-10.75-24-24v-384c0-13.25 10.75-24 24-24h40v-80h-205.746l59.637 656h532.219zM480.312 648c13.25 0 24 10.75 24 24s-10.75 24-24 24h-0.625c-13.25 0-23.688-10.75-23.688-24s11.063-24 24.312-24zM416.312 648c13.25 0 24 10.75 24 24s-10.75 24-24 24h-0.625c-13.25 0-23.688-10.75-23.688-24s11.063-24 24.312-24zM544.312 648c13.25 0 24 10.75 24 24s-10.75 24-24 24h-0.625c-13.25 0-23.688-10.75-23.688-24s11.063-24 24.312-24zM480.312 584c13.25 0 24 10.75 24 24s-10.75 24-24 24h-0.625c-13.25 0-23.688-10.75-23.688-24s11.063-24 24.312-24zM544.312 584c13.25 0 24 10.75 24 24s-10.75 24-24 24h-0.625c-13.25 0-23.688-10.75-23.688-24s11.063-24 24.312-24zM416.312 584c13.25 0 24 10.75 24 24s-10.75 24-24 24h-0.625c-13.25 0-23.688-10.75-23.688-24s11.063-24 24.312-24zM440.312 544c0 13.25-10.75 24-24 24h-0.625c-13.25 0-23.688-10.75-23.688-24s11.063-24 24.312-24 24 10.75 24 24zM480.312 520c13.25 0 24 10.75 24 24s-10.75 24-24 24h-0.625c-13.25 0-23.688-10.75-23.688-24s11.063-24 24.312-24zM544.312 520c13.25 0 24 10.75 24 24s-10.75 24-24 24h-0.625c-13.25 0-23.688-10.75-23.688-24s11.063-24 24.312-24zM512 168c-39.688 0-72-32.312-72-72s32.312-72 72-72 72 32.312 72 72-32.312 72-72 72zM512 72c-13.25 0-24 10.781-24 24s10.75 24 24 24 24-10.781 24-24-10.75-24-24-24zM608.312 648c13.25 0 24 10.75 24 24s-10.75 24-24 24h-0.625c-13.25 0-23.688-10.75-23.688-24s11.063-24 24.312-24zM608.312 584c13.25 0 24 10.75 24 24s-10.75 24-24 24h-0.625c-13.25 0-23.688-10.75-23.688-24s11.063-24 24.312-24zM608.312 520c13.25 0 24 10.75 24 24s-10.75 24-24 24h-0.625c-13.25 0-23.688-10.75-23.688-24s11.063-24 24.312-24z" />
<glyph unicode="&#xe911;" glyph-name="electric-fireplace" d="M928 888h-704c-48.531 0-88-39.469-88-88v-360h-40c-48.531 0-88-39.469-88-88v-192c0-48.531 39.469-88 88-88h456v-8c0-3.316 0.676-6.477 1.895-9.352 4.066-23.102 21.652-40.688 44.754-44.754 2.875-1.219 6.035-1.895 9.352-1.895h64c13.25 0 24 10.75 24 24h40c13.25 0 24 10.75 24 24s-10.75 24-24 24h-40v32h40c13.25 0 24 10.75 24 24s-10.75 24-24 24h-40c0 13.25-10.75 24-24 24h-64c-3.316 0-6.477-0.672-9.348-1.891-23.105-4.059-40.699-21.652-44.758-44.758-1.219-2.875-1.895-6.035-1.895-9.352v-8h-456c-22.063 0-40 17.937-40 40v192c0 22.063 17.937 40 40 40h40v-40c0-48.531 39.469-88 88-88h704c48.531 0 88 39.469 88 88v448c0 48.531-39.469 88-88 88zM648 56h-40c-4.406 0-8 3.594-8 8v64c0 4.406 3.594 8 8 8h40v-80zM531.094 733.094c39.645-23.906 68.906-85.895 68.906-157.094 0-13.25 10.75-24 24-24 3.527 0 6.816 0.855 9.836 2.223 18.816 4.297 30.383 18.594 38.125 32.73 7.125-23.254 17.77-40.793 28.070-56.266 15-22.5 27.969-41.969 27.969-82.688 0-41.676-19.234-78.563-48.844-103.527 0.234 2.527 0.844 4.93 0.844 7.527 0 32.875-13.594 53.25-24.5 69.625-14.063 21.094-24.219 36.312-8.719 82.781 0.437 1.32 0.285 2.641 0.488 3.969 0.195 1.23 0.73 2.34 0.73 3.625 0 0.316-0.168 0.574-0.18 0.887-0.070 1.789-0.582 3.43-1.035 5.133-0.359 1.348-0.531 2.727-1.109 3.965-0.656 1.422-1.672 2.578-2.594 3.852-0.891 1.227-1.633 2.516-2.734 3.551-1.051 0.988-2.371 1.633-3.605 2.43-1.406 0.906-2.715 1.879-4.305 2.48-0.312 0.121-0.523 0.375-0.844 0.484-1.293 0.422-2.574 0.266-3.871 0.469-1.262 0.207-2.402 0.75-3.723 0.75-0.469 0-0.898-0.133-1.367-0.137-0.434-0.023-0.836-0.082-1.266-0.129-82.574-1.445-149.367-68.824-149.367-151.734 0-16.031 2.656-31.020 7.18-44.754-33.293 24.812-55.18 64.129-55.18 108.754 0 45.656 24.937 78.156 51.344 112.563 33.941 44.266 71.266 93.82 55.75 172.531zM615.563 395c9.531-14.312 16.437-24.656 16.437-43 0-23.188-23.563-40-56-40-36.75 0-56 36.219-56 72 0 46.352 30.688 85.258 72.66 98.645-5.785-43.711 9.66-67.793 22.902-87.645zM928 312h-213.156c37.27 33.695 61.156 81.91 61.156 136 0 55.281-19.156 83.969-36.031 109.312-15 22.5-27.969 41.969-27.969 82.688 0 13.25-10.75 24-24 24-3.527 0-6.816-0.855-9.836-2.223-16.98-3.879-28.371-15.816-35.984-28.711-17.238 92.098-74.691 158.457-145.57 158.848-0.074 0-0.145 0.027-0.219 0.031-0.133 0-0.258 0.055-0.391 0.055-1.918 0-3.621-0.668-5.41-1.094-1.164-0.266-2.352-0.176-3.496-0.625-0.070-0.027-0.113-0.090-0.18-0.117-2.148-0.883-3.941-2.305-5.727-3.742-0.664-0.531-1.527-0.84-2.125-1.434-0.723-0.723-1.094-1.715-1.719-2.523-1.254-1.629-2.621-3.195-3.422-5.074-0.23-0.547-0.188-1.195-0.383-1.762-0.813-2.395-1.477-4.844-1.496-7.414 0-0.074-0.043-0.137-0.043-0.215 0-1.605 0.613-3.008 0.914-4.523 0.285-1.469 0.227-2.945 0.805-4.383 32.031-80.063 1.813-119.469-36.469-169.313-28.719-37.437-61.25-79.844-61.25-141.781 0-54.090 23.887-102.305 61.156-136h-213.156c-22.063 0-40 17.937-40 40v448c0 22.063 17.937 40 40 40h704c22.063 0 40-17.937 40-40v-448c0-22.063-17.937-40-40-40z" />
<glyph unicode="&#xe912;" glyph-name="fireplace-insert" d="M992 792h-960c-13.25 0-24-10.75-24-24v-640c0-13.25 10.75-24 24-24h960c13.25 0 24 10.75 24 24v640c0 13.25-10.75 24-24 24zM467.094 573.094c39.645-23.906 68.906-85.895 68.906-157.094 0-13.25 10.75-24 24-24 3.527 0 6.816 0.855 9.836 2.223 18.816 4.297 30.383 18.594 38.125 32.73 7.125-23.254 17.77-40.793 28.070-56.266 15-22.5 27.969-41.969 27.969-82.688 0-41.676-19.234-78.563-48.844-103.527 0.234 2.527 0.844 4.93 0.844 7.527 0 32.875-13.594 53.25-24.5 69.625-14.063 21.094-24.219 36.312-8.719 82.781 0.438 1.32 0.285 2.641 0.488 3.969 0.195 1.23 0.73 2.34 0.73 3.625 0 0.316-0.168 0.574-0.18 0.887-0.070 1.789-0.582 3.43-1.035 5.133-0.359 1.348-0.531 2.727-1.109 3.965-0.656 1.422-1.672 2.578-2.594 3.852-0.891 1.227-1.633 2.516-2.734 3.551-1.051 0.988-2.371 1.633-3.605 2.43-1.406 0.906-2.715 1.879-4.305 2.48-0.312 0.121-0.523 0.375-0.844 0.484-1.293 0.422-2.566 0.262-3.863 0.465-1.266 0.207-2.406 0.754-3.73 0.754-0.469 0-0.902-0.137-1.371-0.141-0.438-0.023-0.844-0.082-1.277-0.129-82.566-1.453-149.352-68.824-149.352-151.73 0-16.031 2.656-31.020 7.18-44.754-33.293 24.812-55.18 64.129-55.18 108.754 0 45.656 24.937 78.156 51.344 112.563 33.941 44.266 71.266 93.82 55.75 172.531zM551.563 235c9.531-14.312 16.437-24.656 16.437-43 0-23.188-23.563-40-56-40-36.75 0-56 36.219-56 72 0 46.352 30.688 85.258 72.66 98.645-5.785-43.711 9.66-67.793 22.902-87.645zM712 288c0 55.281-19.156 83.969-36.031 109.312-15 22.5-27.969 41.969-27.969 82.688 0 13.25-10.75 24-24 24-3.527 0-6.816-0.855-9.836-2.223-16.98-3.879-28.371-15.816-35.984-28.711-17.234 92.086-74.668 158.434-145.535 158.844-0.082 0-0.16 0.031-0.246 0.035-0.137 0-0.262 0.055-0.398 0.055-1.93 0-3.645-0.672-5.445-1.102-1.156-0.266-2.328-0.172-3.461-0.617-0.070-0.027-0.113-0.090-0.18-0.117-2.148-0.883-3.941-2.305-5.727-3.742-0.664-0.531-1.527-0.84-2.125-1.434-0.723-0.723-1.094-1.715-1.719-2.523-1.254-1.629-2.621-3.195-3.422-5.074-0.23-0.547-0.188-1.195-0.383-1.762-0.813-2.395-1.477-4.844-1.496-7.414 0-0.074-0.043-0.137-0.043-0.215 0-1.605 0.613-3.008 0.914-4.523 0.285-1.469 0.227-2.945 0.805-4.383 32.031-80.063 1.813-119.469-36.469-169.313-28.719-37.437-61.25-79.844-61.25-141.781 0-54.090 23.887-102.305 61.156-136h-317.156v592h912v-592h-317.156c37.27 33.695 61.156 81.91 61.156 136z" />
<glyph unicode="&#xe913;" glyph-name="fireplace" d="M288 120h448c48.531 0 88 39.469 88 88v352c0 48.531-39.469 88-88 88h-448c-48.531 0-88-39.469-88-88v-352c0-48.531 39.469-88 88-88zM480.902 490.727c27.078-21.191 46.379-65.738 46.379-116.32 0-13.25 10.75-24 24-24 3.488 0 6.75 0.82 9.742 2.16 12.723 3.152 21.754 11.078 28.078 20.262 5.996-15.301 13.824-27.191 20.867-37.547 12.312-18.031 22.031-32.281 22.031-63.281 0-28.437-11.844-54.207-30.926-73-1.074 25.484-11.668 41.781-20.543 54.781-11.063 16.219-18.375 26.938-6.531 61.656 0.449 1.312 0.305 2.629 0.516 3.953 0.215 1.285 0.766 2.449 0.766 3.797 0 0.293-0.152 0.531-0.164 0.82-0.062 1.785-0.59 3.426-1.039 5.129-0.352 1.344-0.508 2.73-1.078 3.973-0.648 1.418-1.672 2.57-2.586 3.84-0.887 1.23-1.617 2.539-2.719 3.582-1.020 0.969-2.324 1.59-3.523 2.375-1.434 0.941-2.77 1.945-4.395 2.566-0.277 0.105-0.461 0.336-0.746 0.434-1.336 0.457-2.676 0.312-4.023 0.527-1.262 0.207-2.406 0.754-3.727 0.754-0.391 0-0.75-0.109-1.141-0.113-0.449-0.023-0.875-0.086-1.324-0.133-69.844-1.324-126.285-57.27-126.285-126.129 0-8.246 0.992-16.090 2.5-23.668-20.273 18.937-33.031 45.422-33.031 74.855 0 34.75 18.969 58.937 40.937 86.906 25.672 32.699 55.688 72.223 47.965 131.82zM520.336 293.109c-2.41-32.691 10.449-51.586 20.539-66.359 7.594-11.125 12.594-18.469 12.594-31.563 0-15.75-17.437-27.188-41.469-27.188-28.5 0-41.469 27.375-41.469 52.812 0 32.57 20.609 60.48 49.805 72.297zM288 600h448c22.063 0 40-17.937 40-40v-352c0-22.063-17.937-40-40-40h-98.539c26.191 27.234 42.539 63.691 42.539 104 0 45.812-16.844 70.5-30.375 90.344-12.281 18.031-22 32.281-22 63.25 0 13.25-10.75 24-24 24-3.484 0-6.75-0.82-9.738-2.156-11.145-2.762-19.477-9.043-25.559-16.93-16.738 71.094-63.98 121.492-121.797 121.492-2.008 0-3.801-0.68-5.664-1.145-1.145-0.273-2.305-0.188-3.43-0.637-0.047-0.020-0.074-0.059-0.121-0.078-2.922-1.223-5.559-2.98-7.762-5.188-0.945-0.945-1.445-2.191-2.211-3.273-1.031-1.445-2.246-2.758-2.941-4.418-1.199-2.871-1.824-5.969-1.844-9.129 0-0.047-0.027-0.086-0.027-0.133 0-1.555 0.605-2.914 0.887-4.387 0.293-1.574 0.266-3.164 0.895-4.707 25.094-61.281 1.156-91.75-29.125-130.344-24-30.594-51.188-65.219-51.188-116.563 0-40.309 16.348-76.766 42.539-104h-98.539c-22.063 0-40 17.937-40 40v352c0 22.063 17.937 40 40 40zM992 712c13.25 0 24 10.75 24 24v128c0 13.25-10.75 24-24 24h-960c-13.25 0-24-10.75-24-24v-128c0-13.25 10.75-24 24-24h40v-656h-40c-13.25 0-24-10.75-24-24s10.75-24 24-24h960c13.25 0 24 10.75 24 24s-10.75 24-24 24h-40v656h40zM56 760v80h912v-80h-912zM904 56h-784v656h784v-656z" />
<glyph unicode="&#xe914;" glyph-name="fan" d="M920 544c0 224.969-183 408-408 408s-408-183.031-408-408c0-194.734 137.215-357.805 320-398.184v-57.816h-104c-48.5 0-88-39.469-88-88v-32c0-13.25 10.75-24 24-24h512c13.25 0 24 10.75 24 24v32c0 48.531-39.5 88-88 88h-104v57.816c182.789 40.379 320 203.449 320 398.184zM152 544c0 198.5 161.5 360 360 360s360-161.5 360-360-161.5-360-360-360-360 161.5-360 360zM552 64c0-13.25 10.75-24 24-24h128c22.063 0 40-17.937 40-40v-8h-464v8c0 22.063 17.937 40 40 40h128c13.25 0 24 10.75 24 24v74.023c13.168-1.289 26.496-2.023 40-2.023s26.832 0.734 40 2.023v-74.023zM632 416c0 21.883-8.609 42.328-22.77 58.227 7.684 10.672 13.344 22.707 17.207 35.59 5.797-5.922 12-14.121 19.437-24.41 19.75-27.375 44.312-61.406 90.125-61.406 66.188 0 120 53.844 120 120 0 120-109.812 120-216 120-21.898 0-42.332-8.625-58.227-22.77-10.668 7.684-22.699 13.344-35.582 17.207 5.922 5.789 14.129 11.984 24.434 19.406 27.312 19.75 61.375 44.344 61.375 90.156 0 66.156-53.812 120-120 120-120 0-120-109.812-120-216 0-21.898 8.625-42.328 22.77-58.227-7.684-10.672-13.344-22.707-17.207-35.59-5.797 5.922-12 14.121-19.437 24.41-19.75 27.375-44.312 61.406-90.125 61.406-66.188 0-120-53.844-120-120 0-120 109.812-120 216-120 21.883 0 42.324 8.621 58.223 22.77 10.672-7.684 22.699-13.344 35.586-17.207-5.922-5.789-14.129-11.984-24.434-19.406-27.312-19.75-61.375-44.344-61.375-90.156 0-66.156 53.812-120 120-120 120 0 120 109.812 120 216zM512 472c-39.688 0-72 32.312-72 72s32.312 72 72 72 72-32.312 72-72-32.312-72-72-72zM808 544c0-39.688-32.312-72-72-72-19.812 0-32.563 15.688-51.25 41.5-14.41 19.98-30.609 41.523-54.742 50.199-2.508 15.027-7.844 28.988-15.395 41.586 7.164 6.191 15.605 10.715 25.387 10.715 121.937 0 168-6.219 168-72zM512 840c39.688 0 72-32.312 72-72 0-19.844-15.688-32.594-41.5-51.25-19.977-14.41-41.52-30.625-50.199-54.742-15.016-2.504-28.961-7.836-41.551-15.379-6.207 7.172-10.75 15.609-10.75 25.371 0 121.937 6.188 168 72 168zM216 544c0 39.688 32.312 72 72 72 19.812 0 32.563-15.688 51.25-41.5 14.41-19.98 30.609-41.523 54.742-50.199 2.508-15.027 7.844-28.984 15.395-41.582-7.199-6.191-15.652-10.719-25.387-10.719-121.937 0-168 6.219-168 72zM440 320c0 19.844 15.688 32.594 41.5 51.25 19.977 14.41 41.52 30.625 50.199 54.742 15.027 2.504 28.977 7.84 41.574 15.391 6.203-7.18 10.727-15.633 10.727-25.383 0-121.937-6.188-168-72-168-39.688 0-72 32.312-72 72zM741.437 383.406c-18.812-26.812-42-49.969-68.875-68.781-10.812-7.625-13.437-22.594-5.812-33.437 4.625-6.656 12.063-10.219 19.625-10.219 4.812 0 9.563 1.406 13.812 4.344 31.375 22.063 58.5 49.156 80.5 80.531 7.625 10.844 5 25.812-5.812 33.437-10.875 7.562-25.875 5-33.437-5.875zM262.937 694.375c7.563 0 15 3.563 19.625 10.219 18.812 26.812 42 49.969 68.875 68.781 10.813 7.625 13.438 22.594 5.813 33.437-7.625 10.875-22.563 13.437-33.438 5.875-31.375-22.063-58.5-49.156-80.5-80.531-7.625-10.844-5-25.812 5.812-33.437 4.25-2.938 9-4.344 13.812-4.344zM679.5 361.125c8 7.312 15.5 15.125 22.437 23.375 8.563 10.125 7.312 25.281-2.812 33.844-10.125 8.469-25.25 7.281-33.812-2.844-5.688-6.688-11.688-13-18.188-18.937-9.812-8.937-10.5-24.125-1.5-33.906 4.688-5.188 11.188-7.812 17.688-7.812 5.812 0 11.563 2.063 16.188 6.281zM322.063 703.5c-8.563-10.125-7.312-25.281 2.812-33.844 4.5-3.781 10-5.656 15.5-5.656 6.812 0 13.563 2.906 18.312 8.5 5.688 6.688 11.688 13 18.188 18.937 9.812 8.937 10.5 24.125 1.5 33.906-8.875 9.781-24.063 10.406-33.875 1.531-8-7.312-15.5-15.125-22.437-23.375zM282.563 383.406c-7.563 10.875-22.5 13.437-33.438 5.875-10.812-7.625-13.437-22.594-5.812-33.437 22-31.375 49.125-58.469 80.5-80.531 4.25-2.937 9-4.344 13.812-4.344 7.563 0 15 3.563 19.625 10.219 7.625 10.844 5 25.812-5.812 33.437-26.875 18.812-50.062 41.969-68.875 68.781zM741.437 704.594c4.625-6.656 12.063-10.219 19.625-10.219 4.812 0 9.563 1.406 13.812 4.344 10.812 7.625 13.437 22.594 5.812 33.437-22 31.375-49.125 58.469-80.5 80.531-10.937 7.563-25.875 5-33.437-5.875-7.625-10.844-5-25.812 5.812-33.437 26.875-18.812 50.063-41.969 68.875-68.781zM364.625 408.844c-9 9.844-24.063 10.437-33.937 1.531-9.812-8.938-10.5-24.125-1.563-33.906 7.312-7.969 15.125-15.5 23.438-22.469 4.5-3.75 10-5.594 15.437-5.594 6.875 0 13.625 2.937 18.375 8.594 8.563 10.156 7.188 25.281-2.937 33.812-6.688 5.594-13 11.625-18.813 18.031zM659.375 679.156c4.75-5.188 11.25-7.812 17.75-7.812 5.812 0 11.563 2.063 16.188 6.281 9.812 8.937 10.5 24.125 1.563 33.906-7.312 7.969-15.125 15.5-23.437 22.469-10.25 8.531-25.312 7.156-33.812-3-8.563-10.156-7.188-25.281 2.937-33.812 6.687-5.594 13-11.625 18.812-18.031z" />
<glyph unicode="&#xe915;" glyph-name="fan-heater" d="M512 952c-254.937 0-440-279.25-440-664 0-166.75 53.25-344 152-344h576c98.75 0 152 177.25 152 344 0 384.75-185.063 664-440 664zM800-8h-576c-49.063 0-104 126.594-104 296 0 351.188 168.5 616 392 616s392-264.812 392-616c0-169.406-54.937-296-104-296zM671.699 682.594c-3.617 3.891-8.211 6.23-13.117 7.129-10.547 5.676-20.953 11.422-32.18 15.875-3.395 2.316-7.441 3.551-11.949 3.719-32.258 11.312-66.379 18.684-102.453 18.684-36.102 0-70.25-7.379-102.527-18.707-4.367-0.199-8.301-1.402-11.652-3.625-11.359-4.492-21.895-10.285-32.559-16.031-4.781-0.922-9.246-3.203-12.824-6.969-29.844-17.93-56.012-40.637-78.297-67.16-3.91-2.531-7.359-5.84-9.266-10.477-0.137-0.324-0.078-0.664-0.199-0.988-25.066-32.879-43.668-70.527-54.133-111.766-1.609-2.992-2.668-6.234-3.035-9.754-4.695-21.484-7.508-43.652-7.508-66.523 0-23.262 2.984-45.758 7.836-67.582 0.402-2.664 1.105-5.133 2.316-7.445 19.477-78.176 67.91-144.656 133.906-187.086 2.551-2.234 5.512-3.836 8.895-4.832 46.742-27.957 100.727-45.055 159.047-45.055s112.309 17.094 159.047 45.051c3.383 0.996 6.34 2.598 8.898 4.836 65.988 42.43 114.422 108.91 133.898 187.078 1.215 2.32 1.922 4.793 2.324 7.465 4.848 21.816 7.832 44.312 7.832 67.57 0 23.133-2.93 45.52-7.727 67.23-0.426 2.879-1.18 5.613-2.527 8.129-10.414 41.598-29.164 79.551-54.422 112.68-0.121 0.328-0.063 0.668-0.199 0.992-1.906 4.637-5.355 7.945-9.266 10.477-22.254 26.484-48.371 49.168-78.16 67.086zM776 416c0-14.844-2.020-29.168-4.387-43.352-41.016-6.078-71.918-23.309-98.754-44.191l-6.145 61.43c4.141 3.395 8.594 6.766 12.598 10.113 29.164 24.402 55.734 45.094 93 52.449 1.684-12.023 3.688-23.969 3.688-36.449zM512 248c-52.297 0-85.367 20.051-116.238 44.43l6.57 65.68c28.898-17.078 63.109-30.109 109.668-30.109s80.77 13.031 109.668 30.109l6.57-65.68c-30.871-24.379-63.941-44.43-116.238-44.43zM248 416c0 12.48 2.004 24.426 3.688 36.449 37.266-7.355 63.836-28.047 93-52.449 4.004-3.348 8.457-6.719 12.598-10.113l-6.145-61.43c-26.836 20.883-57.738 38.117-98.754 44.191-2.367 14.184-4.387 28.508-4.387 43.352zM293.863 564.363c17.664-10.109 34.145-22.438 50.824-36.363 7.77-6.504 16.066-13.113 24.453-19.645l-6.152-61.477c-27.809 22.836-58.516 43.539-100.312 52.148 7.77 23.23 17.633 45.469 31.188 65.336zM512 584c34.105 0 61.414 7.164 85.312 17.531l6.98-69.777c-24.859-15.949-52.934-27.754-92.293-27.754s-67.434 11.809-92.293 27.758l6.98 69.785c23.898-10.375 51.211-17.543 85.312-17.543zM512 456c39.977 0 71.227 9.375 97.594 22.805l6.734-67.312c-27.715-20.094-58.621-35.492-104.328-35.492s-76.609 15.398-104.328 35.492l6.734 67.312c26.367-13.43 57.617-22.805 97.594-22.805zM661.012 446.879l-6.152 61.477c8.387 6.531 16.684 13.141 24.453 19.645 16.68 13.926 33.16 26.254 50.824 36.363 13.555-19.867 23.418-42.105 31.188-65.336-41.793-8.613-72.504-29.313-100.312-52.148zM699.246 601.785c-17.965-11.215-34.629-23.57-50.082-36.496l-6.211 62.094c4.344 3.117 8.387 6.406 12.535 9.645 15.781-10.281 30.543-21.926 43.758-35.242zM590.801 666.641l1.43-14.297c-22.051-12.070-46.965-20.344-80.23-20.344-33.23 0-58.152 8.262-80.23 20.328l1.43 14.312c25.047 7.906 51.176 13.359 78.801 13.359s53.754-5.453 78.801-13.359zM368.531 637.039c4.141-3.234 8.184-6.512 12.52-9.625l-6.215-62.125c-15.453 12.926-32.117 25.281-50.082 36.496 13.219 13.32 27.988 24.973 43.777 35.254zM266.211 321.602c30.082-9.445 53.086-28.359 78.477-49.602 0.238-0.199 0.508-0.398 0.746-0.598l-5.41-54.047c-32.461 28.141-58.098 63.488-73.812 104.246zM385.109 185.953l5.18 51.785c31.211-20.82 68.465-37.738 121.711-37.738s90.5 16.918 121.711 37.738l5.18-51.785c-37.828-20.961-80.668-33.953-126.891-33.953s-89.063 12.992-126.891 33.953zM683.977 217.355l-5.41 54.047c0.238 0.199 0.508 0.398 0.746 0.598 25.391 21.242 48.395 40.156 78.477 49.602-15.715-40.758-41.352-76.105-73.812-104.246zM256 168c-39.688 0-72-32.312-72-72s32.312-72 72-72 72 32.312 72 72-32.312 72-72 72zM256 72c-13.25 0-24 10.781-24 24s10.75 24 24 24 24-10.781 24-24-10.75-24-24-24zM768 168c-39.688 0-72-32.312-72-72s32.312-72 72-72 72 32.312 72 72-32.312 72-72 72zM768 72c-13.25 0-24 10.781-24 24s10.75 24 24 24 24-10.781 24-24-10.75-24-24-24zM512 768c43.188 0 73.812 6.625 93.625 20.219 10.875 7.531 13.688 22.469 6.125 33.406-7.5 10.906-22.375 13.625-33.375 6.156-6.375-4.406-23.5-11.781-66.375-11.781s-60 7.375-66.375 11.781c-11 7.469-25.937 4.75-33.375-6.156-7.562-10.937-4.75-25.875 6.125-33.406 19.812-13.594 50.437-20.219 93.625-20.219z" />
<glyph unicode="&#xe916;" glyph-name="forced-air-heater" d="M992 632h-104v40c0 48.531-39.5 88-88 88h-128c-75.594 0-137.969-55.625-149.574-128h-490.426c-13.25 0-24-10.75-24-24v-256c0-13.25 10.75-24 24-24h488v-168c0-13.25 10.75-24 24-24h320c13.25 0 24 10.75 24 24v168h104c13.25 0 24 10.75 24 24v256c0 13.25-10.75 24-24 24zM672 712h128c22.063 0 40-17.937 40-40v-40h-268.93c10.895 45.766 51.855 80 100.93 80zM840 392v-208h-272v208h272zM888 416c0 13.25-10.75 24-24 24h-320c-13.25 0-24-10.75-24-24v-40h-464v208h912v-208h-80v40zM736.312 264c13.25 0 24 10.75 24 24s-10.75 24-24 24h-0.625c-13.25 0-23.688-10.75-23.688-24s11.063-24 24.312-24z" />
<glyph unicode="&#xe917;" glyph-name="warm-floor" d="M896 424c66.156 0 120 53.844 120 120s-53.844 120-120 120h-40v144h40c66.156 0 120 53.844 120 120 0 13.25-10.75 24-24 24s-24-10.75-24-24c0-39.688-32.312-72-72-72h-40v72c0 13.25-10.75 24-24 24s-24-10.75-24-24v-72h-272v72c0 13.25-10.75 24-24 24s-24-10.75-24-24v-72h-272v72c0 13.25-10.75 24-24 24s-24-10.75-24-24v-72h-40c-66.156 0-120-53.844-120-120s53.844-120 120-120h40v-144h-40c-66.156 0-120-53.844-120-120s53.844-120 120-120h40v-144h-40c-66.156 0-120-53.844-120-120 0-13.25 10.75-24 24-24s24 10.75 24 24c0 39.688 32.312 72 72 72h40v-72c0-13.25 10.75-24 24-24s24 10.75 24 24v72h272v-72c0-13.25 10.75-24 24-24s24 10.75 24 24v72h272v-72c0-13.25 10.75-24 24-24s24 10.75 24 24v72h40c66.156 0 120 53.844 120 120s-53.844 120-120 120h-40v144h40zM896 616c39.688 0 72-32.312 72-72s-32.312-72-72-72h-40v144h40zM808 472h-272v144h272v-144zM808 808v-144h-272v144h272zM488 808v-144h-272v144h272zM128 664c-39.688 0-72 32.312-72 72s32.312 72 72 72h40v-144h-40zM216 616h272v-144h-272v144zM488 424v-144h-272v144h272zM128 280c-39.688 0-72 32.312-72 72s32.312 72 72 72h40v-144h-40zM216 88v144h272v-144h-272zM536 88v144h272v-144h-272zM896 232c39.688 0 72-32.312 72-72s-32.312-72-72-72h-40v144h40zM808 280h-272v144h272v-144z" />
<glyph unicode="&#xe918;" glyph-name="heating" d="M1009.734 400.168c3.789 4.242 6.266 9.699 6.266 15.832 0 0.199-0.109 0.363-0.113 0.563-0.008 0.309-0.152 0.543-0.172 0.855-0.383 6.238-2.984 11.828-7.234 15.879-0.066 0.063-0.039 0.172-0.105 0.234l-184.375 172.070v194.398c0 13.25-10.75 24-24 24h-128c-13.25 0-24-10.75-24-24v-30.125l-119.625 111.656c-2.223 2.086-5.227 1.891-7.883 2.969-2.914 1.195-5.383 3.207-8.492 3.203-3.109 0.004-5.578-2.008-8.492-3.203-2.656-1.078-5.66-0.883-7.883-2.969l-480-448c-0.066-0.063-0.039-0.172-0.105-0.234-4.25-4.051-6.852-9.641-7.234-15.879-0.020-0.313-0.164-0.547-0.172-0.855-0.004-0.199-0.113-0.363-0.113-0.563 0-6.133 2.477-11.59 6.266-15.832 0.137-0.156 0.059-0.391 0.203-0.543 0.090-0.098 0.219-0.121 0.309-0.215 2.098-2.18 4.598-3.922 7.387-5.188 0.168-0.074 0.297-0.242 0.465-0.312 2.879-1.227 6.043-1.91 9.371-1.91h104v-360c0-13.25 10.75-24 24-24h704c13.25 0 24 10.75 24 24v360h104c3.328 0 6.492 0.684 9.371 1.91 0.168 0.070 0.297 0.238 0.465 0.312 2.789 1.266 5.289 3.008 7.387 5.188 0.090 0.094 0.219 0.117 0.309 0.215 0.145 0.152 0.066 0.387 0.203 0.543zM864 440c-13.25 0-24-10.75-24-24v-360h-656v360c0 13.25-10.75 24-24 24h-67.129l419.129 391.184 143.625-134.059c0.164-0.152 0.414-0.082 0.582-0.23 4.242-3.77 9.68-6.238 15.793-6.238 3.328 0 6.492 0.684 9.371 1.91 0.168 0.070 0.297 0.238 0.465 0.312 2.789 1.266 5.289 3.008 7.387 5.188 0.090 0.094 0.219 0.117 0.309 0.215 0.145 0.152 0.066 0.387 0.203 0.543 3.789 4.242 6.266 9.699 6.266 15.832v61.344h80v-180.812c0-0.199 0.109-0.363 0.113-0.563 0.008-0.309 0.152-0.543 0.172-0.855 0.383-6.238 2.984-11.828 7.234-15.879 0.066-0.063 0.039-0.172 0.105-0.234l147.5-137.656h-67.125zM406.031 489.531c-5.281 12.156-19.438 17.75-31.563 12.5-12.156-5.281-17.75-19.406-12.5-31.563 23.594-54.469 13.188-78.5 0-108.937-14.906-34.469-31.844-73.531 0-147.063 3.938-9.062 12.75-14.469 22.031-14.469 3.188 0 6.437 0.625 9.531 1.969 12.156 5.281 17.75 19.406 12.5 31.563-23.594 54.469-13.188 78.5 0 108.937 14.906 34.469 31.844 73.531 0 147.063zM534.031 489.531c-5.281 12.156-19.438 17.75-31.563 12.5-12.156-5.281-17.75-19.406-12.5-31.563 23.594-54.469 13.188-78.5 0-108.937-14.906-34.469-31.844-73.531 0-147.063 3.938-9.062 12.75-14.469 22.031-14.469 3.188 0 6.437 0.625 9.531 1.969 12.156 5.281 17.75 19.406 12.5 31.563-23.594 54.469-13.188 78.5 0 108.937 14.906 34.469 31.844 73.531 0 147.063zM662.031 489.531c-5.281 12.156-19.437 17.75-31.563 12.5-12.156-5.281-17.75-19.406-12.5-31.563 23.594-54.469 13.188-78.5 0-108.937-14.906-34.469-31.844-73.531 0-147.063 3.938-9.062 12.75-14.469 22.031-14.469 3.188 0 6.437 0.625 9.531 1.969 12.156 5.281 17.75 19.406 12.5 31.563-23.594 54.469-13.188 78.5 0 108.937 14.906 34.469 31.844 73.531 0 147.063z" />
<glyph unicode="&#xe919;" glyph-name="water-supply" d="M1009.801 400.266c3.742 4.23 6.199 9.645 6.199 15.734 0 0.203-0.113 0.371-0.117 0.574-0.008 0.297-0.145 0.52-0.164 0.816-0.379 6.25-2.98 11.852-7.238 15.906-0.066 0.063-0.039 0.172-0.105 0.234l-184.375 172.070v194.398c0 13.25-10.75 24-24 24h-128c-13.25 0-24-10.75-24-24v-30.125l-119.625 111.656c-2.184 2.043-5.145 1.832-7.754 2.902-2.953 1.223-5.465 3.238-8.621 3.23-3.156 0.008-5.668-2.008-8.621-3.23-2.609-1.070-5.57-0.859-7.754-2.902l-480-448c-0.066-0.063-0.039-0.172-0.105-0.234-4.258-4.055-6.859-9.656-7.238-15.906-0.020-0.297-0.156-0.52-0.164-0.816-0.004-0.203-0.117-0.371-0.117-0.574 0-6.090 2.457-11.504 6.199-15.734 0.16-0.184 0.070-0.461 0.238-0.641 0.105-0.113 0.258-0.145 0.367-0.258 1.973-2.035 4.344-3.609 6.926-4.852 0.324-0.156 0.574-0.473 0.902-0.613 2.879-1.223 6.043-1.902 9.367-1.902h104v-360c0-13.25 10.75-24 24-24h704c13.25 0 24 10.75 24 24v360h104c3.324 0 6.488 0.68 9.367 1.902 0.328 0.141 0.578 0.457 0.902 0.613 2.582 1.242 4.953 2.816 6.926 4.852 0.109 0.113 0.262 0.145 0.367 0.258 0.168 0.18 0.078 0.457 0.238 0.641zM864 440c-13.25 0-24-10.75-24-24v-360h-656v360c0 13.25-10.75 24-24 24h-67.129l419.129 391.184 143.625-134.059c0.164-0.152 0.414-0.082 0.582-0.23 4.242-3.77 9.68-6.238 15.793-6.238 3.324 0 6.488 0.68 9.367 1.902 0.328 0.141 0.578 0.457 0.902 0.613 2.582 1.242 4.953 2.816 6.926 4.852 0.109 0.113 0.262 0.145 0.367 0.258 0.168 0.18 0.078 0.457 0.238 0.641 3.742 4.23 6.199 9.645 6.199 15.734v61.344h80v-180.812c0-0.203 0.113-0.371 0.117-0.574 0.008-0.297 0.145-0.52 0.164-0.816 0.379-6.25 2.98-11.852 7.238-15.906 0.066-0.063 0.039-0.172 0.105-0.234l147.5-137.656h-67.125zM494.875 520.812c-81.125-82.531-118.875-148.25-118.875-206.812 0-76.094 61-138 136-138s136 61.906 136 138c0 58.563-37.75 124.281-118.875 206.812-9 9.188-25.25 9.188-34.25 0zM512 224c-48.5 0-88 40.375-88 90 0 40.156 29.563 92.344 88 155.281 58.437-62.937 88-115.125 88-155.281 0-49.625-39.5-90-88-90z" />
<glyph unicode="&#xe91a;" glyph-name="boiler" d="M736 952h-448c-48.531 0-88-39.469-88-88v-704c0-48.531 39.469-88 88-88h104v-104c0-13.25 10.75-24 24-24s24 10.75 24 24v104h144v-104c0-13.25 10.75-24 24-24s24 10.75 24 24v104h104c48.531 0 88 39.469 88 88v704c0 48.531-39.469 88-88 88zM408 288c0 22.063 17.937 40 40 40h128c22.063 0 40-17.937 40-40v-168h-208v168zM736 120h-72v168c0 48.531-39.469 88-88 88h-128c-48.531 0-88-39.469-88-88v-168h-72c-22.063 0-40 17.937-40 40v704c0 22.063 17.937 40 40 40h448c22.063 0 40-17.937 40-40v-704c0-22.063-17.937-40-40-40zM480 232h64c13.25 0 24 10.75 24 24s-10.75 24-24 24h-64c-13.25 0-24-10.75-24-24s10.75-24 24-24z" />
<glyph unicode="&#xe91b;" glyph-name="electric-boiler" d="M736 952h-448c-48.531 0-88-39.469-88-88v-704c0-48.531 39.469-88 88-88h104v-104c0-13.25 10.75-24 24-24s24 10.75 24 24v104h144v-104c0-13.25 10.75-24 24-24s24 10.75 24 24v104h104c48.531 0 88 39.469 88 88v704c0 48.531-39.469 88-88 88zM408 288c0 22.063 17.937 40 40 40h128c22.063 0 40-17.937 40-40v-168h-208v168zM736 120h-72v168c0 48.531-39.469 88-88 88h-128c-48.531 0-88-39.469-88-88v-168h-72c-22.063 0-40 17.937-40 40v704c0 22.063 17.937 40 40 40h448c22.063 0 40-17.937 40-40v-704c0-22.063-17.937-40-40-40zM480 232h64c13.25 0 24 10.75 24 24s-10.75 24-24 24h-64c-13.25 0-24-10.75-24-24s10.75-24 24-24zM599.336 643.289c-0.254 1.758-0.41 3.488-1.039 5.145-0.547 1.445-1.422 2.641-2.227 3.937-0.813 1.32-1.504 2.652-2.57 3.809-1.188 1.281-2.641 2.18-4.078 3.18-0.949 0.66-1.637 1.574-2.703 2.109-0.227 0.113-0.477 0.082-0.703 0.188-1.512 0.703-3.191 0.926-4.852 1.301-1.461 0.32-2.867 0.828-4.336 0.875-0.293 0.012-0.535 0.168-0.828 0.168h-89.172l46.641 93.281c5.937 11.844 1.125 26.25-10.75 32.188-11.781 5.906-26.25 1.094-32.188-10.75l-64-128c-0.113-0.227-0.086-0.477-0.191-0.707-0.66-1.418-0.867-3.004-1.238-4.555-0.379-1.602-0.914-3.141-0.961-4.75-0.008-0.25-0.141-0.457-0.141-0.707 0-1.168 0.504-2.168 0.664-3.289 0.254-1.758 0.41-3.488 1.039-5.145 0.547-1.445 1.422-2.641 2.227-3.937 0.812-1.32 1.504-2.652 2.57-3.809 1.188-1.281 2.641-2.18 4.078-3.18 0.949-0.66 1.637-1.574 2.703-2.109 0.211-0.105 0.441-0.059 0.652-0.156 3.020-1.41 6.309-2.297 9.855-2.332 0.063 0 0.117-0.043 0.18-0.043 0.004 0 0.008 0.004 0.012 0.004 0.008 0 0.012-0.004 0.020-0.004h89.172l-46.641-93.281c-5.938-11.844-1.125-26.25 10.75-32.188 3.438-1.719 7.094-2.531 10.688-2.531 8.812 0 17.281 4.844 21.5 13.281l64 128c0.113 0.227 0.086 0.477 0.191 0.707 0.66 1.418 0.867 3.004 1.238 4.555 0.379 1.602 0.914 3.141 0.961 4.75 0.008 0.25 0.141 0.457 0.141 0.707 0 1.168-0.504 2.168-0.664 3.289z" />
<glyph unicode="&#xe91c;" glyph-name="gas-boiler" d="M736 952h-448c-48.531 0-88-39.469-88-88v-704c0-48.531 39.469-88 88-88h104v-104c0-13.25 10.75-24 24-24s24 10.75 24 24v104h144v-104c0-13.25 10.75-24 24-24s24 10.75 24 24v104h104c48.531 0 88 39.469 88 88v704c0 48.531-39.469 88-88 88zM408 288c0 22.063 17.937 40 40 40h128c22.063 0 40-17.937 40-40v-168h-208v168zM736 120h-72v168c0 48.531-39.469 88-88 88h-128c-48.531 0-88-39.469-88-88v-168h-72c-22.063 0-40 17.937-40 40v704c0 22.063 17.937 40 40 40h448c22.063 0 40-17.937 40-40v-704c0-22.063-17.937-40-40-40zM480 232h64c13.25 0 24 10.75 24 24s-10.75 24-24 24h-64c-13.25 0-24-10.75-24-24s10.75-24 24-24zM598.812 792.531c0.414 1.266 0.246 2.527 0.445 3.801 0.199 1.246 0.742 2.367 0.742 3.668 0 0.344-0.18 0.629-0.195 0.969-0.074 1.77-0.574 3.387-1.023 5.070-0.363 1.359-0.551 2.746-1.137 3.996-0.668 1.441-1.695 2.617-2.633 3.902-0.883 1.199-1.621 2.465-2.711 3.48-1.059 0.996-2.371 1.645-3.617 2.441-1.414 0.906-2.738 1.855-4.332 2.453-0.328 0.121-0.547 0.391-0.883 0.5-1.297 0.426-2.574 0.262-3.875 0.461-1.223 0.191-2.32 0.727-3.594 0.727-0.441 0-0.844-0.141-1.281-0.145-0.645-0.035-1.234-0.133-1.867-0.215-110.605-1.941-196.852-102.801-196.852-231.641 0-75 61-136 136-136 76.25 0 136 52.719 136 120 0 44.531-18.375 70.406-34.594 93.25-21 29.562-37.594 52.937-14.594 123.281zM512 504c-48.531 0-88 39.469-88 88 0 89.832 50.652 162.59 119.98 179.949-13.301-68.586 10.473-102.57 30.301-130.48 14.375-20.25 25.719-36.25 25.719-65.469 0-35.406-32.906-72-88-72z" />
<glyph unicode="&#xe91d;" glyph-name="solid-fuel-boiler" d="M864 824h-488v104c0 13.25-10.75 24-24 24s-24-10.75-24-24v-104h-80v104c0 13.25-10.75 24-24 24s-24-10.75-24-24v-104h-40c-13.25 0-24-10.75-24-24v-736c0-13.25 10.75-24 24-24h104v-72c0-13.25 10.75-24 24-24h448c13.25 0 24 10.75 24 24v72h104c13.25 0 24 10.75 24 24v736c0 13.25-10.75 24-24 24zM184 88v688h656v-688h-656zM712-8h-400v48h400v-48zM704 696h-384c-13.25 0-24-10.75-24-24v-192c0-13.25 10.75-24 24-24h384c13.25 0 24 10.75 24 24v192c0 13.25-10.75 24-24 24zM680 648v-144h-336v144h336zM704 408h-384c-13.25 0-24-10.75-24-24v-192c0-13.25 10.75-24 24-24h384c13.25 0 24 10.75 24 24v192c0 13.25-10.75 24-24 24zM680 360v-144h-336v144h336z" />
<glyph unicode="&#xe91e;" glyph-name="water-heater" d="M736 952h-448c-48.5 0-88-39.469-88-88v-704c0-40.93 28.219-75.109 66.113-84.91 10.309-73.859 73.234-131.090 149.887-131.090h192c76.652 0 139.578 57.23 149.887 131.090 37.895 9.801 66.113 43.98 66.113 84.91v704c0 48.531-39.5 88-88 88zM608-8h-192c-49.074 0-90.035 34.234-100.93 80h393.859c-10.895-45.766-51.855-80-100.93-80zM736 120h-448c-22.063 0-40 17.937-40 40v704c0 22.063 17.937 40 40 40h448c22.063 0 40-17.937 40-40v-704c0-22.063-17.937-40-40-40zM512 760c-66.188 0-120-53.844-120-120s53.812-120 120-120 120 53.844 120 120-53.812 120-120 120zM512 568c-39.688 0-72 32.312-72 72 0 31.18 20.203 57.156 48 67.141v-35.141c0-13.25 10.75-24 24-24s24 10.75 24 24v35.141c27.797-9.984 48-35.961 48-67.141 0-39.688-32.312-72-72-72z" />
<glyph unicode="&#xe91f;" glyph-name="indirect-water-heater" d="M736 888h-104v40c0 13.25-10.75 24-24 24s-24-10.75-24-24v-40h-144v40c0 13.25-10.75 24-24 24s-24-10.75-24-24v-40h-104c-48.5 0-88-39.469-88-88v-768c0-48.531 39.5-88 88-88h448c48.5 0 88 39.469 88 88v768c0 48.531-39.5 88-88 88zM616 672c0-22.063-17.937-40-40-40h-128c-22.063 0-40 17.937-40 40v168h208v-168zM736-8h-448c-22.063 0-40 17.937-40 40v768c0 22.063 17.937 40 40 40h72v-168c0-48.531 39.5-88 88-88h128c48.5 0 88 39.469 88 88v168h72c22.063 0 40-17.937 40-40v-768c0-22.063-17.937-40-40-40zM544 728h-64c-13.25 0-24-10.75-24-24s10.75-24 24-24h64c13.25 0 24 10.75 24 24s-10.75 24-24 24z" />
<glyph unicode="&#xe920;" glyph-name="expansion-tank" d="M512 952c-327.156 0-376-135.344-376-216v-448c0-39.961 12.113-93.316 64-137.016v-182.984c0-13.25 10.75-24 24-24h96c3.578 0 6.902 0.895 9.953 2.301 0.867 0.395 1.531 1.086 2.352 1.586 2.172 1.336 4.129 2.848 5.77 4.785 0.324 0.379 0.812 0.516 1.113 0.922l91.437 121.93c25.207-2.074 51.781-3.523 81.375-3.523s56.168 1.449 81.375 3.523l91.437-121.93c0.301-0.406 0.789-0.543 1.113-0.922 1.641-1.937 3.598-3.449 5.77-4.785 0.82-0.5 1.484-1.191 2.352-1.586 3.051-1.406 6.375-2.301 9.953-2.301h96c13.25 0 24 10.75 24 24v182.984c51.887 43.699 64 97.055 64 137.016v448c0 80.656-48.844 216-376 216zM308.008-8h-60.008v127.793c32.484-16.332 74.598-29.395 127.512-37.781l-67.504-90.012zM776-8h-60.008l-67.504 90.012c52.914 8.387 95.027 21.449 127.512 37.781v-127.793zM512 120c-149.625 0-328 29.156-328 168v448c0 138.844 178.375 168 328 168s328-29.156 328-168v-448c0-138.844-178.375-168-328-168zM494.875 648.812c-81.094-82.531-118.875-148.25-118.875-206.812 0-76.094 61-138 136-138s136 61.906 136 138c0 58.563-37.781 124.281-118.875 206.812-9.062 9.188-25.188 9.188-34.25 0zM512 352c-48.531 0-88 40.375-88 90 0 40.156 29.594 92.344 88 155.281 58.406-62.937 88-115.125 88-155.281 0-49.625-39.469-90-88-90z" />
<glyph unicode="&#xe921;" glyph-name="solar-collector" d="M992 760h-704c-1.516 0-2.836-0.594-4.277-0.863-1.531-0.289-3.094-0.348-4.543-0.918-1.699-0.676-3.078-1.805-4.562-2.832-1.086-0.738-2.277-1.266-3.238-2.184-1.441-1.391-2.41-3.148-3.469-4.863-0.566-0.914-1.398-1.578-1.848-2.59l-256-576c-0.031-0.074-0.020-0.148-0.051-0.223-0.598-1.367-0.645-2.945-0.98-4.43-0.363-1.645-0.98-3.258-0.992-4.902 0-0.070-0.039-0.125-0.039-0.195 0-1.016 0.457-1.879 0.578-2.863 0.258-2.086 0.453-4.176 1.234-6.113 0.539-1.332 1.484-2.375 2.242-3.578 0.887-1.414 1.598-2.91 2.777-4.121 1.305-1.344 2.969-2.219 4.555-3.23 1-0.637 1.746-1.535 2.863-2.031 0.070-0.031 0.148-0.016 0.219-0.047 2.93-1.273 6.137-2.016 9.531-2.016h640c4.266 0 8.063 1.414 11.535 3.367 0.906 0.504 1.641 1.055 2.48 1.672 3.121 2.312 5.754 5.137 7.457 8.668 0.109 0.227 0.363 0.312 0.465 0.543l249.668 561.75h24.395v-552c0-13.25 10.75-24 24-24s24 10.75 24 24v576c0 13.25-10.75 24-24 24zM452.937 184l234.668 528h75.457l-234.668-528h-75.457zM324.937 184l234.668 528h75.457l-234.668-528h-75.457zM196.937 184l234.668 528h75.457l-234.668-528h-75.457zM68.937 184l234.668 528h75.457l-234.668-528h-75.457zM656.395 184h-75.457l234.668 528h75.457l-234.668-528z" />
<glyph unicode="&#xe922;" glyph-name="circulation-pump" d="M952 448c0 129.512-79.383 240.723-192 287.852v72.148h40c13.25 0 24 10.75 24 24v96c0 13.25-10.75 24-24 24h-320c-13.25 0-24-10.75-24-24v-96c0-13.25 10.75-24 24-24h40v-72.148c-24.34-10.188-46.445-24.129-67.211-39.852h-356.789c-13.25 0-24-10.75-24-24v-448c0-13.25 10.75-24 24-24h72v-104c0-13.25 10.75-24 24-24h128c13.25 0 24 10.75 24 24v104h108.789c20.766-15.723 42.871-29.664 67.211-39.852v-72.148h-40c-13.25 0-24-10.75-24-24v-96c0-13.25 10.75-24 24-24h320c13.25 0 24 10.75 24 24v96c0 13.25-10.75 24-24 24h-40v72.148c112.617 47.129 192 158.34 192 287.852zM904 448c0-145.563-118.437-264-264-264s-264 118.437-264 264 118.437 264 264 264 264-118.437 264-264zM120 248v400h282.559c-45.832-54.32-74.559-123.535-74.559-200s28.727-145.68 74.559-200h-282.559zM504 856v48h272v-48h-272zM568 808h144v-57.215c-23.215 5.531-47.113 9.215-72 9.215s-48.785-3.684-72-9.215v57.215zM296 120h-80v80h80v-80zM776 40v-48h-272v48h272zM712 88h-144v57.215c23.215-5.531 47.113-9.215 72-9.215s48.785 3.684 72 9.215v-57.215zM555.156 532.844c-22.688-22.656-35.156-52.781-35.156-84.844s12.5-62.188 35.156-84.844 52.781-35.156 84.844-35.156 62.188 12.5 84.844 35.156 35.156 52.781 35.156 84.844-12.5 62.188-35.156 84.844c-45.312 45.312-124.375 45.375-169.688 0zM589.094 498.906c13.594 13.594 31.688 21.094 50.906 21.094 10.855 0 21.059-2.945 30.586-7.477l-95.109-95.109c-4.531 9.527-7.477 19.73-7.477 30.586 0 19.219 7.5 37.312 21.094 50.906zM690.906 397.094c-21.25-21.25-54.582-25.328-81.234-13.359l94.852 94.852c4.531-9.527 7.477-19.73 7.477-30.586 0-19.219-7.5-37.312-21.094-50.906z" />
<glyph unicode="&#xe923;" glyph-name="drainage-pump" d="M495.031 496.969c-70.281-70.281-103.031-126.531-103.031-176.969 0-66.156 53.844-120 120-120s120 53.844 120 120c0 50.437-32.75 106.688-103.031 176.969-9.375 9.375-24.562 9.375-33.937 0zM512 248c-39.688 0-72 32.312-72 72 0 32.25 24.188 74.406 72 125.5 47.812-51.094 72-93.25 72-125.5 0-39.688-32.312-72-72-72zM800 584c13.25 0 24 10.75 24 24v128c0 13.25-10.75 24-24 24h-46.688l-58.531 175.594c-0.109 0.32-0.363 0.531-0.484 0.844-0.602 1.59-1.574 2.898-2.48 4.305-0.797 1.234-1.441 2.559-2.43 3.609-1.004 1.066-2.258 1.785-3.441 2.656-1.305 0.957-2.508 2.004-3.977 2.68-1.203 0.555-2.539 0.723-3.84 1.074-1.734 0.469-3.406 0.992-5.23 1.059-0.316 0.012-0.578 0.18-0.898 0.18h-128c-0.352 0-0.641-0.184-0.988-0.199-1.734-0.074-3.316-0.574-4.969-1.004-1.371-0.363-2.777-0.539-4.039-1.125-1.508-0.691-2.734-1.754-4.066-2.742-1.133-0.844-2.34-1.531-3.309-2.555-1.027-1.090-1.707-2.453-2.527-3.746-0.871-1.371-1.812-2.648-2.395-4.188-0.121-0.316-0.379-0.523-0.488-0.848l-15.871-47.594h-185.348c-0.582 0-1.066-0.293-1.637-0.332-1.797-0.125-3.449-0.52-5.152-1.039-1.348-0.406-2.637-0.781-3.871-1.406-1.43-0.723-2.645-1.641-3.906-2.633-1.195-0.937-2.328-1.848-3.324-2.992-0.988-1.129-1.727-2.379-2.496-3.695-0.836-1.426-1.57-2.832-2.102-4.426-0.199-0.598-0.641-1.043-0.793-1.664l-27.453-109.812h-45.266c-13.25 0-24-10.75-24-24v-128c0-13.25 10.75-24 24-24h40v-354.344l-61.469-122.937c-0.113-0.227-0.086-0.477-0.191-0.707-0.66-1.418-0.867-3.004-1.238-4.555-0.379-1.602-0.914-3.141-0.961-4.75-0.008-0.25-0.141-0.457-0.141-0.707v-128c0-13.25 10.75-24 24-24h576c13.25 0 24 10.75 24 24v128c0 0.25-0.133 0.457-0.141 0.707-0.047 1.609-0.582 3.148-0.961 4.75-0.371 1.551-0.578 3.137-1.238 4.555-0.105 0.23-0.078 0.48-0.191 0.707l-61.469 122.937v354.344h40zM248 632v80h528v-80h-528zM338.734 840h183.922c4.645 0 8.73 1.668 12.406 3.953 0.82 0.504 1.523 0.937 2.281 1.539 3.426 2.723 6.125 6.145 7.66 10.328 0.090 0.242 0.352 0.34 0.434 0.586l15.871 47.594h93.379l48-144h-383.953l20 80zM712.141 223.293c0.047-1.609 0.582-3.148 0.961-4.75 0.371-1.551 0.578-3.137 1.238-4.555 0.105-0.23 0.078-0.48 0.191-0.707l61.469-122.937v-98.344h-112v40c0 13.25-10.75 24-24 24s-24-10.75-24-24v-40h-80v40c0 13.25-10.75 24-24 24s-24-10.75-24-24v-40h-80v40c0 13.25-10.75 24-24 24s-24-10.75-24-24v-40h-112v98.344l61.469 122.937c0.113 0.227 0.086 0.477 0.191 0.707 0.66 1.418 0.867 3.004 1.238 4.555 0.379 1.602 0.914 3.141 0.961 4.75 0.008 0.25 0.141 0.457 0.141 0.707v360h400v-360c0-0.25 0.133-0.457 0.141-0.707z" />
<glyph unicode="&#xe924;" glyph-name="submersible-pumps" d="M951.84 800.797c-0.047 1.426-0.543 2.793-0.852 4.211-0.383 1.746-0.637 3.5-1.379 5.082-0.094 0.203-0.070 0.426-0.172 0.629l-29.438 58.875v58.406c0 13.25-10.75 24-24 24h-128c-13.25 0-24-10.75-24-24v-58.406l-29.437-58.875c-0.102-0.203-0.078-0.426-0.172-0.629-0.742-1.582-0.996-3.336-1.379-5.082-0.309-1.418-0.805-2.785-0.852-4.211-0.008-0.281-0.16-0.516-0.16-0.797v-832c0-13.25 10.75-24 24-24h192c13.25 0 24 10.75 24 24v832c0 0.281-0.152 0.516-0.16 0.797zM789.437 853.281c0.102 0.203 0.078 0.426 0.172 0.629 0.742 1.582 0.996 3.336 1.379 5.082 0.309 1.418 0.805 2.785 0.852 4.211 0.008 0.281 0.16 0.516 0.16 0.797v40h80v-40c0-0.281 0.152-0.516 0.16-0.797 0.047-1.426 0.543-2.793 0.852-4.211 0.383-1.746 0.637-3.5 1.379-5.082 0.094-0.203 0.070-0.426 0.172-0.629l14.641-29.281h-114.406l14.641 29.281zM904 776v-368h-144v368h144zM760 360h144v-368h-144v368zM630.988 677.008c-0.383 1.746-0.637 3.5-1.379 5.082-0.094 0.203-0.070 0.426-0.172 0.629l-29.437 58.875v58.406c0 13.25-10.75 24-24 24h-128c-13.25 0-24-10.75-24-24v-58.406l-29.437-58.875c-0.102-0.203-0.078-0.426-0.172-0.629-0.742-1.582-0.996-3.336-1.379-5.082-0.309-1.418-0.805-2.785-0.852-4.211-0.008-0.281-0.16-0.516-0.16-0.797v-704c0-13.25 10.75-24 24-24h192c13.25 0 24 10.75 24 24v704c0 0.281-0.152 0.516-0.16 0.797-0.047 1.426-0.543 2.793-0.852 4.211zM469.437 725.281c0.102 0.203 0.078 0.426 0.172 0.629 0.742 1.582 0.996 3.336 1.379 5.082 0.309 1.418 0.805 2.785 0.852 4.211 0.008 0.281 0.16 0.516 0.16 0.797v40h80v-40c0-0.281 0.152-0.516 0.16-0.797 0.047-1.426 0.543-2.793 0.852-4.211 0.383-1.746 0.637-3.5 1.379-5.082 0.094-0.203 0.070-0.426 0.172-0.629l14.641-29.281h-114.406l14.641 29.281zM584 648v-304h-144v304h144zM440 296h144v-304h-144v304zM310.988 549.008c-0.383 1.746-0.637 3.5-1.379 5.082-0.094 0.203-0.070 0.426-0.172 0.629l-29.437 58.875v58.406c0 13.25-10.75 24-24 24h-128c-13.25 0-24-10.75-24-24v-58.406l-29.437-58.875c-0.102-0.203-0.078-0.426-0.172-0.629-0.742-1.582-0.996-3.336-1.379-5.082-0.309-1.418-0.805-2.785-0.852-4.211-0.008-0.281-0.16-0.516-0.16-0.797v-576c0-13.25 10.75-24 24-24h192c13.25 0 24 10.75 24 24v576c0 0.281-0.152 0.516-0.16 0.797-0.047 1.426-0.543 2.793-0.852 4.211zM149.437 597.281c0.102 0.203 0.078 0.426 0.172 0.629 0.742 1.582 0.996 3.336 1.379 5.082 0.309 1.418 0.805 2.785 0.852 4.211 0.008 0.281 0.16 0.516 0.16 0.797v40h80v-40c0-0.281 0.152-0.516 0.16-0.797 0.047-1.426 0.543-2.793 0.852-4.211 0.383-1.746 0.637-3.5 1.379-5.082 0.094-0.203 0.070-0.426 0.172-0.629l14.641-29.281h-114.406l14.641 29.281zM264 520v-240h-144v240h144zM120 232h144v-240h-144v240z" />
<glyph unicode="&#xe925;" glyph-name="water-pump" d="M864 696h-104v104c0 13.25-10.75 24-24 24h-192c-6.625 0-12.625-2.688-16.969-7.031l-64-64c-4.344-4.344-7.031-10.344-7.031-16.969v-40h-40c-40.156 0-73.73-27.18-84.254-64h-83.746v40c0 13.25-10.75 24-24 24h-128c-13.25 0-24-10.75-24-24v-104h-40c-13.25 0-24-10.75-24-24s10.75-24 24-24h40v-144h-40c-13.25 0-24-10.75-24-24s10.75-24 24-24h40v-104c0-13.25 10.75-24 24-24h128c13.25 0 24 10.75 24 24v40h83.746c10.523-36.82 44.098-64 84.254-64h40v-80h-40c-13.25 0-24-10.75-24-24s10.75-24 24-24h384c13.25 0 24 10.75 24 24s-10.75 24-24 24h-40v80h104c83.812 0 152 68.188 152 152v192c0 83.812-68.188 152-152 152zM120 648h80v-400h-80v400zM248 584h80v-272h-80v272zM376 288v320c0 22.063 17.937 40 40 40h64c13.25 0 24 10.75 24 24v54.063l49.937 49.937h158.063v-104c0-13.25 10.75-24 24-24h40v-400h-360c-22.063 0-40 17.937-40 40zM712 120h-208v80h208v-80zM864 248h-40v400h40c57.344 0 104-46.656 104-104v-192c0-57.344-46.656-104-104-104zM480 520h192c13.25 0 24 10.75 24 24s-10.75 24-24 24h-192c-13.25 0-24-10.75-24-24s10.75-24 24-24zM480 328h192c13.25 0 24 10.75 24 24s-10.75 24-24 24h-192c-13.25 0-24-10.75-24-24s10.75-24 24-24zM480 424h192c13.25 0 24 10.75 24 24s-10.75 24-24 24h-192c-13.25 0-24-10.75-24-24s10.75-24 24-24z" />
<glyph unicode="&#xe926;" glyph-name="water-meter" d="M992 568h-123.984c-50.238 148.586-190.695 256-356.016 256s-305.777-107.414-356.016-256h-123.984c-13.25 0-24-10.75-24-24v-192c0-13.25 10.75-24 24-24h123.984c50.238-148.586 190.695-256 356.016-256s305.777 107.414 356.016 256h123.984c13.25 0 24 10.75 24 24v192c0 13.25-10.75 24-24 24zM56 376v144h87.090c-4.547-23.328-7.090-47.363-7.090-72s2.543-48.672 7.090-72h-87.090zM512 120c-180.875 0-328 147.125-328 328s147.125 328 328 328 328-147.125 328-328-147.125-328-328-328zM880.91 520h87.090v-144h-87.090c4.547 23.328 7.090 47.363 7.090 72s-2.543 48.672-7.090 72zM320 600c-13.25 0-24-10.75-24-24v-64c0-13.25 10.75-24 24-24s24 10.75 24 24v64c0 13.25-10.75 24-24 24zM448 488c13.25 0 24 10.75 24 24v64c0 13.25-10.75 24-24 24s-24-10.75-24-24v-64c0-13.25 10.75-24 24-24zM576 488c13.25 0 24 10.75 24 24v64c0 13.25-10.75 24-24 24s-24-10.75-24-24v-64c0-13.25 10.75-24 24-24zM704 600c-13.25 0-24-10.75-24-24v-64c0-13.25 10.75-24 24-24s24 10.75 24 24v64c0 13.25-10.75 24-24 24zM495 432.969c-53.875-53.906-79-97.437-79-136.969 0-52.937 43.063-96 96-96s96 43.063 96 96c0 39.531-25.125 83.063-79 136.969-9.375 9.375-24.625 9.375-34 0zM512 248c-26.437 0-48 21.531-48 48 0 21.688 16.125 50.344 48 85.281 31.875-34.937 48-63.594 48-85.281 0-26.469-21.563-48-48-48z" />
<glyph unicode="&#xe927;" glyph-name="water-valve" d="M720.969 591.031c26.719 26.688 56.969 56.969 79.031 56.969h160c3.316 0 6.477 0.676 9.352 1.895 23.105 4.059 40.699 21.652 44.758 44.758 1.219 2.871 1.891 6.031 1.891 9.348v64c0 3.316-0.672 6.477-1.891 9.348-4.059 23.105-21.656 40.703-44.762 44.762-2.871 1.219-6.031 1.891-9.348 1.891h-224c-3.324 0-6.488-0.684-9.367-1.906-37.914-4.93-71.383-36.906-103.602-69.125-26.719-26.688-56.969-56.969-79.031-56.969h-192c-13.25 0-24-10.75-24-24v-128c0-13.25 10.75-24 24-24h40v-104c0-4.406-3.594-8-8-8h-72v8c0 13.25-10.75 24-24 24h-96c-40.156 0-73.73-27.18-84.254-64h-75.746c-13.25 0-24-10.75-24-24v-192c0-13.25 10.75-24 24-24h75.746c10.523-36.82 44.098-64 84.254-64h96c13.25 0 24 10.75 24 24v8h400v-8c0-13.25 10.75-24 24-24h96c40.156 0 73.73 27.18 84.254 64h75.746c13.25 0 24 10.75 24 24v192c0 13.25-10.75 24-24 24h-75.746c-10.523 36.82-44.098 64-84.254 64h-96c-13.25 0-24-10.75-24-24v-8h-72c-4.406 0-8 3.594-8 8v108.883c31.969 10.27 60.945 38.125 88.969 66.148zM656.969 719.031c26.719 26.688 56.969 56.969 79.031 56.969h224c4.406 0 8-3.594 8-8v-64c0-4.406-3.594-8-8-8h-160c-3.324 0-6.488-0.684-9.367-1.906-37.914-4.93-71.383-36.906-103.602-69.125-26.719-26.688-56.969-56.969-79.031-56.969h-232v80h168c3.324 0 6.488 0.684 9.367 1.906 37.914 4.93 71.383 36.906 103.602 69.125zM104 184h-48v144h48v-144zM152 160v192c0 22.063 17.937 40 40 40h72v-272h-72c-22.063 0-40 17.937-40 40zM920 328h48v-144h-48v144zM872 352v-192c0-22.063-17.937-40-40-40h-72v272h72c22.063 0 40-17.937 40-40zM712 152h-400v208h72c3.316 0 6.477 0.676 9.352 1.895 23.105 4.059 40.699 21.652 44.758 44.758 1.219 2.871 1.891 6.031 1.891 9.348v104h144v-104c0-3.316 0.676-6.477 1.895-9.352 4.066-23.102 21.652-40.688 44.754-44.754 2.875-1.219 6.035-1.895 9.352-1.895h72v-208z" />
<glyph unicode="&#xe928;" glyph-name="water-filter" d="M928 888h-104v40c0 13.25-10.75 24-24 24h-576c-13.25 0-24-10.75-24-24v-40h-104c-13.25 0-24-10.75-24-24v-128c0-13.25 10.75-24 24-24h107.75c8.441-29.52 31.715-52.559 61.383-60.605l30.93-556.738c0.004-0.051 0.031-0.086 0.035-0.137 0.004-0.094-0.043-0.176-0.035-0.27 6.25-85.656 71.562-150.25 151.937-150.25h128c80.375 0 145.688 64.594 151.937 150.25 0.008 0.094-0.039 0.176-0.035 0.27 0.004 0.051 0.031 0.086 0.035 0.137l30.93 556.738c29.668 8.047 52.941 31.086 61.383 60.605h107.75c13.25 0 24 10.75 24 24v128c0 13.25-10.75 24-24 24zM904 840v-80h-80v80h80zM200 760h-80v80h80v-80zM576-8h-128c-54.937 0-99.688 45.469-104.063 105.75-0.004 0.039-0.023 0.070-0.027 0.109l-30.566 550.141h397.312l-30.566-550.141c-0.004-0.039-0.023-0.070-0.027-0.109-4.375-60.281-49.125-105.75-104.063-105.75zM736 696h-448c-22.063 0-40 17.937-40 40v168h528v-168c0-22.063-17.937-40-40-40zM495 496.969c-53.875-53.906-79-97.437-79-136.969 0-52.937 43.063-96 96-96s96 43.063 96 96c0 39.531-25.125 83.063-79 136.969-9.375 9.375-24.625 9.375-34 0zM512 312c-26.437 0-48 21.531-48 48 0 21.688 16.125 50.344 48 85.281 31.875-34.937 48-63.594 48-85.281 0-26.469-21.563-48-48-48z" />
<glyph unicode="&#xe929;" glyph-name="pipes" d="M864 696h-40v232c0 13.25-10.75 24-24 24h-256c-13.25 0-24-10.75-24-24v-240.535c-218.297-41.383-384-233.312-384-463.465v-256c0-13.25 10.75-24 24-24h256c13.25 0 24 10.75 24 24v256c0 60.27 32.188 112.801 80 142.449v-398.449c0-13.25 10.75-24 24-24h256c13.25 0 24 10.75 24 24v424h40c13.25 0 24 10.75 24 24v256c0 13.25-10.75 24-24 24zM568 904h208v-208h-168c-13.5 0-26.781-0.91-40-2.027v210.027zM392 224v-232h-208v232c0 233.781 190.188 424 424 424h232v-208h-232c-22.957 0-44.668-4.563-65.437-11.227-3.777-0.238-7.176-1.418-10.277-3.199-81.73-30.812-140.285-109.207-140.285-201.574zM776-8h-208v394.656c12.887 3.176 26.148 5.344 40 5.344h168v-400z" />
<glyph unicode="&#xe92a;" glyph-name="mixing-valve" d="M992 568h-75.746c-10.523 36.82-44.098 64-84.254 64h-96c-13.25 0-24-10.75-24-24v-8h-40c-4.406 0-8 3.594-8 8v40h8c0.004 0 0.012 0.004 0.016 0.004 0.984 0 1.969 0.059 2.953 0.184 1.121 0.141 2.020 0.75 3.082 1.035 1.598 0.43 3.141 0.809 4.59 1.539 1.375 0.691 2.52 1.586 3.723 2.512 1.23 0.945 2.418 1.84 3.445 3 1.031 1.168 1.777 2.457 2.563 3.801 0.77 1.309 1.512 2.555 2.027 4.004 0.539 1.52 0.73 3.090 0.953 4.719 0.152 1.094 0.648 2.066 0.648 3.203 0 0.523-0.262 0.961-0.297 1.477-0.031 0.512 0.176 0.977 0.109 1.492l-32 256c-0.141 1.133-0.75 2.031-1.039 3.102-0.426 1.586-0.801 3.113-1.523 4.551-0.672 1.328-1.539 2.437-2.434 3.605-1 1.324-1.969 2.574-3.215 3.664-0.98 0.84-2.063 1.457-3.164 2.133-1.543 0.965-3.063 1.84-4.82 2.437-1.238 0.422-2.523 0.555-3.836 0.777-1.281 0.211-2.441 0.762-3.781 0.762h-256c-1.055 0-1.953-0.469-2.973-0.602-1.793-0.223-3.52-0.445-5.18-1.047-1.203-0.441-2.227-1.066-3.332-1.684-1.602-0.891-3.113-1.785-4.469-3.012-0.961-0.871-1.688-1.879-2.5-2.891-1.082-1.355-2.098-2.668-2.871-4.254-0.676-1.363-1.016-2.828-1.426-4.324-0.297-1.105-0.922-2.047-1.063-3.219l-32-256c-0.066-0.516 0.141-0.98 0.109-1.492-0.035-0.516-0.297-0.953-0.297-1.477 0-1.137 0.496-2.109 0.648-3.203 0.223-1.629 0.414-3.199 0.953-4.719 0.516-1.449 1.258-2.695 2.027-4.004 0.785-1.344 1.531-2.633 2.563-3.801 1.027-1.16 2.215-2.055 3.445-3 1.203-0.926 2.348-1.82 3.723-2.512 1.449-0.73 2.992-1.109 4.59-1.539 1.063-0.285 1.961-0.895 3.082-1.035 0.984-0.125 1.969-0.184 2.953-0.184 0.004 0 0.012-0.004 0.016-0.004h8v-40c0-4.406-3.594-8-8-8h-40v8c0 13.25-10.75 24-24 24h-96c-40.156 0-73.73-27.18-84.254-64h-75.746c-13.25 0-24-10.75-24-24v-192c0-13.25 10.75-24 24-24h75.746c10.523-36.82 44.098-64 84.254-64h96c13.25 0 24 10.75 24 24v8h40c4.406 0 8-3.594 8-8v-40h-8c-13.25 0-24-10.75-24-24v-96c0-40.156 27.18-73.73 64-84.254v-75.746c0-13.25 10.75-24 24-24h192c13.25 0 24 10.75 24 24v75.746c36.82 10.523 64 44.098 64 84.254v96c0 13.25-10.75 24-24 24h-8v40c0 4.406 3.594 8 8 8h40v-8c0-13.25 10.75-24 24-24h96c40.156 0 73.73 27.18 84.254 64h75.746c13.25 0 24 10.75 24 24v192c0 13.25-10.75 24-24 24zM920 520h48v-144h-48v144zM488 696v208h48v-208h-48zM379.184 696l26 208h34.816v-208h-60.816zM584 904h34.816l26-208h-60.816v208zM104 376h-48v144h48v-144zM152 352v192c0 22.063 17.937 40 40 40h72v-272h-72c-22.063 0-40 17.937-40 40zM584 40v-48h-144v48h144zM608 88h-192c-22.063 0-40 17.937-40 40v72h272v-72c0-22.063-17.937-40-40-40zM672 344c-3.316 0-6.477-0.672-9.348-1.891-23.105-4.059-40.699-21.652-44.758-44.758-1.219-2.875-1.895-6.035-1.895-9.352v-40h-208v40c0 3.316-0.672 6.477-1.891 9.348-4.059 23.105-21.656 40.703-44.762 44.762-2.871 1.219-6.031 1.891-9.348 1.891h-40v208h40c3.316 0 6.477 0.676 9.352 1.895 23.105 4.059 40.699 21.652 44.758 44.758 1.219 2.871 1.891 6.031 1.891 9.348v40h208v-40c0-3.316 0.676-6.477 1.895-9.352 4.066-23.102 21.652-40.688 44.754-44.754 2.875-1.219 6.035-1.895 9.352-1.895h40v-208h-40zM832 312h-72v272h72c22.063 0 40-17.937 40-40v-192c0-22.063-17.937-40-40-40z" />
<glyph unicode="&#xe92b;" glyph-name="chimney-pipes" d="M887.57 797.871c0.066 0.738 0.43 1.375 0.43 2.129 0 0.809-0.383 1.488-0.461 2.277-0.16 1.629-0.469 3.148-0.949 4.711-0.461 1.492-1.004 2.863-1.734 4.215-0.707 1.32-1.523 2.496-2.48 3.68-1.047 1.289-2.156 2.41-3.445 3.461-0.605 0.496-0.953 1.184-1.617 1.625l-192 128c-0.004 0.004-0.008 0-0.012 0.004-2.648 1.754-5.598 2.949-8.668 3.547-1.531 0.297-3.066 0.020-4.613 0.016-1.547 0.004-3.082 0.281-4.617-0.016-3.055-0.594-5.996-1.785-8.645-3.523-0.023-0.016-0.047-0.012-0.070-0.027l-192-128c-0.664-0.441-1.012-1.129-1.617-1.625-1.289-1.051-2.398-2.172-3.445-3.461-0.957-1.184-1.773-2.359-2.48-3.68-0.73-1.352-1.273-2.723-1.734-4.215-0.48-1.563-0.789-3.082-0.949-4.711-0.078-0.789-0.461-1.469-0.461-2.277 0-0.754 0.363-1.391 0.43-2.129 0.141-1.637 0.48-3.18 0.965-4.777 0.465-1.52 1.004-2.918 1.746-4.293 0.363-0.688 0.422-1.453 0.859-2.113 0.375-0.566 1.023-0.773 1.437-1.297 1.613-2.047 3.516-3.699 5.707-5.133 0.887-0.578 1.621-1.285 2.57-1.734 3.145-1.516 6.563-2.523 10.285-2.523h13.234l26.766-107.063v-164.937h-136c-0.266 0-0.484-0.145-0.75-0.152-1.641-0.047-3.207-0.582-4.836-0.977-1.5-0.371-3.027-0.559-4.402-1.195-0.246-0.113-0.52-0.086-0.762-0.207-1.105-0.555-1.828-1.504-2.809-2.199-1.109-0.781-2.402-1.312-3.359-2.266-0.023-0.023-0.059-0.012-0.082-0.035l-224-224c-0.031-0.031-0.020-0.086-0.051-0.117-1.023-1.035-1.613-2.414-2.437-3.621-0.602-0.891-1.461-1.52-1.949-2.512-0.102-0.203-0.078-0.426-0.172-0.629-0.742-1.582-0.996-3.336-1.379-5.082-0.309-1.418-0.805-2.785-0.852-4.211-0.008-0.281-0.16-0.516-0.16-0.797v-288c0-13.25 10.75-24 24-24h256c13.25 0 24 10.75 24 24v150.031l80 80v-230.031c0-13.25 10.75-24 24-24h256c13.25 0 24 10.75 24 24v700.937l26.766 107.063h13.234c3.723 0 7.141 1.008 10.285 2.523 0.949 0.449 1.684 1.156 2.57 1.734 2.191 1.434 4.094 3.086 5.707 5.133 0.414 0.523 1.063 0.73 1.437 1.297 0.437 0.66 0.496 1.426 0.859 2.113 0.742 1.375 1.281 2.773 1.746 4.293 0.484 1.598 0.824 3.141 0.965 4.777zM559.266 824l112.734 75.156 112.734-75.156h-225.469zM648 776v-80h-85.234l-20 80h105.234zM568 648h208v-656h-208v208h104c13.25 0 24 10.75 24 24v256c0 13.25-10.75 24-24 24h-104v144zM184 217.156l208-104v-121.156h-208v225.156zM411.25 157.219l-210.707 105.355 176.914 176.914 105.355-210.707-71.562-71.562zM648 456v-208h-121.203l-104 208h225.203zM781.234 696h-85.234v80h105.234l-20-80z" />
<glyph unicode="&#xe92c;" glyph-name="coaxial-chimney" d="M1016 544c0 0.617-0.305 1.141-0.352 1.746-0.129 1.719-0.512 3.297-0.996 4.922-0.422 1.418-0.82 2.773-1.48 4.070-0.707 1.391-1.609 2.578-2.57 3.809-0.949 1.211-1.867 2.355-3.027 3.363-1.121 0.973-2.363 1.711-3.664 2.473-1.43 0.84-2.836 1.574-4.434 2.105-0.598 0.199-1.043 0.637-1.664 0.793-0.996 0.258-1.977 0.023-2.977 0.145-0.973 0.121-1.828 0.574-2.836 0.574h-104v8c0 13.25-10.75 24-24 24h-104v40c0 13.25-10.75 24-24 24s-24-10.75-24-24v-40h-360c-189.688 0-344-154.312-344-344 0-13.25 10.75-24 24-24h192c13.25 0 24 10.75 24 24 0 57.344 46.625 104 104 104h360v-40c0-13.25 10.75-24 24-24s24 10.75 24 24v40h104c13.25 0 24 10.75 24 24v8h72c5.012 0 9.402 1.895 13.25 4.523 0.691 0.469 1.32 0.785 1.957 1.32 3.52 2.949 6.027 6.77 7.402 11.273 0.133 0.43 0.59 0.629 0.703 1.070l32 128c0.258 1.043 0.020 2.047 0.137 3.086 0.109 0.937 0.551 1.762 0.551 2.727zM202.426 280h-143.996c11.797 143.793 125.805 257.777 269.57 269.574v-144c-64.508-10.344-115.23-61.066-125.574-125.574zM376 408v144h336v-144h-336zM760 552h80v-144h-80v144zM888 520h73.234l-20-80h-53.234v80z" />
<glyph unicode="&#xe92d;" glyph-name="floor-convector" d="M992 696h-960c-13.25 0-24-10.75-24-24v-448c0-13.25 10.75-24 24-24h960c13.25 0 24 10.75 24 24v448c0 13.25-10.75 24-24 24zM56 376v272h912v-272h-912zM56 328h912v-80h-912v80zM176 584c-13.25 0-24-10.75-24-24v-96c0-13.25 10.75-24 24-24s24 10.75 24 24v96c0 13.25-10.75 24-24 24zM288 584c-13.25 0-24-10.75-24-24v-96c0-13.25 10.75-24 24-24s24 10.75 24 24v96c0 13.25-10.75 24-24 24zM400 584c-13.25 0-24-10.75-24-24v-96c0-13.25 10.75-24 24-24s24 10.75 24 24v96c0 13.25-10.75 24-24 24zM512 584c-13.25 0-24-10.75-24-24v-96c0-13.25 10.75-24 24-24s24 10.75 24 24v96c0 13.25-10.75 24-24 24zM624 584c-13.25 0-24-10.75-24-24v-96c0-13.25 10.75-24 24-24s24 10.75 24 24v96c0 13.25-10.75 24-24 24zM736 584c-13.25 0-24-10.75-24-24v-96c0-13.25 10.75-24 24-24s24 10.75 24 24v96c0 13.25-10.75 24-24 24zM848 584c-13.25 0-24-10.75-24-24v-96c0-13.25 10.75-24 24-24s24 10.75 24 24v96c0 13.25-10.75 24-24 24z" />
<glyph unicode="&#xe92e;" glyph-name="thermostat" d="M928 824h-832c-48.531 0-88-39.469-88-88v-576c0-48.531 39.469-88 88-88h832c48.531 0 88 39.469 88 88v576c0 48.531-39.469 88-88 88zM928 120h-832c-22.063 0-40 17.937-40 40v576c0 22.063 17.937 40 40 40h832c22.063 0 40-17.937 40-40v-576c0-22.063-17.937-40-40-40zM344.719 406.75c31.125 30.844 63.281 62.719 63.281 105.25 0 66.156-53.844 120-120 120s-120-53.844-120-120c0-13.25 10.75-24 24-24s24 10.75 24 24c0 39.688 32.312 72 72 72s72-32.312 72-72c0-22.531-22.75-45.063-49.063-71.188l-7.906-7.844-128-128c-4.344-4.344-7.031-10.344-7.031-16.969 0-13.25 10.75-24 24-24h192c13.25 0 24 10.75 24 24s-10.75 24-24 24h-134.063l94.781 94.75zM598.621 614.836c-0.48 1.582-1.047 3.035-1.828 4.461-0.352 0.652-0.406 1.387-0.824 2.016-0.445 0.668-1.137 1.020-1.633 1.629-1.039 1.273-2.141 2.375-3.418 3.41-1.199 0.973-2.395 1.809-3.738 2.52-1.336 0.723-2.691 1.25-4.164 1.711-1.562 0.48-3.078 0.793-4.707 0.953-0.797 0.082-1.492 0.465-2.309 0.465-0.773 0-1.422-0.367-2.176-0.437-1.578-0.145-3.070-0.469-4.617-0.934-1.598-0.484-3.078-1.055-4.516-1.844-0.648-0.352-1.375-0.398-2.004-0.816l-96-64c-11.031-7.344-14-22.25-6.656-33.281 4.625-6.938 12.25-10.688 20-10.688 4.563 0 9.188 1.312 13.281 4.031l58.688 39.125v-275.156c0-13.25 10.75-24 24-24s24 10.75 24 24v320c0 0.762-0.363 1.406-0.434 2.148-0.145 1.605-0.473 3.117-0.945 4.688zM816.969 624.969c-9.375 9.375-24.563 9.375-33.937 0l-64-64c-9.375-9.375-9.375-24.563 0-33.937 4.688-4.688 10.812-7.031 16.969-7.031s12.281 2.344 16.969 7.031l47.031 47.031 47.031-47.031c4.688-4.688 10.812-7.031 16.969-7.031s12.281 2.344 16.969 7.031c9.375 9.375 9.375 24.563 0 33.937l-64 64zM847.031 368.969l-47.031-47.031-47.031 47.031c-9.375 9.375-24.563 9.375-33.937 0s-9.375-24.563 0-33.937l64-64c4.688-4.688 10.812-7.031 16.969-7.031s12.281 2.344 16.969 7.031l64 64c9.375 9.375 9.375 24.563 0 33.937s-24.562 9.375-33.937 0z" />
<glyph unicode="&#xe92f;" glyph-name="warm-water-floor" d="M495 560.969c-53.875-53.906-79-97.437-79-136.969 0-52.937 43.063-96 96-96s96 43.063 96 96c0 39.531-25.125 83.063-79 136.969-9.375 9.375-24.625 9.375-34 0zM512 376c-26.437 0-48 21.531-48 48 0 21.688 16.125 50.344 48 85.281 31.875-34.937 48-63.594 48-85.281 0-26.469-21.563-48-48-48zM896 424c66.188 0 120 53.844 120 120s-53.812 120-120 120h-208.039c-48.242 39.383-108.98 64-175.961 64s-127.719-24.617-175.961-64h-208.039c-39.688 0-72 32.312-72 72s32.312 72 72 72h768c66.188 0 120 53.844 120 120 0 13.25-10.75 24-24 24s-24-10.75-24-24c0-39.688-32.312-72-72-72h-768c-66.188 0-120-53.844-120-120s53.812-120 120-120h161.426c-30.918-40.844-50.328-90.129-55-144h-106.426c-66.188 0-120-53.844-120-120s53.812-120 120-120h208.039c48.242-39.383 108.98-64 175.961-64s127.719 24.617 175.961 64h208.039c39.688 0 72-32.312 72-72s-32.312-72-72-72h-768c-66.188 0-120-53.844-120-120 0-13.25 10.75-24 24-24s24 10.75 24 24c0 39.688 32.312 72 72 72h768c66.188 0 120 53.844 120 120s-53.812 120-120 120h-161.426c30.918 40.844 50.328 90.129 55 144h106.426zM968 544c0-39.688-32.312-72-72-72h-106.426c-4.672 53.871-24.082 103.156-55 144h161.426c39.688 0 72-32.312 72-72zM56 352c0 39.688 32.312 72 72 72h106.426c4.672-53.871 24.082-103.156 55-144h-161.426c-39.688 0-72 32.312-72 72zM512 216c-127.937 0-232 104.063-232 232s104.063 232 232 232 232-104.063 232-232-104.063-232-232-232z" />
</font>
</defs>
</svg>
