<?xml version="1.0" encoding="utf-8"?>
<!-- Generator: Adobe Illustrator 22.0.1, SVG Export Plug-In . SVG Version: 6.00 Build 0)  -->
<svg version="1.1" id="Layer_1" xmlns="http://www.w3.org/2000/svg" xmlns:xlink="http://www.w3.org/1999/xlink" x="0px" y="0px"
	 viewBox="0 0 88.8 88.8" style="enable-background:new 0 0 88.8 88.8;" xml:space="preserve">
<style type="text/css">
	.st0{fill:url(#SVGID_1_);}
	.st1{fill:url(#SVGID_2_);}
	.st2{fill:url(#SVGID_3_);}
	.st3{fill:url(#SVGID_4_);}
	.st4{fill:url(#SVGID_5_);}
	.st5{fill:url(#SVGID_6_);}
	.st6{fill:url(#SVGID_7_);}
</style>
<g>
	<linearGradient id="SVGID_1_" gradientUnits="userSpaceOnUse" x1="27.353" y1="89.3326" x2="27.353" y2="0.2927">
		<stop  offset="0" style="stop-color:#CD87FA"/>
		<stop  offset="1" style="stop-color:#87A0FA"/>
	</linearGradient>
	<path class="st0" d="M44.4,0c-0.6,0-1.2,0-1.8,0L0,42.5c0,0.6,0,1.2,0,1.8c0,3.6,0.4,7,1.2,10.3L54.7,1.2C51.4,0.4,47.9,0,44.4,0z"
		/>
	<linearGradient id="SVGID_2_" gradientUnits="userSpaceOnUse" x1="53.2664" y1="89.3326" x2="53.2664" y2="0.2927">
		<stop  offset="0" style="stop-color:#CD87FA"/>
		<stop  offset="1" style="stop-color:#87A0FA"/>
	</linearGradient>
	<path class="st1" d="M81.7,20.4L20.4,81.7c2.8,1.8,5.8,3.3,8.9,4.4l56.8-56.8C85,26.2,83.5,23.2,81.7,20.4z"/>
	<linearGradient id="SVGID_3_" gradientUnits="userSpaceOnUse" x1="35.6507" y1="89.3326" x2="35.6507" y2="0.2927">
		<stop  offset="0" style="stop-color:#CD87FA"/>
		<stop  offset="1" style="stop-color:#87A0FA"/>
	</linearGradient>
	<path class="st2" d="M59.7,2.7l-57,57c1.2,3.1,2.7,6.1,4.5,8.9L68.6,7.2C65.8,5.4,62.8,3.9,59.7,2.7z"/>
	<linearGradient id="SVGID_4_" gradientUnits="userSpaceOnUse" x1="61.5539" y1="89.3326" x2="61.5539" y2="0.2927">
		<stop  offset="0" style="stop-color:#CD87FA"/>
		<stop  offset="1" style="stop-color:#87A0FA"/>
	</linearGradient>
	<path class="st3" d="M88.8,44.4c0-3.5-0.4-6.8-1.2-10L34.3,87.6c3.2,0.7,6.6,1.2,10,1.2c0.7,0,1.5,0,2.2-0.1l42.1-42.1
		C88.7,45.9,88.8,45.1,88.8,44.4z"/>
	<linearGradient id="SVGID_5_" gradientUnits="userSpaceOnUse" x1="18.0419" y1="89.3326" x2="18.0419" y2="0.2927">
		<stop  offset="0" style="stop-color:#CD87FA"/>
		<stop  offset="1" style="stop-color:#87A0FA"/>
	</linearGradient>
	<path class="st4" d="M1,35.1L35.1,1C18,4.6,4.6,18,1,35.1z"/>
	<linearGradient id="SVGID_6_" gradientUnits="userSpaceOnUse" x1="70.8983" y1="89.3326" x2="70.8983" y2="0.2927">
		<stop  offset="0" style="stop-color:#CD87FA"/>
		<stop  offset="1" style="stop-color:#87A0FA"/>
	</linearGradient>
	<path class="st5" d="M87.7,54.1L54.1,87.7C70.8,83.9,83.9,70.8,87.7,54.1z"/>
	<linearGradient id="SVGID_7_" gradientUnits="userSpaceOnUse" x1="44.4594" y1="89.3326" x2="44.4594" y2="0.2927">
		<stop  offset="0" style="stop-color:#CD87FA"/>
		<stop  offset="1" style="stop-color:#87A0FA"/>
	</linearGradient>
	<path class="st6" d="M72.3,9.9L9.9,72.3c2,2.4,4.2,4.7,6.7,6.6L79,16.6C77,14.2,74.8,11.9,72.3,9.9z"/>
</g>
</svg>
