<?xml version="1.0" encoding="utf-8"?>
<!-- Generator: Adobe Illustrator 22.0.1, SVG Export Plug-In . SVG Version: 6.00 Build 0)  -->
<svg version="1.1" id="Layer_1" xmlns="http://www.w3.org/2000/svg" xmlns:xlink="http://www.w3.org/1999/xlink" x="0px" y="0px"
	 viewBox="0 0 270 294" style="enable-background:new 0 0 270 294;" xml:space="preserve">
<style type="text/css">
	.st0{fill:#F9F5FE;}
	.st1{fill:#E8DAFB;}
	.st2{fill:#7E6AFB;}
	.st3{fill:url(#SVGID_1_);}
	.st4{fill:url(#SVGID_2_);}
	.st5{fill:url(#SVGID_3_);}
</style>
<g>
	<path class="st0" d="M263.5,130c0-3.3,2.7-6,6-6V20.5c0-11-9-20-20-20h-229c-11,0-20,9-20,20V124c0,0,0,0,0,0c3.3,0,6,2.7,6,6
		s-2.7,6-6,6c0,0,0,0,0,0v137.5c0,11,9,20,20,20h229c11,0,20-9,20-20V136C266.2,136,263.5,133.3,263.5,130z"/>
	<path class="st1" d="M249.5,294h-229C9.2,294,0,284.8,0,273.5v-138h0.5c3,0,5.5-2.5,5.5-5.5s-2.5-5.5-5.5-5.5H0l0-0.5V20.5
		C0,9.2,9.2,0,20.5,0h229C260.8,0,270,9.2,270,20.5v104h-0.5c-3,0-5.5,2.5-5.5,5.5c0,3,2.5,5.5,5.5,5.5h0.5v138
		C270,284.8,260.8,294,249.5,294z M1,136.5v137C1,284.3,9.7,293,20.5,293h229c10.8,0,19.5-8.7,19.5-19.5v-137c-3.4-0.3-6-3.1-6-6.5
		c0-3.4,2.6-6.2,6-6.5v-103C269,9.7,260.3,1,249.5,1h-229C9.7,1,1,9.7,1,20.5v103c3.4,0.3,6,3.1,6,6.5C7,133.4,4.4,136.2,1,136.5z"
		/>
	<rect x="25" y="129.4" class="st1" width="220" height="1"/>
	<g>
		<g>
			<path d="M83.6,40.3v9h-1.2v-10h7.6v10h-1.2v-9H83.6z"/>
			<path d="M93.6,42v1.2c0.4-0.7,1.4-1.4,2.5-1.4c1.9,0,3.3,1.4,3.3,3.7v0.1c0,2.2-1.3,3.8-3.3,3.8c-1.2,0-2-0.6-2.5-1.3v3.8h-1.2
				V42H93.6z M98.2,45.7v-0.1c0-1.8-1-2.8-2.3-2.8c-1.4,0-2.4,0.9-2.4,2.8v0.1c0,1.9,1,2.8,2.4,2.8C97.4,48.5,98.2,47.5,98.2,45.7z"
				/>
			<path d="M101.1,42h1.2v5.6L106,42h1.2v7.3H106v-5.6l-3.7,5.6h-1.2V42z"/>
			<path d="M114.3,43v6.3h-1.2V42h5.8v7.3h-1.2V43H114.3z"/>
			<path d="M120.8,45.7v-0.1c0-2.2,1.5-3.7,3.6-3.7s3.6,1.5,3.6,3.7v0.1c0,2.2-1.5,3.7-3.6,3.7C122.3,49.5,120.8,47.9,120.8,45.7z
				 M126.8,45.7L126.8,45.7c0-1.8-0.9-2.9-2.4-2.9c-1.5,0-2.4,1.1-2.4,2.8v0.1c0,1.7,0.9,2.8,2.4,2.8
				C125.8,48.5,126.8,47.4,126.8,45.7z"/>
			<path d="M130.8,49.3h-1.2V42h1.2v3.4l3-3.4h1.4l-3.1,3.4l3.4,3.9h-1.4l-3.3-3.7V49.3z"/>
			<path d="M136.2,42h1.2l2.2,5.3l2-5.3h1.2l-4,9.9h-1.2l1.4-3.3L136.2,42z"/>
			<path d="M145.5,43v6.3h-1.2V42h5.8v7.3h-1.2V43H145.5z"/>
			<path d="M153.6,49.3h-1.2V42h1.2v3.4l3-3.4h1.4l-3.1,3.4l3.4,3.9h-1.4l-3.3-3.7V49.3z"/>
			<path d="M158.9,45.7v-0.1c0-2.2,1.4-3.8,3.4-3.8c1.7,0,3.3,1,3.3,3.6v0.4h-5.5c0.1,1.7,0.8,2.6,2.4,2.6c1.1,0,1.8-0.4,1.9-1.3
				h1.2c-0.3,1.5-1.5,2.2-3.1,2.2C160.4,49.5,158.9,48,158.9,45.7z M162.4,42.8c-1.2,0-2,0.8-2.2,2.1h4.3
				C164.3,43.5,163.6,42.8,162.4,42.8z"/>
			<path d="M170.6,45.7v-0.1c0-2.2,1.5-3.7,3.6-3.7s3.6,1.5,3.6,3.7v0.1c0,2.2-1.5,3.7-3.6,3.7C172.1,49.5,170.6,47.9,170.6,45.7z
				 M176.6,45.7L176.6,45.7c0-1.8-0.9-2.9-2.4-2.9c-1.5,0-2.4,1.1-2.4,2.8v0.1c0,1.7,0.9,2.8,2.4,2.8
				C175.7,48.5,176.6,47.4,176.6,45.7z"/>
			<path d="M182,43v6.3h-1.2V43h-2.4v-1h5.9v1H182z"/>
			<path d="M185.9,44.3c0-0.5,0.4-0.9,0.9-0.9s0.9,0.4,0.9,0.9c0,0.5-0.4,0.9-0.9,0.9S185.9,44.9,185.9,44.3z M185.9,48.5
				c0-0.5,0.4-0.9,0.9-0.9s0.9,0.4,0.9,0.9c0,0.5-0.4,0.9-0.9,0.9S185.9,49,185.9,48.5z"/>
		</g>
	</g>
	<g>
		<g>
			<path class="st2" d="M77.4,170.7v-0.1c0-3,2-5.1,4.7-5.1c2.1,0,3.8,1.1,4.1,3.3h-1.2c-0.3-1.5-1.1-2.3-2.8-2.3
				c-2.1,0-3.5,1.6-3.5,4.1v0.1c0,2.5,1.3,4.1,3.4,4.1c1.6,0,2.8-0.8,3-2.5h1.1c-0.4,2.3-1.9,3.4-4.2,3.4
				C79.2,175.8,77.4,173.8,77.4,170.7z"/>
			<path class="st2" d="M89.1,175.7h-1.2v-7.3h1.2v3.4l3-3.4h1.4l-3.1,3.4l3.4,3.9h-1.4l-3.2-3.7V175.7z"/>
			<path class="st2" d="M95.1,168.3h1.2v5.6l3.7-5.6h1.2v7.3H100V170l-3.7,5.6h-1.2V168.3z"/>
			<path class="st2" d="M102.4,177.4v-2.8h0.5c0.6-0.1,0.7-1,0.8-1.9c0.1-0.9,0.2-2,0.2-2.9c0-0.5,0.1-1,0.1-1.6h4.8v6.3h1.1v2.8
				h-0.9l-0.1-1.8h-5.6l-0.1,1.8H102.4z M104.4,174.7h3.4v-5.4h-2.7c0,1-0.2,2.5-0.3,3.5C104.7,173.7,104.6,174.3,104.4,174.7z"/>
			<path class="st2" d="M112.7,175.7h-1.2v-7.3h1.2v3.4l3-3.4h1.4l-3.1,3.4l3.4,3.9h-1.4l-3.2-3.7V175.7z"/>
			<path class="st2" d="M118.1,173.6c0-1.7,1.8-2.3,3.7-2.3h1.1v-0.5c0-1.2-0.4-1.7-1.6-1.7c-1,0-1.6,0.4-1.7,1.3h-1.2
				c0.2-1.7,1.5-2.3,2.9-2.3c1.4,0,2.7,0.6,2.7,2.6v4.8h-1.2v-0.9c-0.5,0.7-1.2,1.1-2.3,1.1C119.2,175.8,118.1,175.1,118.1,173.6z
				 M122.9,173.1v-0.9h-1c-1.5,0-2.5,0.4-2.5,1.4c0,0.8,0.4,1.2,1.4,1.2C121.9,174.9,122.9,174.2,122.9,173.1z"/>
			<path class="st2" d="M129.5,172.1V172c0-2.2,1.6-3.8,3.6-3.8c1.5,0,3,0.7,3.2,2.6h-1.1c-0.2-1.2-1-1.6-2-1.6
				c-1.3,0-2.4,1.1-2.4,2.8v0.1c0,1.8,1,2.7,2.4,2.7c1,0,2-0.6,2.1-1.8h1.1c-0.2,1.6-1.4,2.8-3.2,2.8
				C131,175.8,129.5,174.4,129.5,172.1z"/>
			<path class="st2" d="M137.4,172.1V172c0-2.2,1.5-3.7,3.6-3.7s3.6,1.5,3.6,3.7v0.1c0,2.2-1.5,3.7-3.6,3.7
				C138.9,175.8,137.4,174.2,137.4,172.1z M143.4,172.1L143.4,172.1c0-1.8-0.9-2.9-2.4-2.9c-1.5,0-2.4,1.1-2.4,2.8v0.1
				c0,1.7,0.9,2.8,2.4,2.8C142.5,174.8,143.4,173.7,143.4,172.1z"/>
			<path class="st2" d="M145.9,172.1V172c0-2.2,1.6-3.8,3.6-3.8c1.5,0,3,0.7,3.2,2.6h-1.1c-0.2-1.2-1-1.6-2-1.6
				c-1.3,0-2.4,1.1-2.4,2.8v0.1c0,1.8,1,2.7,2.4,2.7c1,0,2-0.6,2.1-1.8h1.1c-0.2,1.6-1.4,2.8-3.2,2.8
				C147.4,175.8,145.9,174.4,145.9,172.1z"/>
			<path class="st2" d="M157.1,169.3v6.3H156v-6.3h-2.4v-1h5.9v1H157.1z"/>
			<path class="st2" d="M160.5,173.6c0-1.7,1.8-2.3,3.7-2.3h1.1v-0.5c0-1.2-0.4-1.7-1.6-1.7c-1,0-1.6,0.4-1.7,1.3h-1.2
				c0.2-1.7,1.5-2.3,2.9-2.3c1.4,0,2.7,0.6,2.7,2.6v4.8h-1.2v-0.9c-0.5,0.7-1.2,1.1-2.3,1.1C161.6,175.8,160.5,175.1,160.5,173.6z
				 M165.2,173.1v-0.9h-1c-1.5,0-2.5,0.4-2.5,1.4c0,0.8,0.4,1.2,1.4,1.2C164.3,174.9,165.2,174.2,165.2,173.1z"/>
			<path class="st2" d="M171.1,168.3c1.4,0,2.6,0.4,2.6,1.9v0c0,0.7-0.4,1.4-1.2,1.6c0.9,0.2,1.5,0.7,1.5,1.7v0c0,1.5-1,2.2-2.6,2.2
				h-2.9v-7.3H171.1z M169.7,171.4h1.4c1,0,1.4-0.3,1.4-1.1v0c0-0.8-0.5-1-1.4-1h-1.4V171.4z M169.7,174.7h1.6c1,0,1.5-0.3,1.5-1.2
				v0c0-0.8-0.5-1.2-1.5-1.2h-1.6V174.7z"/>
			<path class="st2" d="M175.9,168.3h1.2v5.6l3.7-5.6h1.2v7.3h-1.2V170l-3.7,5.6h-1.2V168.3z"/>
			<path class="st2" d="M187,169.3v6.3h-1.2v-6.3h-2.4v-1h5.9v1H187z"/>
			<path class="st2" d="M190.8,170.7c0-0.5,0.4-0.9,0.9-0.9s0.9,0.4,0.9,0.9c0,0.5-0.4,0.9-0.9,0.9S190.8,171.2,190.8,170.7z
				 M190.8,174.8c0-0.5,0.4-0.9,0.9-0.9s0.9,0.4,0.9,0.9c0,0.5-0.4,0.9-0.9,0.9S190.8,175.3,190.8,174.8z"/>
		</g>
	</g>
	<g>
		<g>
			<path d="M50.7,88c-1.4-1.3-2.1-3.1-2.2-5.1h5.6c0.1,0.8,0.3,1.3,0.7,1.8c0.4,0.4,1.1,0.7,2,0.7c1.8,0,2.6-1.3,2.6-3
				c0-1.9-1-3.1-2.9-3.1c-1.8,0-2.8,0.7-3.5,1.5h-3.7l0.5-12.6h14.5v4.5h-10l-0.1,4.7c0.8-1.2,2.3-2.3,5-2.3c2,0,3.6,0.7,4.7,1.9
				c1.1,1.2,1.8,3.1,1.8,5.4c0,2.3-0.8,4.2-2.3,5.5c-1.5,1.3-3.7,2.1-6.4,2.1C54.1,90,52,89.3,50.7,88z"/>
			<path d="M70.5,87.2c-1.7-1.8-2.6-4.5-2.6-7.8v-0.9c0-3.4,1-6,2.8-7.8s4.2-2.8,7.1-2.8c2.8,0,5.3,0.9,7.1,2.6
				c1.8,1.8,2.8,4.4,2.8,7.9v0.8c0,3.4-1,6.1-2.7,7.9C83.1,89,80.6,90,77.6,90C74.6,90,72.1,89.1,70.5,87.2z M81.5,79.3v-0.9
				c0-4-1.1-5.9-3.8-5.9c-2.6,0-3.8,1.9-3.8,5.9v0.9c0,4,1.2,5.9,3.8,5.9S81.5,83.3,81.5,79.3z"/>
			<path d="M98.6,87.2c-1.7-1.8-2.6-4.5-2.6-7.8v-0.9c0-3.4,1-6,2.8-7.8s4.2-2.8,7.1-2.8c2.8,0,5.3,0.9,7.1,2.6
				c1.8,1.8,2.8,4.4,2.8,7.9v0.8c0,3.4-1,6.1-2.7,7.9c-1.8,1.8-4.3,2.8-7.3,2.8C102.7,90,100.2,89.1,98.6,87.2z M109.6,79.3v-0.9
				c0-4-1.1-5.9-3.8-5.9c-2.6,0-3.8,1.9-3.8,5.9v0.9c0,4,1.2,5.9,3.8,5.9S109.6,83.3,109.6,79.3z"/>
			<path d="M120.8,87.2c-1.7-1.8-2.6-4.5-2.6-7.8v-0.9c0-3.4,1-6,2.8-7.8c1.8-1.8,4.2-2.8,7.1-2.8c2.8,0,5.3,0.9,7.1,2.6
				c1.8,1.8,2.8,4.4,2.8,7.9v0.8c0,3.4-1,6.1-2.7,7.9c-1.8,1.8-4.3,2.8-7.3,2.8C124.9,90,122.4,89.1,120.8,87.2z M131.8,79.3v-0.9
				c0-4-1.1-5.9-3.8-5.9c-2.6,0-3.8,1.9-3.8,5.9v0.9c0,4,1.2,5.9,3.8,5.9C130.7,85.3,131.8,83.3,131.8,79.3z"/>
			<path d="M143,87.2c-1.7-1.8-2.6-4.5-2.6-7.8v-0.9c0-3.4,1-6,2.8-7.8s4.2-2.8,7.1-2.8c2.8,0,5.3,0.9,7.1,2.6
				c1.8,1.8,2.8,4.4,2.8,7.9v0.8c0,3.4-1,6.1-2.7,7.9c-1.8,1.8-4.3,2.8-7.3,2.8C147.1,90,144.6,89.1,143,87.2z M154,79.3v-0.9
				c0-4-1.1-5.9-3.8-5.9c-2.6,0-3.8,1.9-3.8,5.9v0.9c0,4,1.2,5.9,3.8,5.9S154,83.3,154,79.3z"/>
			<path d="M174.3,74v2.3c0.9-1.5,2.5-2.8,4.9-2.8c1.8,0,3.5,0.7,4.7,2c1.2,1.4,1.9,3.4,1.9,6.1v0.2c0,2.7-0.8,4.7-1.9,6.1
				c-1.2,1.4-2.9,2-4.7,2c-2.4,0-4-1.1-4.9-2.7v7.6h-5.4V74H174.3z M180.4,81.9v-0.2c0-2.8-1.2-4.1-3.1-4.1c-2,0-3.1,1.4-3.1,4v0.2
				c0,2.7,1.2,4,3.1,4C179.3,85.9,180.4,84.5,180.4,81.9z"/>
			<path d="M186.3,74h5.8l3.2,8.4l3-8.4h5.1l-8.4,20.9h-5.1l2.6-6.8L186.3,74z"/>
			<path d="M204.3,79.9V79c0-8.2,3.8-11.5,9.6-11.8l1.5-0.1c2.4-0.1,3.8-0.3,4.4-0.5v4c-0.7,0.4-1.8,0.7-4.6,0.9l-1.3,0.1
				c-3.5,0.1-5.1,2.1-5.6,5.3h0.2c1-1.6,2.5-2.8,5.6-2.8c4.3,0,7.3,3.4,7.3,7.8v0.2c0,4.9-3.7,7.9-8.6,7.9
				C207.6,90,204.3,87.2,204.3,79.9z M216,82.2V82c0-2.4-1.1-3.8-3.1-3.8c-2,0-3.1,1.4-3.1,3.8v0.2c0,2.5,1,3.9,3.1,3.9
				C215,86,216,84.6,216,82.2z"/>
		</g>
	</g>
	<g>
		<linearGradient id="SVGID_1_" gradientUnits="userSpaceOnUse" x1="84.2148" y1="198.3333" x2="84.2148" y2="246.3623">
			<stop  offset="0" style="stop-color:#9787FF"/>
			<stop  offset="1" style="stop-color:#7E6AFB"/>
		</linearGradient>
		<path class="st3" d="M81.6,227.4c5-5.3,8.3-9.6,8.3-13.8c0-3.4-1.8-5.6-5.3-5.6s-5.8,2.2-6.4,8.1h-13c0.5-12.5,8.1-18.9,20.2-18.9
			c6.2,0,10.9,1.7,14,4.5c3.1,2.8,4.8,6.8,4.8,11.3c0,3.4-1,6.4-2.6,9.2c-1.7,2.9-4.1,5.5-6.9,8.2l-7,6.8h16.8V248H64.1v-2
			L81.6,227.4z"/>
		<linearGradient id="SVGID_2_" gradientUnits="userSpaceOnUse" x1="128.9438" y1="198.3333" x2="128.9438" y2="246.3623">
			<stop  offset="0" style="stop-color:#9787FF"/>
			<stop  offset="1" style="stop-color:#7E6AFB"/>
		</linearGradient>
		<path class="st4" d="M114,244c-3.3-3-4.8-7.1-5-11.8h13c0.3,1.8,0.7,3.2,1.8,4.2c0.9,1,2.5,1.6,4.8,1.6c4.2,0,6-3.1,6-7.1
			c0-4.5-2.4-7.1-6.8-7.1c-4.1,0-6.6,1.6-8.3,3.6h-8.5l1-29.5h33.7v10.5h-23.4l-0.3,11.1c1.9-2.7,5.5-5.3,11.7-5.3
			c4.5,0,8.3,1.5,11.1,4.4c2.6,2.9,4.1,7.2,4.1,12.6c0,5.3-2,9.7-5.4,12.8c-3.6,3.1-8.5,4.8-14.9,4.8C122,248.8,117.1,247.1,114,244
			z"/>
		<linearGradient id="SVGID_3_" gradientUnits="userSpaceOnUse" x1="178.7148" y1="198.3333" x2="178.7148" y2="246.3623">
			<stop  offset="0" style="stop-color:#9787FF"/>
			<stop  offset="1" style="stop-color:#7E6AFB"/>
		</linearGradient>
		<path class="st5" d="M155.1,218.8c-2.3-2.2-3.6-5.4-3.6-9c0-3.6,1.4-6.7,3.8-8.9c2.3-2.2,5.6-3.6,9.5-3.6c3.7,0,7,1.3,9.5,3.4
			c2.3,2.2,3.8,5.3,3.8,8.8c0,3.6-1.3,6.9-3.6,9.2c-2.3,2.3-5.7,3.7-9.7,3.7C160.6,222.5,157.3,221.1,155.1,218.8z M199.6,197.9
			L164.9,248H158l34.7-50.1H199.6z M168.8,209.8c0-3.3-1.4-5.3-4-5.3c-2.6,0-4.1,2-4.1,5.3c0,3.6,1.5,5.5,4.1,5.5
			C167.4,215.2,168.8,213.1,168.8,209.8z M182.9,245.2c-2.3-2.2-3.6-5.4-3.6-9c0-3.6,1.4-6.7,3.9-8.9c2.3-2.2,5.6-3.6,9.5-3.6
			c3.7,0,7.1,1.3,9.5,3.4c2.3,2.2,3.8,5.2,3.8,8.8s-1.3,6.9-3.6,9.2c-2.3,2.3-5.7,3.7-9.7,3.7C188.5,248.8,185.2,247.4,182.9,245.2z
			 M196.7,236.1c0-3.3-1.3-5.3-4.1-5.3c-2.5,0-4.1,2-4.1,5.3c0,3.6,1.5,5.4,4.1,5.4C195.4,241.5,196.7,239.4,196.7,236.1z"/>
	</g>
</g>
</svg>
