<?xml version="1.0" encoding="utf-8"?>
<!-- Generator: Adobe Illustrator 22.0.1, SVG Export Plug-In . SVG Version: 6.00 Build 0)  -->
<svg version="1.1" id="Layer_1" xmlns="http://www.w3.org/2000/svg" xmlns:xlink="http://www.w3.org/1999/xlink" x="0px" y="0px"
	 viewBox="0 0 240 317" style="enable-background:new 0 0 240 317;" xml:space="preserve">
<style type="text/css">
	.st0{fill:#FFFFFF;}
</style>
<g>
	<path class="st0" d="M240,120C240,52.3,183.6-2.6,115.3,0.1C52.1,2.5,1.3,54.3,0,117.5c-1.3,62.9,46.2,115.3,107.1,121.8v64.8
		c0,7.1,5.8,12.9,12.9,12.9s12.9-5.8,12.9-12.9v-64.8C193,232.9,240,181.8,240,120z M120,216c-54.2,0-98-45.1-95.9-99.8
		C26,66.4,66.4,26,116.2,24.1C170.9,22,216,65.8,216,120C216,172.9,172.9,216,120,216z"/>
	<path class="st0" d="M120.1,47.8h-0.2c-7.1,0-12.8,5.7-12.8,12.8c0,7.1,5.7,12.8,12.8,12.8h0.2c7.1,0,12.8-5.7,12.8-12.8
		C132.9,53.6,127.1,47.8,120.1,47.8z"/>
	<path class="st0" d="M120,87.4c-7.1,0-12.9,5.8-12.9,12.9v74.9c0,7.1,5.8,12.9,12.9,12.9s12.9-5.8,12.9-12.9v-74.9
		C132.9,93.2,127.1,87.4,120,87.4z"/>
</g>
</svg>
